<?xml version="1.0" standalone="no"?>
<!DOCTYPE svg PUBLIC "-//W3C//DTD SVG 20010904//EN"
 "http://www.w3.org/TR/2001/REC-SVG-20010904/DTD/svg10.dtd">
<svg version="1.0" xmlns="http://www.w3.org/2000/svg"
 width="1024.000000pt" height="1024.000000pt" viewBox="0 0 1024.000000 1024.000000"
 preserveAspectRatio="xMidYMid meet">

<g transform="translate(0.000000,1024.000000) scale(0.100000,-0.100000)"
fill="#000000" stroke="none">
<path d="M6424 10076 c-108 -35 -172 -74 -255 -156 -74 -74 -149 -195 -149
-241 0 -24 3 -24 -61 5 -216 99 -491 4 -587 -201 -24 -52 -27 -70 -27 -163 0
-96 3 -110 29 -159 58 -112 182 -202 314 -230 72 -15 226 -14 287 3 28 7 69
23 93 35 l43 22 44 -40 c118 -109 312 -154 504 -117 99 18 212 69 269 120 21
20 42 36 45 36 2 0 30 -15 61 -34 139 -84 340 -89 502 -12 86 41 136 84 185
158 178 275 -21 648 -345 648 -55 0 -133 -15 -177 -34 -12 -5 -18 2 -27 32
-30 99 -139 221 -251 281 -139 74 -352 94 -497 47z m298 -30 c92 -17 205 -69
270 -126 64 -55 124 -148 139 -216 7 -30 16 -57 21 -60 4 -3 34 7 66 23 50 24
68 28 152 28 87 0 101 -3 162 -33 79 -39 130 -92 170 -179 118 -251 -63 -519
-364 -540 -118 -9 -277 32 -317 81 -33 40 -48 39 -100 -8 -103 -91 -212 -134
-361 -143 -161 -9 -304 40 -390 133 -22 24 -44 44 -48 44 -5 0 -33 -13 -63
-29 -76 -41 -128 -53 -234 -52 -102 1 -172 18 -258 63 -194 103 -241 348 -97
511 120 137 355 170 512 71 58 -37 78 -29 78 30 0 40 66 160 121 220 89 97
209 164 332 185 76 13 123 12 209 -3z"/>
<path d="M1250 9825 c-186 -52 -325 -197 -345 -360 -6 -47 -10 -55 -24 -50
-82 34 -189 31 -272 -7 -63 -29 -130 -95 -162 -158 -33 -67 -31 -186 5 -255
35 -67 100 -128 173 -162 54 -25 71 -28 165 -28 90 0 114 4 166 26 61 25 61
25 85 6 47 -37 139 -77 209 -89 118 -20 247 13 347 89 l32 25 28 -20 c77 -54
238 -76 357 -48 143 34 240 110 299 234 29 61 32 76 32 162 0 82 -4 103 -27
152 -34 72 -102 146 -170 183 -71 39 -203 47 -290 18 l-57 -19 -21 58 c-39
108 -123 189 -237 230 -77 27 -218 33 -293 13z m235 -49 c64 -17 125 -48 169
-87 40 -35 93 -135 103 -191 3 -21 9 -41 14 -44 4 -2 32 8 61 23 48 25 63 28
153 28 91 0 104 -2 147 -27 177 -105 221 -336 95 -500 -127 -163 -408 -195
-588 -67 -12 9 -26 3 -70 -30 -103 -78 -225 -106 -338 -77 -68 17 -169 69
-178 91 -9 24 -32 24 -75 0 -56 -31 -154 -49 -226 -42 -239 22 -364 269 -219
433 22 25 63 57 91 72 70 37 189 38 254 4 24 -13 50 -21 57 -18 8 3 14 30 16
78 9 168 126 302 309 354 60 16 163 17 225 0z"/>
<path d="M3360 9323 c-260 -28 -518 -147 -794 -367 -406 -324 -743 -710 -1131
-1296 -234 -353 -315 -504 -315 -589 0 -134 170 -333 356 -417 33 -15 60 -28
61 -28 1 -1 7 -53 13 -116 18 -199 75 -388 157 -523 47 -77 159 -196 240 -253
144 -103 295 -153 692 -230 22 -5 20 -9 -36 -67 -222 -234 -431 -569 -604
-967 l-20 -45 -69 -2 c-39 -1 -70 0 -70 3 0 3 14 25 30 50 44 62 106 197 131
279 27 89 37 306 19 397 -29 148 -92 243 -197 294 -58 29 -138 37 -195 21
l-26 -7 20 57 c67 191 63 413 -10 518 -64 92 -183 147 -277 127 -27 -5 -57
-13 -65 -16 -12 -5 -20 9 -34 66 -43 168 -177 372 -284 436 -41 23 -58 27
-127 27 -70 0 -87 -4 -134 -30 -154 -85 -281 -331 -298 -573 -6 -88 -7 -92
-27 -85 -12 5 -52 8 -91 7 -86 0 -143 -26 -221 -96 -48 -44 -54 -54 -54 -90
l0 -39 57 61 c75 82 127 111 208 118 57 4 69 2 110 -23 26 -15 49 -25 51 -22
3 2 6 51 9 108 4 116 22 209 62 308 51 129 140 243 223 286 50 26 132 31 184
11 54 -21 139 -108 190 -195 42 -73 102 -219 116 -289 7 -28 15 -54 20 -57 5
-3 24 4 43 15 19 11 57 23 84 26 103 13 216 -70 249 -183 35 -118 13 -315 -50
-458 -28 -62 -32 -85 -16 -85 6 0 39 9 73 21 131 44 259 -14 325 -147 77 -153
62 -424 -33 -630 -25 -54 -107 -195 -129 -221 -1 -1 -49 -9 -107 -18 -163 -24
-501 -83 -644 -113 l-130 -27 0 76 0 77 55 27 c134 66 271 193 374 348 55 83
65 117 33 117 -7 0 -34 -33 -60 -72 -90 -144 -212 -264 -340 -337 -30 -17 -57
-31 -61 -31 -3 0 -6 111 -6 248 l0 247 43 27 c136 86 355 408 278 408 -6 0
-22 -21 -37 -47 -81 -141 -176 -258 -251 -311 l-33 -23 -1 108 c-1 187 -10
466 -15 474 -2 5 -11 6 -19 2 -13 -4 -15 -55 -15 -340 l0 -334 -32 18 c-53 29
-200 182 -251 261 -48 73 -63 84 -74 57 -15 -40 202 -298 308 -366 l47 -30 7
-142 c3 -78 5 -200 3 -270 l-3 -128 -60 39 c-128 82 -246 207 -301 315 -26 49
-33 54 -52 35 -9 -9 -4 -25 20 -70 64 -121 227 -283 343 -342 30 -15 55 -33
55 -39 0 -7 -65 -28 -155 -50 -183 -44 -438 -121 -585 -175 -94 -35 -105 -41
-108 -65 -2 -15 -2 -27 1 -27 2 0 55 18 118 41 303 109 593 185 1079 283 189
38 750 121 756 112 0 0 -71 -170 -158 -376 -87 -206 -171 -406 -187 -445 -16
-38 -88 -214 -161 -390 -73 -176 -135 -339 -137 -362 -5 -41 -3 -45 58 -109
72 -75 149 -131 227 -164 45 -20 55 -21 66 -9 17 19 46 94 46 120 0 16 4 19
18 14 9 -4 44 -17 77 -29 33 -11 61 -22 63 -22 2 -1 -11 -50 -28 -109 -17 -59
-34 -128 -37 -154 -5 -43 -3 -50 20 -68 l26 -20 -127 -7 c-330 -18 -615 -44
-821 -77 -68 -11 -127 -17 -130 -13 -3 3 -6 49 -6 102 l0 96 48 12 c124 32
249 128 306 233 35 67 48 141 32 184 -9 22 -17 27 -46 27 -104 0 -212 -91
-302 -254 l-34 -61 5 205 c8 271 10 283 52 303 43 21 66 58 68 105 l1 38 35
-24 c69 -47 185 -13 210 63 14 44 -1 103 -35 135 l-24 23 32 16 c40 20 71 80
62 120 -15 68 -82 115 -147 104 l-35 -5 -5 50 c-6 62 -37 107 -84 122 -72 24
-145 -11 -165 -80 -12 -39 -12 -39 -40 -25 -36 19 -92 19 -129 0 -65 -34 -81
-131 -31 -188 l30 -33 -33 -12 c-75 -28 -112 -104 -83 -175 22 -52 69 -79 135
-75 l52 3 0 -35 c0 -49 38 -112 78 -129 21 -10 31 -20 27 -30 -6 -22 -25 -330
-25 -421 l0 -75 -29 82 c-15 45 -40 102 -54 126 -73 123 -202 218 -301 221
l-51 1 1 -75 c0 -64 5 -85 33 -142 61 -124 199 -247 340 -304 l56 -23 3 -110
c3 -125 15 -111 -114 -135 -100 -18 -264 -63 -456 -123 -144 -45 -148 -47
-148 -74 l0 -28 117 40 c65 22 206 62 313 89 389 98 712 143 1245 173 l220 13
140 -67 c209 -100 466 -194 675 -247 75 -19 75 -20 82 -58 10 -58 28 -392 28
-526 0 -105 -3 -127 -31 -210 -57 -170 -43 -266 54 -355 54 -50 93 -70 212
-113 164 -58 285 -81 455 -87 137 -5 166 -3 240 16 46 12 101 32 122 46 43 29
78 79 78 113 0 26 10 27 48 8 86 -44 337 -99 512 -111 113 -9 258 7 334 36
128 47 170 166 101 285 -36 61 -140 152 -241 211 -49 29 -109 64 -133 78 l-44
26 6 72 c3 40 11 117 16 172 6 55 15 151 20 213 5 62 11 116 14 118 2 3 80 20
173 39 241 49 435 110 574 180 27 14 66 25 87 25 20 0 126 -16 234 -35 414
-74 823 -176 1187 -296 l152 -51 0 -43 0 -44 -37 17 c-26 11 -68 16 -133 16
-83 1 -102 -2 -153 -26 -124 -58 -217 -185 -236 -324 -10 -70 -2 -175 19 -228
5 -14 8 -26 7 -26 -1 -1 -27 -3 -57 -6 -114 -9 -235 -97 -292 -212 -19 -39
-23 -63 -23 -142 0 -82 4 -103 27 -152 35 -76 96 -140 166 -174 31 -16 59 -30
61 -31 2 -2 -7 -11 -20 -22 -49 -38 -109 -184 -109 -263 0 -23 4 -28 24 -28
21 0 24 5 29 55 7 74 52 168 98 210 22 19 44 35 50 35 6 0 9 10 7 21 -2 16
-15 25 -43 34 -147 44 -245 165 -245 306 0 89 23 149 81 213 64 70 129 99 229
101 88 2 86 -2 50 125 -53 186 25 375 186 454 106 52 249 43 324 -20 17 -15
34 -23 38 -19 4 3 7 50 7 103 0 86 3 104 28 153 34 70 109 142 185 177 85 40
201 43 276 9 71 -33 83 -54 57 -104 -47 -94 -50 -213 -6 -288 24 -41 74 -85
97 -85 7 0 19 -9 25 -19 24 -38 112 -45 168 -14 12 7 25 6 44 -3 58 -28 129
19 211 140 26 40 65 87 86 105 52 46 130 81 183 81 l43 0 -8 -37 c-16 -68 -10
-204 9 -241 21 -38 71 -72 108 -72 14 0 34 -9 44 -20 29 -32 86 -45 140 -31
34 9 55 9 83 0 28 -8 49 -8 80 0 66 18 109 64 161 171 54 114 114 178 204 220
74 35 172 51 244 40 56 -9 136 -41 147 -59 4 -6 15 -11 25 -11 15 0 18 9 17
64 -1 58 2 68 38 119 112 163 313 182 464 44 l42 -40 0 36 c0 41 -31 72 -114
114 -39 20 -70 27 -133 31 -75 4 -87 2 -145 -26 -69 -33 -135 -91 -160 -141
l-15 -32 -28 48 c-36 61 -108 165 -156 224 l-38 45 97 44 c53 25 129 66 169
92 72 49 173 149 173 172 0 7 -18 27 -40 44 -60 49 -160 143 -160 151 0 5 19
14 43 21 56 16 136 57 165 83 31 29 28 76 -12 175 -61 146 -161 307 -249 399
-36 38 -41 48 -39 85 1 24 7 129 12 234 10 202 1 474 -21 574 -23 108 -67 160
-136 160 -16 0 -57 -17 -92 -38 -63 -36 -230 -177 -267 -225 -11 -13 -51 -58
-90 -100 l-71 -77 -94 44 c-52 24 -118 49 -147 56 -63 15 -220 18 -314 7 -62
-7 -68 -6 -68 11 0 35 -60 197 -112 301 -60 123 -128 201 -172 201 -37 0 -77
-42 -139 -148 -130 -220 -247 -553 -247 -702 0 -54 -5 -72 -26 -104 -15 -21
-53 -96 -86 -165 -88 -187 -159 -277 -269 -341 -92 -54 -95 -59 -69 -112 12
-24 38 -60 58 -80 20 -21 34 -39 31 -41 -2 -2 -25 -18 -52 -36 -26 -18 -47
-37 -47 -44 0 -27 85 -165 128 -210 25 -26 75 -62 109 -80 53 -27 63 -36 63
-59 0 -79 68 -216 121 -243 16 -9 29 -25 32 -43 9 -46 68 -114 122 -142 l51
-27 -47 -28 c-26 -15 -61 -41 -78 -57 l-32 -30 -22 20 c-12 12 -48 33 -81 48
-54 24 -66 26 -151 22 -77 -4 -104 -11 -159 -36 -83 -39 -173 -126 -206 -199
-13 -29 -24 -53 -26 -53 -1 0 -21 7 -45 16 -24 9 -104 35 -177 59 l-133 42 57
37 c89 59 230 202 293 296 169 253 213 544 125 818 -33 101 -92 214 -179 343
-155 229 -204 335 -226 491 -15 111 3 209 63 328 36 72 59 102 158 200 114
114 132 128 434 325 75 49 148 107 197 158 l79 80 73 -7 c135 -13 772 -97 837
-112 36 -7 126 -27 200 -44 74 -17 189 -42 255 -56 440 -94 1000 -282 1183
-397 l42 -27 0 29 c0 26 -8 34 -63 65 -160 90 -417 186 -711 267 -99 27 -182
51 -184 54 -3 3 0 34 6 70 20 120 74 200 167 245 65 32 170 25 238 -14 55 -33
77 -29 77 14 0 37 39 116 72 147 12 12 50 34 83 50 52 24 72 28 145 27 51 -1
102 -8 128 -17 l42 -16 0 29 c0 26 -4 29 -54 41 -84 18 -220 8 -286 -22 -70
-33 -134 -97 -156 -157 -10 -26 -18 -48 -20 -50 -1 -2 -29 6 -63 18 -123 41
-224 19 -311 -68 -64 -64 -96 -135 -107 -233 -5 -55 -8 -59 -27 -53 -12 4 -50
15 -86 24 l-65 16 0 218 0 218 75 22 c97 28 165 66 229 127 98 94 161 225 161
336 l0 58 118 0 c107 0 122 2 172 27 152 75 240 219 240 394 0 168 -86 307
-226 365 l-52 22 65 60 c233 218 245 586 26 787 -79 72 -131 94 -234 98 l-86
4 41 80 c41 80 41 81 41 192 0 104 -2 115 -31 177 -41 87 -89 138 -166 179
-53 29 -76 35 -145 38 -97 5 -163 -14 -224 -66 l-38 -33 -7 28 c-26 121 -68
199 -149 278 -98 98 -240 154 -386 155 -74 0 -199 -32 -277 -72 -139 -70 -262
-224 -298 -373 -9 -38 -18 -76 -20 -83 -3 -9 -13 -8 -41 6 -21 11 -68 29 -105
41 -45 15 -76 32 -90 50 -72 89 -266 296 -292 312 -28 17 -53 19 -233 19 -111
0 -213 -4 -226 -9 -23 -9 -224 -242 -402 -466 -43 -55 -136 -168 -205 -251
-69 -83 -172 -209 -230 -279 -58 -70 -169 -205 -248 -299 -78 -94 -150 -187
-160 -206 -11 -23 -17 -58 -17 -101 0 -55 4 -72 28 -107 42 -65 99 -96 174
-97 l63 0 0 -431 0 -431 -82 0 c-67 1 -91 -3 -124 -20 -80 -42 -144 -140 -144
-220 0 -16 -9 -19 -77 -18 -61 0 -87 -5 -118 -22 -82 -43 -125 -114 -125 -203
0 -49 0 -50 -31 -50 -106 0 -199 -124 -187 -250 8 -79 -19 -66 -67 31 -80 162
-253 409 -349 497 -26 24 -46 45 -44 46 2 2 43 13 93 25 381 94 593 222 753
454 80 115 142 267 172 417 29 147 29 448 0 610 -73 419 -359 1019 -690 1450
-105 137 -373 400 -510 502 -346 258 -683 367 -1020 331z m338 -63 c209 -34
498 -180 737 -373 103 -83 332 -318 416 -427 236 -304 475 -746 593 -1095 184
-544 145 -1037 -110 -1372 -165 -216 -427 -341 -914 -434 -63 -12 -122 -28
-131 -36 -12 -10 -23 -11 -41 -4 -55 21 -137 23 -213 6 -42 -9 -78 -15 -80
-13 -2 2 32 36 76 76 78 73 79 73 181 98 134 32 249 70 320 105 39 20 73 29
106 29 155 0 374 122 487 272 63 82 119 204 147 314 19 77 22 116 22 284 1
257 -14 327 -176 840 -150 475 -247 660 -463 876 -161 163 -313 257 -528 329
-160 54 -279 69 -492 62 -258 -8 -381 -39 -610 -152 -283 -140 -500 -348 -687
-660 -74 -124 -152 -277 -192 -377 -68 -173 -155 -541 -176 -747 -14 -148 -12
-354 5 -454 28 -159 108 -339 200 -445 80 -92 218 -177 366 -225 136 -45 387
-68 411 -39 10 12 6 20 -27 48 -22 19 -37 34 -34 34 3 0 39 -11 80 -25 94 -33
251 -70 369 -89 71 -12 99 -21 128 -44 20 -16 72 -52 115 -82 79 -54 92 -69
41 -49 -49 19 -182 16 -252 -5 -61 -19 -64 -19 -93 -2 -20 12 -66 21 -137 26
-59 5 -170 14 -247 20 -77 6 -221 25 -319 41 -436 73 -661 191 -817 429 -193
293 -222 799 -73 1269 17 57 20 78 12 88 -9 12 -14 12 -24 1 -20 -21 -63 -164
-89 -293 -26 -128 -50 -359 -40 -375 12 -19 -17 -10 -89 27 -142 75 -284 249
-288 354 -3 86 216 449 546 904 139 193 148 204 332 419 231 268 533 534 775
682 286 174 569 233 877 184z m255 -531 c260 -47 500 -179 690 -379 99 -103
221 -288 282 -428 85 -194 240 -679 291 -915 36 -163 44 -399 19 -532 -44
-235 -155 -405 -337 -518 -64 -40 -212 -96 -223 -85 -2 2 17 19 43 38 116 87
231 271 272 440 31 124 38 350 16 500 -19 126 -120 570 -162 711 -3 11 3 18
17 22 13 4 20 12 17 24 -3 16 -19 19 -148 24 -212 8 -348 45 -547 148 -54 28
-127 73 -163 100 -88 66 -217 202 -265 279 -75 119 -62 119 -138 5 -80 -121
-194 -232 -338 -330 -134 -90 -219 -133 -365 -182 -140 -46 -227 -62 -384 -70
-106 -6 -115 -8 -115 -26 0 -18 8 -20 63 -23 40 -2 62 -7 62 -15 0 -7 -7 -50
-15 -97 -54 -301 -70 -660 -39 -867 39 -269 157 -544 316 -740 l58 -73 -54 0
c-94 0 -270 42 -263 63 2 6 -19 40 -46 76 -27 37 -67 99 -89 139 -39 70 -62
88 -74 57 -7 -16 68 -154 117 -216 16 -20 29 -40 29 -44 0 -11 -113 54 -179
104 -101 76 -190 207 -243 361 -92 266 -47 779 107 1231 71 208 238 511 379
687 127 159 327 318 521 415 268 133 575 173 888 116z m4660 -274 c147 -38
256 -124 318 -251 36 -72 43 -95 47 -164 3 -56 8 -80 17 -80 7 0 42 28 77 63
75 75 121 92 226 85 142 -10 251 -109 289 -262 14 -57 14 -77 4 -133 -13 -73
-46 -143 -98 -216 -29 -39 -33 -50 -22 -63 7 -8 19 -12 28 -9 9 4 42 11 74 16
148 24 292 -66 371 -231 26 -56 31 -78 34 -166 5 -111 -9 -178 -55 -268 -31
-61 -128 -164 -195 -207 -64 -41 -61 -61 10 -71 183 -27 306 -210 272 -407
-39 -222 -242 -359 -454 -306 -42 11 -71 14 -77 8 -6 -6 -5 -29 2 -61 27 -127
-65 -313 -202 -407 -43 -31 -197 -88 -211 -79 -4 3 -8 179 -8 392 l0 387 44
28 c24 15 73 56 108 91 73 73 184 229 174 245 -14 22 -34 10 -68 -42 -75 -113
-215 -257 -249 -257 -5 0 -10 87 -11 193 -3 163 -5 192 -18 192 -13 0 -15 -50
-18 -383 l-2 -383 -46 33 c-65 46 -173 162 -239 257 -57 81 -71 93 -81 67 -17
-46 202 -307 318 -381 l48 -30 0 -207 0 -208 -26 -6 c-76 -19 -275 29 -379 91
-67 40 -149 116 -171 157 -12 22 -14 120 -14 573 l0 545 43 0 c112 1 218 111
217 226 -1 59 -43 117 -282 390 -134 153 -280 322 -323 374 -44 52 -140 162
-212 244 -73 82 -131 151 -129 153 7 7 114 -38 140 -58 34 -27 56 -18 56 20 0
56 22 136 58 211 41 88 135 188 224 238 113 64 273 88 391 57z m-1215 -147
c32 -35 105 -114 161 -177 81 -91 101 -119 101 -144 0 -43 -35 -111 -76 -146
-36 -32 -117 -61 -170 -61 -37 0 -61 23 -204 193 -45 53 -85 97 -89 97 -4 0
-65 -67 -136 -150 -70 -82 -136 -152 -147 -156 -27 -8 -117 13 -163 39 -42 24
-78 78 -89 135 -5 30 3 42 101 160 59 70 135 160 171 200 l64 72 208 0 208 0
60 -62z m-3551 -346 c97 -98 220 -186 348 -247 180 -87 309 -122 493 -132 92
-5 112 -9 112 -22 0 -8 24 -114 54 -236 102 -410 110 -463 110 -690 0 -175 -3
-210 -22 -280 -102 -370 -372 -566 -897 -652 -146 -24 -440 -23 -615 1 -254
35 -404 73 -538 138 -73 36 -88 47 -124 100 -101 150 -198 406 -233 616 -32
192 -9 631 48 912 l13 64 94 13 c357 46 780 297 947 560 l46 72 48 -74 c26
-41 79 -105 116 -143z m3359 -54 c87 -101 257 -307 459 -553 188 -230 393
-464 517 -590 59 -60 108 -110 108 -111 0 -1 -520 -2 -1155 -3 -635 0 -1155 2
-1155 4 0 3 60 75 133 159 72 85 175 205 227 267 52 62 146 174 209 249 62 74
152 182 200 239 47 57 124 147 171 200 47 53 109 127 139 164 30 37 57 67 61
67 3 0 42 -42 86 -92z m712 -196 c151 -173 149 -169 134 -229 -28 -107 -107
-173 -208 -173 -36 0 -60 6 -84 23 -19 12 -102 105 -185 207 l-152 185 53 12
c108 25 174 78 211 171 l18 43 48 -53 c26 -29 100 -113 165 -186z m-1364 163
c9 -35 72 -103 117 -126 21 -10 61 -22 90 -27 l51 -7 -99 -115 c-54 -63 -127
-150 -162 -193 -61 -74 -113 -117 -142 -117 -8 0 -31 5 -51 10 -103 29 -171
165 -120 241 27 41 296 359 303 359 4 0 10 -11 13 -25z m1734 -594 c89 -103
96 -124 71 -214 -25 -91 -126 -148 -225 -127 -57 12 -84 37 -239 215 l-87 100
59 6 c32 3 77 16 101 28 50 25 106 98 123 160 l13 44 50 -59 c28 -32 88 -101
134 -153z m-2084 81 c18 -34 78 -90 113 -103 13 -5 42 -9 64 -9 l40 0 -96
-111 c-52 -61 -106 -124 -118 -141 -45 -61 -119 -75 -197 -35 -54 27 -90 89
-90 154 0 40 8 53 128 198 l127 155 7 -39 c4 -22 14 -53 22 -69z m2362 -401
c40 -47 66 -86 70 -108 19 -102 -55 -195 -166 -210 -68 -9 -105 12 -228 131
l-115 111 71 6 c118 9 196 80 209 189 l6 54 45 -49 c24 -28 73 -83 108 -124z
m-2677 81 c19 -77 91 -138 178 -151 l44 -6 -85 -102 c-102 -121 -117 -133
-174 -133 -50 0 -75 11 -120 53 -59 56 -63 135 -11 209 40 58 140 178 148 178
4 0 13 -22 20 -48z m293 -1229 c2 -439 2 -800 0 -802 -1 -3 -54 -7 -117 -9
l-115 -5 0 807 0 806 115 0 115 0 2 -797z m268 -3 l0 -800 -110 0 -110 0 0
800 0 800 110 0 110 0 0 -800z m280 643 l0 -156 -56 -58 c-65 -69 -118 -176
-133 -270 -7 -37 -11 -249 -11 -512 0 -414 -1 -448 -17 -445 -9 2 -16 6 -15
11 1 4 2 363 2 797 l0 790 115 0 115 0 0 -157z m260 47 c0 -109 0 -110 -23
-110 -29 0 -133 -35 -164 -55 -12 -8 -25 -15 -28 -15 -3 0 -5 65 -5 145 l0
145 110 0 110 0 0 -110z m290 -6 l0 -116 -27 6 c-16 3 -72 9 -125 12 l-98 7 0
104 0 103 125 0 125 0 0 -116z m270 -85 l0 -201 -59 54 c-52 49 -133 98 -161
98 -6 0 -10 47 -10 125 l0 125 115 0 115 0 0 -201z m290 -622 l0 -823 -67 7
c-38 5 -74 8 -80 8 -10 1 -13 103 -13 474 0 519 -3 550 -60 656 l-30 55 0 223
0 223 125 0 125 0 0 -823z m280 -17 c0 -666 -3 -840 -12 -840 -7 0 -58 7 -113
15 -55 8 -103 15 -107 15 -5 0 -8 371 -8 825 l0 825 120 0 120 0 0 -840z m254
834 c14 -6 16 -91 16 -861 0 -809 -1 -854 -17 -849 -10 3 -62 10 -115 17 l-98
11 0 844 0 844 99 0 c55 0 106 -3 115 -6z m-1140 -268 c41 -8 101 -27 132 -43
69 -34 169 -131 208 -203 54 -100 56 -115 56 -629 l0 -473 -212 6 c-117 3
-356 9 -531 12 l-319 6 4 462 c4 395 7 469 22 520 64 224 240 354 483 355 45
1 115 -5 157 -13z m-1361 -647 l37 -10 0 -339 0 -339 -52 -5 c-29 -3 -123 -10
-208 -16 -159 -11 -558 -57 -572 -66 -12 -8 -10 110 3 143 24 63 84 103 157
105 26 0 50 5 53 10 3 5 2 26 -4 46 -22 83 42 186 132 213 34 10 53 10 94 0
95 -22 92 -23 93 39 1 81 19 124 71 170 64 56 120 70 196 49z m-2193 -54 c60
-4 155 -2 223 5 66 6 121 10 123 7 2 -2 -29 -31 -70 -64 l-74 -60 -87 -6 c-81
-6 -90 -4 -119 17 -17 13 -62 45 -101 71 -65 44 -68 47 -35 42 19 -3 82 -9
140 -12z m864 -163 c159 -139 332 -401 466 -707 57 -130 196 -523 187 -531 -2
-2 -35 47 -73 109 -79 129 -175 232 -249 266 -27 13 -99 32 -160 42 -254 44
-396 84 -524 148 -117 59 -217 174 -287 328 -47 102 -31 112 52 33 139 -130
344 -180 524 -127 45 13 45 13 48 62 5 63 -13 144 -47 215 -25 54 -97 137
-136 158 -11 6 -17 13 -14 16 5 6 120 33 146 35 6 1 37 -21 67 -47z m-1544 -1
c124 -11 233 -22 242 -26 14 -5 4 -18 -48 -67 -49 -46 -74 -80 -104 -142 -22
-44 -43 -100 -46 -123 -6 -39 -4 -45 25 -72 52 -49 146 -74 260 -69 86 3 105
7 173 40 87 41 154 98 200 170 23 35 36 47 47 42 9 -3 24 -9 34 -11 23 -7 22
-40 -3 -137 -61 -239 -232 -371 -525 -407 l-100 -12 -93 32 c-51 18 -115 35
-143 38 -49 6 -51 5 -47 -18 3 -20 12 -25 71 -37 76 -17 88 -32 25 -32 -128
-1 -431 -109 -536 -192 -196 -155 -327 -429 -585 -1218 -54 -168 -121 -377
-147 -465 -53 -174 -60 -195 -67 -195 -26 0 -144 80 -207 140 l-79 76 101 244
c560 1364 726 1737 879 1974 142 221 372 486 422 486 14 0 127 -9 251 -19z
m1216 4 c141 -42 236 -162 262 -331 9 -53 8 -56 -14 -64 -12 -5 -56 -12 -96
-16 -130 -11 -275 38 -371 126 l-52 47 29 42 c16 22 31 41 33 41 12 0 85 -35
125 -62 48 -30 78 -32 78 -4 0 17 -95 78 -156 102 -34 13 -43 21 -47 47 -3 18
-8 39 -12 48 -13 35 133 50 221 24z m-291 -26 c40 -40 38 -114 -4 -161 -25
-28 -35 -32 -78 -32 -63 0 -97 21 -125 79 -18 38 -20 47 -9 74 22 51 66 72
144 67 36 -2 55 -10 72 -27z m-309 -14 c53 -22 44 -53 -23 -80 -77 -31 -173
-96 -173 -117 0 -24 34 -23 70 2 32 23 150 80 165 80 6 0 18 -14 27 -31 18
-30 18 -31 -11 -72 -45 -65 -116 -126 -189 -160 -85 -40 -209 -49 -296 -22
-105 33 -111 53 -56 173 54 116 169 210 296 241 49 13 143 6 190 -14z m4972
-152 c103 -61 324 -115 403 -99 l29 6 0 -215 0 -214 -27 9 c-57 17 -361 84
-458 99 l-100 17 -3 263 -2 263 56 -51 c31 -28 77 -63 102 -78z m-4635 -340
c84 -114 214 -203 364 -248 l62 -19 -16 -27 c-13 -22 -26 -29 -64 -34 -83 -12
-184 -68 -261 -145 -52 -52 -77 -70 -97 -70 -14 0 -57 -8 -94 -19 l-68 -19
-31 40 c-62 76 -180 137 -298 153 -39 5 -65 16 -92 39 l-37 31 71 17 c225 56
379 203 434 418 l18 69 36 -67 c19 -38 52 -91 73 -119z m2557 16 c0 -22 -110
-116 -209 -179 -329 -209 -407 -269 -513 -400 -68 -84 -150 -235 -183 -334
-19 -60 -45 -223 -45 -286 1 -143 73 -308 235 -536 137 -191 190 -282 217
-367 27 -90 22 -184 -15 -260 -34 -69 -122 -165 -204 -224 -68 -48 -285 -163
-309 -163 -9 0 -14 12 -14 33 0 17 -12 84 -26 149 -27 117 -27 148 0 148 40 0
129 45 171 85 36 35 45 51 45 78 0 18 -43 179 -96 358 -111 374 -208 724 -295
1059 -72 280 -122 437 -194 610 l-53 128 72 10 c294 44 645 76 996 91 291 12
420 13 420 0z m765 -10 c165 -6 302 -13 305 -16 14 -14 -159 -152 -355 -281
-184 -121 -237 -162 -320 -246 -162 -162 -224 -288 -233 -467 -8 -190 38 -314
219 -590 110 -168 139 -220 176 -317 71 -189 72 -414 3 -599 -79 -212 -212
-376 -418 -516 l-64 -43 -113 33 c-173 49 -647 152 -865 188 -133 22 -140 24
-140 41 0 8 14 20 31 26 54 19 228 107 277 140 239 161 338 347 287 540 -28
109 -70 184 -232 411 -124 175 -195 305 -213 394 -17 78 -7 258 19 348 58 204
180 384 356 525 39 30 149 105 245 165 174 110 272 188 309 248 l20 32 203 -2
c112 -2 338 -8 503 -14z m-2779 -310 c3 -5 -16 -9 -42 -9 -37 0 -44 3 -35 13
11 14 67 11 77 -4z m-1225 -50 c27 -12 49 -25 49 -29 0 -4 -18 -10 -40 -13
-62 -8 -164 -61 -212 -109 -66 -65 -98 -137 -98 -217 0 -70 24 -137 61 -177
l19 -21 -93 -16 c-114 -21 -183 -21 -279 -3 -167 32 -266 94 -318 196 l-31 61
30 43 c118 171 443 294 804 304 40 1 74 -5 108 -19z m1486 2 c34 -5 86 -22
114 -37 58 -32 149 -128 179 -190 19 -39 20 -43 4 -92 -27 -84 -135 -202 -231
-253 -21 -11 -27 -10 -49 13 l-26 26 28 48 c26 44 29 58 29 139 -1 78 -4 97
-29 143 -39 77 -97 135 -171 173 -42 22 -60 36 -52 42 13 9 107 4 204 -12z
m3310 -33 c76 -86 203 -381 203 -474 0 -39 0 -39 95 -19 191 40 417 -2 535
-101 l32 -28 61 70 c218 247 394 394 471 394 80 0 113 -184 102 -570 -3 -124
-9 -266 -12 -316 l-7 -92 62 -66 c34 -36 82 -98 107 -137 53 -81 149 -279 159
-325 5 -28 2 -34 -27 -51 -42 -25 -131 -60 -185 -73 -24 -6 -43 -16 -43 -23 0
-22 104 -140 165 -187 l58 -44 -44 -39 c-152 -133 -366 -230 -564 -255 -52 -6
-60 -10 -63 -30 -3 -19 1 -22 30 -22 18 1 62 7 98 15 36 8 74 14 86 15 37 0
254 -311 254 -365 0 -25 -1 -25 -28 -11 -54 28 -148 38 -226 25 -39 -6 -80
-15 -92 -19 -18 -7 -25 -2 -42 28 -33 59 -112 129 -184 162 -122 57 -253 51
-388 -16 -73 -37 -166 -114 -189 -158 -13 -24 -20 -26 -76 -26 l-62 0 -17 43
c-53 139 -227 238 -388 222 -51 -5 -81 -2 -117 10 -55 18 -124 73 -147 116
l-15 29 63 0 c35 0 69 4 77 9 9 6 29 4 52 -4 115 -41 253 -23 416 55 111 53
186 113 205 166 l12 33 32 -24 c35 -27 49 -31 59 -15 20 32 -77 100 -147 103
-37 2 -43 -1 -43 -18 0 -12 8 -21 20 -23 35 -7 38 -19 16 -56 -54 -87 -297
-196 -436 -196 -124 0 -231 65 -242 147 -9 70 1 89 67 124 127 68 171 130 136
196 -20 40 -97 73 -186 80 l-69 6 117 74 c179 114 219 162 229 273 9 98 -32
175 -112 211 -83 38 -167 19 -228 -51 -62 -73 -86 -195 -53 -274 17 -41 73
-87 123 -101 l37 -10 -156 -92 c-86 -51 -164 -103 -172 -115 -11 -15 -16 -44
-16 -86 l0 -64 -37 23 c-80 48 -119 90 -177 191 l-27 47 60 41 c34 22 61 47
61 55 0 7 -16 23 -35 35 -38 24 -85 85 -85 110 0 9 15 22 36 29 85 31 237 210
291 343 42 104 69 152 127 223 31 37 56 72 56 77 0 15 -30 21 -45 8 -13 -10
-15 -8 -15 13 0 99 81 340 190 562 73 151 130 235 159 235 10 0 27 -10 38 -22z
m-3509 -26 c77 -40 135 -91 169 -150 39 -66 44 -179 11 -242 -22 -40 -37 -52
-133 -103 -121 -64 -167 -72 -173 -29 -5 37 17 80 61 117 34 29 38 37 27 50
-7 8 -16 15 -21 15 -19 0 -89 -74 -109 -116 -19 -38 -26 -44 -54 -44 -43 0
-56 16 -56 66 0 45 26 92 87 156 34 34 40 68 13 68 -36 0 -150 -157 -150 -207
0 -8 -11 -13 -29 -13 -80 0 -79 126 2 245 23 34 25 41 12 54 -12 12 -17 12
-30 1 -21 -18 -80 -135 -90 -177 -3 -18 -13 -33 -20 -33 -24 0 -72 49 -78 79
-13 65 48 166 137 225 93 61 145 76 261 73 90 -3 106 -6 163 -35z m-1055 -37
c32 -8 76 -24 98 -36 137 -69 222 -240 157 -313 -38 -42 -59 -38 -73 14 -27
104 -105 200 -130 160 -3 -5 10 -32 30 -61 35 -51 65 -132 65 -176 0 -26 -41
-73 -63 -73 -9 0 -19 19 -27 48 -18 74 -102 192 -136 192 -32 0 -25 -31 16
-76 79 -86 102 -175 54 -213 -43 -34 -58 -27 -92 42 -33 67 -103 144 -121 133
-21 -13 -11 -38 34 -88 25 -27 50 -67 56 -89 11 -34 10 -42 -6 -59 -10 -11
-23 -20 -29 -20 -7 0 -38 27 -71 60 -33 33 -67 60 -75 60 -24 0 -102 52 -132
88 -14 17 -31 54 -37 82 -47 217 217 394 482 325z m449 -200 c-3 -36 -8 -55
-17 -55 -7 0 -32 -3 -57 -6 l-44 -6 -13 42 c-7 23 -10 45 -6 48 9 10 85 30
115 31 24 1 25 -1 22 -54z m1207 -112 c74 -135 93 -188 182 -508 45 -159 106
-373 136 -475 91 -309 133 -464 133 -491 0 -14 -8 -33 -17 -42 -28 -24 -145
-77 -173 -77 -23 0 -26 6 -43 83 -50 227 -209 758 -336 1121 l-91 259 45 48
c55 59 105 136 105 163 0 25 -1 26 59 -81z m-2738 -128 c31 -23 70 -47 87 -54
l30 -13 -73 -106 c-186 -273 -390 -695 -529 -1093 l-48 -137 -36 10 c-21 6
-54 20 -75 31 -34 19 -38 25 -33 52 9 46 245 771 301 920 70 192 110 286 182
429 l64 128 37 -62 c25 -43 55 -77 93 -105z m1598 108 c19 -13 42 -23 51 -23
10 0 27 -16 39 -35 22 -37 54 -55 99 -55 19 0 36 -11 55 -36 26 -32 33 -35 72
-33 34 2 49 -3 76 -25 28 -24 39 -27 74 -23 22 3 49 9 61 12 17 5 29 -5 68
-56 69 -91 122 -184 151 -264 14 -38 25 -71 25 -72 0 -1 -26 9 -58 22 -62 25
-249 77 -342 95 -138 27 -297 40 -490 40 -303 0 -537 -25 -682 -74 -38 -12
-68 -20 -68 -16 0 7 95 174 116 205 11 15 23 18 57 16 35 -2 50 3 74 23 17 14
41 26 54 26 30 0 84 33 98 58 6 12 21 19 41 20 41 1 75 24 91 60 9 21 28 36
61 50 32 14 54 31 68 55 18 31 29 37 78 48 31 6 62 12 67 14 11 3 16 0 64 -32z
m811 -287 c62 -99 103 -213 134 -368 28 -141 25 -157 -39 -188 -23 -11 -44
-20 -47 -20 -3 0 -8 35 -12 78 -17 203 -98 405 -227 561 l-28 35 47 27 47 27
38 -36 c21 -21 61 -72 87 -116z m173 -121 c175 -494 298 -924 402 -1404 l38
-174 -29 -24 c-42 -35 -194 -107 -310 -146 -447 -154 -1235 -221 -1849 -156
-417 44 -880 176 -1229 351 -87 44 -186 107 -186 118 0 19 116 387 162 514 56
155 188 468 249 587 63 125 187 337 262 447 68 98 73 103 100 98 16 -3 37 -6
46 -6 43 -1 43 -14 0 -121 -108 -271 -264 -808 -241 -831 25 -25 39 5 80 170
46 187 126 434 203 633 l50 129 67 0 c59 1 142 12 251 36 l35 7 -23 -31 c-53
-75 -190 -396 -191 -447 0 -5 -22 -22 -49 -37 -27 -15 -61 -42 -75 -61 -53
-69 -43 -196 19 -267 29 -32 33 -44 44 -145 14 -126 69 -383 107 -500 77 -236
187 -338 429 -399 172 -43 252 -50 570 -50 236 0 325 4 415 18 127 19 269 62
328 100 145 91 259 366 352 846 12 62 31 118 54 163 23 43 36 82 36 105 -1 48
-30 111 -68 148 -25 24 -33 44 -47 114 -28 141 -88 295 -153 392 -14 21 -23
40 -21 41 39 30 75 44 80 34 4 -7 45 -120 92 -252z m-1821 190 c22 -8 40 -25
47 -43 11 -27 9 -34 -22 -83 -86 -134 -139 -279 -158 -431 -7 -49 -14 -88 -18
-88 -3 1 -26 11 -51 23 l-45 22 1 85 c1 72 7 100 39 185 49 131 99 239 137
298 16 26 31 47 33 47 1 0 18 -7 37 -15z m-2267 -260 c27 -27 33 -82 15 -131
-8 -21 -8 -31 3 -42 13 -12 18 -12 38 1 13 9 40 18 60 22 30 5 41 2 67 -20 39
-32 41 -67 8 -100 -20 -20 -47 -29 -116 -38 -8 -1 -16 -10 -18 -20 -3 -12 9
-22 41 -36 83 -36 109 -100 61 -148 -22 -22 -32 -25 -71 -20 -35 4 -54 13 -83
42 -54 53 -70 44 -70 -38 0 -49 -5 -70 -20 -90 -23 -30 -63 -42 -90 -27 -43
23 -64 108 -38 150 22 35 -1 44 -65 25 -49 -14 -59 -14 -90 -1 -92 38 -65 144
41 161 89 15 95 35 27 83 -80 56 -84 117 -10 148 42 17 71 6 119 -45 40 -42
56 -27 56 49 0 51 3 61 26 79 36 28 79 27 109 -4z m3425 -58 c74 -14 164 -33
200 -42 81 -21 241 -82 257 -98 6 -7 15 -35 19 -64 l6 -51 -38 8 c-22 5 -79
23 -128 40 -111 37 -304 75 -456 89 -313 29 -767 -2 -1000 -69 -111 -31 -113
-30 -86 64 l16 54 86 27 c188 58 347 74 709 71 251 -3 294 -6 415 -29z m-25
-182 c144 -23 213 -39 364 -87 177 -56 183 -72 41 -102 -153 -33 -316 -47
-630 -53 -346 -6 -574 5 -760 37 -63 11 -146 25 -183 31 l-68 12 3 35 c3 35 3
35 98 63 112 33 236 56 415 74 172 18 582 13 720 -10z m-1444 -83 c-38 -13 33
-74 118 -102 28 -9 40 -18 37 -27 -3 -8 -11 -44 -18 -81 -6 -37 -13 -69 -14
-71 -2 -1 -37 13 -78 33 -89 43 -126 85 -133 150 -9 77 3 113 50 147 l42 31 3
-38 c2 -22 -1 -40 -7 -42z m2199 -67 c0 -75 -59 -154 -150 -200 -27 -14 -51
-25 -52 -25 -2 0 -2 38 0 84 l3 83 49 22 c53 24 96 62 106 94 7 21 7 21 25 -2
11 -13 19 -38 19 -56z m2849 45 c88 -44 114 -162 56 -256 -56 -90 -151 -115
-237 -61 l-33 21 45 6 c63 8 89 25 111 73 36 81 19 168 -41 204 -26 15 -28 19
-13 25 33 12 73 8 112 -12z m-4704 -135 c66 -14 137 -25 159 -25 37 0 38 -1
33 -27 -4 -16 -12 -57 -18 -93 -7 -36 -13 -66 -14 -68 -3 -4 -169 29 -249 50
l-79 21 5 62 c5 59 21 105 36 105 4 0 61 -11 127 -25z m1600 -113 c-5 -25 -14
-37 -38 -47 -37 -15 -206 -50 -289 -60 l-58 -7 0 90 0 91 33 5 c17 3 82 12
142 21 61 8 133 21 160 28 l50 13 3 -50 c2 -28 0 -66 -3 -84z m-898 54 c1 -1
-3 -45 -9 -99 l-12 -97 -95 0 c-89 0 -225 11 -328 26 -40 6 -43 8 -43 37 0 17
7 57 17 89 l16 59 226 -7 c124 -3 227 -7 228 -8z m463 -80 l0 -93 -42 -7 c-24
-3 -122 -9 -219 -12 l-177 -7 8 44 c4 24 11 70 15 101 l6 58 192 3 c106 1 198
3 205 5 9 1 12 -22 12 -92z m-1400 -32 c47 -17 111 -38 143 -45 54 -13 57 -15
57 -44 0 -16 5 -50 11 -74 5 -24 7 -46 4 -49 -8 -9 -183 46 -252 79 -67 32
-65 28 -77 137 -4 38 -2 43 12 36 10 -4 55 -22 102 -40z m1996 -55 c-9 -42
-23 -79 -32 -86 -30 -22 -231 -82 -363 -108 l-34 -7 6 38 c4 22 7 60 7 85 l0
47 54 6 c101 13 248 55 309 89 40 22 63 30 65 22 2 -7 -4 -45 -12 -86z m-1596
-39 c69 -10 161 -21 205 -25 141 -11 130 -3 130 -95 0 -79 0 -80 -25 -80 -61
0 -424 60 -436 72 -2 3 -9 31 -15 64 -5 32 -13 68 -16 78 -4 15 -2 18 13 12
11 -4 75 -16 144 -26z m1127 -81 c-4 -45 -8 -84 -11 -86 -19 -19 -540 -50
-661 -38 l-75 7 0 66 c0 37 4 72 8 78 5 8 95 13 272 18 146 3 306 12 355 20
50 7 96 14 104 15 11 1 13 -14 8 -80z m-1404 -68 c56 -15 157 -39 224 -51
l121 -24 6 -45 c4 -25 9 -64 12 -85 l6 -39 -53 7 c-191 25 -459 106 -484 147
-4 6 -14 38 -21 72 -8 34 -17 70 -20 79 -4 15 2 14 51 -8 31 -13 103 -37 158
-53z m-2665 26 c66 -40 111 -86 157 -162 33 -55 90 -213 81 -223 -6 -5 -91 44
-152 89 -103 75 -183 197 -192 293 l-5 49 29 -7 c16 -4 53 -21 82 -39z m4502
8 c0 -18 -34 -142 -42 -152 -7 -9 -158 -66 -158 -60 0 8 31 161 33 162 3 3
151 52 160 54 4 0 7 -1 7 -4z m-3830 -97 c0 -73 -77 -187 -166 -249 -46 -31
-144 -73 -152 -64 -9 9 76 167 121 225 29 36 64 66 103 87 77 42 94 42 94 1z
m3596 -30 c-12 -110 -5 -103 -119 -127 -99 -22 -273 -45 -387 -53 l-55 -4 3
75 c2 42 5 81 6 86 2 6 21 12 42 13 96 5 346 37 419 52 44 10 84 18 89 19 5 0
6 -27 2 -61z m2884 -118 c23 -33 68 -60 98 -60 17 0 19 -7 18 -69 -1 -63 2
-74 32 -115 17 -26 32 -48 32 -49 0 -3 -92 3 -117 8 -38 9 -81 54 -102 109
-26 70 -45 214 -36 274 l7 47 23 -58 c13 -31 33 -71 45 -87z m-3889 110 c63
-5 179 -10 259 -10 l145 0 -7 -82 c-3 -46 -7 -85 -7 -87 -3 -13 -565 18 -576
31 -1 2 -5 41 -8 87 l-7 83 44 -6 c24 -4 95 -11 157 -16z m-533 -140 l72 -21
0 -53 c0 -30 3 -67 6 -84 l6 -31 -73 21 c-41 11 -97 31 -126 43 -52 23 -52 23
-77 105 -14 44 -26 85 -26 89 0 5 33 -4 73 -20 39 -15 105 -38 145 -49z m1686
-31 c-30 -77 -32 -79 -145 -119 -60 -22 -247 -70 -272 -70 -2 0 3 36 12 80
l15 80 35 6 c79 13 231 54 301 81 41 16 77 25 78 21 2 -5 -9 -40 -24 -79z
m-1418 -23 c54 -8 137 -18 184 -21 140 -10 130 -3 130 -98 l0 -82 -47 3 c-97
6 -319 32 -355 42 -42 12 -46 19 -55 112 l-6 71 24 -6 c14 -4 70 -13 125 -21z
m965 -90 c-16 -73 -20 -81 -45 -87 -56 -15 -244 -29 -398 -29 l-158 0 0 84 0
83 253 7 c138 4 277 10 307 14 30 4 56 8 56 7 1 0 -6 -36 -15 -79z m-1319 -51
c25 -10 37 -22 41 -42 3 -15 9 -37 13 -48 10 -28 -63 41 -82 78 -17 32 -17 31
28 12z m1676 -45 c-28 -42 -125 -127 -134 -117 -1 1 5 31 15 67 l18 64 64 21
c35 12 66 20 68 19 2 -2 -12 -26 -31 -54z m-1327 -36 l106 -16 7 -71 c3 -38 5
-71 4 -72 -2 -2 -55 8 -118 21 -151 32 -216 63 -241 118 -33 73 -30 76 59 55
42 -10 125 -26 183 -35z m1169 30 c0 -17 -32 -113 -43 -128 -21 -29 -263 -76
-395 -76 l-60 0 9 38 c5 20 9 51 9 68 l0 32 73 7 c107 9 274 34 337 49 68 17
70 17 70 10z m-668 -64 l147 0 -6 -52 c-11 -102 -6 -98 -140 -97 -136 0 -320
13 -329 22 -3 3 -9 36 -12 73 l-5 67 99 -6 c54 -4 165 -7 246 -7z m4190 -228
c63 -28 134 -95 165 -155 13 -27 23 -50 21 -52 -2 -1 -25 -14 -53 -28 -59 -30
-119 -90 -168 -167 -19 -31 -53 -72 -76 -93 -65 -58 -101 -47 -101 32 0 26 9
66 20 90 25 55 26 81 1 81 -26 0 -63 -89 -70 -170 -5 -58 -9 -65 -32 -74 -72
-25 -113 28 -98 126 5 31 13 68 19 82 12 32 3 58 -19 54 -17 -3 -49 -107 -50
-165 -1 -18 -5 -33 -9 -33 -14 0 -50 43 -61 73 -16 40 -13 127 4 177 33 93
150 202 253 235 65 21 193 14 254 -13z m879 -18 c94 -28 176 -92 218 -171 10
-20 7 -25 -42 -56 -70 -45 -102 -85 -149 -184 -21 -45 -50 -96 -64 -113 -47
-55 -117 -77 -144 -45 -19 22 -8 122 19 178 27 55 23 84 -10 67 -32 -18 -61
-96 -64 -174 -3 -77 -10 -86 -71 -86 -93 0 -120 89 -63 207 16 33 19 47 10 56
-30 30 -80 -62 -84 -155 -2 -36 -6 -48 -18 -48 -27 0 -58 43 -69 97 -31 144
66 310 228 392 105 53 203 64 303 35z m-5966 -168 c83 -13 217 -30 299 -37
l148 -12 -5 -41 c-3 -23 -11 -152 -18 -288 l-13 -248 -42 0 c-60 0 -169 -36
-238 -78 l-60 -36 -65 17 c-79 21 -177 68 -174 83 5 27 -18 588 -26 630 l-9
46 27 -6 c14 -3 94 -17 176 -30z m1481 -167 c-8 -85 -21 -211 -28 -281 l-12
-128 -31 0 c-83 -1 -218 -51 -283 -105 l-31 -26 -61 15 c-33 9 -82 27 -110 41
l-50 25 0 193 c0 105 -3 236 -7 290 l-6 97 94 0 c92 0 386 23 484 38 28 4 51
5 53 1 2 -4 -4 -76 -12 -160z m-812 111 l153 0 6 -257 c4 -193 2 -279 -9 -343
-7 -47 -16 -111 -19 -142 l-6 -58 -67 53 c-37 29 -112 85 -166 123 l-99 69 7
185 c10 309 17 382 33 375 8 -3 83 -5 167 -5z m847 -590 c22 -12 19 -14 -61
-36 -131 -35 -200 -64 -239 -100 l-36 -34 41 -39 c84 -80 254 -103 371 -51 60
26 91 55 113 103 l17 38 44 -36 c86 -71 129 -139 129 -206 0 -35 -6 -48 -38
-79 -95 -95 -371 -105 -712 -24 -109 25 -230 77 -230 97 0 7 -16 37 -36 66
l-37 54 7 106 c4 58 8 107 10 108 2 2 32 -10 67 -26 35 -16 79 -32 97 -36 18
-4 32 -13 32 -21 0 -31 30 -25 72 16 79 77 199 123 304 116 33 -2 71 -9 85
-16z m-1005 -57 c26 -17 26 -17 -82 -35 -127 -21 -193 -41 -228 -69 -34 -27
-33 -43 8 -74 128 -98 368 -80 437 32 l21 33 60 -47 c152 -120 189 -230 100
-303 -124 -102 -443 -100 -762 7 -128 43 -169 63 -222 111 -77 69 -93 141 -58
253 30 95 28 93 93 64 31 -13 77 -30 102 -36 33 -8 45 -16 45 -30 0 -30 20
-33 48 -6 75 70 176 113 300 126 70 7 95 3 138 -26z m1120 -14 c42 -25 44 -55
9 -98 -63 -74 -221 -92 -339 -38 -62 28 -63 37 -13 64 37 19 263 91 291 92 10
1 34 -8 52 -20z m-1022 -96 c-15 -44 -101 -83 -183 -83 -77 0 -130 13 -163 40
l-23 19 39 16 c21 9 100 27 175 39 114 19 138 21 150 10 11 -10 13 -21 5 -41z"/>
<path d="M2750 7986 c-41 -40 -156 -112 -235 -147 -50 -23 -75 -40 -75 -51 0
-27 16 -29 68 -9 119 47 302 175 302 212 0 27 -30 24 -60 -5z"/>
<path d="M2961 7494 c-60 -22 -87 -39 -143 -93 -50 -47 -59 -68 -33 -77 10 -4
34 11 64 39 75 71 122 91 214 93 82 2 111 14 89 36 -19 19 -140 21 -191 2z"/>
<path d="M4351 7502 c-8 -6 -11 -17 -8 -25 4 -11 28 -16 90 -19 96 -5 154 -31
206 -94 19 -24 35 -35 45 -31 25 10 19 34 -21 78 -57 63 -122 92 -218 96 -44
2 -86 0 -94 -5z"/>
<path d="M4370 7161 c-163 -53 -236 -244 -160 -418 61 -143 228 -212 357 -148
133 67 188 203 147 367 -5 23 -2 29 19 37 32 12 42 28 28 45 -9 11 -19 12 -45
4 -31 -10 -35 -8 -78 35 -25 25 -61 53 -79 63 -37 19 -150 28 -189 15z m167
-62 c82 -39 143 -143 143 -242 0 -68 -16 -110 -60 -161 -46 -51 -98 -76 -162
-76 l-53 0 35 18 c114 57 133 244 35 331 -62 54 -124 62 -207 26 -54 -22 31
81 86 106 55 25 129 24 183 -2z"/>
<path d="M2950 7143 c-28 -10 -67 -39 -104 -76 l-60 -59 -33 16 c-48 23 -65
21 -61 -6 2 -19 35 -44 80 -60 3 -2 0 -28 -8 -58 -48 -178 61 -337 250 -365
98 -15 224 57 274 157 79 159 21 367 -122 440 -55 28 -156 33 -216 11z m178
-49 c114 -47 176 -196 138 -328 -30 -103 -132 -186 -230 -186 -17 0 -14 6 18
32 102 84 115 262 25 345 -55 50 -139 66 -204 39 -45 -19 -44 -9 3 36 72 71
170 96 250 62z"/>
<path d="M3813 6704 c-35 -18 -49 -42 -33 -58 7 -7 20 -5 41 8 59 35 139 -7
139 -74 0 -33 -20 -52 -82 -79 -51 -21 -57 -31 -33 -51 11 -9 25 -7 69 13 89
41 119 114 76 184 -38 63 -116 88 -177 57z"/>
<path d="M3503 6284 c-8 -22 58 -86 131 -126 59 -32 65 -33 171 -33 96 0 116
3 155 24 55 29 130 99 130 122 0 35 -23 30 -68 -14 -67 -66 -119 -87 -217 -87
-68 0 -89 4 -140 29 -33 16 -76 45 -94 65 -38 39 -58 45 -68 20z"/>
<path d="M7008 7492 c-152 -55 -236 -185 -226 -346 7 -98 38 -165 104 -225 70
-64 133 -86 242 -85 71 1 92 6 147 33 220 109 262 399 79 560 -25 22 -71 49
-100 61 -69 25 -179 26 -246 2z m82 -167 l0 -135 -130 0 c-126 0 -130 1 -130
21 0 82 70 176 165 220 98 47 95 50 95 -106z m171 109 c59 -30 117 -93 139
-150 36 -98 41 -94 -120 -94 l-140 0 0 136 0 137 45 -6 c25 -4 59 -14 76 -23z
m-171 -419 l0 -135 -27 6 c-54 12 -118 45 -152 77 -39 37 -81 120 -81 160 l0
27 130 0 130 0 0 -135z m325 103 c-12 -59 -46 -117 -92 -158 -46 -40 -146 -85
-170 -76 -10 4 -13 36 -13 136 l0 130 141 0 141 0 -7 -32z"/>
<path d="M7396 5649 c-53 -15 -96 -72 -96 -127 0 -16 10 -44 23 -63 56 -84
185 -61 218 39 29 89 -55 178 -145 151z m87 -71 c54 -64 -34 -161 -101 -111
-19 14 -28 31 -30 55 -3 29 2 40 29 62 37 31 72 29 102 -6z"/>
<path d="M6314 4581 c-101 -62 -78 -158 46 -195 102 -30 219 -11 261 42 43 56
-1 134 -90 161 -63 18 -181 14 -217 -8z m175 -32 c100 -21 130 -77 61 -111
-44 -23 -120 -22 -184 0 -82 28 -87 68 -15 104 39 21 69 22 138 7z"/>
<path d="M5996 4110 c-150 -38 -171 -180 -34 -235 144 -57 348 -3 348 93 0 43
-39 94 -90 119 -52 26 -165 37 -224 23z m204 -66 c41 -24 73 -65 65 -85 -25
-66 -243 -78 -320 -17 -28 22 -34 68 -10 88 52 43 202 51 265 14z"/>
<path d="M6250 3521 c-47 -15 -87 -40 -119 -76 -67 -77 -26 -165 95 -201 80
-25 266 -25 345 -1 79 24 123 74 116 130 -9 64 -71 114 -182 143 -53 15 -213
17 -255 5z m224 -46 c162 -34 219 -121 113 -174 -37 -18 -69 -24 -151 -28
-195 -10 -322 46 -284 124 39 78 171 110 322 78z"/>
<path d="M6442 2779 c-102 -40 -163 -127 -141 -201 36 -127 267 -187 454 -117
82 30 110 51 135 105 20 40 21 51 11 84 -26 88 -138 142 -301 147 -87 2 -114
-1 -158 -18z m299 -48 c69 -26 119 -73 119 -111 0 -137 -361 -193 -486 -75
-47 44 -46 82 2 135 71 78 232 101 365 51z"/>
<path d="M7971 4273 c-50 -100 -99 -236 -111 -307 -10 -60 -9 -71 5 -85 15
-15 25 -11 128 43 145 76 140 71 131 120 -17 108 -89 286 -114 286 -5 0 -23
-26 -39 -57z"/>
<path d="M9285 4118 c-138 -143 -205 -224 -204 -249 0 -17 21 -42 67 -82 37
-31 100 -86 140 -122 40 -36 79 -65 86 -65 35 0 56 148 56 391 0 148 -2 168
-18 182 -32 29 -54 19 -127 -55z"/>
<path d="M7855 3628 c-41 -14 -95 -56 -95 -73 0 -27 22 -27 60 0 51 36 115 43
165 20 31 -15 38 -16 46 -4 16 25 9 37 -31 53 -45 18 -100 20 -145 4z"/>
<path d="M8797 3498 c-73 -20 -60 -65 14 -49 83 19 167 -22 191 -92 14 -39 43
-32 42 9 -4 92 -137 163 -247 132z"/>
<path d="M8740 3261 c-107 -34 -180 -128 -188 -243 -6 -79 13 -139 60 -192 94
-108 255 -99 339 17 96 132 70 333 -51 393 -51 26 -123 37 -160 25z m145 -72
c120 -81 89 -327 -48 -378 -37 -14 -93 -14 -134 1 -36 13 -44 28 -14 28 29 0
77 45 102 97 41 86 27 184 -36 243 -24 22 -24 25 -8 32 31 13 102 1 138 -23z"/>
<path d="M738 3460 c-28 -28 -30 -35 -26 -82 7 -68 39 -98 104 -98 37 0 51 6
75 29 32 33 36 64 15 115 -30 72 -114 90 -168 36z m127 -64 c14 -40 -4 -61
-51 -61 -33 0 -41 4 -53 29 -16 34 -8 54 30 73 30 15 59 -1 74 -41z"/>
<path d="M1760 1625 c0 -9 13 -41 29 -73 15 -31 36 -79 46 -105 20 -54 30 -64
50 -47 17 14 4 55 -52 168 -25 51 -41 72 -54 72 -11 0 -19 -7 -19 -15z"/>
<path d="M5756 1631 c-4 -6 0 -38 9 -71 9 -34 19 -87 23 -118 6 -48 10 -57 27
-57 18 0 20 6 17 57 -4 84 -34 192 -54 196 -9 2 -19 -1 -22 -7z"/>
<path d="M1995 1596 c-9 -13 -24 -60 -33 -105 -13 -66 -14 -83 -4 -93 11 -11
16 -9 28 6 8 11 14 29 14 41 0 12 9 50 21 85 20 61 20 90 0 90 -6 0 -18 -11
-26 -24z"/>
<path d="M5956 1598 c-18 -29 -52 -140 -61 -202 -7 -46 -7 -48 15 -44 20 2 25
13 36 63 6 33 22 86 34 118 21 56 21 87 1 87 -6 0 -17 -10 -25 -22z"/>
<path d="M741 1567 c-58 -21 -76 -56 -75 -150 1 -90 32 -200 99 -344 19 -42
35 -78 35 -80 0 -2 -25 15 -56 38 -45 35 -65 43 -110 47 -62 5 -93 -10 -124
-61 -26 -41 -25 -78 1 -130 54 -104 169 -222 278 -284 28 -15 51 -31 51 -34 0
-4 -22 -9 -49 -13 -76 -10 -151 -35 -151 -51 0 -24 17 -26 92 -10 203 45 289
56 488 62 144 4 232 2 295 -7 131 -19 140 -18 140 5 0 23 -63 40 -187 51 l-77
7 72 49 c135 93 177 145 177 221 0 54 -22 77 -82 84 -58 7 -116 -10 -177 -52
-28 -18 -51 -32 -51 -30 0 2 9 28 19 57 79 213 98 378 53 449 -28 46 -81 73
-124 64 -39 -9 -104 -68 -129 -118 -25 -47 -59 -178 -59 -224 0 -59 -15 -35
-38 65 -26 111 -77 243 -116 302 -48 74 -130 110 -195 87z m105 -69 c46 -31
87 -106 129 -232 57 -170 105 -455 105 -624 0 -39 -2 -43 -22 -40 -16 2 -28
19 -48 68 -15 36 -69 151 -120 255 -50 105 -105 223 -121 264 -57 141 -74 265
-43 309 20 30 77 30 120 0z m501 -110 c18 -14 33 -75 33 -129 0 -84 -49 -248
-160 -532 -31 -78 -49 -111 -64 -117 -20 -7 -21 -4 -28 74 -17 220 1 470 43
582 22 59 70 121 103 134 22 9 53 4 73 -12z m-646 -386 c91 -59 174 -168 252
-331 17 -36 33 -69 35 -73 2 -5 -14 -8 -36 -8 -47 0 -183 77 -263 148 -65 58
-137 156 -145 196 -6 34 8 73 30 88 25 17 83 7 127 -20z m883 -98 c22 -22 20
-35 -13 -80 -33 -46 -187 -164 -252 -193 -51 -24 -89 -27 -89 -8 0 28 63 138
106 186 47 53 96 87 142 101 44 14 90 11 106 -6z"/>
<path d="M2130 1458 c-27 -39 -50 -74 -50 -78 0 -4 6 -13 14 -19 12 -10 25 1
71 64 55 73 64 105 31 105 -9 0 -38 -32 -66 -72z"/>
<path d="M6101 1481 c-25 -25 -91 -138 -91 -156 0 -24 23 -29 37 -9 32 44 103
158 103 164 0 18 -32 18 -49 1z"/>
<path d="M9332 1443 c-69 -97 -126 -221 -165 -359 -37 -130 -49 -203 -56 -353
l-6 -135 -44 105 c-24 57 -60 131 -79 164 -86 146 -200 275 -243 275 -21 0
-22 -2 -15 -102 15 -213 62 -422 127 -567 16 -35 29 -65 29 -67 0 -2 -27 16
-60 40 -104 77 -276 135 -396 136 -37 0 -54 -4 -58 -15 -6 -17 71 -133 156
-235 58 -68 213 -199 339 -286 52 -36 73 -45 100 -42 33 3 30 5 -91 94 -183
134 -287 229 -364 333 -38 50 -66 95 -62 98 14 14 166 -29 254 -73 127 -62
208 -140 289 -276 34 -56 69 -120 79 -140 17 -37 19 -38 71 -38 62 0 57 -20
43 190 -24 336 -28 433 -20 565 13 215 78 441 168 590 l37 60 7 -40 c16 -82
21 -341 9 -475 -15 -173 -39 -312 -100 -585 -27 -121 -52 -239 -56 -262 -6
-41 -5 -43 17 -43 22 0 25 7 42 93 67 331 196 640 362 864 76 103 277 304 282
282 4 -23 -41 -200 -89 -349 -56 -172 -121 -302 -228 -455 -50 -72 -133 -194
-185 -272 -53 -78 -104 -146 -113 -152 -14 -8 2 -10 62 -11 71 0 89 4 150 34
39 18 98 54 132 80 69 52 198 186 244 253 42 61 99 186 99 217 0 23 -4 26 -34
26 -40 0 -146 -53 -223 -111 -29 -22 -53 -38 -53 -35 0 2 16 28 36 57 52 77
108 200 158 352 73 218 116 447 86 447 -57 0 -267 -198 -383 -360 -37 -52 -94
-149 -128 -215 -42 -82 -59 -109 -55 -85 39 232 39 664 0 793 -8 27 -50 21
-72 -10z m-459 -501 c69 -98 105 -163 156 -286 54 -130 69 -182 86 -301 16
-107 31 -353 22 -345 -21 19 -259 514 -285 592 -32 97 -64 260 -76 393 l-7 69
24 -23 c14 -12 49 -57 80 -99z m1067 -397 c0 -3 -13 -31 -29 -63 -84 -166
-282 -353 -443 -419 -33 -13 -61 -23 -63 -21 -1 2 33 53 76 114 95 135 236
273 351 343 74 46 108 60 108 46z"/>
<path d="M7195 1040 c-3 -5 10 -42 29 -82 39 -84 62 -168 79 -300 11 -82 15
-93 32 -93 18 0 20 6 17 70 -8 195 -116 472 -157 405z"/>
<path d="M7555 916 c-75 -118 -140 -349 -104 -372 18 -11 27 8 44 90 20 97 44
160 95 246 45 75 48 90 20 90 -14 0 -32 -18 -55 -54z"/>
<path d="M6910 874 c0 -9 33 -51 73 -94 48 -51 89 -107 116 -159 39 -75 61
-96 76 -71 8 13 -34 105 -76 167 -18 26 -60 76 -93 111 -58 60 -96 79 -96 46z"/>
<path d="M7709 742 c-116 -88 -193 -192 -143 -192 8 0 39 26 69 58 29 32 81
78 114 102 60 43 74 71 40 78 -8 1 -44 -19 -80 -46z"/>
<path d="M5477 418 c-3 -13 -9 -58 -13 -100 l-7 -78 27 0 c24 0 26 4 26 39 0
21 3 66 6 100 6 57 5 61 -13 61 -13 0 -23 -8 -26 -22z"/>
<path d="M5270 418 c0 -7 19 -52 42 -100 34 -69 47 -87 63 -85 29 3 22 38 -24
122 -26 48 -45 71 -60 73 -12 2 -21 -2 -21 -10z"/>
</g>
</svg>
