<?xml version="1.0" standalone="no"?>
<!DOCTYPE svg PUBLIC "-//W3C//DTD SVG 20010904//EN"
 "http://www.w3.org/TR/2001/REC-SVG-20010904/DTD/svg10.dtd">
<svg version="1.0" xmlns="http://www.w3.org/2000/svg"
 width="1024.000000pt" height="1024.000000pt" viewBox="0 0 1024.000000 1024.000000"
 preserveAspectRatio="xMidYMid meet">

<g transform="translate(0.000000,1024.000000) scale(0.100000,-0.100000)"
fill="#000000" stroke="none">
<path d="M1231 10184 c-175 -47 -301 -181 -333 -353 -11 -56 -13 -59 -32 -49
-12 7 -48 12 -81 12 -109 0 -225 -73 -286 -179 -55 -96 -35 -216 48 -284 84
-69 36 -66 1053 -62 843 3 920 5 973 21 108 34 166 103 167 201 0 113 -54 200
-155 250 -58 28 -71 31 -132 26 -37 -3 -77 -8 -89 -12 -20 -6 -21 -2 -26 57
-10 120 -89 228 -212 288 -123 61 -256 46 -379 -40 l-58 -40 -49 53 c-96 105
-263 150 -409 111z m184 -35 c103 -19 178 -70 244 -167 l23 -32 54 49 c69 63
145 94 239 95 85 1 159 -31 229 -98 68 -66 89 -115 94 -218 2 -49 8 -88 12
-88 4 0 22 8 41 18 24 12 57 17 110 17 67 0 81 -4 125 -30 98 -61 139 -184 92
-275 -19 -36 -35 -51 -83 -75 l-60 -30 -875 -7 c-904 -8 -976 -6 -1048 31 -91
47 -127 143 -88 235 61 146 279 231 372 145 17 -16 23 -17 32 -6 6 7 9 22 6
34 -9 34 16 133 48 195 54 103 165 185 280 207 61 12 87 12 153 0z"/>
<path d="M7845 10091 c-150 -43 -269 -142 -329 -273 -38 -82 -52 -138 -62
-251 -6 -66 -9 -77 -23 -71 -136 57 -295 21 -410 -93 -72 -72 -101 -142 -101
-242 0 -119 47 -203 139 -250 97 -50 124 -51 1118 -51 591 0 951 4 992 10 156
26 235 107 236 245 0 56 -5 79 -25 115 -30 53 -96 105 -153 121 -40 11 -138 7
-184 -7 -22 -6 -23 -4 -23 58 0 125 -57 218 -166 273 -52 26 -70 29 -149 30
-88 0 -118 -9 -216 -62 -3 -2 -9 20 -12 49 -10 80 -77 208 -147 278 -61 61
-150 111 -230 129 -67 16 -187 12 -255 -8z m274 -40 c124 -39 219 -122 277
-245 34 -71 54 -155 54 -228 0 -47 12 -48 38 -4 13 22 40 43 78 62 50 25 71
29 139 29 90 -1 153 -24 206 -77 53 -54 63 -84 66 -198 3 -118 1 -116 78 -86
88 34 189 15 251 -48 114 -113 66 -284 -95 -338 -49 -17 -1902 -24 -2006 -8
-169 26 -245 103 -245 250 0 90 25 146 94 216 74 74 144 104 241 104 66 0 140
-25 166 -56 27 -33 36 -16 31 59 -10 165 50 348 147 445 52 52 148 108 220
128 71 19 190 17 260 -5z"/>
<path d="M1600 9058 c-25 -13 -80 -56 -124 -98 -159 -152 -290 -361 -291 -463
l0 -52 60 1 c33 1 86 10 118 21 46 16 57 17 57 6 0 -8 -20 -122 -45 -254 -24
-132 -50 -279 -57 -327 l-12 -87 -76 -80 c-103 -108 -239 -280 -262 -333 -12
-26 -17 -54 -14 -68 12 -47 82 -107 164 -140 1 -1 -3 -22 -10 -47 -15 -58 0
-114 44 -157 28 -29 36 -31 73 -26 40 6 42 5 63 -32 12 -22 40 -52 63 -68 36
-25 52 -29 105 -29 58 0 64 -2 79 -28 9 -15 39 -50 66 -77 28 -28 45 -50 40
-50 -6 0 -36 -10 -67 -21 -75 -28 -132 -80 -140 -128 -7 -39 -14 -46 -240
-218 l-121 -92 -31 38 c-60 74 -156 92 -247 46 -27 -13 -50 -23 -50 -22 -61
108 -78 126 -155 161 -110 49 -220 43 -346 -19 -123 -60 -244 -185 -244 -252
l0 -35 43 58 c65 88 149 161 224 197 62 29 76 32 168 32 93 0 104 -2 155 -31
60 -34 94 -76 112 -138 20 -70 29 -73 80 -21 44 44 47 45 107 45 58 0 64 -2
103 -38 26 -25 39 -45 35 -54 -3 -9 -59 -59 -125 -112 -186 -149 -244 -228
-260 -351 l-7 -60 -50 -8 c-100 -17 -243 -48 -412 -88 -165 -40 -173 -43 -173
-66 0 -19 4 -23 18 -19 9 3 75 19 147 35 72 16 208 48 304 71 96 22 174 39
175 38 1 -2 9 -33 19 -71 9 -37 35 -106 57 -153 37 -76 40 -89 31 -116 -27
-76 -2 -151 58 -175 l39 -15 4 -68 c3 -55 9 -74 32 -105 36 -47 105 -79 156
-72 l38 5 -29 -43 c-86 -128 -71 -209 48 -261 45 -20 52 -27 44 -42 -30 -58
-186 -479 -198 -537 -21 -99 -13 -203 21 -284 32 -75 86 -163 126 -206 15 -16
54 -73 86 -125 49 -80 57 -100 55 -136 -3 -54 29 -93 104 -125 54 -24 55 -25
49 -59 -9 -50 -43 -104 -119 -190 -101 -113 -125 -152 -125 -199 0 -82 106
-145 246 -146 l72 0 -15 -29 c-55 -106 23 -186 189 -194 83 -4 88 -6 88 -27 0
-61 33 -105 79 -105 14 0 22 -8 27 -27 18 -84 54 -123 113 -123 29 0 45 -9 83
-45 46 -44 46 -44 36 -87 -5 -24 -8 -84 -5 -135 l5 -91 -71 -32 c-340 -152
-1077 -429 -1680 -630 -292 -98 -307 -104 -307 -128 0 -15 5 -22 13 -20 6 3
68 24 137 48 l126 44 149 -32 c345 -73 721 -154 735 -159 8 -2 -21 -17 -65
-33 -44 -15 -213 -76 -375 -135 -602 -218 -599 -217 -653 -205 -65 14 -69 13
-65 -12 3 -19 21 -26 153 -59 547 -137 605 -153 593 -160 -7 -5 -80 -32 -163
-61 -144 -51 -147 -53 -103 -56 35 -2 81 10 199 51 l154 55 235 -54 c210 -48
245 -54 330 -51 83 2 90 3 53 11 -24 5 -43 11 -43 15 0 3 101 44 223 90 240
91 578 225 748 297 l106 45 209 -37 c115 -20 310 -54 434 -75 338 -59 681
-117 715 -121 25 -3 -6 -22 -190 -115 -206 -105 -217 -112 -177 -112 34 -1 81
19 253 105 l211 105 76 -11 c43 -6 210 -34 372 -61 717 -122 773 -131 920
-136 l145 -5 200 138 c271 186 431 304 615 455 456 372 798 710 1109 1098 184
230 401 558 401 608 0 12 3 13 14 4 8 -7 42 -16 77 -22 35 -6 65 -11 66 -13 1
-1 -7 -22 -19 -46 -23 -45 -35 -132 -24 -174 14 -57 52 -84 174 -123 102 -32
132 -38 238 -41 91 -3 136 0 176 12 137 40 209 143 225 324 l7 77 7 -58 c11
-100 49 -121 235 -132 151 -9 240 15 430 112 45 23 94 57 109 74 25 30 27 38
21 89 -6 52 -4 61 28 114 34 56 57 136 71 243 6 49 9 52 64 86 76 47 156 134
189 204 25 53 27 69 27 173 -1 107 -3 120 -31 180 -17 36 -47 88 -66 115 -92
130 -159 325 -110 325 35 0 118 48 156 90 21 23 47 63 58 88 40 90 33 231 -16
318 -27 49 -50 54 -70 17 -13 -25 -21 -29 -63 -31 -26 -2 -70 -9 -98 -17 -180
-53 -262 -267 -154 -398 26 -32 30 -45 34 -119 5 -102 22 -162 85 -289 62
-126 90 -201 90 -242 0 -35 -48 -145 -72 -164 -12 -11 -16 -4 -27 40 -35 140
-99 281 -205 456 -92 150 -132 238 -166 361 -17 63 -35 126 -39 140 -6 21 3
36 59 102 77 88 128 181 161 288 l22 75 16 -37 c9 -21 21 -38 28 -38 32 0 106
127 142 245 46 148 36 287 -32 458 -27 69 -31 87 -18 81 34 -15 83 -17 92 -3
5 8 9 50 9 94 0 62 -7 98 -29 163 -30 87 -81 179 -117 213 l-22 20 20 52 c11
29 21 78 22 109 1 46 4 57 16 53 8 -3 112 -32 231 -65 119 -33 266 -77 328
-98 l111 -39 0 24 c0 18 -9 28 -33 38 -43 18 -322 102 -513 155 l-150 41 -14
37 c-7 20 -14 63 -16 95 -3 79 -41 153 -110 216 -66 60 -203 131 -269 139
l-47 5 42 38 c23 21 40 44 38 51 -5 17 -84 56 -150 74 -71 19 -202 18 -269 -2
-30 -9 -76 -29 -103 -46 -26 -16 -49 -28 -50 -26 -1 2 -10 22 -21 46 -21 49
-84 111 -144 141 -48 25 -143 51 -186 51 -45 0 -105 -19 -112 -35 -2 -8 11
-40 31 -72 20 -31 34 -58 32 -61 -2 -2 -23 10 -47 28 -123 88 -359 98 -519 21
-36 -17 -40 -18 -41 -3 0 10 -4 148 -8 307 -8 320 -8 324 -75 383 -56 49 -131
51 -203 6 l-22 -14 -3 208 c-3 205 -3 207 -30 254 -34 56 -85 90 -148 96 -43
4 -72 -5 -152 -46 -5 -2 -8 86 -8 196 0 188 -1 201 -23 242 -47 89 -160 114
-248 55 -21 -14 -41 -25 -43 -25 -2 0 -6 98 -8 218 -3 240 -6 252 -72 309 -54
48 -125 68 -241 67 -113 0 -163 -17 -229 -75 -72 -63 -68 -9 -60 -937 5 -629
4 -833 -4 -828 -9 5 -12 136 -13 484 -1 627 -7 771 -35 809 -76 103 -268 95
-352 -15 l-27 -35 -8 -336 c-4 -185 -6 -411 -5 -504 l3 -167 -22 0 -23 0 0
225 c0 254 -3 268 -68 327 -67 61 -164 63 -242 7 -66 -48 -70 -67 -70 -326 l0
-228 -103 0 c-123 -1 -230 -24 -348 -74 -110 -48 -211 -115 -278 -186 l-53
-56 5 33 c4 18 9 61 13 94 l6 62 37 -5 c33 -5 41 -1 69 31 18 20 32 43 32 50
0 47 -395 685 -508 821 l-25 30 7 176 c6 150 5 177 -8 188 -8 7 -48 15 -88 18
-110 8 -112 5 -141 -191 l-23 -160 -94 -68 c-130 -93 -275 -214 -399 -333
-125 -120 -271 -299 -271 -332 0 -29 40 -70 81 -85 26 -9 29 -14 24 -37 -11
-52 -25 -230 -31 -406 -5 -147 -3 -192 10 -247 35 -151 102 -236 231 -298 66
-31 84 -45 89 -66 4 -14 5 -28 3 -30 -2 -2 -94 -10 -206 -18 -176 -12 -208
-17 -248 -37 l-45 -24 -104 101 c-57 55 -104 108 -104 117 0 35 -43 106 -79
131 -21 15 -61 34 -89 45 l-52 18 57 36 c67 41 169 143 202 203 16 28 29 40
40 37 9 -2 38 16 68 42 41 36 56 58 68 97 20 70 19 157 -4 226 -11 33 -22 104
-26 170 -6 99 -5 112 9 112 62 0 206 116 265 215 41 67 42 104 6 175 -46 91
-203 188 -421 259 l-112 36 -59 80 c-75 101 -220 260 -354 390 -188 182 -381
354 -414 370 -49 22 -131 19 -185 -7z m192 -55 c155 -127 657 -617 645 -629
-2 -3 -24 0 -48 5 -63 15 -189 13 -302 -4 -180 -27 -376 -106 -588 -236 -101
-62 -111 -67 -104 -46 7 18 85 476 85 498 0 33 -18 21 -35 -25 -16 -42 -18
-44 -85 -60 -37 -9 -84 -16 -104 -16 -35 0 -36 1 -30 28 30 123 269 433 379
490 26 14 59 21 97 22 47 0 62 -5 90 -27z m4639 -103 c46 -13 96 -47 123 -83
21 -28 21 -30 24 -1168 l3 -1139 -24 0 -24 0 -5 439 c-5 404 -7 442 -24 471
-55 93 -192 94 -254 3 l-25 -36 -3 -291 -3 -291 -42 80 c-23 44 -59 102 -79
129 l-37 48 -3 707 c-2 388 -3 779 -3 868 l0 162 30 31 c34 36 87 66 142 80
43 10 149 5 204 -10z m-2471 -472 c0 -35 -3 -107 -7 -162 l-6 -99 -75 6 c-40
3 -76 8 -79 11 -5 4 16 175 34 274 l5 32 64 0 64 0 0 -62z m1919 -8 c71 -35
69 -18 77 -667 4 -321 4 -583 0 -583 -3 0 -27 15 -53 34 -62 44 -153 89 -225
112 l-58 18 0 489 c0 538 -1 530 62 577 59 43 136 52 197 20z m966 -64 c55
-36 53 -3 47 -980 l-5 -899 -81 7 c-45 3 -102 9 -127 12 l-46 6 -6 271 c-4
149 -7 551 -7 895 l0 625 34 32 c57 53 137 67 191 31z m-4453 -27 c78 -15 106
-28 129 -60 l20 -29 -149 0 c-179 0 -284 -17 -444 -70 -153 -51 -293 -121
-455 -230 -91 -60 -133 -83 -133 -72 0 8 5 44 11 79 l11 63 86 56 c114 76 316
176 430 214 158 53 371 74 494 49z m148 -139 c203 -27 500 -175 558 -279 13
-22 21 -41 18 -41 -2 0 -42 18 -88 40 -104 51 -306 117 -395 130 -113 16 -298
12 -393 -9 -274 -62 -558 -207 -904 -463 -125 -92 -312 -205 -323 -194 -16 16
265 345 371 434 73 63 248 172 361 227 174 84 346 137 510 158 61 8 212 6 285
-3z m1345 -65 c92 -12 90 -11 184 -149 146 -216 362 -558 348 -553 -134 55
-182 71 -269 92 -203 48 -316 60 -563 59 -200 -1 -247 -5 -365 -26 -74 -14
-137 -24 -139 -22 -7 7 80 102 200 219 120 117 245 222 399 339 82 61 66 58
205 41z m-1195 -155 c60 -78 118 -334 126 -555 7 -185 -12 -296 -74 -426 -78
-163 -169 -258 -317 -332 -129 -63 -167 -72 -305 -71 -199 3 -355 55 -467 157
-59 55 -149 184 -183 265 l-23 53 47 92 c34 68 53 122 71 207 66 305 77 345
102 372 29 30 248 141 380 192 178 69 217 76 431 73 193 -2 193 -2 212 -27z
m182 -49 c104 -39 187 -78 222 -104 19 -14 19 -15 -4 -48 -55 -80 -142 -155
-205 -176 l-31 -10 -22 112 c-18 97 -40 176 -67 248 -4 9 -4 17 -1 17 3 0 52
-17 108 -39z m2547 -38 c65 -49 66 -54 69 -297 l3 -223 -113 -7 c-62 -4 -129
-8 -148 -9 l-35 -2 -3 230 c-2 216 -1 232 18 263 41 66 148 89 209 45z m1730
-3 c22 -11 49 -35 61 -55 l22 -36 -1 -667 c-2 -507 -5 -668 -14 -675 -12 -8
-28 -7 -196 14 l-94 12 6 676 6 675 24 24 c25 25 88 51 125 52 12 0 40 -9 61
-20z m-5563 -212 c-4 -13 -24 -108 -46 -212 -36 -170 -44 -197 -90 -282 -27
-52 -50 -105 -50 -119 0 -13 18 -59 40 -101 22 -43 40 -80 40 -82 0 -3 -19 -2
-41 1 -91 12 -162 138 -139 244 6 23 37 97 70 165 58 119 68 148 52 148 -11 0
-64 -84 -104 -165 -50 -99 -71 -169 -66 -220 3 -45 3 -45 -30 -45 -26 0 -36 6
-52 33 -11 17 -20 43 -20 56 0 33 62 186 126 311 49 95 60 110 120 155 66 50
186 133 193 134 2 1 0 -9 -3 -21z m2384 -167 c134 -22 281 -59 344 -88 l39
-17 -6 -121 c-9 -181 -32 -298 -73 -369 -66 -112 -107 -225 -123 -340 -12 -85
-29 -104 -136 -157 -109 -53 -222 -72 -375 -63 -140 8 -239 32 -330 80 -90 47
-136 93 -174 173 l-31 66 1 250 c0 175 6 287 18 375 18 134 32 200 44 200 4 1
61 9 127 20 161 26 489 22 675 -9z m-855 -28 c-3 -10 -9 -30 -12 -45 -7 -34
-10 -34 -47 -5 -36 29 -30 54 16 60 18 2 37 5 42 5 4 1 5 -6 1 -15z m3314 -38
c16 -8 33 -27 39 -42 6 -17 13 -193 17 -457 6 -399 6 -428 -10 -422 -9 3 -54
6 -99 6 l-82 0 -18 128 c-23 165 -21 698 3 745 27 52 94 71 150 42z m-5237
-100 c-26 -57 -52 -104 -58 -105 -15 0 -107 62 -110 75 -2 7 175 119 213 134
0 1 -20 -46 -45 -104z m6277 26 c14 -9 34 -30 45 -45 20 -26 21 -44 26 -343 5
-308 5 -315 -15 -325 -11 -6 -35 -22 -53 -35 -32 -24 -32 -26 -17 -49 15 -23
15 -24 -13 -24 -27 0 -110 -20 -144 -35 -17 -7 -18 16 -18 397 0 453 -3 434
74 469 45 21 77 18 115 -10z m-3026 -16 c20 -14 37 -29 37 -33 0 -18 -43 -53
-62 -50 -17 3 -21 11 -22 56 0 28 1 52 4 52 3 0 22 -11 43 -25z m1128 -50
c170 -36 284 -98 409 -224 105 -106 143 -165 200 -303 63 -152 75 -230 74
-478 0 -225 -12 -337 -45 -426 -34 -91 -44 -94 -44 -12 0 56 -5 81 -21 108
-30 51 -78 80 -133 80 -46 0 -122 -28 -135 -49 -14 -21 -26 -11 -26 22 0 93
-78 302 -131 353 -16 15 -75 46 -131 68 -334 133 -508 298 -508 483 0 49 29
144 65 212 27 49 26 56 -2 47 -37 -12 -103 -150 -103 -214 0 -63 -92 -184
-196 -258 -110 -78 -342 -174 -422 -174 l-40 0 5 43 c11 97 40 156 133 267 98
117 69 120 -40 4 -80 -86 -130 -188 -138 -279 -5 -65 -5 -65 22 -65 14 0 26
-1 26 -3 0 -1 -7 -34 -15 -72 -8 -39 -18 -123 -22 -188 l-6 -118 -35 -15 c-19
-7 -36 -14 -38 -14 -2 0 -14 19 -28 43 -49 85 -69 209 -56 362 28 355 255 653
582 766 46 16 108 32 138 37 94 15 586 12 661 -3z m-2701 -146 c0 -59 -27
-131 -70 -183 -22 -26 -40 -46 -40 -43 0 2 15 38 34 79 19 41 40 104 47 141
13 70 29 73 29 6z m2180 -335 c0 -30 54 -119 103 -171 90 -96 192 -157 411
-247 60 -25 117 -53 128 -63 50 -45 121 -240 134 -368 4 -36 9 -65 11 -65 2 0
16 14 30 30 14 17 43 40 64 50 109 56 200 -20 186 -155 -10 -100 -71 -185
-162 -226 -54 -25 -84 -24 -127 6 -39 26 -49 23 -63 -25 -4 -14 -26 -49 -48
-78 -177 -232 -470 -336 -772 -273 -150 31 -268 93 -365 191 -82 84 -141 175
-168 260 -14 47 -17 98 -16 340 0 286 12 422 37 448 7 6 44 21 83 31 96 27
226 84 310 137 67 41 204 172 204 195 0 5 5 7 10 4 6 -3 10 -13 10 -21z m3333
-77 c111 -51 167 -118 167 -200 0 -20 4 -38 8 -41 4 -2 28 11 52 31 64 50 112
72 194 90 80 16 148 12 232 -17 78 -27 79 -29 37 -59 -43 -32 -113 -106 -113
-121 0 -15 11 -12 45 10 38 25 86 25 167 0 111 -34 229 -125 272 -209 26 -50
18 -57 -22 -18 -71 69 -199 101 -294 73 -106 -30 -214 -110 -253 -187 -17 -32
-17 -34 1 -44 10 -5 53 -43 96 -84 81 -78 122 -142 173 -278 34 -92 63 -117
123 -109 54 7 114 38 174 87 l46 39 26 -35 c80 -104 156 -355 116 -380 -15 -9
-81 29 -141 81 -29 26 -64 56 -75 67 -42 36 -32 0 17 -64 102 -130 179 -337
179 -478 0 -42 -7 -105 -15 -141 -15 -63 -82 -220 -94 -220 -3 0 -21 45 -40
99 -55 158 -96 193 -69 58 46 -229 -113 -505 -376 -652 -102 -57 -101 -58 -60
36 49 114 66 165 62 186 -2 13 -10 5 -27 -27 -77 -148 -153 -231 -289 -313
-74 -45 -250 -117 -320 -132 l-33 -7 20 39 c11 21 34 58 50 83 30 44 39 70 24
70 -5 -1 -30 -27 -58 -59 -27 -32 -86 -82 -130 -112 -103 -70 -217 -179 -240
-229 -10 -22 -22 -40 -26 -40 -5 0 -38 27 -74 61 -69 65 -138 182 -150 257
-11 64 -27 105 -35 92 -9 -14 -6 -104 5 -144 7 -27 7 -28 -16 -16 -55 29 -156
108 -213 166 -106 108 -175 251 -176 363 0 79 -19 52 -31 -43 -16 -130 -16
-130 -88 -61 -82 78 -147 178 -190 290 -31 80 -35 101 -35 185 0 78 5 109 27
170 43 122 34 129 -35 27 -23 -34 -54 -77 -69 -95 l-29 -32 -7 27 c-5 16 -8
84 -7 153 0 150 16 215 81 349 39 80 61 108 132 179 90 88 86 100 -13 37 -52
-33 -131 -75 -141 -75 -9 0 -5 45 10 105 36 138 128 285 235 374 60 50 62 51
90 36 16 -8 43 -15 61 -15 34 0 48 12 132 120 54 69 130 122 223 157 106 40
106 39 88 101 -24 80 -70 141 -144 189 -36 23 -78 53 -94 66 l-30 24 69 38
c247 138 466 124 644 -41 34 -31 64 -54 68 -51 18 19 -45 202 -76 221 -6 4
-11 12 -11 18 0 20 132 3 193 -25z m-6618 -128 l67 -32 -46 -39 c-50 -43 -70
-73 -61 -89 4 -6 25 6 50 28 98 87 113 94 159 77 14 -5 12 -11 -9 -36 -27 -32
-39 -66 -33 -94 6 -32 25 -25 36 14 6 20 26 52 45 70 31 30 36 31 85 25 59 -7
76 -26 88 -102 8 -48 30 -73 40 -46 6 16 -6 87 -21 126 -5 13 4 18 46 23 48 7
54 5 82 -21 16 -15 36 -43 44 -61 8 -19 18 -30 24 -26 17 10 1 65 -27 95 l-26
27 21 12 c12 6 39 17 60 25 36 12 40 11 117 -29 116 -61 155 -130 98 -175 -20
-15 -41 -21 -81 -21 -60 0 -79 -14 -135 -97 -34 -50 -80 -73 -146 -73 -45 0
-56 5 -97 40 -41 36 -52 40 -99 40 -47 0 -56 -4 -86 -35 -19 -20 -50 -40 -70
-46 -101 -30 -210 71 -210 196 l0 45 -42 0 c-132 0 -196 77 -118 141 35 29
122 67 156 68 12 1 52 -13 89 -30z m5790 -133 c72 -30 157 -130 166 -196 4
-22 -1 -25 -38 -32 -24 -4 -50 -11 -59 -16 -13 -7 -26 0 -58 33 -110 115 -286
60 -286 -89 0 -52 22 -98 61 -128 32 -26 32 -27 16 -52 -21 -31 -45 -33 -97
-6 -46 24 -89 90 -102 158 -24 131 68 281 201 328 48 18 154 17 196 0z m-630
-51 c132 -15 241 -28 243 -30 2 -2 -3 -14 -12 -27 -70 -107 -61 -285 20 -369
l25 -26 -42 -28 c-149 -104 -286 -359 -277 -517 3 -50 5 -53 31 -56 16 -2 27
-6 25 -10 -2 -4 -17 -34 -34 -67 -70 -133 -106 -332 -85 -470 18 -125 40 -151
89 -110 l29 24 6 -87 c6 -102 44 -217 109 -326 46 -79 157 -195 206 -217 35
-15 38 -32 24 -113 l-7 -40 -70 83 c-39 45 -114 137 -168 204 -54 67 -149 182
-210 256 -151 181 -183 225 -221 301 -45 88 -59 156 -54 248 8 132 66 246 206
409 109 127 133 164 166 247 64 160 71 292 20 387 -34 64 -147 181 -225 231
-56 37 -178 91 -281 124 -32 11 -58 21 -58 24 0 8 270 -14 545 -45z m-5454 9
c21 -25 63 -43 115 -47 l49 -4 5 -49 c7 -59 27 -98 72 -140 82 -77 173 -80
258 -9 38 32 67 41 110 35 8 -1 31 -16 50 -35 66 -62 130 -67 223 -17 35 19
58 41 84 84 l36 58 60 0 c49 0 66 5 95 26 l34 27 75 -74 c41 -41 83 -86 94
-101 20 -27 20 -27 -1 -67 -11 -22 -25 -64 -31 -93 -8 -40 -28 -75 -76 -140
l-65 -88 -46 36 c-29 22 -49 46 -52 62 -6 30 -34 41 -43 18 -4 -9 -7 -85 -8
-169 l-1 -153 -47 -83 c-46 -81 -49 -85 -95 -96 -63 -16 -96 -42 -123 -95 -25
-47 -31 -127 -13 -160 9 -17 6 -20 -27 -26 -20 -4 -111 -4 -203 0 -179 7 -376
38 -468 75 -62 25 -171 96 -179 117 -19 49 92 667 144 804 40 107 53 150 43
150 -30 0 -107 -174 -135 -305 -10 -44 -25 -88 -34 -99 -9 -10 -68 -58 -132
-106 l-116 -87 -19 28 c-20 31 -54 39 -54 13 0 -8 14 -35 30 -60 34 -48 80
-142 80 -162 0 -9 -8 -8 -27 5 -37 24 -117 22 -170 -6 -23 -11 -72 -48 -107
-82 l-65 -60 -24 48 c-42 83 -69 175 -74 254 -5 67 -3 83 20 133 14 30 38 71
52 90 28 37 36 43 355 299 107 86 224 181 260 212 35 30 67 55 71 55 4 0 12
-7 20 -16z m4951 -30 c56 -19 146 -56 198 -81 119 -57 114 -60 -132 -69 l-183
-7 -2 97 c-1 53 2 96 6 96 5 0 56 -16 113 -36z m-2275 -150 c-1 -2 -39 2 -85
7 -46 5 -88 6 -94 3 -7 -5 -8 5 -3 32 4 21 8 39 8 39 23 7 141 72 150 83 10
13 13 -1 19 -74 4 -49 6 -89 5 -90z m-417 50 c80 2 156 8 169 12 23 7 24 6 18
-37 -7 -53 -29 -74 -98 -88 -69 -15 -153 -14 -242 3 -96 19 -137 39 -137 69 0
12 -3 31 -6 43 -5 20 -5 20 73 7 54 -10 122 -13 223 -9z m3769 -38 c25 -13 68
-64 59 -70 -50 -30 -96 -68 -123 -100 l-34 -41 -28 21 c-41 30 -54 62 -49 114
6 60 40 90 102 90 25 0 58 -7 73 -14z m-669 -103 l82 -88 -118 -7 c-66 -3
-162 -8 -215 -10 l-95 -4 -19 38 c-10 21 -33 56 -51 77 l-33 38 122 13 c67 6
142 16 167 20 25 4 52 8 62 9 9 0 53 -38 98 -86z m2456 66 c57 -15 140 -88
176 -156 93 -175 39 -348 -136 -429 -60 -28 -83 -30 -108 -7 -19 17 -25 53 -9
53 23 0 111 94 127 135 42 112 -15 225 -126 245 -55 10 -104 -2 -157 -39 l-43
-31 -44 33 c-25 17 -45 37 -45 43 -1 13 54 73 100 107 71 54 168 70 265 46z
m-5873 -23 c47 -35 139 -58 257 -63 132 -7 209 8 254 48 36 31 65 35 182 23
l59 -6 17 -49 c9 -27 13 -51 10 -53 -4 -2 -50 -14 -102 -27 -83 -20 -119 -23
-285 -23 -249 1 -568 40 -679 83 l-30 12 31 31 c26 25 42 32 95 38 124 14 157
12 191 -14z m-327 -16 c-18 -17 -41 -46 -50 -65 -14 -28 -76 -356 -76 -398 0
-23 -62 50 -90 107 -43 85 -42 168 1 255 44 88 109 125 222 130 l28 1 -35 -30z
m3277 -38 c59 -64 77 -101 77 -157 0 -59 -26 -108 -92 -172 -48 -47 -159 -123
-180 -123 -4 0 7 20 26 45 60 78 90 183 102 361 4 52 10 94 14 94 4 0 28 -22
53 -48z m-3062 -97 c79 -14 163 -25 186 -25 24 0 43 -3 43 -7 0 -5 -7 -46 -15
-93 -8 -47 -24 -155 -34 -240 -18 -146 -26 -222 -52 -515 -5 -66 -13 -241 -16
-388 l-6 -268 -51 6 c-82 12 -329 75 -354 91 -12 8 -35 42 -50 75 -27 61 -27
63 -20 203 17 320 72 854 114 1101 22 135 17 127 68 104 24 -10 108 -30 187
-44z m928 2 c8 -10 8 -30 0 -75 -8 -44 -8 -75 0 -113 12 -56 46 -119 63 -119
6 0 -12 -24 -39 -53 -28 -30 -60 -72 -72 -95 -49 -96 -63 -226 -37 -347 l12
-60 -68 -64 c-97 -90 -122 -142 -123 -251 0 -103 19 -176 52 -197 21 -14 33
-15 86 -5 34 7 71 15 82 18 18 5 21 -2 33 -72 7 -44 8 -82 3 -87 -34 -34 -461
-59 -662 -38 -62 7 -115 13 -116 15 -8 8 19 588 37 806 19 223 64 626 76 675
5 19 13 20 232 21 223 0 338 13 391 44 22 13 37 12 50 -3z m116 -137 c0 -123
-3 -150 -14 -148 -43 9 -73 116 -57 202 6 33 49 96 64 96 4 0 7 -68 7 -150z
m2583 40 c2 -41 0 -85 -3 -97 l-5 -23 -240 0 c-132 0 -240 1 -240 3 0 1 11 24
25 51 14 27 25 67 25 88 l0 38 98 1 c53 1 131 5 172 9 41 4 95 7 120 6 l45 -1
3 -75z m2313 55 c58 -31 87 -121 58 -178 -17 -33 -60 -77 -92 -93 -26 -14 -28
-13 -37 11 -24 62 -66 138 -96 174 -31 36 -32 39 -16 53 54 48 129 61 183 33z
m-6388 -251 c19 -27 48 -58 65 -69 26 -17 31 -26 31 -60 0 -81 -15 -122 -80
-213 -61 -86 -66 -91 -126 -112 l-63 -22 -40 36 c-36 32 -113 75 -162 90 -16
5 -13 13 19 68 36 63 99 153 227 328 l69 94 14 -46 c7 -25 28 -68 46 -94z
m4055 31 c8 -7 -56 -150 -78 -177 l-25 -30 -118 8 -118 9 26 35 c39 52 68 111
58 121 -12 12 -26 0 -66 -61 -69 -106 -51 -98 -234 -106 l-162 -7 -12 27 c-7
14 -10 28 -8 30 2 1 37 22 76 46 40 23 92 60 115 81 l43 39 250 -6 c138 -4
251 -8 253 -9z m-5542 -11 c-3 -9 -6 -24 -6 -35 0 -16 -7 -19 -46 -19 l-47 0
44 34 c49 39 64 44 55 20z m1234 -3 c22 -17 23 -22 11 -44 -19 -35 -64 -86
-57 -64 3 10 6 43 6 73 0 30 3 54 8 54 4 0 18 -9 32 -19z m1819 -234 c16 -29
57 -85 91 -125 l61 -72 -25 -55 c-38 -84 -84 -144 -134 -176 -98 -62 -168 -26
-212 110 -19 61 -22 86 -18 174 6 125 30 185 108 271 l54 58 22 -66 c13 -37
36 -90 53 -119z m-3072 125 c-3 -15 -13 -82 -23 -149 l-17 -122 -46 6 c-25 3
-48 7 -50 9 -2 2 -4 29 -6 61 -2 48 -20 104 -52 164 -2 3 9 15 24 25 28 18 80
30 142 33 32 1 33 -1 28 -27z m4795 -87 c98 -178 93 -399 -13 -519 -70 -79
-131 -76 -218 12 -104 104 -132 198 -116 387 7 83 8 87 28 80 51 -16 75 -15
128 4 31 12 74 37 95 56 21 19 46 33 54 32 8 -1 27 -25 42 -52z m617 -24 c28
-1 29 1 -64 -110 l-59 -71 -155 0 -155 0 32 33 c58 60 31 65 -44 8 l-51 -38
-21 71 c-11 39 -24 79 -27 88 -7 16 10 18 222 20 125 2 244 2 263 1 19 -1 46
-2 59 -2z m-5634 -112 c38 -33 44 -49 20 -49 -9 0 -42 -13 -74 -30 -65 -32
-128 -98 -170 -175 -32 -59 -68 -72 -95 -33 -67 95 109 313 256 317 17 1 41
-11 63 -30z m4620 -38 c-7 -45 -20 -55 -78 -66 l-37 -7 57 60 c31 34 59 59 61
57 2 -2 1 -22 -3 -44z m-2830 -141 c-8 -105 -14 -137 -19 -115 -12 47 -39 119
-49 132 -5 7 -5 18 -1 25 15 26 76 109 79 106 1 -2 -3 -68 -10 -148z m-1659
89 c41 -11 44 -14 44 -45 0 -40 -3 -41 -32 -14 -12 11 -30 20 -41 20 -16 0
-15 -5 13 -36 50 -57 53 -71 32 -139 -10 -33 -22 -60 -27 -59 -10 0 -69 82
-78 106 -2 7 -8 10 -12 6 -13 -12 6 -67 40 -119 l34 -49 -31 -36 -31 -35 -37
36 c-21 21 -46 55 -55 76 -20 43 -35 51 -35 17 0 -32 36 -100 70 -133 l30 -29
-28 -18 c-52 -34 -142 -17 -191 35 -46 51 -33 159 34 273 49 83 152 151 233
153 13 1 43 -4 68 -10z m1238 5 c22 -9 20 -41 -8 -100 -48 -102 -131 -163
-184 -135 -66 35 -36 200 42 231 25 10 127 13 150 4z m4016 -20 l95 -7 -37
-74 c-20 -40 -40 -89 -44 -108 l-6 -35 -118 0 c-99 0 -121 3 -140 18 -21 17
-22 21 -11 71 6 28 11 72 11 96 l0 45 78 0 c42 0 120 -3 172 -6z m-3904 -46
c24 -17 44 -32 44 -33 0 -1 -17 -20 -39 -42 -46 -50 -81 -118 -81 -161 0 -36
41 -141 73 -186 16 -23 17 -30 6 -37 -8 -5 -17 -9 -20 -9 -4 0 -30 -21 -58
-46 l-51 -46 -28 64 c-16 34 -46 106 -67 158 -21 52 -42 99 -46 104 -5 5 18
23 53 40 73 37 119 91 144 171 10 30 19 55 22 55 2 0 24 -14 48 -32z m2161
-68 c38 -15 68 -34 68 -42 0 -7 -21 -27 -47 -44 -45 -29 -52 -30 -127 -26 -72
4 -84 2 -124 -21 -24 -14 -49 -33 -57 -41 -17 -21 -27 -20 -33 3 -3 13 9 32
40 63 24 23 56 68 70 98 14 30 32 65 40 77 l15 23 44 -31 c24 -16 74 -43 111
-59z m987 44 c3 -26 19 -73 36 -106 16 -32 30 -63 30 -68 0 -16 -115 3 -165
29 -33 17 -70 26 -109 28 -52 2 -63 6 -83 30 -12 15 -22 31 -23 34 -1 16 142
70 208 78 41 5 76 12 80 15 13 14 20 3 26 -40z m-2925 -46 c31 -67 44 -131 39
-211 -3 -66 -7 -79 -38 -120 l-35 -46 -62 -1 c-36 0 -63 4 -63 10 0 13 87 101
119 121 15 9 21 20 17 27 -16 26 -50 10 -113 -53 -36 -36 -67 -64 -68 -63 -21
27 -22 45 -5 78 18 36 79 97 116 118 14 8 16 14 8 22 -22 22 -98 -35 -147
-109 l-16 -23 -7 37 c-14 77 44 170 140 225 71 41 90 39 115 -12z m-1436 3
c149 -101 352 -145 684 -146 175 0 192 -2 203 -18 6 -11 10 -20 8 -22 -2 -2
-57 -8 -123 -14 -267 -24 -588 36 -765 142 -42 25 -56 40 -58 60 -4 34 0 34
51 -2z m3521 -74 c21 -52 72 -103 121 -124 25 -10 45 -23 45 -29 0 -18 -96
-103 -124 -110 -37 -9 -89 3 -120 27 -32 25 -42 77 -27 142 11 47 62 127 82
127 5 0 15 -15 23 -33z m426 25 c0 -14 -73 -79 -108 -96 -83 -42 -195 -26
-247 35 -40 49 -34 57 33 47 65 -11 235 -4 272 11 31 12 50 13 50 3z m88 -32
c26 -38 29 -103 9 -153 -20 -46 -89 -105 -133 -113 -62 -11 -113 12 -151 70
-18 26 -33 52 -33 57 0 5 15 9 33 9 85 0 194 68 219 135 14 41 25 40 56 -5z
m-3928 -77 c41 -17 120 -41 175 -54 55 -13 101 -24 103 -25 2 -1 -12 -22 -30
-46 -45 -59 -94 -155 -84 -165 4 -4 16 3 25 16 44 67 137 185 148 188 6 2 23
-21 37 -52 70 -153 166 -286 166 -230 0 18 -80 171 -119 229 l-30 43 197 5
c108 3 204 8 212 12 12 4 30 -30 82 -152 66 -157 67 -157 69 -262 l3 -105
-129 -44 c-244 -82 -375 -67 -436 50 -30 60 -49 221 -49 427 0 94 -22 76 -37
-29 -17 -120 -42 -215 -74 -287 -40 -90 -66 -122 -117 -144 -76 -34 -111 -24
-495 139 -114 49 -100 125 56 298 74 83 121 158 146 237 l12 37 47 -28 c26
-15 81 -41 122 -58z m2704 37 c36 -55 76 -74 144 -67 l54 6 -5 -35 c-6 -36
-68 -128 -145 -214 -34 -38 -54 -51 -100 -64 -60 -17 -102 -21 -102 -10 0 4
45 53 100 110 90 94 113 124 93 124 -12 0 -78 -54 -150 -123 -84 -81 -88 -79
-88 38 1 88 30 149 108 223 31 28 58 52 60 52 2 0 16 -18 31 -40z m1404 -10
c43 -26 48 -43 24 -77 -33 -48 -52 -113 -75 -268 -17 -113 -20 -166 -14 -215
4 -36 6 -75 4 -87 -3 -13 0 -23 5 -23 5 0 13 -12 19 -26 5 -15 23 -44 40 -65
l30 -38 -15 -99 c-21 -142 -24 -146 -104 -161 -138 -26 -249 -41 -309 -41
l-63 0 0 105 0 105 88 2 87 2 -87 3 -88 4 -2 77 -2 77 -3 -77 -4 -78 -47 -2
-47 -2 48 -3 47 -4 0 -106 0 -106 -112 6 c-61 4 -165 14 -230 23 -94 14 -118
20 -118 33 0 9 -7 72 -15 141 -31 262 -37 372 -25 485 20 199 56 324 111 385
28 32 30 33 24 10 -22 -91 -13 -150 29 -191 23 -22 23 -24 9 -77 -23 -88 -17
-105 42 -120 91 -22 231 -34 369 -31 l136 4 0 -32 0 -33 -105 0 -105 0 2 -87
2 -88 3 83 4 82 99 0 100 0 1 -27 2 -28 4 28 c4 22 10 27 36 29 l32 1 -32 4
-32 4 4 126 4 125 49 52 c27 28 68 88 93 133 24 46 46 83 49 83 3 0 20 -9 38
-20z m670 -37 c59 -57 89 -112 107 -202 14 -67 9 -154 -13 -211 -9 -24 -9 -24
-21 12 -14 42 -107 178 -121 178 -16 0 -11 -18 16 -62 36 -57 74 -139 74 -161
0 -20 -8 -19 -87 9 -29 11 -43 22 -43 34 0 31 -77 173 -129 238 -28 34 -51 64
-51 67 0 3 17 5 38 5 49 0 112 44 144 100 13 22 26 40 29 40 4 0 29 -21 57
-47z m-1602 17 c8 -8 5 -22 -7 -48 -52 -104 -83 -308 -77 -509 l3 -144 -34 6
c-113 21 -172 65 -188 137 -7 37 -23 25 -23 -17 0 -21 -6 -35 -16 -39 -21 -8
-16 -14 -48 66 -18 45 -26 85 -26 126 0 52 5 66 43 125 95 148 267 307 331
307 18 0 37 -5 42 -10z m1834 -68 c0 -43 7 -102 16 -131 8 -29 14 -54 12 -56
-2 -2 -24 -1 -51 2 -41 5 -48 9 -53 32 -13 62 -50 147 -81 188 l-33 43 95 0
95 0 0 -78z m-597 -21 c69 -53 143 -148 198 -256 39 -76 41 -84 37 -150 -7
-109 -47 -175 -107 -175 -36 0 -36 0 -33 38 2 23 -3 45 -12 57 -15 19 -15 19
-16 -11 0 -53 -20 -92 -57 -114 -37 -22 -63 -21 -63 3 0 17 -24 40 -33 31 -3
-3 -1 -20 4 -37 12 -42 -8 -57 -77 -57 -62 0 -91 20 -132 88 -26 45 -27 52
-26 187 0 106 6 165 23 245 35 164 71 203 181 197 47 -2 64 -9 113 -46z m-798
-60 c17 -54 125 -110 187 -97 l29 6 -3 -63 -3 -62 -140 -3 c-138 -3 -292 11
-325 28 -15 8 -16 16 -7 59 l10 50 43 -6 c53 -7 123 24 162 73 31 39 38 41 47
15z m-2229 -75 l-7 -56 -25 16 -24 16 25 30 c14 16 25 37 25 45 0 9 3 14 6 10
4 -3 3 -31 0 -61z m-26 -105 c47 -54 80 -119 80 -157 0 -29 -33 -94 -47 -94
-5 0 -23 27 -42 60 -35 61 -77 108 -87 98 -3 -4 12 -37 33 -75 72 -126 89
-197 60 -237 -11 -15 -18 -16 -33 -8 -23 12 -101 95 -125 132 -9 14 -20 22
-24 18 -12 -11 30 -91 74 -139 46 -52 42 -59 -32 -59 -60 1 -115 29 -170 89
l-48 51 7 128 c8 145 17 170 75 209 47 31 100 40 183 33 55 -6 62 -9 96 -49z
m3716 7 c20 -41 82 -125 147 -201 27 -32 48 -59 46 -60 -2 -1 -136 -1 -298 1
l-293 3 6 22 c3 12 6 34 6 48 l0 25 71 -23 c39 -13 79 -21 90 -18 28 9 80 118
86 181 l6 54 58 0 c56 0 59 -1 75 -32z m-4732 -293 c21 -50 50 -81 101 -108
61 -33 221 -30 330 6 43 14 80 25 82 23 5 -4 -26 -196 -57 -352 -43 -219 -44
-244 -22 -359 11 -55 19 -101 18 -102 -1 -2 -18 8 -36 22 -68 50 -97 32 -163
-102 -57 -114 -94 -208 -117 -296 l-18 -72 -34 3 c-35 3 -117 40 -157 71 l-24
18 13 304 c12 299 15 942 4 960 -11 18 -23 8 -29 -23 -21 -96 -140 -349 -247
-521 -26 -43 -48 -84 -48 -91 0 -20 11 -26 30 -16 33 17 51 -4 174 -202 58
-93 66 -112 66 -156 0 -46 -3 -52 -53 -99 -65 -62 -115 -88 -193 -102 -56 -10
-158 -2 -185 14 -5 4 -32 40 -58 80 l-48 73 45 5 c27 3 58 -1 78 -9 35 -15 57
-3 27 15 -17 10 -16 12 7 30 14 11 36 21 49 23 33 4 38 26 8 33 -23 6 -24 10
-20 46 5 35 3 41 -16 46 -18 5 -21 11 -16 34 7 32 -22 69 -54 69 -13 0 -21 9
-25 28 -4 15 -17 41 -30 57 -21 26 -26 28 -49 18 -20 -9 -28 -9 -37 2 -15 18
-46 8 -75 -27 l-25 -29 -36 37 -35 38 11 70 c7 41 41 146 81 246 38 96 81 212
96 257 l28 82 97 -44 c125 -57 188 -75 257 -75 107 1 184 61 237 187 l28 66
12 -69 c6 -38 19 -87 28 -109z m1158 -18 c3 -51 9 -180 11 -287 3 -125 12
-238 25 -316 19 -121 19 -122 0 -179 -10 -31 -22 -86 -25 -121 l-6 -64 -74
-55 c-40 -31 -105 -85 -143 -121 l-68 -65 -57 16 c-31 10 -90 17 -131 17 -50
-1 -76 3 -78 11 -18 72 -47 140 -73 175 -18 23 -33 51 -33 61 0 11 -11 71 -25
134 -27 128 -26 148 29 427 13 69 29 161 36 205 18 125 18 125 43 125 14 0 39
-19 69 -54 63 -72 141 -111 219 -110 137 2 193 43 195 144 1 44 8 66 34 108
18 29 36 50 39 46 3 -3 9 -47 13 -97z m167 68 c149 -37 324 -64 468 -71 l132
-7 -45 -51 c-25 -28 -62 -85 -83 -126 l-38 -75 -84 1 c-96 2 -182 27 -332 97
-137 65 -137 65 -144 176 -6 87 -5 94 11 88 10 -4 62 -18 115 -32z m1027 -72
c-8 -21 -50 -116 -95 -211 -45 -94 -103 -225 -130 -290 -82 -201 -75 -192
-171 -218 -75 -21 -87 -22 -117 -9 -26 11 -177 45 -198 45 -5 0 181 453 208
506 14 28 47 78 74 111 l48 60 115 7 c90 6 265 28 277 35 1 0 -4 -16 -11 -36z
m78 8 c13 -15 15 -24 7 -38 -5 -11 -7 -38 -4 -61 4 -32 0 -50 -20 -84 -25 -42
-227 -305 -227 -295 0 9 35 87 98 218 75 155 112 244 112 264 0 20 13 19 34
-4z m2557 -28 c30 -31 81 -95 162 -200 7 -10 -71 -13 -386 -13 l-395 0 -31 48
c-17 27 -31 60 -31 73 -1 13 -7 35 -14 48 -12 22 -11 28 7 53 l21 28 316 0
316 0 35 -37z m-2407 -33 c33 -16 84 -35 111 -41 28 -6 56 -13 63 -15 7 -2 12
-19 12 -39 0 -43 -11 -44 -122 -16 -147 38 -201 79 -162 122 22 25 25 24 98
-11z m1680 -42 c9 -35 9 -36 -35 -67 -37 -28 -180 -81 -257 -96 -30 -6 -33 -4
-46 26 -16 38 -11 59 13 59 9 0 55 18 102 41 51 25 107 44 144 49 33 4 63 8
66 9 4 0 9 -9 13 -21z m-2868 -142 c49 -21 115 -43 148 -51 32 -8 60 -16 63
-18 9 -10 23 -135 23 -215 0 -95 -14 -137 -65 -193 -38 -42 -75 -109 -75 -135
0 -14 -8 -16 -54 -11 -62 6 -129 37 -151 70 -27 42 -75 420 -75 598 l0 58 49
-33 c27 -18 88 -50 137 -70z m-1504 -183 c-1 -147 -4 -307 -8 -356 l-7 -88
-48 86 c-26 47 -70 119 -98 161 l-50 75 46 77 c55 92 153 291 153 311 0 8 3
11 6 8 4 -3 6 -127 6 -274z m8144 190 c17 -75 4 -172 -33 -231 -57 -94 -174
-143 -254 -107 -21 10 -39 20 -39 23 0 3 18 38 40 78 51 93 34 108 -22 19 -41
-63 -42 -65 -55 -43 -17 32 -16 111 2 156 36 85 142 152 241 152 50 0 50 0 18
-79 -18 -42 -18 -51 0 -51 17 0 43 53 59 120 13 57 23 49 43 -37z m-5315 10
c59 -6 59 -6 59 -38 0 -37 -40 -100 -159 -250 -93 -117 -202 -226 -321 -322
-80 -65 -85 -72 -90 -114 -3 -24 -17 -64 -31 -89 -15 -25 -32 -63 -39 -85 -6
-22 -13 -46 -15 -52 -7 -21 -33 -3 -44 29 -15 43 -14 96 5 157 8 29 13 55 10
58 -3 3 -20 -10 -39 -28 -19 -19 -49 -45 -67 -58 -42 -32 -79 -89 -94 -147
-13 -51 -33 -71 -61 -60 -42 16 16 180 94 268 43 48 46 68 10 68 -25 0 -101
-104 -127 -173 -11 -28 -23 -76 -27 -104 -11 -82 -35 -64 -35 25 0 85 50 226
106 299 34 45 102 83 163 90 28 3 51 9 51 13 0 18 127 198 241 340 68 86 134
174 147 197 l22 41 91 -29 c50 -16 117 -32 150 -36z m1155 19 c6 -38 28 -79
50 -97 14 -11 44 -96 38 -106 -2 -4 -24 -12 -50 -18 -57 -15 -118 1 -110 27 9
29 36 193 36 218 0 37 28 18 36 -24z m434 -22 c17 -33 80 -188 80 -197 0 -1
-22 11 -49 28 -72 45 -156 57 -250 35 -41 -9 -78 -13 -83 -8 -4 4 -10 21 -14
38 -5 29 -4 30 48 41 73 15 160 49 200 78 18 13 36 24 40 24 4 1 17 -17 28
-39z m445 -79 c11 -16 64 -89 118 -164 53 -74 97 -138 97 -143 0 -5 -99 -11
-219 -13 l-220 -3 -30 58 c-17 33 -35 66 -40 74 -8 12 -51 142 -69 208 -3 9
36 12 170 12 l173 0 20 -29z m506 -47 c150 -179 179 -218 179 -241 l0 -23
-209 0 -208 0 -38 58 c-21 31 -70 99 -109 151 -39 52 -77 102 -85 113 -13 17
-6 18 196 18 l210 0 64 -76z m-3521 29 c0 -16 -55 -143 -62 -143 -5 0 -8 10
-8 23 0 12 -3 46 -6 75 l-7 52 42 0 c22 0 41 -3 41 -7z m1012 -125 c-109 -161
-271 -488 -368 -745 -21 -57 -42 -103 -46 -103 -4 0 -9 9 -13 20 -3 10 -33 49
-66 85 -32 36 -59 73 -59 82 0 9 12 36 26 61 16 26 27 62 28 84 1 37 6 44 86
107 150 121 318 308 420 471 29 45 36 51 38 33 2 -13 -16 -50 -46 -95z m2811
1 c61 -88 150 -167 270 -241 76 -47 110 -76 151 -127 68 -85 115 -126 161
-141 39 -13 54 -5 55 28 0 51 86 145 198 220 65 43 78 49 68 33 -4 -5 -3 -17
0 -26 9 -23 56 -15 194 31 125 42 241 102 321 166 57 46 59 47 59 23 0 -18 5
-25 19 -25 27 0 122 44 197 91 36 23 67 39 69 37 9 -9 46 -218 54 -300 l8 -83
14 32 15 33 23 -48 c12 -26 51 -94 86 -152 87 -146 148 -270 180 -370 37 -113
46 -326 21 -475 -19 -108 -33 -147 -77 -216 -28 -44 -29 -49 -18 -91 11 -41
10 -48 -10 -77 -48 -67 -314 -171 -437 -171 -63 0 -74 13 -74 85 0 53 19 95
55 123 30 24 32 32 5 32 -33 0 -86 -56 -100 -104 -11 -41 -10 -64 6 -119 5
-15 1 -17 -38 -11 -54 8 -94 28 -108 53 -28 53 2 148 62 195 l33 26 -31 0
c-35 0 -74 -35 -99 -90 l-16 -35 6 55 c13 121 16 131 42 141 14 5 56 15 93 21
l68 12 38 -34 c54 -47 135 -82 181 -78 57 5 48 28 -17 45 -67 17 -139 62 -185
116 -48 56 -69 125 -69 227 0 170 82 323 208 387 43 22 59 24 134 21 93 -3
116 9 60 33 -52 22 -154 16 -213 -12 -195 -92 -295 -414 -195 -622 11 -22 19
-41 17 -42 -8 -6 -130 -25 -134 -21 -3 3 2 47 11 98 79 467 111 821 75 844
-12 7 -16 -20 -29 -186 -12 -146 -54 -452 -90 -656 -11 -61 -31 -205 -45 -320
-23 -189 -28 -215 -58 -274 -28 -57 -38 -68 -90 -94 -38 -20 -78 -31 -116 -34
-52 -4 -60 -2 -75 19 -37 53 -7 163 58 215 40 32 45 44 19 44 -33 0 -81 -38
-108 -84 -28 -48 -37 -114 -22 -168 7 -27 6 -28 -35 -28 -80 0 -114 16 -132
60 -20 50 -21 122 -1 159 8 16 28 40 45 54 37 31 37 37 4 37 -36 0 -90 -56
-104 -110 -11 -41 -9 -82 6 -138 l6 -23 -47 18 c-93 35 -116 119 -60 222 31
56 54 81 105 108 56 31 85 113 131 373 19 102 23 163 23 335 1 116 -3 223 -7
238 -17 61 -27 10 -27 -137 0 -196 -8 -276 -28 -276 -25 0 -124 58 -213 124
-149 113 -281 269 -338 402 -34 79 -58 99 -47 38 20 -101 107 -243 220 -354
81 -79 80 -69 31 -357 -45 -264 -78 -410 -104 -460 -46 -91 -122 -149 -208
-160 -46 -5 -51 -3 -76 26 -30 36 -42 86 -33 135 6 31 30 61 86 105 l25 20
-26 1 c-36 0 -90 -39 -112 -80 -18 -35 -19 -113 -1 -169 7 -22 5 -23 -27 -16
-137 28 -144 34 -144 127 0 92 17 132 69 166 37 24 39 27 18 30 -36 5 -85 -29
-109 -78 -17 -33 -23 -62 -23 -112 0 -81 -13 -87 -66 -34 -28 28 -34 41 -34
77 0 76 19 121 69 169 26 25 63 54 82 65 18 11 40 34 48 50 28 58 71 241 92
390 18 128 21 179 16 345 -4 107 -11 236 -18 285 -13 103 -18 450 -6 479 9 22
8 23 70 -65z m-1266 21 c109 -54 173 -157 257 -413 31 -92 56 -172 56 -178 0
-9 -69 -44 -74 -37 -2 2 -8 35 -15 73 -16 97 -57 229 -92 296 -68 135 -205
251 -313 266 -67 8 -35 21 55 22 54 1 77 -4 126 -29z m-1320 -29 c170 -34 273
-44 405 -39 l128 5 6 -36 c6 -28 3 -37 -11 -46 -88 -51 -158 -146 -171 -232
-15 -98 56 -220 155 -268 55 -26 59 -26 88 -11 17 8 52 40 77 70 48 56 54 58
173 81 18 4 49 17 68 31 l36 24 -3 -31 c-3 -29 -8 -33 -73 -53 -107 -35 -270
-125 -227 -126 8 0 12 -16 12 -47 0 -54 28 -123 57 -144 13 -9 23 -32 27 -62
4 -27 21 -97 38 -155 17 -59 31 -114 32 -122 1 -8 18 -49 38 -90 29 -59 58
-167 58 -212 0 -7 -106 -27 -201 -38 l-74 -9 85 5 c82 4 388 62 440 83 38 15
24 13 -95 -14 -61 -14 -117 -25 -126 -25 -12 0 -19 16 -28 57 -15 76 -16 74
27 56 49 -21 147 -42 197 -43 22 0 46 -4 53 -9 15 -9 46 -181 34 -193 -10 -10
-221 -68 -247 -68 -20 0 -24 9 -38 88 -12 62 -15 71 -12 32 3 -30 8 -71 11
-91 l6 -36 -63 -12 c-90 -16 -258 -35 -263 -30 -4 4 -7 79 -26 529 -14 322
-17 290 28 292 l37 1 -37 4 -36 4 -6 82 c-11 143 -15 156 -11 35 l4 -118 -142
-2 -142 -2 141 -3 141 -4 7 -147 c3 -81 9 -220 12 -310 l7 -162 -169 2 -169 3
0 50 c0 28 3 165 6 305 4 151 3 204 -1 130 -4 -69 -11 -254 -15 -412 l-8 -288
-46 0 c-25 0 -110 7 -189 16 l-143 17 5 96 5 96 -10 -90 c-6 -49 -12 -91 -14
-93 -7 -7 -185 35 -308 73 -185 56 -317 123 -317 161 0 8 6 25 14 37 8 12 29
74 46 137 47 172 111 368 175 535 94 247 301 657 368 733 25 27 48 28 174 3z
m813 -5 l33 -14 -24 -12 c-13 -7 -35 -23 -49 -35 -21 -19 -40 -23 -121 -28
l-97 -5 -6 30 c-3 17 -5 32 -3 34 1 2 33 9 70 17 l68 14 15 -29 c18 -35 28
-37 12 -2 -10 21 -9 27 3 35 21 13 62 11 99 -5z m385 -26 c64 -31 160 -121
152 -143 -3 -8 -48 -36 -99 -62 -79 -39 -106 -47 -183 -55 -94 -10 -91 -8
-139 -75 -26 -38 -75 -65 -105 -59 -46 9 -121 -31 -183 -99 -48 -53 -59 -60
-75 -51 -24 15 -28 74 -8 115 9 17 35 51 57 75 38 41 43 64 14 64 -17 0 -89
-78 -110 -118 -9 -17 -16 -51 -16 -77 0 -50 -11 -57 -34 -23 -34 48 -7 128 67
206 39 40 40 43 23 60 -17 16 -19 15 -52 -23 -19 -22 -48 -66 -64 -99 -34 -68
-46 -58 -37 29 6 63 47 145 90 181 43 36 129 58 200 50 58 -6 61 -5 100 30
104 94 290 128 402 74z m3622 -208 c16 -97 46 -170 116 -274 86 -131 110 -202
104 -300 -6 -91 -36 -165 -93 -228 -34 -38 -114 -100 -128 -100 -3 0 -6 35 -6
78 0 70 3 81 24 101 13 13 41 56 61 96 34 67 37 79 33 137 -3 54 -14 86 -71
205 -76 156 -97 222 -97 304 0 54 1 56 23 52 21 -4 25 -13 34 -71z m-8465 36
c22 22 37 12 55 -38 10 -27 22 -49 28 -48 20 4 55 -14 55 -28 0 -8 -7 -29 -16
-46 l-16 -31 31 5 c29 4 31 3 31 -28 0 -49 -53 -87 -129 -92 -56 -4 -57 -4
-97 40 -50 54 -135 219 -127 247 4 18 7 17 32 -12 l28 -30 32 47 33 48 24 -23
c19 -18 27 -20 36 -11z m6116 -135 c7 -76 15 -157 18 -180 l5 -43 -250 0 -251
0 0 49 c0 85 -43 105 -232 106 l-128 0 -30 90 c-16 50 -30 93 -30 97 0 8 164
12 611 16 l275 2 12 -137z m-1054 80 c20 -42 57 -145 54 -148 -2 -1 -61 -8
-133 -14 -71 -7 -142 -14 -156 -17 -23 -5 -28 -1 -47 44 -12 28 -22 53 -22 55
0 2 18 7 40 11 22 3 82 28 133 56 50 27 97 49 103 49 6 1 18 -16 28 -36z
m-2657 -34 c59 -11 110 -22 112 -24 2 -2 -8 -18 -23 -35 -28 -34 -90 -158
-101 -202 -7 -27 -9 -28 -77 -28 -38 0 -78 4 -88 10 -42 22 -50 142 -15 210
18 35 64 90 75 90 5 0 58 -9 117 -21z m2311 -93 c18 -24 32 -49 32 -54 0 -6
-15 -13 -32 -17 -18 -4 -40 -9 -49 -11 -21 -6 -30 26 -22 83 8 57 30 57 71 -1z
m-2713 -47 c22 -9 63 -20 91 -24 l51 -7 7 -45 c3 -24 14 -57 25 -72 23 -31 18
-77 -10 -92 -10 -5 -42 -11 -71 -12 l-51 -2 -35 113 c-32 102 -37 112 -59 112
-14 0 -33 -5 -45 -11 -11 -6 -21 -9 -24 -7 -2 3 1 32 7 66 l11 61 31 -31 c18
-17 50 -39 72 -49z m-890 -51 c61 -68 115 -178 115 -235 0 -48 -9 -45 113 -43
55 1 100 -5 154 -21 l75 -23 35 42 c58 70 295 252 328 252 7 0 26 -48 45 -112
48 -162 53 -295 15 -441 -15 -58 -24 -114 -21 -124 3 -10 12 -75 20 -145 l14
-126 61 -73 c33 -40 61 -76 61 -81 0 -10 -78 -9 -105 1 -36 15 -46 -6 -24 -52
28 -62 26 -217 -2 -217 -6 0 -33 21 -60 47 -49 45 -52 47 -65 28 -8 -10 -14
-34 -14 -52 0 -91 -66 -193 -126 -193 -32 0 -33 1 -31 42 2 33 -2 43 -15 46
-13 2 -18 -3 -18 -17 0 -49 -93 -116 -190 -136 l-35 -8 33 28 c50 42 27 52
-50 22 -43 -18 -64 -32 -66 -45 -8 -50 133 -55 225 -8 29 14 54 30 58 35 3 6
17 6 36 -1 90 -31 195 57 215 181 4 23 9 41 11 41 3 0 25 -16 49 -36 43 -36
45 -36 64 -19 23 21 50 103 50 152 l0 33 54 0 c61 0 102 -12 169 -52 53 -31
77 -35 77 -13 0 14 -80 75 -99 75 -22 0 -8 16 51 60 95 70 118 104 130 196 6
44 13 81 15 83 5 7 32 -30 53 -74 11 -22 20 -57 20 -77 0 -20 3 -44 6 -53 6
-15 8 -15 24 0 17 16 19 15 30 -6 28 -50 -15 -151 -77 -181 -15 -7 -29 -19
-31 -27 -4 -11 10 -13 67 -9 81 4 86 -2 44 -53 -34 -40 -79 -59 -138 -59 -25
0 -45 -4 -45 -9 0 -5 11 -33 25 -64 29 -63 41 -156 31 -248 -9 -80 -18 -98
-40 -80 -13 11 -16 11 -16 1 0 -7 23 -36 51 -64 57 -57 73 -81 63 -97 -3 -6
-10 -82 -15 -169 -5 -88 -13 -170 -19 -184 -10 -27 -84 -86 -108 -86 -12 0
-14 10 -9 55 3 30 2 55 -3 55 -17 0 -30 -38 -30 -84 0 -48 -1 -49 -37 -40 -20
6 -23 13 -23 63 -1 51 -2 54 -15 37 -8 -11 -15 -35 -15 -53 0 -38 -21 -44 -52
-16 -26 23 -22 52 17 127 19 38 35 82 35 101 0 24 5 34 20 38 26 7 26 27 0 27
-71 0 -127 65 -161 185 -17 63 -35 105 -45 105 -3 0 -2 -33 2 -74 6 -68 5 -78
-19 -118 -28 -48 -80 -82 -142 -93 -22 -4 -46 -12 -52 -18 -10 -7 -13 5 -13
54 0 36 -4 59 -9 53 -4 -5 -27 -76 -51 -159 -23 -82 -58 -193 -77 -245 -19
-52 -41 -115 -50 -140 -21 -58 -77 -115 -128 -129 -53 -14 -61 -4 -47 60 7 29
10 54 7 57 -11 12 -34 -25 -47 -74 l-13 -51 -32 9 c-27 7 -33 13 -33 36 0 15
9 46 20 70 10 23 15 42 10 42 -15 0 -60 -73 -60 -97 0 -30 -16 -29 -36 2 -23
35 -11 84 30 134 62 74 110 232 123 404 5 66 4 79 -8 75 -9 -3 -20 -37 -31
-87 -9 -45 -18 -85 -21 -88 -8 -8 -60 23 -88 54 -15 15 -36 47 -48 71 -22 43
-41 48 -41 11 0 -11 5 -29 11 -41 17 -31 4 -33 -44 -5 -54 32 -91 84 -112 162
-18 64 -40 105 -55 105 -14 0 -12 -26 4 -88 16 -63 1 -71 -38 -19 -38 50 -56
128 -56 240 0 99 0 99 23 92 12 -4 40 -8 62 -9 30 -1 40 3 43 17 2 12 -3 17
-18 17 -61 0 -208 125 -225 193 -13 50 -29 48 -33 -3 -4 -45 -17 -50 -53 -21
-18 14 -23 31 -27 79 -2 34 1 75 7 93 6 18 9 34 7 36 -10 10 -39 -14 -57 -48
-11 -22 -23 -39 -27 -39 -19 0 -32 27 -32 65 0 65 19 117 58 157 20 21 33 41
29 44 -4 4 -25 2 -47 -5 -22 -6 -45 -9 -50 -6 -31 19 13 92 79 135 l49 31 31
131 c41 172 78 241 204 380 90 99 103 109 126 103 50 -13 75 -11 79 7 5 24
-66 182 -99 220 -24 28 -28 30 -28 13 -1 -11 17 -60 39 -110 22 -49 40 -90 40
-91 0 -2 -25 10 -56 27 -57 30 -94 37 -94 19 0 -6 16 -20 35 -31 l35 -21 -26
-32 c-15 -17 -62 -68 -104 -112 l-78 -82 5 37 c20 147 95 344 190 499 18 29
35 20 98 -50z m4410 23 l29 -6 -27 -18 c-32 -21 -128 -47 -173 -47 -25 0 -33
5 -38 24 -3 13 -9 31 -12 40 -5 14 6 16 92 15 55 -1 112 -4 129 -8z m-391 -21
c18 -62 27 -57 -101 -64 -162 -10 -358 -41 -448 -71 -55 -18 -86 -23 -119 -19
-98 14 -87 33 42 74 134 44 263 69 467 93 17 2 58 5 92 6 54 1 62 -2 67 -19z
m464 -73 c3 -33 0 -38 -55 -75 -63 -43 -136 -82 -153 -82 -6 0 -10 24 -10 58
l0 57 78 28 c43 15 87 34 98 42 27 21 39 13 42 -28z m-443 -38 c4 -11 5 -23 2
-25 -26 -26 -416 -54 -533 -39 l-59 8 75 19 c115 30 304 56 412 57 89 1 97 -1
103 -20z m-2436 -126 c15 -29 50 -53 77 -53 24 0 50 26 56 55 3 17 7 14 27
-18 18 -30 22 -48 19 -82 -10 -82 -72 -181 -143 -225 -39 -24 -145 -62 -145
-52 0 4 16 104 36 222 20 118 38 231 42 250 5 33 6 32 12 -20 4 -31 12 -65 19
-77z m2635 50 l7 -61 -78 -30 c-43 -16 -93 -33 -110 -37 l-33 -7 0 56 c0 31 0
59 1 64 1 4 43 21 95 38 52 17 98 34 101 38 9 9 10 7 17 -61z m574 -8 c16 -84
10 -279 -10 -345 l-14 -45 -144 -3 c-79 -1 -149 -1 -155 2 -8 3 -8 28 2 92 7
49 15 145 17 214 2 69 7 133 11 143 7 16 21 17 144 15 l136 -3 13 -70z m216
38 c9 -58 7 -209 -4 -303 -17 -142 -7 -130 -105 -130 -83 0 -85 1 -80 23 21
93 25 124 25 217 0 92 -8 152 -26 213 -5 15 4 17 89 17 l94 0 7 -37z m-3788 7
c23 0 24 -3 24 -66 0 -36 4 -74 10 -84 14 -26 70 -42 118 -34 53 8 86 44 106
117 18 61 32 78 23 25 -13 -70 -79 -457 -93 -543 -8 -49 -17 -105 -20 -124
l-5 -33 -29 27 c-37 35 -60 28 -60 -20 0 -19 -2 -35 -5 -35 -3 0 -19 16 -36
35 -44 50 -132 100 -221 126 -54 16 -78 28 -78 39 0 8 12 53 25 100 14 47 43
162 65 256 55 238 50 228 107 220 25 -3 56 -6 69 -6z m-1825 -98 c-8 -56 -15
-71 -41 -93 -90 -76 -290 -81 -362 -9 -33 33 -41 88 -10 74 30 -14 155 -16
212 -4 74 16 117 40 165 90 47 48 51 42 36 -58z m3952 46 c130 -27 389 -35
522 -14 54 8 100 14 101 13 1 -1 5 -30 9 -63 l7 -61 -84 -14 c-160 -27 -424
-14 -595 28 l-63 15 -15 51 c-20 69 -20 80 6 72 11 -4 62 -16 112 -27z m1097
-63 l0 -74 -64 -36 c-36 -20 -92 -47 -125 -60 l-60 -23 -6 31 c-2 18 -6 47 -7
66 l-3 35 130 67 c72 37 131 67 133 68 1 0 2 -33 2 -74z m-3431 -38 c-7 -31
-15 -57 -19 -57 -16 0 -78 86 -68 95 4 4 92 22 95 20 2 -1 -2 -27 -8 -58z
m3149 -99 c3 -61 1 -66 -20 -72 -37 -11 -192 -45 -194 -43 -1 1 -4 32 -8 70
l-7 67 28 1 c15 0 62 11 103 23 41 13 80 23 85 21 6 -1 11 -31 13 -67z m-4681
27 c32 -19 81 -40 110 -46 52 -12 53 -13 53 -49 0 -68 -11 -100 -36 -106 -36
-9 -55 9 -79 72 -12 33 -28 59 -36 59 -7 0 -24 -18 -36 -40 -12 -22 -23 -35
-23 -30 0 6 -4 16 -9 24 -8 12 -12 12 -25 2 -11 -9 -20 -10 -35 -1 -28 14 -26
41 3 69 14 13 30 36 36 52 7 16 14 29 16 29 2 0 29 -16 61 -35z m2368 -26 c3
-10 -15 -85 -39 -168 -25 -84 -53 -180 -61 -214 -26 -105 -43 -134 -90 -156
-37 -17 -115 -44 -192 -66 -37 -10 -45 46 -27 184 20 158 20 158 57 165 43 8
134 51 176 83 43 33 109 135 123 191 l11 45 18 -24 c10 -13 21 -31 24 -40z
m-880 -93 c-8 -39 -28 -111 -44 -161 -28 -88 -29 -90 -42 -62 -11 24 -10 36
10 90 12 34 27 110 34 168 l11 106 24 -35 c23 -35 23 -35 7 -106z m2449 114
c33 -5 61 -11 62 -13 2 -1 6 -33 10 -71 7 -64 6 -68 -12 -63 -10 3 -44 12 -74
21 -75 21 -87 33 -98 94 l-9 52 31 -5 c17 -2 58 -9 90 -15z m1007 -102 c-7
-54 -16 -77 -31 -90 -24 -19 -180 -81 -187 -74 -3 2 -7 40 -10 83 l-5 78 63
23 c35 12 89 39 119 60 53 36 55 36 58 15 2 -12 -1 -55 -7 -95z m-778 76 l67
-6 0 -65 0 -65 -95 4 c-52 2 -96 6 -98 8 -2 3 -7 35 -10 71 l-6 67 37 -4 c20
-2 67 -6 105 -10z m272 -45 c4 -33 5 -63 2 -66 -8 -7 -176 -28 -181 -22 -3 2
-6 33 -7 69 l-3 65 75 6 c41 3 81 6 91 7 13 2 18 -11 23 -59z m-4621 -8 c-5
-24 -1 -35 20 -54 23 -21 24 -26 11 -37 -43 -35 -220 26 -213 73 3 19 11 23
71 29 38 3 71 9 75 12 3 3 13 6 23 6 15 0 17 -6 13 -29z m4154 -87 c38 -6 42
-9 47 -43 3 -20 10 -53 14 -73 5 -20 7 -39 4 -41 -5 -6 -81 9 -114 21 -21 8
-30 24 -48 84 -13 40 -25 79 -28 85 -3 8 11 6 39 -7 24 -10 63 -22 86 -26z
m722 -37 l0 -84 -82 -17 c-143 -29 -132 -33 -138 54 -3 41 -5 76 -4 78 2 4
186 50 207 51 15 1 17 -9 17 -82z m-4666 16 c4 -16 25 -44 47 -63 38 -33 40
-38 34 -73 -6 -31 -11 -37 -32 -37 -33 0 -80 26 -93 51 -11 20 -8 54 11 117
13 39 25 41 33 5z m-349 -8 c27 -13 62 -20 108 -20 60 0 71 3 87 23 17 20 22
22 42 11 13 -6 24 -13 26 -14 1 -1 -3 -36 -9 -76 -10 -67 -16 -80 -65 -139
-111 -134 -157 -178 -198 -185 -97 -19 -234 21 -265 76 -21 38 -9 67 64 150
35 41 86 102 112 136 27 35 50 62 53 60 3 -2 23 -12 45 -22z m4770 -50 c4 -42
4 -79 1 -83 -4 -3 -44 -6 -89 -7 l-82 0 -8 69 c-4 38 -6 71 -4 72 3 3 119 20
159 23 13 1 18 -13 23 -74z m-209 51 c1 -1 5 -34 8 -73 l7 -73 -49 0 c-27 0
-70 3 -95 6 -50 7 -51 8 -63 101 l-7 53 99 -7 c55 -3 100 -6 100 -7z m2091
-118 l54 -22 -7 -45 c-23 -166 -69 -343 -97 -371 -34 -33 -96 -70 -117 -70
-35 0 -27 68 16 130 39 57 38 74 -4 43 -43 -32 -72 -82 -72 -124 0 -22 -5 -39
-10 -39 -18 0 -80 29 -80 37 0 13 39 216 42 218 17 10 96 25 136 25 28 0 54 5
58 11 3 6 -24 42 -64 83 -79 80 -92 101 -86 136 2 14 6 46 9 72 l6 47 82 -55
c44 -29 105 -64 134 -76z m-1411 65 c-32 -90 -53 -119 -103 -141 -26 -11 -59
-23 -73 -27 -25 -6 -25 -6 -20 55 l5 61 89 39 c50 22 94 44 100 50 16 16 17 5
2 -37z m397 -3 c207 0 191 15 152 -141 -40 -157 -49 -174 -111 -208 -29 -17
-63 -45 -76 -62 l-23 -30 -105 6 c-439 25 -615 35 -635 35 -23 0 -23 2 -18 58
3 31 7 58 8 59 1 2 44 14 96 27 147 37 259 84 297 123 17 19 32 38 32 43 0 5
9 30 20 56 l21 47 82 -6 c45 -4 162 -7 260 -7z m-1324 -93 c53 -13 54 -13 67
-62 18 -68 18 -67 -18 -59 -50 10 -77 32 -109 88 -33 59 -36 70 -11 56 9 -5
41 -16 71 -23z m706 -23 c4 -31 3 -60 -2 -65 -10 -10 -157 -49 -183 -49 -19 0
-30 36 -30 96 0 30 3 34 28 35 15 0 59 9 97 19 39 10 73 18 76 19 4 0 10 -24
14 -55z m-4626 -34 c20 0 22 -4 17 -25 -14 -55 -27 -75 -70 -104 -96 -66 -128
-151 -77 -205 19 -20 22 -29 14 -53 -9 -26 -13 -28 -74 -31 -76 -4 -127 9
-169 44 -51 44 -38 82 72 202 38 42 95 107 125 143 l55 67 42 -19 c22 -10 52
-19 65 -19z m4147 30 c40 0 42 -1 48 -37 3 -21 9 -48 12 -60 6 -21 3 -23 -32
-23 -22 0 -63 3 -91 6 -52 7 -53 8 -64 48 -5 23 -13 50 -16 60 -5 18 -1 19 48
13 30 -4 73 -7 95 -7z m246 -51 c1 -33 1 -63 -1 -65 -2 -2 -39 -4 -82 -4 l-77
0 -7 38 c-3 20 -9 47 -12 59 -5 24 -14 22 144 31 l31 2 4 -61z m1660 -12 l36
-44 -46 -11 c-26 -6 -48 -9 -49 -8 -5 5 10 106 16 106 4 0 23 -20 43 -43z
m-4507 -21 c75 -35 161 -111 171 -152 3 -13 3 -36 0 -50 -10 -37 -97 -126
-154 -157 -44 -24 -56 -26 -116 -20 -78 7 -99 23 -28 22 60 -2 72 5 72 37 0
37 -25 78 -86 145 -51 56 -54 61 -54 113 0 29 -3 67 -6 83 l-6 30 69 -9 c40
-5 96 -22 138 -42z m2845 -121 c0 -46 -27 -73 -118 -119 l-70 -35 -12 72 c-6
40 -13 82 -16 95 -4 22 -3 22 106 22 l110 0 0 -35z m-2235 -44 c16 -32 104
-90 190 -125 l55 -22 -163 -120 c-153 -114 -345 -246 -394 -273 -20 -10 -24
-8 -38 19 l-16 30 30 0 c33 0 115 52 144 92 12 16 21 44 21 70 1 42 0 43 -30
42 l-32 -2 20 34 c29 49 29 135 0 174 -17 22 -19 31 -10 34 45 13 176 60 188
67 8 5 16 9 17 9 1 0 9 -13 18 -29z m1400 -93 c4 -29 5 -73 3 -98 l-3 -45
-172 -3 -173 -2 0 100 0 100 169 0 170 0 6 -52z m1123 8 c128 -7 235 -16 238
-19 7 -6 -281 -289 -387 -380 l-75 -65 -152 11 c-84 6 -152 14 -152 18 0 4
-43 71 -95 149 -52 78 -95 143 -95 144 0 2 18 6 41 10 70 11 251 75 314 110
71 40 63 39 363 22z m479 -30 c2 -1 -2 -18 -7 -37 -28 -96 9 -188 92 -228 24
-11 50 -21 58 -21 8 0 32 -9 55 -20 23 -11 86 -27 141 -36 54 -8 113 -18 130
-20 17 -3 47 1 67 10 20 8 37 11 37 7 0 -4 -30 -49 -66 -100 -66 -92 -66 -92
-103 -87 -20 3 -67 8 -106 11 -38 3 -227 19 -420 35 -192 17 -379 33 -415 36
-122 10 -121 4 -7 103 56 49 163 151 237 225 l135 137 85 -7 c47 -4 86 -7 87
-8z m-2609 -75 c53 -16 151 -39 217 -51 66 -13 121 -24 123 -25 3 -2 -19 -158
-23 -166 -2 -3 -57 0 -122 7 -65 7 -203 20 -308 29 -104 9 -205 20 -222 23
l-33 7 125 93 c69 52 128 98 131 103 7 12 1 13 112 -20z m1426 -140 c62 -94
74 -133 56 -185 -23 -71 -134 -136 -231 -136 -36 0 -41 5 -130 118 -106 134
-139 186 -139 223 0 26 1 26 123 38 67 7 151 18 187 25 36 7 68 10 72 7 3 -3
32 -44 62 -90z m-771 43 c145 -6 187 -10 187 -20 0 -46 -93 -472 -136 -620
-15 -51 -15 -51 -71 -63 -66 -15 -160 -8 -242 20 -31 10 -64 19 -73 19 -23 0
-23 -7 13 270 16 129 35 275 41 324 l11 88 41 -6 c23 -3 125 -9 229 -12z m291
-57 c9 -29 29 -71 45 -94 l29 -40 -71 5 c-40 2 -75 7 -79 11 -4 4 -1 42 7 85
8 43 15 80 15 82 0 2 9 4 19 4 15 0 23 -13 35 -53z m-996 -99 l154 -13 -49
-34 c-101 -71 -313 -211 -442 -291 l-133 -82 -82 6 c-121 11 -129 14 -121 45
4 14 8 68 10 120 l4 93 145 97 145 97 108 -13 c59 -7 177 -18 261 -25z m360
-33 c4 -4 -56 -466 -61 -472 -3 -2 -101 7 -218 21 -118 14 -266 31 -329 37
-169 17 -168 16 -57 82 111 66 327 209 439 289 l77 55 73 -5 c40 -2 74 -6 76
-7z m685 -41 c37 -3 67 -9 67 -13 0 -3 34 -46 75 -96 41 -49 94 -126 117 -170
40 -77 41 -81 31 -130 -6 -28 -18 -68 -27 -89 -16 -37 -17 -38 -58 -33 -24 3
-139 16 -256 28 -183 20 -212 25 -206 38 9 23 101 400 109 444 6 38 7 38 43
33 20 -3 67 -8 105 -12z m587 -64 c37 -73 40 -86 40 -159 0 -44 -4 -91 -9
-104 -20 -51 -166 -82 -233 -50 -31 15 -44 33 -80 105 l-43 86 42 7 c60 9 159
61 188 99 14 18 30 47 36 64 6 18 13 32 15 32 2 0 22 -36 44 -80z m240 -4 c80
-8 243 -22 363 -32 119 -10 217 -21 217 -25 0 -13 -321 -301 -448 -403 -75
-59 -89 -66 -128 -66 -24 0 -44 4 -44 9 0 5 14 52 30 106 37 119 37 147 5 212
-27 54 -114 143 -139 143 -13 0 -46 47 -46 65 0 7 28 6 190 -9z m918 -80 c144
-13 265 -26 268 -28 10 -11 -200 -268 -335 -411 l-77 -80 -289 27 c-160 15
-310 30 -334 34 l-44 7 96 77 c90 73 299 262 391 354 23 22 46 41 51 42 6 1
128 -9 273 -22z m-1009 -75 c33 -46 32 -58 -43 -315 -25 -88 -61 -189 -79
-225 -28 -58 -38 -69 -87 -94 -97 -49 -249 -54 -310 -9 -48 36 -34 138 32 225
14 18 16 18 52 -7 72 -49 189 -27 251 45 63 75 115 227 115 335 0 80 6 97 30
84 10 -6 28 -23 39 -39z m61 -135 c0 -35 -7 -83 -15 -107 -9 -24 -27 -84 -41
-134 -25 -89 -65 -175 -91 -196 -7 -6 -2 13 11 43 30 68 117 375 119 422 3 62
17 39 17 -28z m-2160 -51 c173 -19 333 -35 357 -35 24 0 43 -3 43 -7 -1 -12
-622 -400 -739 -463 l-24 -13 21 27 c24 32 29 70 36 294 l5 163 -34 37 -34 38
27 -3 c15 -2 169 -19 342 -38z m-1922 -66 l34 -38 -27 -56 c-16 -34 -52 -82
-94 -123 -37 -37 -75 -78 -84 -91 l-16 -24 -238 41 c-131 22 -264 44 -295 48
-32 3 -58 10 -58 15 0 5 7 9 17 9 20 0 445 169 598 238 96 44 111 48 120 34 6
-8 25 -33 43 -53z m3752 37 c42 0 77 6 99 17 19 9 35 16 37 14 7 -6 -46 -121
-71 -153 -48 -62 -153 -88 -209 -50 -32 21 -33 48 -3 136 l22 68 30 -16 c18
-9 56 -16 95 -16z m-1272 -32 c50 -7 52 -8 52 -38 0 -52 -35 -163 -63 -200
-19 -25 -69 -56 -186 -115 -229 -118 -277 -165 -269 -271 l3 -52 -28 6 c-15 3
-114 20 -220 37 -384 61 -345 53 -317 71 14 8 88 50 165 94 147 82 477 285
655 403 109 72 120 75 208 65z m367 -52 c50 3 99 8 109 13 16 7 18 5 12 -11
-4 -10 -19 -64 -33 -119 -13 -55 -29 -116 -34 -137 -8 -30 -19 -42 -65 -68
-68 -38 -76 -37 -230 32 l-112 50 24 43 c28 49 50 119 60 190 3 28 8 53 10 56
2 4 41 -7 86 -23 74 -26 93 -29 173 -26z m354 -20 l165 -17 -150 -111 c-220
-163 -273 -198 -281 -191 -4 4 6 60 21 125 42 170 55 212 69 211 7 0 86 -8
176 -17z m-2995 -117 c23 -13 57 -26 76 -30 69 -15 62 -36 -34 -109 -75 -56
-88 -75 -106 -143 -11 -45 -54 -89 -96 -99 -34 -9 -37 -3 -23 50 6 26 8 50 4
54 -11 11 -35 -29 -42 -70 -3 -21 -7 -38 -10 -38 -2 0 -18 7 -35 16 -30 16
-31 16 -25 77 l6 62 -19 -24 c-12 -13 -20 -38 -20 -60 l-1 -36 -24 28 c-52 58
-24 137 92 259 43 46 86 102 97 125 25 57 44 58 85 5 19 -24 53 -54 75 -67z
m960 96 c3 -5 0 -26 -8 -47 -7 -22 -19 -72 -26 -111 -12 -77 -34 -114 -78
-137 -38 -19 -94 -27 -112 -16 -13 8 -13 15 3 58 23 65 22 70 -8 42 -15 -14
-28 -40 -32 -62 -5 -37 -6 -38 -24 -22 -21 19 -25 65 -8 112 11 33 74 82 105
82 34 0 119 46 145 78 25 33 34 37 43 23z m2344 -16 c1 -1 -18 -41 -43 -89
-60 -115 -62 -162 -7 -216 21 -21 55 -43 77 -49 57 -15 151 -14 220 4 158 42
243 110 286 230 15 42 28 65 38 65 9 0 186 -16 394 -37 l378 -37 -58 -59
c-209 -214 -732 -668 -762 -661 -9 2 -203 26 -431 54 -228 27 -513 63 -633 80
-120 16 -223 30 -230 30 -7 0 18 18 55 40 106 64 124 92 149 244 l12 71 76 52
c42 28 148 106 236 172 154 115 161 119 200 114 22 -3 41 -7 43 -8z m-2258
-75 c22 0 9 -70 -25 -133 -39 -73 -43 -105 -19 -143 28 -42 71 -57 161 -58
l82 -1 -34 -17 c-18 -10 -36 -22 -40 -28 -3 -5 -18 -7 -33 -5 -15 3 -130 21
-257 40 -316 49 -285 40 -273 79 l11 34 49 -25 c42 -21 57 -24 101 -18 29 4
74 16 100 28 60 25 82 65 103 185 9 47 18 90 20 94 3 4 14 -2 24 -12 11 -11
25 -20 30 -20z m-1905 -115 c83 -13 218 -36 301 -51 l151 -27 -9 -39 c-10 -47
4 -108 31 -132 30 -27 140 -76 171 -76 79 0 171 63 192 132 8 26 17 38 30 38
41 0 148 -25 148 -35 0 -5 -13 -24 -28 -41 -29 -33 -74 -51 -597 -235 -266
-94 -203 -92 -575 -14 -578 122 -886 187 -900 192 -8 2 55 28 140 57 185 64
579 205 670 240 42 17 76 24 95 20 17 -3 98 -16 180 -29z m1058 19 c18 -9 33
-18 35 -19 4 -4 -38 -134 -46 -138 -4 -3 -45 3 -91 12 l-85 17 50 37 c27 20
60 52 74 71 14 20 26 36 28 36 2 0 17 -7 35 -16z m2179 -101 l128 -58 -39 -17
c-58 -27 -150 -48 -203 -48 -60 0 -113 21 -156 63 l-32 31 77 42 c43 23 82 42
88 43 5 0 67 -25 137 -56z m318 -52 c0 -16 -3 -49 -6 -74 -6 -41 -13 -51 -65
-92 -132 -104 -319 -163 -479 -152 -138 10 -286 62 -296 103 -18 71 34 147
135 199 l48 24 39 -40 c113 -117 248 -116 486 5 68 34 126 60 131 58 4 -2 7
-16 7 -31z m-1862 -130 c136 -22 283 -45 327 -51 141 -20 639 -100 658 -106
39 -12 39 -12 -258 -152 -99 -46 -279 -129 -399 -183 l-220 -99 -145 26 c-484
84 -684 120 -916 164 -453 86 -495 95 -495 100 0 3 96 38 213 79 189 67 433
156 479 175 13 6 16 1 15 -28 -1 -21 7 -47 19 -63 27 -37 137 -93 183 -93 136
1 230 76 268 212 9 32 18 58 20 58 2 0 115 -18 251 -39z m1827 -77 c-35 -54
-221 -149 -341 -174 -160 -33 -380 3 -421 70 -13 19 -13 19 27 -1 21 -11 63
-27 92 -35 69 -18 234 -18 322 1 94 20 241 93 291 145 41 42 60 39 30 -6z
m-781 -153 c69 -77 340 -104 508 -51 l68 21 242 -36 c134 -20 247 -37 252 -39
10 -2 -167 -115 -514 -328 -175 -108 -231 -137 -250 -133 -14 2 -149 25 -300
49 -712 115 -860 141 -860 146 1 3 110 54 243 113 133 59 319 146 412 192 94
46 173 84 176 84 3 1 14 -8 23 -18z m-2411 -135 c287 -58 544 -108 570 -112
26 -3 46 -9 43 -11 -8 -8 -679 -274 -966 -383 -47 -18 -90 -37 -96 -41 -6 -5
-98 11 -220 39 -314 73 -934 226 -934 232 0 3 76 31 169 62 217 74 826 294
849 307 9 6 28 11 40 11 13 0 259 -47 545 -104z m3932 -21 c171 -20 329 -39
353 -43 l44 -7 -144 -106 c-165 -122 -330 -237 -474 -333 l-101 -67 -314 50
c-173 27 -348 55 -389 61 -110 17 -110 18 -50 52 71 39 488 300 605 377 76 51
95 59 125 55 19 -2 175 -20 345 -39z"/>
<path d="M2415 7840 c-25 -10 -50 -38 -41 -47 3 -3 24 0 45 7 65 21 157 -9
188 -61 19 -31 36 -33 41 -5 13 66 -149 140 -233 106z"/>
<path d="M1855 7783 c-68 -35 -125 -110 -125 -163 0 -30 27 -24 38 8 14 41 60
90 105 113 31 16 50 19 83 14 46 -7 58 7 32 33 -17 17 -97 14 -133 -5z"/>
<path d="M2458 7580 c-37 -28 -51 -72 -46 -135 6 -75 43 -115 104 -115 34 0
47 5 63 25 45 59 39 159 -14 212 -38 38 -71 42 -107 13z"/>
<path d="M1889 7535 c-27 -14 -69 -96 -69 -133 0 -44 14 -83 38 -107 76 -76
191 43 162 169 -17 75 -71 104 -131 71z"/>
<path d="M2217 7483 c-6 -11 -72 -215 -96 -296 -11 -38 -17 -75 -14 -83 3 -8
30 -21 61 -30 102 -30 223 1 230 58 3 28 -44 158 -102 281 -27 56 -42 77 -56
77 -10 0 -21 -3 -23 -7z m82 -187 c28 -69 51 -134 51 -146 0 -13 -10 -24 -27
-31 -32 -12 -149 -8 -162 6 -10 12 69 295 83 295 2 0 27 -56 55 -124z"/>
<path d="M1864 7048 c-55 -51 -70 -76 -55 -91 8 -8 18 -4 36 13 18 17 25 19
25 9 0 -19 55 -72 97 -93 89 -45 282 -60 384 -30 68 20 143 67 171 108 12 17
23 33 25 35 1 2 9 -2 17 -8 22 -19 31 6 12 34 -9 14 -20 25 -25 25 -5 0 -36
-26 -68 -58 -78 -78 -144 -104 -268 -106 -67 0 -108 5 -160 21 -125 40 -171
88 -129 134 17 19 13 49 -6 49 -6 0 -31 -19 -56 -42z"/>
<path d="M3305 7462 c-41 -25 -58 -49 -51 -67 5 -14 12 -11 43 13 48 37 85 46
128 30 42 -14 55 -5 30 22 -24 27 -108 28 -150 2z"/>
<path d="M3932 7444 c-22 -15 -30 -44 -12 -44 5 0 21 5 34 12 36 16 98 -4 130
-42 13 -17 29 -30 35 -30 22 0 10 37 -21 67 -55 53 -122 68 -166 37z"/>
<path d="M3353 7255 c-42 -18 -66 -74 -61 -141 6 -69 35 -104 88 -104 56 0 93
44 98 117 3 48 0 64 -20 92 -27 41 -64 53 -105 36z"/>
<path d="M3899 7201 c-24 -25 -29 -37 -29 -81 0 -70 22 -117 61 -134 67 -28
129 26 129 112 0 113 -92 172 -161 103z"/>
<path d="M3597 7073 c-37 -60 -68 -140 -74 -193 -7 -59 5 -68 103 -77 65 -6
66 -6 62 18 -3 21 -9 25 -61 30 -32 4 -60 9 -63 12 -9 9 23 108 55 172 16 32
28 62 25 67 -10 16 -24 7 -47 -29z"/>
<path d="M3306 6739 c-20 -35 -15 -69 8 -50 11 10 23 5 58 -21 109 -83 261
-116 400 -87 60 13 154 52 179 75 11 10 19 12 24 5 11 -19 25 -12 25 12 0 31
-36 87 -56 87 -16 0 -16 -12 0 -51 11 -26 -125 -81 -231 -93 -65 -8 -171 8
-235 36 -64 27 -143 84 -129 92 17 11 13 26 -7 26 -10 0 -26 -14 -36 -31z"/>
<path d="M5415 6830 c-3 -4 19 -21 47 -38 154 -86 285 -219 353 -354 24 -49
50 -107 56 -129 17 -57 33 -49 26 12 -17 142 -160 337 -327 445 -75 48 -146
78 -155 64z"/>
<path d="M4580 6459 c-51 -31 -80 -60 -80 -81 0 -25 12 -23 41 8 13 14 36 32
51 40 31 16 105 18 142 4 26 -10 40 -2 28 16 -25 39 -127 46 -182 13z"/>
<path d="M5327 6394 c-39 -21 -26 -32 30 -27 73 7 128 -12 184 -64 40 -37 50
-42 55 -29 13 33 -56 102 -125 125 -47 15 -110 13 -144 -5z"/>
<path d="M4573 6170 c-44 -27 -66 -73 -67 -144 -1 -77 19 -86 27 -12 7 70 30
113 71 133 46 22 98 10 144 -31 33 -31 36 -39 40 -100 6 -90 27 -84 26 8 -1
74 -16 104 -74 144 -43 29 -121 30 -167 2z"/>
<path d="M5324 6141 c-17 -10 -41 -32 -52 -48 -24 -34 -47 -116 -38 -138 8
-23 26 -18 26 8 0 34 45 122 71 141 33 22 106 21 147 -4 42 -26 69 -72 84
-143 14 -69 33 -69 32 -1 -4 147 -159 253 -270 185z"/>
<path d="M4610 6107 c-74 -37 -79 -182 -8 -231 73 -51 158 16 158 124 0 96
-71 147 -150 107z"/>
<path d="M5362 6075 c-98 -42 -72 -275 31 -275 35 0 84 31 102 64 13 24 17 48
13 95 -4 52 -9 66 -34 90 -37 36 -70 44 -112 26z"/>
<path d="M5951 5876 c-17 -20 -10 -60 12 -64 13 -3 17 3 17 25 0 41 -13 58
-29 39z"/>
<path d="M4865 5836 c-32 -32 -33 -81 -2 -127 25 -37 57 -48 75 -26 9 11 7 16
-13 27 -13 7 -29 26 -34 41 -8 24 -6 33 13 55 19 23 25 25 43 15 35 -18 55
-14 51 12 -3 19 -10 22 -55 25 -45 3 -56 -1 -78 -22z"/>
<path d="M5190 5557 c-81 -37 -241 -34 -387 9 -38 11 -27 -20 25 -74 56 -58
137 -102 184 -102 46 1 106 31 153 77 22 22 49 45 60 51 19 10 34 63 17 61 -4
0 -27 -10 -52 -22z m-151 -67 l95 0 -34 -25 c-65 -48 -129 -41 -206 20 l-29
24 40 -9 c22 -5 82 -10 134 -10z"/>
<path d="M7793 6119 c-70 -9 -133 -41 -200 -103 -104 -95 -157 -200 -232 -461
-31 -107 -47 -146 -78 -187 -94 -126 -123 -206 -123 -336 0 -210 91 -371 313
-556 48 -40 65 -63 101 -139 52 -112 113 -182 193 -222 52 -26 68 -30 153 -30
88 0 101 3 160 32 36 18 100 61 142 97 102 85 138 105 311 175 215 86 302 144
382 252 113 154 136 279 101 541 -8 62 -20 183 -25 268 -16 238 -51 336 -160
453 -115 122 -263 170 -423 136 -65 -14 -161 -57 -223 -99 -26 -18 -48 -30
-49 -28 -1 1 -14 24 -29 49 -67 118 -181 175 -314 158z m109 -49 c69 -20 128
-70 170 -145 22 -38 43 -74 48 -78 4 -5 31 9 60 31 63 48 160 97 224 113 26 6
82 10 125 7 192 -11 344 -152 396 -369 8 -35 20 -143 25 -239 5 -96 17 -213
25 -260 38 -213 -5 -369 -139 -508 -76 -80 -153 -125 -326 -193 -168 -66 -191
-79 -315 -179 -125 -100 -180 -123 -285 -118 -131 6 -226 76 -289 214 -18 38
-38 80 -44 93 -7 13 -44 50 -82 81 -205 167 -289 317 -289 510 -1 119 19 175
102 297 55 80 65 102 107 248 71 247 140 369 251 446 81 55 156 71 236 49z"/>
<path d="M7670 5864 c-47 -32 -67 -74 -35 -74 8 0 15 4 15 8 0 16 59 42 94 42
20 0 52 -6 71 -14 59 -25 49 11 -12 43 -32 16 -105 13 -133 -5z"/>
<path d="M8463 5780 c-22 -9 -32 -29 -15 -30 4 -1 30 -2 57 -3 61 -3 107 -32
135 -88 24 -46 40 -50 40 -11 0 86 -132 166 -217 132z"/>
<path d="M7648 5553 c-64 -67 -66 -188 -4 -228 75 -49 161 83 127 196 -19 64
-78 79 -123 32z"/>
<path d="M7864 5368 c-155 -158 -224 -240 -224 -267 0 -34 24 -72 77 -122 80
-78 144 -98 241 -78 101 20 212 93 212 138 0 57 -144 110 -325 120 l-120 6
148 151 c81 84 147 157 147 163 0 32 -48 -1 -156 -111z m141 -277 c44 -12 89
-29 100 -37 20 -15 19 -16 -11 -43 -83 -75 -226 -91 -306 -35 -40 28 -108 106
-108 124 0 27 215 21 325 -9z"/>
<path d="M8405 5449 c-84 -74 -66 -249 27 -249 42 0 65 16 87 58 41 82 33 169
-20 206 -34 23 -54 20 -94 -15z"/>
<path d="M7341 5036 c-9 -11 1 -14 55 -19 37 -4 68 -8 69 -9 0 -2 -1 -27 -3
-55 -4 -50 -6 -53 -30 -53 -44 0 -104 -20 -99 -33 4 -13 20 -14 88 -3 l46 7
32 -66 c33 -67 82 -111 146 -132 27 -9 31 -15 41 -79 15 -87 25 -113 58 -145
76 -76 279 -58 372 32 17 17 41 52 54 78 20 43 27 50 75 65 38 12 64 29 95 62
l42 46 59 -27 c36 -16 72 -25 92 -23 29 3 24 6 -56 42 -78 35 -86 41 -80 60 5
12 7 40 7 64 -2 50 7 52 101 23 63 -20 84 -18 64 5 -22 27 -219 71 -266 59
-28 -7 -30 -26 -5 -48 24 -22 43 -22 35 -1 -4 11 -2 15 7 12 26 -8 34 -35 24
-75 -8 -32 -13 -38 -39 -41 -44 -5 -51 -18 -14 -26 30 -6 31 -7 17 -28 -30
-45 -95 -72 -189 -76 -143 -7 -256 36 -286 109 -20 51 -37 51 -30 0 6 -46 -3
-51 -101 -51 -78 0 -131 25 -172 81 -36 51 -46 79 -30 89 15 10 4 30 -16 30
-11 0 -14 9 -12 38 2 30 7 38 26 40 33 5 27 31 -13 48 -44 18 -149 19 -164 0z
m408 -443 c-10 -11 -14 -11 -20 -1 -10 17 -2 28 17 21 11 -4 12 -8 3 -20z
m286 -19 c77 -22 84 -28 56 -58 -84 -89 -295 -93 -338 -6 -10 21 -9 28 9 47
40 43 158 50 273 17z"/>
<path d="M4718 4773 c7 -3 16 -2 19 1 4 3 -2 6 -13 5 -11 0 -14 -3 -6 -6z"/>
<path d="M5453 4763 c15 -2 39 -2 55 0 15 2 2 4 -28 4 -30 0 -43 -2 -27 -4z"/>
<path d="M4782 4700 c0 -14 2 -19 5 -12 2 6 2 18 0 25 -3 6 -5 1 -5 -13z"/>
<path d="M4660 4630 c8 -5 28 -10 44 -10 39 0 30 6 -19 13 -27 4 -35 3 -25 -3z"/>
<path d="M4752 4613 c9 -2 19 -16 21 -31 l4 -27 2 27 c1 19 7 28 24 31 12 2 2
4 -23 4 -25 1 -37 -1 -28 -4z"/>
<path d="M4853 4603 c15 -2 39 -2 55 0 15 2 2 4 -28 4 -30 0 -43 -2 -27 -4z"/>
<path d="M4960 4598 c0 -5 42 -7 93 -6 94 1 82 5 -31 10 -34 2 -62 0 -62 -4z"/>
<path d="M5483 4603 c9 -2 23 -2 30 0 6 3 -1 5 -18 5 -16 0 -22 -2 -12 -5z"/>
<path d="M4962 4550 c0 -19 2 -27 5 -17 2 9 2 25 0 35 -3 9 -5 1 -5 -18z"/>
<path d="M5352 4473 l-2 -52 -52 -4 -53 -3 52 -2 c45 -2 52 -5 56 -24 4 -23 4
-23 6 -1 0 12 9 24 19 26 15 4 15 5 0 6 -13 1 -18 13 -21 54 l-3 52 -2 -52z"/>
<path d="M4762 4480 c0 -14 2 -19 5 -12 2 6 2 18 0 25 -3 6 -5 1 -5 -13z"/>
<path d="M4951 4463 c-1 -32 -2 -33 -48 -35 l-48 -1 50 -6 c54 -6 62 1 52 52
-3 16 -5 13 -6 -10z"/>
<path d="M4710 4446 c50 -11 70 -12 59 -2 -2 2 -29 6 -59 9 l-55 6 55 -13z"/>
<path d="M4803 4433 c9 -2 25 -2 35 0 9 3 1 5 -18 5 -19 0 -27 -2 -17 -5z"/>
<path d="M5428 4423 c12 -2 32 -2 45 0 12 2 2 4 -23 4 -25 0 -35 -2 -22 -4z"/>
<path d="M4763 4350 c0 -41 2 -58 4 -37 2 20 2 54 0 75 -2 20 -4 3 -4 -38z"/>
<path d="M5018 4413 c23 -2 59 -2 80 0 20 2 1 4 -43 4 -44 0 -61 -2 -37 -4z"/>
<path d="M5140 4410 c0 -5 5 -10 10 -10 6 0 10 5 10 10 0 6 -4 10 -10 10 -5 0
-10 -4 -10 -10z"/>
<path d="M5543 4370 c0 -30 2 -43 4 -27 2 15 2 39 0 55 -2 15 -4 2 -4 -28z"/>
<path d="M5344 4190 c0 -91 2 -121 3 -68 l4 97 42 4 42 4 -42 1 -42 2 -4 63
c-2 34 -3 -12 -3 -103z"/>
<path d="M4943 4295 c0 -27 2 -38 4 -22 2 15 2 37 0 50 -2 12 -4 0 -4 -28z"/>
<path d="M5533 4235 c0 -33 2 -46 4 -28 3 19 11 34 21 36 16 4 16 5 0 6 -9 0
-19 11 -21 24 -2 12 -4 -5 -4 -38z"/>
<path d="M4678 4273 c7 -3 16 -2 19 1 4 3 -2 6 -13 5 -11 0 -14 -3 -6 -6z"/>
<path d="M4728 4263 c7 -3 16 -2 19 1 4 3 -2 6 -13 5 -11 0 -14 -3 -6 -6z"/>
<path d="M4760 4259 c0 -7 89 -23 96 -17 2 2 -19 9 -46 14 -28 6 -50 7 -50 3z"/>
<path d="M4883 4233 c9 -2 25 -2 35 0 9 3 1 5 -18 5 -19 0 -27 -2 -17 -5z"/>
<path d="M4940 4228 c0 -4 24 -7 53 -7 54 1 49 5 -15 11 -21 2 -38 0 -38 -4z"/>
<path d="M5458 4233 c12 -2 30 -2 40 0 9 3 -1 5 -23 4 -22 0 -30 -2 -17 -4z"/>
<path d="M4942 4190 c0 -14 2 -19 5 -12 2 6 2 18 0 25 -3 6 -5 1 -5 -13z"/>
<path d="M4773 4135 c0 -22 2 -30 4 -17 2 12 2 30 0 40 -3 9 -5 -1 -4 -23z"/>
<path d="M5523 4115 c0 -33 2 -45 4 -27 2 18 2 45 0 60 -2 15 -4 0 -4 -33z"/>
<path d="M4953 4070 c0 -30 2 -43 4 -27 2 15 2 39 0 55 -2 15 -4 2 -4 -28z"/>
<path d="M4941 3904 c0 -11 3 -14 6 -6 3 7 2 16 -1 19 -3 4 -6 -2 -5 -13z"/>
<path d="M4716 3885 c-3 -9 -6 -22 -5 -28 0 -7 5 -1 10 12 5 13 8 26 5 28 -2
2 -6 -3 -10 -12z"/>
<path d="M4926 3854 c-4 -14 -5 -28 -3 -31 3 -2 8 8 11 23 4 14 5 28 3 31 -3
2 -8 -8 -11 -23z"/>
<path d="M5118 3790 c-2 -44 0 -80 5 -80 4 0 7 36 7 80 0 44 -2 80 -4 80 -3 0
-6 -36 -8 -80z"/>
<path d="M4911 3794 c0 -11 3 -14 6 -6 3 7 2 16 -1 19 -3 4 -6 -2 -5 -13z"/>
<path d="M4578 3783 c6 -2 18 -2 25 0 6 3 1 5 -13 5 -14 0 -19 -2 -12 -5z"/>
<path d="M4628 3773 c6 -2 18 -2 25 0 6 3 1 5 -13 5 -14 0 -19 -2 -12 -5z"/>
<path d="M4676 3771 c-7 -10 72 -26 81 -17 4 3 -4 6 -16 6 -12 0 -31 5 -41 10
-11 6 -21 6 -24 1z"/>
<path d="M4895 3740 c-4 -17 -5 -34 -2 -36 3 -3 8 9 12 26 4 17 5 34 2 36 -3
3 -8 -9 -12 -26z"/>
<path d="M4783 3743 c9 -2 25 -2 35 0 9 3 1 5 -18 5 -19 0 -27 -2 -17 -5z"/>
<path d="M4848 3733 c6 -2 18 -2 25 0 6 3 1 5 -13 5 -14 0 -19 -2 -12 -5z"/>
<path d="M4641 3669 c-12 -35 -21 -68 -20 -73 0 -6 11 20 25 58 13 38 22 71
20 73 -2 2 -13 -24 -25 -58z"/>
<path d="M4948 3723 c12 -2 32 -2 45 0 12 2 2 4 -23 4 -25 0 -35 -2 -22 -4z"/>
<path d="M5063 3713 c9 -2 23 -2 30 0 6 3 -1 5 -18 5 -16 0 -22 -2 -12 -5z"/>
<path d="M5148 3713 c6 -2 18 -2 25 0 6 3 1 5 -13 5 -14 0 -19 -2 -12 -5z"/>
<path d="M4881 3674 c0 -11 3 -14 6 -6 3 7 2 16 -1 19 -3 4 -6 -2 -5 -13z"/>
<path d="M5113 3620 c0 -41 2 -58 4 -37 2 20 2 54 0 75 -2 20 -4 3 -4 -38z"/>
<path d="M4871 3634 c0 -11 3 -14 6 -6 3 7 2 16 -1 19 -3 4 -6 -2 -5 -13z"/>
<path d="M4861 3594 c0 -11 3 -14 6 -6 3 7 2 16 -1 19 -3 4 -6 -2 -5 -13z"/>
<path d="M4851 3554 c0 -11 3 -14 6 -6 3 7 2 16 -1 19 -3 4 -6 -2 -5 -13z"/>
<path d="M4842 3510 c0 -14 2 -19 5 -12 2 6 2 18 0 25 -3 6 -5 1 -5 -13z"/>
<path d="M5100 3476 l0 -55 -47 -4 -48 -3 47 -2 c40 -2 47 -5 51 -24 2 -13 5
14 6 60 0 45 -1 82 -4 82 -3 0 -5 -25 -5 -54z"/>
<path d="M4465 3510 c11 -5 27 -9 35 -9 9 0 8 4 -5 9 -11 5 -27 9 -35 9 -9 0
-8 -4 5 -9z"/>
<path d="M4528 3493 c7 -3 16 -2 19 1 4 3 -2 6 -13 5 -11 0 -14 -3 -6 -6z"/>
<path d="M4580 3479 c0 -5 5 -7 10 -4 6 3 10 8 10 11 0 2 -4 4 -10 4 -5 0 -10
-5 -10 -11z"/>
<path d="M4618 3473 c7 -3 16 -2 19 1 4 3 -2 6 -13 5 -11 0 -14 -3 -6 -6z"/>
<path d="M4828 3460 c-7 -24 -3 -38 8 -28 3 4 4 17 2 30 l-3 23 -7 -25z"/>
<path d="M4658 3463 c6 -2 18 -2 25 0 6 3 1 5 -13 5 -14 0 -19 -2 -12 -5z"/>
<path d="M4566 3434 c-4 -14 -5 -28 -3 -31 3 -2 8 8 11 23 4 14 5 28 3 31 -3
2 -8 -8 -11 -23z"/>
<path d="M4713 3453 c9 -2 23 -2 30 0 6 3 -1 5 -18 5 -16 0 -22 -2 -12 -5z"/>
<path d="M4773 3443 c9 -2 23 -2 30 0 6 3 -1 5 -18 5 -16 0 -22 -2 -12 -5z"/>
<path d="M4858 3433 c6 -2 18 -2 25 0 6 3 1 5 -13 5 -14 0 -19 -2 -12 -5z"/>
<path d="M4928 3423 c12 -2 30 -2 40 0 9 3 -1 5 -23 4 -22 0 -30 -2 -17 -4z"/>
<path d="M4812 3370 c0 -14 2 -19 5 -12 2 6 2 18 0 25 -3 6 -5 1 -5 -13z"/>
<path d="M4531 3319 c-7 -22 -11 -43 -8 -45 2 -2 9 14 16 37 7 22 11 43 8 45
-2 2 -9 -14 -16 -37z"/>
<path d="M4795 3295 c-3 -26 -4 -49 -2 -51 3 -3 8 16 12 41 3 26 4 49 2 51 -3
3 -8 -16 -12 -41z"/>
<path d="M5088 3220 c-2 -66 0 -120 5 -120 4 0 7 54 7 120 0 66 -2 120 -4 120
-3 0 -6 -54 -8 -120z"/>
<path d="M4506 3234 c-4 -14 -5 -28 -3 -31 3 -2 8 8 11 23 4 14 5 28 3 31 -3
2 -8 -8 -11 -23z"/>
<path d="M4782 3210 c0 -14 2 -19 5 -12 2 6 2 18 0 25 -3 6 -5 1 -5 -13z"/>
<path d="M4486 3164 c-10 -37 -2 -39 11 -4 6 17 8 30 3 30 -4 0 -11 -12 -14
-26z"/>
<path d="M4768 3155 c-3 -14 -1 -25 3 -25 5 0 9 11 9 25 0 14 -2 25 -4 25 -2
0 -6 -11 -8 -25z"/>
<path d="M4588 3163 c7 -3 16 -2 19 1 4 3 -2 6 -13 5 -11 0 -14 -3 -6 -6z"/>
<path d="M4638 3153 c7 -3 16 -2 19 1 4 3 -2 6 -13 5 -11 0 -14 -3 -6 -6z"/>
<path d="M4708 3143 c6 -2 18 -2 25 0 6 3 1 5 -13 5 -14 0 -19 -2 -12 -5z"/>
<path d="M4853 3123 c9 -2 25 -2 35 0 9 3 1 5 -18 5 -19 0 -27 -2 -17 -5z"/>
<path d="M4466 3094 c-4 -14 -5 -28 -3 -31 3 -2 8 8 11 23 4 14 5 28 3 31 -3
2 -8 -8 -11 -23z"/>
<path d="M4750 3030 c-6 -50 -10 -93 -7 -96 2 -2 10 36 17 86 6 50 10 93 7 96
-2 2 -10 -36 -17 -86z"/>
<path d="M4953 3113 c15 -2 37 -2 50 0 12 2 0 4 -28 4 -27 0 -38 -2 -22 -4z"/>
<path d="M4451 3034 c0 -11 3 -14 6 -6 3 7 2 16 -1 19 -3 4 -6 -2 -5 -13z"/>
<path d="M4441 2994 c0 -11 3 -14 6 -6 3 7 2 16 -1 19 -3 4 -6 -2 -5 -13z"/>
<path d="M4431 2954 c0 -11 3 -14 6 -6 3 7 2 16 -1 19 -3 4 -6 -2 -5 -13z"/>
<path d="M4421 2914 c0 -11 3 -14 6 -6 3 7 2 16 -1 19 -3 4 -6 -2 -5 -13z"/>
<path d="M4732 2885 c0 -16 2 -22 5 -12 2 9 2 23 0 30 -3 6 -5 -1 -5 -18z"/>
<path d="M4368 2883 c7 -3 16 -2 19 1 4 3 -2 6 -13 5 -11 0 -14 -3 -6 -6z"/>
<path d="M4508 2853 c7 -3 16 -2 19 1 4 3 -2 6 -13 5 -11 0 -14 -3 -6 -6z"/>
<path d="M4401 2834 c0 -11 3 -14 6 -6 3 7 2 16 -1 19 -3 4 -6 -2 -5 -13z"/>
<path d="M4558 2843 c6 -2 18 -2 25 0 6 3 1 5 -13 5 -14 0 -19 -2 -12 -5z"/>
<path d="M4723 2815 c0 -22 2 -30 4 -17 2 12 2 30 0 40 -3 9 -5 -1 -4 -23z"/>
<path d="M4608 2833 c6 -2 18 -2 25 0 6 3 1 5 -13 5 -14 0 -19 -2 -12 -5z"/>
<path d="M4673 2823 c9 -2 23 -2 30 0 6 3 -1 5 -18 5 -16 0 -22 -2 -12 -5z"/>
<path d="M4753 2813 c9 -2 23 -2 30 0 6 3 -1 5 -18 5 -16 0 -22 -2 -12 -5z"/>
<path d="M4386 2774 c-4 -20 -5 -38 -3 -40 3 -3 8 11 11 32 4 20 5 38 3 40 -3
3 -8 -11 -11 -32z"/>
<path d="M4838 2803 c12 -2 30 -2 40 0 9 3 -1 5 -23 4 -22 0 -30 -2 -17 -4z"/>
<path d="M5563 2803 c9 -2 23 -2 30 0 6 3 -1 5 -18 5 -16 0 -22 -2 -12 -5z"/>
<path d="M4948 2793 c17 -2 47 -2 65 0 17 2 3 4 -33 4 -36 0 -50 -2 -32 -4z"/>
<path d="M5443 2793 c15 -2 39 -2 55 0 15 2 2 4 -28 4 -30 0 -43 -2 -27 -4z"/>
<path d="M5158 2783 c34 -2 88 -2 120 0 31 2 3 3 -63 3 -66 0 -92 -1 -57 -3z"/>
<path d="M4713 2735 c0 -22 2 -30 4 -17 2 12 2 30 0 40 -3 9 -5 -1 -4 -23z"/>
<path d="M4372 2700 c0 -14 2 -19 5 -12 2 6 2 18 0 25 -3 6 -5 1 -5 -13z"/>
<path d="M4695 2606 c-5 -67 -10 -86 -23 -88 -13 -3 -13 -5 4 -10 21 -5 22 -1
29 84 3 49 5 92 2 94 -2 3 -8 -33 -12 -80z"/>
<path d="M4110 2662 c8 -5 26 -13 40 -16 17 -5 20 -4 10 2 -8 5 -26 13 -40 16
-17 5 -20 4 -10 -2z"/>
<path d="M4361 2654 c0 -11 3 -14 6 -6 3 7 2 16 -1 19 -3 4 -6 -2 -5 -13z"/>
<path d="M4348 2605 c-3 -14 -1 -25 3 -25 5 0 9 11 9 25 0 14 -2 25 -4 25 -2
0 -6 -11 -8 -25z"/>
<path d="M4255 2610 c11 -5 27 -9 35 -9 9 0 8 4 -5 9 -11 5 -27 9 -35 9 -9 0
-8 -4 5 -9z"/>
<path d="M4378 2578 c5 -5 16 -8 23 -6 8 3 3 7 -10 11 -17 4 -21 3 -13 -5z"/>
<path d="M4331 2508 c-7 -35 -14 -72 -17 -83 -4 -15 -3 -17 4 -5 11 18 35 140
29 146 -2 3 -10 -24 -16 -58z"/>
<path d="M4428 2563 c7 -3 16 -2 19 1 4 3 -2 6 -13 5 -11 0 -14 -3 -6 -6z"/>
<path d="M4468 2553 c7 -3 16 -2 19 1 4 3 -2 6 -13 5 -11 0 -14 -3 -6 -6z"/>
<path d="M4508 2543 c6 -2 18 -2 25 0 6 3 1 5 -13 5 -14 0 -19 -2 -12 -5z"/>
<path d="M4575 2530 c17 -4 41 -8 55 -8 22 0 22 1 -5 8 -16 4 -41 8 -55 8 -22
0 -22 -1 5 -8z"/>
<path d="M4770 2500 c46 -9 127 -13 119 -6 -2 2 -40 6 -84 9 -60 4 -69 3 -35
-3z"/>
<path d="M4905 2485 c23 -8 149 -12 130 -4 -11 4 -47 8 -80 8 -33 -1 -55 -2
-50 -4z"/>
<path d="M2930 3268 c-55 -65 -100 -134 -100 -154 0 -4 23 -4 50 -2 49 5 51 4
90 -38 22 -24 47 -62 56 -84 16 -38 34 -54 34 -27 0 39 -25 88 -64 126 l-45
44 31 21 c48 32 48 49 0 32 -22 -8 -54 -22 -71 -30 -17 -9 -31 -14 -31 -10 0
4 32 44 71 90 63 74 77 104 49 104 -5 0 -37 -33 -70 -72z"/>
<path d="M2083 2889 c-18 -12 -33 -27 -33 -35 0 -18 11 -18 46 1 17 9 49 15
76 13 55 -2 71 8 44 28 -29 21 -96 17 -133 -7z"/>
<path d="M2608 2850 c-35 -21 -21 -38 25 -33 53 6 95 -13 154 -69 46 -45 72
-44 49 0 -29 56 -97 99 -168 107 -24 3 -51 1 -60 -5z"/>
<path d="M2071 2684 c-32 -40 -42 -90 -28 -131 16 -49 36 -60 86 -47 l39 11
-15 -33 c-20 -40 -11 -77 26 -109 26 -24 27 -28 20 -81 -9 -67 -22 -84 -64
-84 -68 0 -89 27 -101 128 -5 45 -11 62 -21 62 -12 0 -14 -15 -12 -84 4 -78 6
-87 34 -116 18 -19 43 -33 67 -36 32 -6 38 -10 38 -31 0 -59 51 -113 108 -113
70 0 112 35 135 111 3 10 17 16 35 17 61 1 136 63 130 106 -5 30 -26 31 -40 2
-6 -15 -27 -36 -46 -48 -28 -17 -44 -20 -96 -16 -35 3 -76 12 -92 19 -26 13
-29 19 -32 72 l-3 57 38 0 c47 0 100 31 114 68 8 21 7 34 -6 59 -25 45 -74 66
-146 61 -52 -4 -57 -3 -48 13 14 27 11 96 -6 128 -25 49 -82 56 -114 15z m177
-503 c20 -10 49 -21 64 -25 20 -4 25 -11 21 -25 -15 -59 -98 -84 -127 -38 -23
35 -30 75 -16 92 15 19 13 19 58 -4z"/>
<path d="M2607 2619 c-35 -27 -51 -87 -37 -139 19 -72 80 -91 131 -41 26 26
29 37 29 89 0 100 -58 143 -123 91z"/>
<path d="M498 4243 c-30 -31 -47 -93 -48 -165 0 -40 3 -48 19 -48 15 0 19 11
24 73 3 39 13 89 22 110 22 52 15 64 -17 30z"/>
<path d="M628 4209 c-28 -16 -67 -92 -74 -143 -6 -43 -5 -48 11 -45 12 3 22
20 30 52 7 26 26 67 44 91 17 25 31 47 31 50 0 9 -23 7 -42 -5z"/>
<path d="M306 4182 c-3 -5 8 -28 25 -51 16 -23 37 -58 46 -77 11 -21 23 -33
33 -31 24 5 14 44 -29 106 -36 54 -63 72 -75 53z"/>
<path d="M512 3153 c-28 -42 -42 -90 -42 -149 0 -51 -10 -68 -26 -43 -12 19
-88 49 -126 49 -29 0 -41 -6 -54 -24 -14 -23 -14 -28 4 -68 21 -48 117 -158
137 -158 32 0 22 25 -35 87 -56 62 -81 106 -66 120 3 3 26 0 51 -7 36 -10 58
-26 100 -74 65 -73 84 -69 66 14 -16 76 -13 149 9 198 24 52 45 53 74 2 17
-28 22 -58 26 -144 5 -116 19 -145 40 -82 16 49 45 83 91 106 98 51 100 -8 3
-127 -23 -29 -24 -34 -10 -39 34 -13 126 110 126 168 0 61 -75 74 -157 29
l-53 -29 0 41 c-1 118 -106 204 -158 130z"/>
<path d="M649 1908 c-12 -22 -7 -137 7 -186 l7 -24 -33 17 c-39 20 -123 23
-145 5 -13 -11 -13 -16 3 -42 23 -40 141 -150 155 -145 28 9 14 36 -43 82 -70
58 -80 75 -44 75 42 0 87 -25 134 -74 38 -39 46 -44 51 -29 3 10 -4 41 -16 69
-38 86 -60 224 -35 224 5 0 23 -21 41 -46 32 -47 59 -127 59 -176 0 -21 5 -28
20 -28 14 0 20 7 20 23 1 52 83 177 117 177 23 0 8 -71 -33 -159 -27 -58 -32
-77 -23 -88 10 -12 17 -9 43 15 31 30 105 72 126 72 7 0 -11 -27 -39 -61 -48
-57 -56 -79 -27 -79 22 0 136 130 136 156 0 28 -38 36 -94 20 -30 -9 -56 -16
-58 -16 -3 0 2 27 10 59 16 68 11 106 -18 121 -28 15 -68 -8 -118 -66 l-39
-46 -7 27 c-10 41 -55 103 -91 125 -41 25 -52 25 -66 -2z"/>
<path d="M9128 1850 l-41 -40 5 -79 5 -78 -36 8 c-91 20 -191 -40 -191 -117 0
-77 62 -147 142 -160 l36 -6 -20 -34 c-29 -49 -28 -117 2 -149 48 -51 144 -56
198 -10 l29 24 7 -52 c3 -28 6 -90 6 -137 0 -47 5 -128 10 -180 5 -52 7 -96 5
-98 -2 -2 -12 17 -24 42 -26 59 -112 145 -176 176 -65 32 -165 40 -185 15 -41
-49 17 -187 109 -263 173 -141 392 -160 559 -47 89 61 158 178 150 257 -3 32
-4 33 -55 36 -100 6 -236 -80 -296 -187 -24 -41 -33 -51 -35 -36 -5 40 -27
395 -24 395 1 0 16 -9 31 -21 42 -31 108 -35 148 -10 46 29 66 74 61 133 l-5
48 37 -6 c42 -7 90 13 114 48 23 33 21 113 -5 154 -22 36 -76 74 -104 74 -13
0 -10 9 18 39 66 73 72 154 16 210 -42 42 -87 49 -144 21 -25 -12 -56 -35 -67
-51 l-21 -28 -31 52 c-40 66 -85 97 -144 97 -38 0 -50 -5 -84 -40z m153 -38
c25 -26 43 -56 51 -87 7 -26 19 -50 26 -52 7 -3 41 22 77 56 53 51 69 61 98
61 50 0 81 -40 74 -95 -5 -33 -17 -50 -67 -98 -52 -48 -60 -60 -50 -72 7 -8
29 -15 50 -15 53 0 102 -36 120 -88 13 -39 13 -43 -7 -69 -16 -23 -28 -28 -59
-27 -22 0 -56 8 -77 17 -33 16 -38 16 -43 2 -4 -8 2 -32 11 -52 27 -57 23
-112 -9 -140 -66 -57 -153 -7 -176 100 -14 70 -36 76 -63 17 -21 -45 -60 -70
-109 -70 -47 0 -78 24 -78 61 0 39 14 65 58 111 45 48 35 62 -42 59 -90 -3
-146 38 -146 110 0 69 70 95 175 64 33 -9 61 -13 66 -8 5 5 1 34 -11 68 -24
70 -25 96 -5 135 32 62 82 66 136 12z m-215 -893 c27 -12 68 -42 92 -66 51
-51 131 -206 109 -211 -20 -4 -136 41 -183 71 -83 52 -154 151 -154 213 0 26
2 26 44 22 24 -3 66 -16 92 -29z m608 -26 c-21 -95 -112 -196 -209 -232 -61
-23 -105 -27 -105 -10 0 22 53 117 84 151 58 63 155 116 214 118 19 0 22 -4
16 -27z"/>
<path d="M9265 1630 c-11 -4 -33 -22 -50 -40 -26 -28 -30 -38 -30 -91 0 -57 2
-63 37 -95 62 -56 148 -45 195 25 39 58 23 159 -31 196 -22 16 -89 19 -121 5z
m111 -61 c10 -11 17 -35 17 -61 0 -79 -92 -128 -141 -75 -46 49 -34 118 25
148 38 19 75 15 99 -12z"/>
<path d="M7929 1357 c-38 -25 -79 -97 -79 -139 l0 -28 -42 22 c-27 13 -61 22
-92 22 -43 0 -52 -4 -82 -37 -27 -29 -34 -45 -34 -77 0 -49 29 -110 66 -139
l27 -21 -25 -28 c-36 -39 -48 -65 -48 -109 0 -44 28 -96 62 -114 61 -33 173
-25 218 16 18 16 20 14 44 -32 20 -40 76 -263 76 -304 0 -6 -23 10 -52 35 -29
25 -86 62 -127 83 -61 30 -89 37 -151 41 -63 4 -79 1 -93 -13 -27 -26 0 -96
65 -170 67 -76 238 -144 364 -145 152 0 316 85 391 204 54 84 84 236 50 249
-24 9 -108 -12 -160 -40 -105 -57 -179 -147 -222 -268 -5 -14 -17 25 -39 120
-18 77 -31 141 -31 143 1 1 16 -3 34 -9 60 -21 146 14 176 72 23 44 21 112 -4
155 -26 44 -26 44 3 44 33 0 86 39 108 80 29 53 20 125 -20 161 -38 34 -90 45
-147 32 l-43 -10 5 56 c5 68 -16 115 -66 148 -43 29 -89 29 -132 0z m125 -58
c28 -33 33 -78 16 -139 -14 -49 4 -65 56 -51 102 28 178 -1 176 -69 -2 -67
-60 -114 -128 -104 -27 4 -44 2 -49 -6 -4 -6 11 -36 32 -67 30 -44 38 -65 38
-100 0 -38 -5 -49 -33 -74 -67 -60 -168 -20 -194 77 -9 34 -17 44 -33 44 -11
0 -26 -9 -33 -20 -6 -11 -31 -29 -54 -41 -88 -45 -184 -2 -182 81 2 47 22 73
77 101 20 11 37 26 37 34 0 8 -21 25 -47 37 -53 26 -80 58 -89 105 -5 26 -1
37 21 59 23 23 32 26 67 21 24 -3 63 -21 95 -43 31 -21 57 -33 62 -28 5 5 11
41 13 81 3 64 7 76 33 103 40 41 84 41 119 -1z m382 -710 c-9 -59 -50 -139
-95 -191 -41 -46 -128 -99 -195 -117 l-38 -10 6 37 c11 63 65 160 118 212 51
50 155 110 191 110 17 0 19 -5 13 -41z m-677 -98 c89 -28 142 -62 216 -143
l66 -73 -33 -3 c-43 -5 -130 15 -195 43 -82 37 -196 155 -178 185 9 15 57 12
124 -9z"/>
<path d="M7935 1105 c-48 -26 -72 -54 -85 -99 -16 -59 7 -118 58 -142 76 -36
178 21 189 106 13 96 -84 176 -162 135z m96 -63 c28 -25 31 -33 25 -65 -9 -46
-47 -77 -94 -77 -48 0 -72 24 -72 72 0 30 7 46 29 69 37 37 72 37 112 1z"/>
</g>
</svg>
