<?xml version="1.0" standalone="no"?>
<!DOCTYPE svg PUBLIC "-//W3C//DTD SVG 20010904//EN"
 "http://www.w3.org/TR/2001/REC-SVG-20010904/DTD/svg10.dtd">
<svg version="1.0" xmlns="http://www.w3.org/2000/svg"
 width="1024.000000pt" height="1024.000000pt" viewBox="0 0 1024.000000 1024.000000"
 preserveAspectRatio="xMidYMid meet">

<g transform="translate(0.000000,1024.000000) scale(0.100000,-0.100000)"
fill="#000000" stroke="none">
<path d="M3955 10193 c-4 -27 -7 -99 -6 -161 2 -132 6 -131 -102 -33 -83 75
-101 85 -127 71 -43 -23 -55 -67 -55 -200 1 -109 4 -134 27 -197 14 -40 44
-102 67 -137 22 -36 41 -72 41 -79 0 -43 -90 -69 -150 -45 -19 8 -43 12 -52
10 -65 -14 12 -207 122 -306 23 -21 71 -52 106 -68 35 -16 64 -34 64 -40 0
-27 59 -124 96 -158 l42 -39 12 -168 c33 -493 100 -702 285 -889 l81 -81 -24
-31 c-13 -17 -34 -56 -47 -87 l-22 -56 -95 -43 c-236 -106 -498 -287 -498
-344 0 -21 64 -72 90 -72 15 0 14 -3 -54 -144 -153 -313 -303 -741 -411 -1166
l-41 -165 -51 -5 c-85 -9 -85 -9 -153 -316 -41 -185 -49 -251 -36 -292 9 -26
54 -52 90 -52 l25 0 -30 -72 c-132 -321 -91 -648 89 -698 89 -24 183 -5 213
43 17 28 19 43 13 117 l-6 85 25 -27 c19 -21 36 -28 62 -28 87 0 114 53 115
225 0 66 3 130 6 142 6 22 7 22 33 5 41 -29 60 -33 90 -17 34 17 111 101 159
173 19 29 37 51 39 48 7 -6 -114 -264 -178 -380 -204 -368 -458 -694 -864
-1104 l-240 -244 -6 329 c-6 288 -10 338 -28 412 -83 329 -328 573 -664 663
-116 31 -327 31 -442 -1 -289 -78 -543 -299 -648 -563 -65 -161 -62 -110 -58
-1229 l4 -1016 -22 -30 c-45 -60 -54 -126 -28 -193 5 -11 -25 -37 -101 -90
-207 -145 -424 -337 -604 -534 -108 -119 -108 -119 -108 -170 l0 -51 102 110
c230 251 476 470 686 613 83 56 83 56 110 39 257 -165 756 -235 1223 -173 288
39 534 136 615 242 24 31 29 47 29 94 0 46 -5 63 -26 91 l-26 34 -4 235 -4
235 165 37 c158 35 380 76 539 98 107 15 479 50 532 50 l45 0 -13 -77 c-26
-144 -4 -222 77 -270 17 -9 30 -20 30 -23 0 -3 -30 -25 -67 -49 -86 -59 -213
-179 -251 -239 -76 -118 -53 -225 61 -283 21 -11 73 -25 117 -31 66 -10 97 -9
195 6 130 19 315 70 442 121 46 18 83 33 83 32 0 -1 -9 -26 -20 -55 -64 -169
34 -282 245 -282 349 0 879 256 945 456 12 34 9 113 -4 159 -5 16 3 26 39 47
56 34 85 80 85 136 0 37 -16 184 -35 321 l-4 34 92 -7 c666 -49 1444 -204
2097 -419 658 -217 1182 -503 1650 -901 131 -112 313 -294 413 -415 l77 -92 0
59 0 58 -78 89 c-134 153 -386 385 -564 519 -31 23 -37 35 -43 79 -43 332
-258 699 -625 1068 -217 218 -454 409 -820 664 -561 390 -1074 789 -1384 1077
l-70 64 18 80 c9 43 19 88 21 100 4 17 10 19 40 16 33 -4 41 0 88 50 55 57
226 321 254 389 22 56 7 101 -56 163 -42 42 -48 52 -40 69 26 48 94 243 120
347 21 80 32 150 36 230 5 113 4 117 -32 230 -43 133 -128 316 -240 515 -158
282 -235 398 -401 601 -72 88 -81 104 -68 115 8 7 14 24 12 38 -6 50 -291 217
-530 311 -104 41 -106 42 -113 78 -14 79 -66 164 -125 205 -21 14 -20 15 27
78 26 35 65 96 85 135 l38 71 53 6 c154 16 292 162 305 323 2 34 0 77 -7 94
-9 28 -8 38 9 65 11 18 36 93 55 165 18 73 35 134 37 136 2 2 37 -19 77 -46
40 -28 78 -50 84 -50 86 1 72 239 -28 473 -11 26 13 22 112 -18 135 -55 161
-46 149 51 -13 114 -97 276 -220 427 -26 32 -46 60 -44 62 18 16 92 35 142 35
66 0 106 18 106 49 0 59 -147 207 -255 257 -67 31 -196 64 -250 64 -29 0 -30
5 -10 40 21 37 19 40 -31 40 -42 0 -46 -2 -60 -35 -33 -81 -9 -110 103 -126
106 -14 163 -29 224 -60 53 -26 169 -122 169 -139 0 -4 -19 -10 -42 -14 -106
-17 -188 -65 -188 -109 0 -12 33 -64 73 -114 40 -51 94 -128 119 -170 46 -79
94 -193 80 -193 -4 0 -34 11 -67 25 -101 41 -205 28 -205 -27 0 -11 16 -59 35
-107 40 -100 65 -198 65 -258 0 -40 -11 -55 -25 -33 -3 5 -35 26 -70 45 -70
39 -101 40 -110 2 -3 -12 -16 -71 -29 -132 -14 -60 -33 -132 -43 -160 -17 -44
-22 -49 -44 -46 -39 8 -111 7 -156 -2 l-43 -7 0 32 c0 18 12 104 26 190 38
236 30 261 -69 214 -31 -14 -58 -26 -61 -26 -3 0 -6 50 -6 112 0 138 -20 217
-62 253 -16 14 -36 25 -44 25 -21 0 -87 -64 -109 -104 -11 -20 -22 -36 -25
-36 -15 0 -49 83 -70 168 -18 73 -28 97 -47 109 -22 14 -27 14 -63 -2 -43 -19
-124 -99 -155 -152 -11 -18 -22 -33 -26 -33 -14 0 -50 88 -63 154 -18 86 -30
100 -78 93 -77 -10 -159 -95 -201 -207 l-24 -62 -20 28 c-38 55 -47 79 -52
148 -7 77 -20 93 -65 82 -28 -7 -197 -168 -254 -241 -16 -22 -33 -37 -36 -34
-3 3 -11 32 -17 65 -16 91 -17 94 -48 94 -36 0 -94 -61 -146 -155 -55 -98 -84
-183 -97 -291 -7 -52 -15 -94 -18 -94 -10 0 -48 68 -65 116 -16 46 -18 87 -12
224 2 42 0 45 -23 45 -32 0 -52 -41 -58 -117 -2 -32 -7 -58 -11 -58 -14 0 -97
58 -122 86 -15 16 -36 47 -48 69 l-21 40 42 6 c56 7 98 29 137 74 44 51 42 85
-14 172 -64 100 -95 197 -98 305 -1 47 1 90 5 94 4 4 32 -14 62 -40 65 -55
133 -96 162 -96 11 0 28 6 38 13 16 12 18 33 20 188 1 96 6 182 10 192 7 15 3
17 -32 17 -40 0 -40 0 -47 -47z m1101 -864 c49 -89 121 -133 145 -89 5 8 19
38 31 65 21 48 97 135 117 135 5 0 12 -19 16 -42 17 -100 45 -168 90 -214 34
-37 49 -45 71 -42 24 2 35 14 64 67 19 36 40 66 46 68 22 7 36 -62 43 -203 4
-96 11 -146 20 -158 16 -20 57 -20 91 -1 46 26 46 33 9 -182 -24 -143 -24
-174 2 -207 24 -30 51 -33 122 -11 82 25 133 3 148 -65 16 -71 -22 -172 -86
-228 -58 -52 -112 -74 -182 -76 -35 -1 -67 -6 -72 -11 -5 -6 -14 -28 -21 -50
-16 -51 -69 -140 -126 -209 -120 -148 -344 -261 -567 -286 -153 -18 -292 8
-442 80 -200 96 -346 275 -398 490 -48 197 -71 446 -65 693 5 161 8 191 31
262 26 78 94 206 114 212 6 2 13 -14 17 -35 8 -54 45 -106 78 -110 23 -3 34 8
84 75 67 91 180 207 193 199 5 -3 12 -23 16 -43 9 -53 46 -112 99 -161 66 -60
84 -56 106 28 20 74 71 161 114 192 l40 29 12 -61 c7 -33 25 -83 40 -111z
m586 -1651 c56 -65 82 -216 58 -333 -24 -116 -24 -122 0 -130 11 -4 27 -1 35
5 15 13 43 129 47 197 l3 43 139 -60 c145 -63 209 -96 315 -163 61 -39 62 -41
40 -51 -295 -119 -449 -251 -682 -584 -116 -166 -273 -431 -352 -594 l-64
-133 5 55 c15 147 63 423 139 805 46 231 91 467 100 525 37 242 78 431 97 455
19 24 20 24 56 10 20 -8 49 -29 64 -47z m-226 -55 c-2 -10 -10 -44 -16 -75 -9
-46 -19 -63 -49 -91 -50 -45 -119 -85 -195 -113 -60 -22 -61 -22 -98 -3 -46
23 -116 24 -162 3 l-35 -17 -73 46 c-104 66 -127 87 -142 132 -8 22 -12 43
-10 46 2 4 34 -2 71 -12 192 -53 474 -21 653 75 55 30 63 31 56 9z m-884 -26
c38 -36 54 -131 34 -210 -48 -193 -59 -294 -63 -612 -2 -200 1 -371 9 -482 8
-95 10 -173 6 -173 -5 0 -8 6 -8 14 0 23 -127 352 -176 455 -107 227 -259 394
-448 492 -36 19 -66 37 -66 41 0 22 214 161 360 233 l115 56 7 -78 c8 -87 35
-211 51 -230 12 -17 42 -17 55 0 8 9 5 35 -10 92 -31 115 -31 260 1 333 25 55
61 92 91 92 9 0 28 -10 42 -23z m176 -264 c33 -21 67 -42 76 -48 16 -9 16 -14
0 -68 -18 -56 -19 -57 -49 -51 -136 27 -138 29 -117 127 9 42 20 77 24 77 4 0
34 -17 66 -37z m649 -45 c-16 -122 -12 -119 -144 -134 l-63 -7 0 41 c0 22 -2
47 -6 55 -3 10 11 20 53 36 32 12 78 35 103 51 66 42 68 41 57 -42z m-337 -13
c44 -23 64 -68 56 -128 -13 -92 -59 -147 -125 -147 -66 0 -111 53 -111 129 0
117 92 191 180 146z m-327 -179 c74 -19 81 -24 89 -51 6 -25 1 -37 -35 -84
-23 -31 -73 -87 -110 -126 l-69 -70 6 130 c7 164 16 236 28 229 5 -4 46 -16
91 -28z m1680 -63 c345 -417 696 -1071 697 -1299 0 -80 -22 -204 -58 -329 -27
-92 -43 -137 -86 -238 l-17 -38 -29 21 c-97 69 -314 147 -490 177 -52 9 -96
17 -98 18 -7 6 42 152 79 238 46 106 44 134 -8 128 -6 -1 -41 42 -76 96 -125
191 -223 382 -302 588 -42 112 -59 131 -91 104 -10 -8 -13 -22 -8 -43 8 -40
84 -227 123 -305 l31 -60 -35 -89 c-79 -205 -123 -426 -111 -557 13 -136 62
-309 122 -428 24 -47 26 -55 15 -100 -18 -77 -14 -115 14 -142 13 -14 31 -25
40 -25 21 0 19 -9 -16 -60 -129 -191 -136 -349 -18 -399 27 -11 37 -20 33 -31
-14 -37 -44 -166 -44 -192 0 -42 25 -94 53 -113 15 -10 42 -15 69 -14 23 1 54
-3 67 -10 31 -17 107 -8 158 17 62 32 139 100 189 169 l47 64 56 -54 c238
-229 720 -608 1276 -1002 553 -391 737 -541 976 -790 224 -235 366 -437 461
-656 41 -95 93 -277 82 -288 -8 -8 -52 46 -94 115 -45 74 -219 256 -329 343
-222 177 -550 360 -1161 649 -828 392 -1091 531 -1415 747 -231 154 -362 261
-545 445 -248 247 -407 459 -535 714 -158 312 -230 596 -242 946 -5 149 -3
174 17 255 56 225 182 485 403 830 209 324 361 491 543 596 62 35 161 78 181
79 6 0 40 -35 76 -77z m-1108 -226 c-63 -306 -118 -617 -145 -820 -11 -82 -24
-143 -31 -148 -24 -15 -226 -22 -342 -12 -65 6 -120 13 -123 15 -7 8 -43 478
-50 671 -6 162 -6 177 10 177 20 0 120 99 199 197 l58 71 28 -15 27 -16 -13
-61 c-18 -87 -36 -437 -23 -470 13 -34 57 -37 64 -3 3 12 7 101 10 197 6 170
24 314 42 329 19 15 88 34 91 24 10 -30 102 -178 115 -187 18 -11 48 7 48 30
0 7 -27 61 -59 119 -57 102 -59 108 -46 138 13 31 16 32 91 39 42 4 82 9 88
11 6 2 12 -1 14 -7 1 -6 -22 -132 -53 -279z m-1299 140 c67 -50 130 -116 194
-201 145 -197 372 -821 410 -1129 18 -139 8 -468 -18 -612 -65 -358 -201 -695
-405 -1000 -236 -352 -471 -594 -847 -872 -140 -103 -578 -393 -595 -393 -3 0
-5 73 -5 162 l0 161 293 296 c411 417 608 664 830 1038 203 343 294 597 353
981 5 31 6 32 32 18 41 -21 98 -35 112 -26 16 10 9 51 -10 61 -8 5 -40 20 -72
33 l-56 24 -6 54 c-19 197 -30 267 -47 321 -74 230 -103 408 -102 624 1 154
-1 163 -19 169 -13 4 -27 0 -37 -10 -14 -14 -16 -41 -15 -179 1 -183 23 -340
74 -520 35 -125 37 -187 11 -307 -17 -72 -60 -213 -92 -298 l-9 -24 -33 20
c-61 38 -222 104 -377 156 l-156 52 14 59 c32 142 117 438 173 607 107 323
302 778 333 778 8 0 40 -20 72 -43z m2284 -1216 l63 -90 -41 -109 c-22 -60
-44 -125 -47 -145 -6 -32 -11 -37 -35 -37 -53 0 -70 -26 -90 -137 -26 -143
-31 -149 -62 -72 -47 119 -78 261 -78 362 0 99 43 286 102 446 l20 53 53 -90
c29 -50 81 -131 115 -181z m-1155 9 c-4 -8 -9 -89 -12 -181 l-6 -167 -97 -7
c-59 -4 -141 -2 -207 5 l-110 12 -12 132 c-7 72 -14 151 -18 176 l-5 45 236 0
c204 0 235 -2 231 -15z m-986 -274 c1 -35 -27 -247 -33 -254 -2 -1 -20 13 -40
33 l-37 35 35 92 c19 51 40 113 47 137 12 41 14 43 20 20 4 -13 7 -41 8 -63z
m-683 -16 c257 -79 448 -165 537 -241 73 -62 73 -66 27 -154 -84 -160 -217
-328 -243 -308 -7 6 -30 24 -52 41 -56 43 -185 105 -282 136 -71 22 -110 30
-250 52 -28 4 -33 9 -33 33 0 46 79 411 100 459 14 32 46 29 196 -18z m1495
-134 l156 0 16 -141 c33 -293 99 -519 222 -770 108 -222 225 -399 384 -580
l61 -70 0 -135 c1 -308 48 -940 107 -1438 15 -128 16 -147 2 -170 -18 -32 -71
-63 -157 -92 -203 -66 -599 -67 -748 -1 -83 37 -78 -18 -70 779 l6 707 -29
295 c-27 267 -38 414 -59 789 -6 100 -10 126 -24 134 -12 8 -21 7 -34 -3 -15
-13 -16 -31 -10 -180 9 -230 22 -396 57 -760 28 -287 31 -336 25 -545 -3 -126
-6 -424 -6 -662 l0 -431 -67 -9 c-38 -4 -142 -8 -233 -7 -138 0 -179 4 -255
23 -109 28 -174 60 -209 101 -31 38 -32 52 -6 196 51 296 67 514 76 1079 l7
430 90 135 c118 178 232 413 301 620 64 191 99 353 123 568 l16 152 51 -7 c28
-5 121 -8 207 -7z m1384 -51 c39 -4 120 -19 180 -35 205 -51 354 -124 465
-226 61 -57 69 -77 49 -117 -30 -57 -192 -306 -219 -336 l-30 -33 -47 52 c-95
106 -244 198 -378 236 -33 9 -96 17 -140 18 l-80 2 -3 30 c-2 17 8 76 22 130
13 54 32 137 41 184 21 111 20 109 47 105 13 -2 55 -6 93 -10z m-2938 -406
c54 -17 128 -44 164 -61 l66 -30 -4 -166 c-4 -122 -9 -173 -20 -190 -31 -50
-56 0 -71 143 -9 83 -19 105 -47 105 -46 0 -66 -89 -65 -292 0 -86 -4 -159 -9
-163 -16 -9 -60 53 -76 107 -8 29 -15 80 -15 114 0 44 -5 67 -16 78 -22 23
-50 5 -56 -36 -8 -52 9 -169 31 -220 23 -55 16 -60 -30 -21 -110 93 -102 378
17 616 14 26 26 47 29 47 3 0 49 -14 102 -31z m2960 -134 c90 -28 182 -81 257
-147 l53 -46 -14 -99 c-24 -159 -80 -270 -183 -360 -53 -46 -160 -95 -160 -73
0 5 3 10 8 12 32 14 108 147 137 240 15 48 16 60 5 73 -28 34 -50 14 -84 -75
-34 -92 -78 -163 -126 -203 -110 -93 -130 5 -50 246 34 103 40 130 30 142 -20
25 -37 17 -70 -30 -34 -49 -44 -53 -72 -28 -24 22 -24 95 1 149 11 23 47 83
80 133 71 105 69 104 188 66z m-4342 -225 c44 -11 127 -43 185 -71 91 -46 116
-64 201 -148 99 -99 147 -169 192 -281 59 -149 58 -128 64 -1197 3 -541 3
-983 0 -983 -3 0 -28 13 -56 29 -117 70 -355 137 -571 162 -58 7 -108 15 -111
18 -4 3 -10 67 -14 141 l-7 135 74 1 c195 2 358 162 390 382 16 107 12 112
-97 112 -152 0 -260 -52 -337 -161 l-43 -61 -3 189 c-3 208 1 253 24 253 9 0
29 13 45 29 24 25 29 37 29 80 0 42 3 51 18 51 35 0 118 48 158 92 75 81 111
164 134 303 6 38 18 67 34 84 36 39 57 87 63 146 12 117 -63 215 -165 215 -35
0 -41 4 -52 30 -41 99 -156 149 -240 105 -28 -15 -32 -14 -67 9 -58 38 -120
49 -180 31 -54 -16 -137 -82 -148 -116 -6 -18 -13 -20 -44 -15 -74 12 -153
-36 -180 -107 -28 -72 -2 -185 54 -237 21 -20 21 -22 7 -88 -17 -83 -10 -185
17 -247 28 -63 113 -150 177 -180 l54 -26 0 -55 c0 -67 10 -87 50 -104 30 -12
30 -13 31 -94 0 -44 1 -96 2 -114 1 -17 0 -32 -3 -31 -3 0 -19 19 -35 42 -33
45 -116 100 -180 119 -22 7 -80 12 -130 12 -73 1 -101 -4 -150 -24 -54 -23
-60 -28 -63 -57 -8 -83 133 -265 259 -333 63 -34 66 -35 180 -35 l117 0 6 -60
c3 -33 9 -141 12 -241 l7 -181 -82 -7 c-112 -9 -239 -32 -351 -62 -97 -27
-270 -102 -302 -131 -10 -9 -20 -14 -23 -12 -10 11 -6 1965 5 2019 44 231 169
408 393 559 181 123 429 165 652 111z m-197 -390 c17 -11 32 -24 32 -30 0 -5
0 -12 0 -15 0 -6 4 -5 -53 -16 -27 -5 -62 -18 -79 -30 -35 -25 -67 -90 -68
-135 0 -33 -31 -71 -50 -59 -17 11 -50 82 -50 110 0 32 23 88 50 123 54 69
152 92 218 52z m247 -32 c34 -27 55 -75 55 -128 0 -37 -2 -40 -29 -40 -22 0
-31 6 -41 30 -15 36 -71 87 -105 96 -32 8 -31 17 1 43 34 27 84 27 119 -1z
m-583 -133 c-6 -55 34 -144 79 -176 16 -11 38 -38 48 -58 l18 -38 -56 14
c-122 31 -191 97 -199 187 -4 45 -1 56 22 83 25 30 57 43 82 35 7 -2 10 -19 6
-47z m446 17 c28 -12 72 -59 72 -75 0 -3 -16 -15 -36 -27 l-35 -22 -27 25
c-36 34 -73 47 -133 47 -53 0 -60 7 -30 34 48 44 119 50 189 18z m326 -22 c60
-23 83 -117 46 -190 -29 -56 -81 -93 -172 -120 l-27 -8 29 51 c36 64 60 154
60 224 0 58 9 64 64 43z m-424 -115 c17 -9 30 -18 30 -22 0 -3 -17 -21 -39
-39 -21 -19 -47 -52 -58 -75 l-19 -41 -32 36 c-41 47 -49 79 -28 112 29 44 93
56 146 29z m276 -26 c-4 -22 -16 -59 -28 -82 -24 -47 -122 -154 -149 -162 -11
-4 -37 5 -64 20 -57 34 -60 67 -13 120 41 47 140 115 192 131 66 21 69 19 62
-27z m1979 -246 c-2 -104 -7 -305 -10 -448 -5 -225 -17 -408 -41 -585 l-6 -47
-67 -2 c-262 -6 -780 -79 -1109 -157 -57 -13 -108 -24 -113 -24 -5 0 -9 78 -9
180 l0 180 46 28 c237 142 571 371 769 529 129 102 384 351 470 457 33 41 63
75 68 75 4 1 5 -83 2 -186z m2055 -132 c150 -125 399 -294 645 -436 149 -87
660 -345 995 -503 748 -353 1032 -511 1278 -709 82 -67 256 -242 248 -250 -1
-2 -52 27 -112 63 -611 369 -1575 674 -2589 819 -246 36 -521 65 -605 65 -26
0 -52 6 -58 13 -18 21 -65 626 -78 996 l-6 195 98 -91 c55 -50 137 -123 184
-162z m-4536 183 c184 -54 277 -111 305 -187 15 -38 14 -116 -2 -147 -28 -55
-154 -63 -273 -19 -77 29 -163 113 -187 183 -30 88 -16 225 22 211 8 -3 69
-22 135 -41z m616 -32 c0 -24 -33 -129 -54 -170 -39 -77 -125 -152 -175 -152
-5 0 -6 28 -4 64 4 46 1 80 -11 117 -18 55 -19 54 29 81 23 13 184 67 203 68
6 0 12 -4 12 -8z m-316 -447 c-4 -16 -12 -33 -18 -37 -23 -15 -78 -20 -134
-12 -56 9 -57 9 -60 44 l-3 36 111 0 111 0 -7 -31z m-90 -412 c3 -159 13 -400
21 -538 20 -349 20 -347 -7 -343 -23 3 -23 7 -35 208 -7 113 -15 375 -19 583
-7 372 -7 377 13 377 19 0 20 -9 27 -287z m-353 161 c53 -16 100 -45 140 -87
22 -23 69 -109 69 -126 0 -5 -47 22 -104 60 -110 75 -148 85 -154 42 -3 -23
-6 -20 147 -127 39 -27 68 -53 64 -59 -3 -5 -34 -7 -73 -5 -83 6 -153 42 -225
113 -54 55 -110 148 -102 169 13 34 152 45 238 20z m833 -171 c-28 -125 -50
-168 -117 -230 -61 -56 -138 -94 -206 -100 l-56 -6 40 43 c22 23 77 71 123
107 64 50 82 70 80 87 -7 51 -79 14 -200 -102 -27 -26 -48 -43 -48 -39 0 4 14
35 30 68 68 134 163 197 303 198 l57 1 -6 -27z m2001 -730 c97 -21 330 -28
451 -14 92 11 100 11 109 -6 6 -10 26 -34 46 -55 l35 -36 -83 -79 c-90 -84
-147 -116 -323 -180 -319 -116 -619 -137 -689 -47 -47 60 -14 141 98 246 100
94 250 201 270 193 9 -4 48 -13 86 -22z m-2563 -85 c0 -35 2 -67 3 -73 2 -5 3
-15 4 -22 3 -27 130 -45 171 -23 17 9 18 19 13 95 l-6 85 25 0 c70 0 350 -58
465 -96 79 -26 188 -83 217 -113 l27 -29 -28 -20 c-42 -29 -164 -76 -263 -100
-197 -49 -272 -56 -555 -57 -235 0 -285 3 -390 22 -189 34 -341 88 -405 142
l-25 21 34 29 c106 92 443 192 674 200 l37 1 2 -62z m4061 -75 c16 -53 0 -98
-54 -157 -152 -167 -565 -336 -819 -336 -65 0 -143 21 -171 46 -25 23 -33 72
-20 121 22 80 145 234 255 318 l33 25 79 -16 c159 -32 486 -19 629 25 45 14
58 9 68 -26z m-4754 -222 c130 -66 333 -111 591 -133 376 -31 871 56 1053 184
33 23 40 19 40 -22 0 -91 -219 -201 -496 -250 -444 -78 -970 -24 -1219 126
-93 57 -124 105 -97 155 10 19 11 19 41 -6 17 -15 56 -39 87 -54z"/>
<path d="M4354 8837 c-51 -15 -74 -33 -74 -60 0 -18 4 -19 48 -12 26 4 81 10
122 14 63 5 75 9 78 25 3 11 -4 26 -14 33 -21 16 -103 15 -160 0z"/>
<path d="M5249 8794 c-20 -25 2 -48 52 -55 44 -5 102 -30 114 -49 9 -15 41
-12 55 5 10 12 9 20 -5 41 -36 56 -184 96 -216 58z"/>
<path d="M4413 8588 c-48 -23 -67 -149 -31 -207 32 -52 99 -45 123 14 30 69
12 182 -30 199 -22 8 -36 7 -62 -6z"/>
<path d="M5261 8542 c-76 -75 -30 -257 56 -226 43 15 66 56 66 116 0 63 -24
115 -59 128 -34 13 -32 14 -63 -18z"/>
<path d="M4746 8478 c-22 -77 -46 -214 -46 -260 0 -49 31 -82 91 -98 51 -14
92 -4 97 24 5 25 -10 38 -50 42 -80 10 -80 9 -42 191 14 69 23 131 20 139 -3
8 -17 14 -30 14 -22 0 -27 -7 -40 -52z"/>
<path d="M5901 8375 c-44 -48 -47 -61 -17 -79 14 -9 25 -3 62 37 48 50 54 80
18 85 -14 2 -34 -12 -63 -43z"/>
<path d="M4700 7885 c-36 -43 46 -79 165 -72 101 6 137 21 133 56 -3 22 -7 26
-33 23 -75 -7 -183 -6 -216 1 -28 7 -38 5 -49 -8z"/>
<path d="M4257 10200 c63 -59 106 -55 132 13 l11 27 -93 0 -92 -1 42 -39z"/>
<path d="M8220 10209 c-226 -33 -409 -204 -490 -456 l-28 -85 -83 -62 c-172
-128 -225 -235 -158 -320 32 -41 106 -59 250 -61 l126 -2 79 -63 c164 -131
343 -176 539 -135 115 24 208 77 300 169 96 97 136 172 162 303 l18 91 80 48
c101 61 172 127 197 182 24 53 18 85 -24 129 -51 52 -112 68 -267 68 l-134 0
-36 34 c-93 87 -211 141 -356 161 -79 11 -98 11 -175 -1z m261 -92 c127 -39
259 -145 317 -255 28 -53 61 -162 62 -203 0 -11 -41 -35 -122 -74 -229 -108
-486 -196 -722 -245 -137 -29 -141 -29 -170 28 -72 142 -74 327 -5 465 52 104
165 213 267 259 105 47 264 58 373 25z m617 -206 c32 -16 42 -27 42 -45 0 -36
-45 -84 -130 -138 l-75 -48 -17 72 c-10 39 -29 96 -43 126 -14 30 -25 57 -25
60 0 2 46 3 103 0 79 -4 112 -10 145 -27z m-1366 -441 c9 -36 25 -89 36 -117
l22 -53 -70 0 c-84 0 -163 16 -191 38 -37 31 -4 84 116 185 67 56 62 59 87
-53z m1107 28 c-30 -137 -153 -294 -279 -354 -93 -45 -157 -58 -264 -51 -118
7 -176 26 -270 87 -79 52 -93 70 -51 70 37 0 315 74 445 118 119 40 237 88
350 141 36 16 68 30 71 31 4 0 3 -19 -2 -42z"/>
<path d="M1452 9717 c-8 -9 -95 -264 -119 -348 -3 -11 -58 -37 -151 -73 -198
-75 -197 -75 -197 -116 l0 -34 161 -61 c88 -34 165 -65 172 -69 6 -4 37 -87
68 -184 31 -97 61 -183 66 -189 6 -7 23 -13 38 -13 15 0 32 6 38 13 5 6 36 93
68 191 58 176 60 180 94 194 19 8 94 38 165 66 122 48 130 53 133 80 2 16 -1
33 -7 39 -6 6 -84 40 -173 76 l-162 66 -57 172 c-31 95 -62 180 -69 188 -15
18 -54 20 -68 2z m78 -264 c23 -71 47 -137 55 -148 8 -13 62 -40 139 -70 110
-44 149 -65 117 -65 -23 0 -226 -85 -242 -101 -10 -10 -37 -79 -61 -154 -23
-74 -45 -135 -48 -135 -3 0 -24 61 -48 135 -23 75 -51 144 -61 154 -10 10 -74
40 -142 66 -96 38 -119 50 -104 56 11 5 68 27 127 49 65 25 115 51 126 64 10
13 35 80 57 150 21 69 40 126 41 126 2 0 22 -57 44 -127z"/>
<path d="M7591 8187 c-6 -8 -29 -70 -51 -138 l-39 -125 -90 -33 c-113 -42
-151 -65 -151 -91 0 -25 15 -34 141 -84 l104 -41 37 -124 c21 -69 44 -131 52
-139 9 -9 24 -12 40 -8 21 5 28 17 46 79 12 39 31 101 43 136 l22 63 99 39
c115 46 126 53 126 85 0 29 -3 30 -130 80 l-105 41 -40 124 c-22 69 -44 130
-48 137 -11 16 -42 15 -56 -1z m56 -233 c12 -37 28 -72 34 -80 6 -7 41 -25 79
-40 38 -15 67 -30 65 -34 -2 -3 -35 -19 -74 -34 -76 -30 -78 -32 -115 -161 -8
-28 -16 -43 -19 -35 -3 8 -15 49 -28 90 l-24 74 -55 23 c-30 12 -68 27 -85 33
l-30 11 75 30 c41 17 82 38 91 49 9 10 25 48 35 84 10 36 20 63 23 60 2 -2 15
-34 28 -70z"/>
<path d="M2643 7888 c-5 -7 -29 -67 -52 -133 l-42 -120 -65 -23 c-134 -47
-174 -69 -174 -95 0 -33 10 -40 131 -90 l104 -44 32 -94 c58 -164 63 -177 82
-182 34 -9 49 13 95 145 l47 133 111 45 c172 69 171 97 -6 166 -98 39 -99 39
-121 89 -12 28 -32 82 -45 120 -27 83 -35 95 -65 95 -12 0 -27 -6 -32 -12z
m68 -235 c11 -35 26 -66 32 -70 6 -5 46 -22 87 -40 l75 -32 -33 -12 c-18 -6
-57 -23 -85 -38 -50 -25 -53 -29 -83 -110 -17 -46 -33 -80 -36 -75 -3 5 -13
34 -23 64 -31 98 -37 104 -119 136 -42 16 -76 31 -76 35 0 4 35 19 77 35 84
32 88 36 124 138 24 66 27 64 60 -31z"/>
<path d="M8942 7288 c-5 -7 -31 -78 -57 -158 -26 -80 -53 -150 -61 -156 -8 -6
-74 -33 -147 -59 -72 -26 -138 -53 -146 -60 -8 -8 -11 -23 -7 -38 5 -22 26
-33 151 -82 80 -31 149 -64 154 -74 5 -9 28 -79 51 -156 47 -154 63 -181 104
-171 32 8 32 10 91 197 l45 145 133 54 c152 62 157 64 157 96 0 31 -20 42
-171 99 l-126 46 -48 152 c-27 84 -53 158 -58 165 -5 6 -20 12 -32 12 -12 0
-27 -6 -33 -12z m116 -371 c7 -8 57 -32 112 -52 55 -21 100 -39 100 -40 0 -1
-42 -19 -92 -40 -51 -21 -101 -45 -111 -53 -9 -9 -31 -61 -47 -116 -48 -157
-43 -156 -84 -25 -21 64 -43 124 -49 133 -7 9 -57 34 -112 56 -55 23 -101 43
-103 44 -1 2 43 20 100 41 57 21 108 42 115 47 6 5 29 60 49 121 l37 112 36
-106 c20 -59 42 -113 49 -122z"/>
<path d="M1278 6147 c-7 -8 -24 -48 -37 -89 l-24 -75 -70 -29 c-115 -48 -116
-77 -3 -128 72 -33 74 -35 91 -87 30 -92 43 -111 73 -107 24 3 30 12 57 85
l30 83 68 27 c113 46 112 82 -2 127 l-70 27 -22 67 c-34 107 -58 132 -91 99z
m96 -238 c20 -7 36 -16 36 -19 0 -3 -16 -12 -36 -19 -27 -10 -40 -23 -53 -53
l-17 -40 -18 40 c-13 30 -28 45 -54 55 l-36 14 42 22 c23 12 42 26 42 31 0 5
5 21 11 37 l11 28 18 -42 c14 -31 27 -44 54 -54z"/>
<path d="M8725 4350 c-14 -5 -31 -39 -58 -113 l-38 -105 -42 -7 c-180 -27
-192 -51 -82 -165 l54 -55 -20 -90 c-25 -119 -24 -133 5 -146 21 -10 36 -5
107 34 l82 45 65 -40 c92 -56 107 -61 131 -40 21 17 21 18 5 117 l-16 100 71
65 c105 95 98 118 -46 160 l-85 25 -43 104 c-23 57 -49 107 -56 111 -8 4 -23
4 -34 0z m43 -194 c13 -36 30 -70 38 -76 7 -7 46 -22 85 -34 l72 -22 -62 -55
-63 -54 7 -49 c3 -27 9 -62 12 -78 l6 -29 -66 36 -67 37 -55 -32 c-31 -18 -59
-30 -62 -27 -3 3 2 40 12 83 l17 76 -53 54 c-36 37 -48 55 -38 58 8 2 41 10
74 18 l60 13 25 73 c14 39 27 72 30 72 3 0 16 -29 28 -64z"/>
<path d="M7540 1560 c-128 -20 -231 -79 -278 -158 -23 -40 -27 -58 -27 -122 0
-95 32 -165 113 -245 183 -184 486 -295 767 -282 239 11 368 107 368 272 0
160 -136 315 -378 431 -178 85 -411 128 -565 104z m365 -104 c292 -87 505
-268 505 -431 0 -110 -83 -174 -255 -197 -337 -45 -800 184 -850 420 -17 79
27 152 117 198 74 38 112 43 258 40 110 -3 152 -9 225 -30z"/>
<path d="M1411 734 c-142 -38 -287 -149 -343 -261 -62 -127 -44 -225 52 -281
40 -24 55 -27 140 -26 107 0 163 18 268 82 218 132 293 345 162 455 -56 48
-170 60 -279 31z m193 -68 c100 -42 100 -155 0 -266 -99 -109 -292 -186 -400
-159 -97 25 -123 107 -68 210 82 150 340 269 468 215z"/>
<path d="M8670 617 c-112 -59 -105 -213 16 -329 68 -65 136 -105 228 -134 234
-74 406 -15 406 140 0 82 -104 208 -225 273 -138 73 -337 97 -425 50z m253
-63 c202 -52 352 -201 311 -309 -18 -46 -139 -63 -254 -36 -185 44 -349 200
-314 299 20 59 132 79 257 46z"/>
</g>
</svg>
