<?xml version="1.0" standalone="no"?>
<!DOCTYPE svg PUBLIC "-//W3C//DTD SVG 20010904//EN"
 "http://www.w3.org/TR/2001/REC-SVG-20010904/DTD/svg10.dtd">
<svg version="1.0" xmlns="http://www.w3.org/2000/svg"
 width="1024.000000pt" height="1024.000000pt" viewBox="0 0 1024.000000 1024.000000"
 preserveAspectRatio="xMidYMid meet">

<g transform="translate(0.000000,1024.000000) scale(0.100000,-0.100000)"
fill="#000000" stroke="none">
<path d="M72 10223 c-4 -10 -7 -70 -6 -133 0 -98 5 -127 28 -195 15 -44 43
-105 61 -135 38 -62 153 -178 203 -204 17 -9 32 -20 32 -24 -1 -4 -24 -18 -53
-31 -69 -32 -184 -148 -230 -232 -72 -128 -98 -324 -62 -464 53 -207 208 -371
425 -450 108 -40 282 -47 395 -16 44 12 85 27 92 33 16 13 20 3 27 -87 9 -98
37 -226 95 -427 91 -315 90 -424 -6 -723 -49 -151 -107 -304 -206 -544 -86
-208 -91 -216 -153 -235 -21 -6 -22 -3 -25 67 -7 131 -93 263 -210 323 -145
73 -294 70 -426 -9 -49 -29 -53 -34 -53 -69 0 -21 2 -38 6 -38 3 0 34 18 70
39 115 70 236 79 345 28 147 -70 222 -207 204 -372 -9 -89 2 -95 95 -47 66 34
80 37 154 37 68 0 90 -5 137 -28 66 -32 132 -100 160 -162 10 -23 24 -78 31
-121 15 -105 23 -110 104 -68 78 40 128 44 209 13 62 -23 99 -61 126 -130 23
-61 42 -70 76 -37 33 31 73 48 114 48 23 0 34 -7 47 -31 9 -18 31 -53 48 -79
l31 -48 -46 -44 c-25 -24 -83 -77 -129 -117 -45 -40 -89 -86 -98 -100 -16 -27
-21 -28 -148 -39 -72 -7 -219 -17 -326 -23 -384 -20 -1110 -78 -1188 -94 -17
-4 -22 -12 -22 -36 l0 -32 47 7 c202 25 914 80 1218 93 l160 6 -34 -38 c-57
-65 -76 -118 -76 -215 0 -76 4 -92 34 -154 22 -45 57 -92 102 -138 38 -39 69
-72 69 -73 0 -1 -24 -5 -54 -9 -145 -17 -256 -77 -256 -140 0 -40 35 -75 82
-85 29 -6 33 -10 30 -35 -7 -53 54 -105 125 -106 23 -1 32 -9 48 -42 29 -61
63 -81 143 -86 52 -4 76 -11 107 -32 107 -74 315 -163 487 -210 187 -51 441
-51 746 1 63 10 120 19 127 19 12 0 265 -330 265 -345 0 -8 -198 0 -410 16
-249 19 -584 71 -1004 158 -429 89 -717 118 -1066 108 -311 -9 -548 -39 -772
-99 l-118 -31 0 -33 c0 -19 2 -34 4 -34 2 0 32 9 67 19 238 72 586 115 929
114 335 -1 585 -31 1016 -122 522 -110 755 -140 1296 -167 l117 -6 92 -131
c146 -210 246 -333 369 -457 188 -189 304 -260 441 -268 88 -5 129 6 211 55
117 70 251 219 354 394 l49 82 23 -54 c58 -130 104 -304 117 -444 l7 -70 -118
-18 c-440 -64 -896 -232 -1274 -468 -124 -77 -370 -258 -509 -374 -275 -229
-586 -575 -816 -908 -192 -278 -525 -825 -525 -862 0 -3 15 -5 33 -5 31 1 35
6 115 148 222 396 504 809 743 1087 409 476 945 879 1459 1098 224 95 549 185
795 221 l90 12 14 -40 c17 -50 126 -161 194 -196 26 -14 46 -28 45 -32 -5 -13
-224 -166 -275 -192 -76 -38 -139 -52 -413 -91 -258 -38 -388 -67 -484 -109
-144 -64 -304 -200 -424 -361 -103 -137 -137 -211 -137 -296 0 -56 4 -71 28
-102 15 -20 27 -48 27 -65 0 -16 8 -40 19 -53 l18 -23 -103 -123 c-134 -158
-321 -409 -427 -571 -90 -137 -187 -296 -187 -306 0 -3 15 -6 34 -6 32 0 36 5
91 98 134 225 377 557 567 776 78 90 112 122 140 131 33 11 39 10 54 -6 22
-25 86 -25 140 0 23 10 122 70 220 132 232 146 270 163 445 194 274 50 393
109 576 288 l71 70 7 -49 c11 -85 62 -286 96 -378 84 -234 285 -576 478 -816
47 -58 159 -180 251 -272 l166 -168 49 0 50 1 -75 66 c-435 387 -794 933 -911
1385 -18 73 -50 240 -46 245 1 0 133 47 292 103 468 165 730 275 895 375 l60
37 96 -59 c218 -132 493 -368 656 -563 39 -46 49 -53 64 -44 10 6 19 15 21 21
11 33 -241 300 -412 436 -93 74 -317 229 -346 239 -7 2 32 48 87 104 78 77
109 117 142 181 l42 82 83 -28 c354 -121 811 -380 1156 -657 235 -188 575
-533 782 -792 233 -291 535 -756 685 -1055 37 -72 47 -80 88 -75 l26 3 -75
138 c-180 330 -405 681 -597 932 -290 380 -651 744 -994 1003 -289 217 -695
440 -1019 558 -49 18 -89 37 -88 42 1 5 47 103 101 218 120 251 315 692 366
825 l37 97 62 12 c34 6 258 60 497 120 576 144 727 172 1135 212 149 14 685
17 883 5 l132 -9 0 35 0 34 -92 7 c-471 32 -1032 5 -1423 -70 -71 -14 -348
-78 -615 -144 -600 -146 -555 -137 -546 -114 18 46 78 270 97 364 17 81 23
141 23 260 1 173 -14 246 -77 365 -69 129 -228 252 -434 337 l-106 43 114 8
c63 5 573 9 1134 9 919 1 1433 -7 1808 -28 l117 -7 0 35 0 35 -112 7 c-271 17
-869 25 -1745 26 l-941 0 -39 44 c-152 172 -53 475 163 502 44 5 61 2 94 -15
32 -16 45 -19 60 -11 25 13 25 12 -8 79 -22 46 -27 69 -27 131 1 131 64 227
173 264 74 26 123 20 242 -28 8 -3 21 -2 29 3 12 8 12 20 -2 85 -21 96 -21
167 -1 236 29 98 96 177 194 227 50 25 65 28 160 28 98 0 110 -2 173 -32 93
-44 180 -133 230 -235 52 -108 68 -107 124 10 23 48 62 110 87 137 126 143
332 184 502 100 85 -42 134 -93 178 -184 29 -62 31 -72 29 -171 -1 -58 -3
-118 -5 -135 -5 -45 24 -44 77 3 104 91 205 105 348 47 14 -6 17 -1 17 33 0
40 -1 41 -51 57 -70 24 -198 17 -256 -13 -23 -12 -45 -22 -48 -22 -3 0 -5 18
-5 40 0 120 -53 240 -144 328 -78 75 -146 108 -252 123 -204 29 -393 -64 -505
-250 l-36 -59 -42 63 c-124 190 -350 278 -550 216 -207 -64 -325 -243 -308
-467 5 -68 4 -75 -11 -69 -42 17 -132 17 -183 1 -111 -37 -179 -107 -219 -227
-18 -53 -21 -78 -17 -145 l6 -80 -52 -3 c-71 -2 -166 -50 -211 -105 -20 -23
-48 -69 -63 -102 -25 -52 -28 -70 -28 -160 0 -97 2 -105 36 -172 l37 -71 -52
-5 c-61 -6 -344 -21 -366 -19 -8 0 -39 9 -67 20 -51 17 -53 19 -53 56 0 77
-44 126 -122 136 l-53 6 -22 77 c-25 89 -42 201 -44 304 l-2 72 72 62 c89 77
194 198 269 312 31 48 60 87 64 87 3 1 -7 -30 -23 -67 -41 -98 -59 -176 -59
-254 0 -87 18 -130 80 -193 62 -63 75 -95 56 -138 -7 -18 -20 -38 -29 -46 -23
-18 -21 -58 2 -71 30 -15 92 -12 131 8 44 22 97 92 106 139 9 49 -10 119 -44
161 -53 67 -72 97 -72 114 0 9 22 45 49 81 64 83 88 133 97 196 6 48 10 53 48
73 78 40 153 97 213 163 134 145 203 372 159 518 -14 46 -13 49 16 102 43 80
84 200 109 317 29 137 32 390 6 521 -32 158 -98 330 -174 450 l-24 38 80 85
c104 110 172 240 202 389 26 125 22 307 -10 428 -23 89 -84 223 -132 294 -127
186 -340 321 -580 368 -77 16 -318 36 -431 36 -92 1 -348 -143 -462 -260 l-60
-60 -41 137 c-23 75 -52 161 -64 190 -22 48 -26 52 -57 52 -19 0 -34 -3 -34
-6 0 -3 20 -56 44 -117 46 -115 78 -239 118 -452 21 -107 25 -120 45 -123 14
-2 26 5 36 20 7 13 37 64 67 113 74 126 144 217 247 322 72 75 95 92 127 98
21 3 41 4 44 0 20 -20 -64 -438 -140 -690 -23 -77 -42 -141 -42 -142 -1 -1
-40 7 -86 17 -184 41 -318 54 -550 54 -226 1 -348 -11 -486 -48 l-52 -14 -31
147 c-44 202 -58 291 -72 435 -11 119 -7 210 10 220 14 9 79 -54 141 -135 65
-86 128 -209 154 -301 17 -60 45 -89 64 -65 5 6 13 41 16 77 15 134 78 366
133 490 47 105 47 100 8 100 -30 0 -37 -5 -54 -38 -29 -57 -98 -267 -119 -361
l-18 -85 -43 86 c-88 175 -224 324 -290 316 -13 -2 -33 -16 -45 -31 -19 -26
-21 -41 -21 -185 1 -169 18 -292 77 -551 31 -137 30 -150 -9 -151 -26 0 -222
-83 -322 -136 -402 -212 -615 -488 -647 -836 -14 -156 33 -364 108 -480 l39
-60 -2 -179 c-1 -168 -8 -213 -23 -153 -9 34 -49 30 -54 -5 -6 -39 7 -69 45
-112 l37 -40 -24 -77 c-75 -251 -92 -371 -70 -501 38 -229 162 -434 401 -666
125 -121 225 -206 341 -288 156 -111 278 -147 442 -129 55 6 101 10 102 9 1
-1 3 -36 5 -77 l4 -75 -41 -5 c-49 -7 -85 -29 -116 -70 -12 -17 -30 -30 -40
-30 -10 0 -76 -14 -146 -31 l-127 -31 -160 16 c-293 30 -457 37 -855 35 -217
0 -412 2 -432 6 -37 7 -38 9 -38 49 0 23 -9 78 -20 122 l-21 80 69 71 c105
109 160 242 149 363 -8 94 -70 188 -187 286 l-69 57 6 87 c8 115 -12 172 -85
252 -61 66 -134 106 -210 115 -29 3 -52 11 -52 17 0 6 14 55 32 109 31 96 33
99 75 119 55 26 73 52 73 105 0 33 -7 50 -29 75 -26 29 -35 33 -81 33 -46 0
-55 -4 -81 -33 -21 -24 -29 -42 -29 -71 0 -37 -5 -42 -94 -115 l-95 -76 -16
58 c-9 31 -32 108 -51 170 l-35 114 21 42 c26 54 18 97 -22 131 -53 45 -136
29 -167 -32 -17 -34 -13 -67 15 -108 14 -21 23 -45 19 -54 -3 -9 -31 -80 -61
-158 l-56 -142 -78 62 c-64 50 -79 67 -79 90 -2 67 -60 127 -123 127 -54 0
-108 -51 -108 -102 0 -47 32 -94 74 -109 20 -7 36 -20 36 -29 0 -8 15 -58 33
-111 l32 -97 -63 -5 c-131 -13 -247 -98 -293 -215 -18 -45 -23 -77 -23 -153
l0 -95 -48 -33 c-71 -50 -167 -157 -196 -220 -18 -39 -27 -79 -30 -134 -4 -67
-7 -77 -21 -72 -15 5 -76 -10 -122 -29 -12 -5 -20 1 -29 24 -14 34 -95 110
-117 110 -11 0 -13 16 -8 88 33 453 142 885 278 1095 47 73 96 134 232 282
129 141 199 229 268 335 75 117 159 271 193 356 l29 72 65 11 c123 20 269 115
345 224 l20 29 75 -36 c94 -45 189 -66 300 -66 106 0 181 18 285 70 138 68
246 184 302 326 26 64 28 79 27 209 0 128 -3 146 -28 215 -49 132 -125 245
-208 311 -45 35 -51 49 -20 49 8 0 43 14 78 31 123 61 234 212 265 358 12 57
8 230 -6 264 -5 12 -18 17 -47 17 -37 0 -40 -2 -34 -22 4 -13 12 -56 19 -96
28 -178 -76 -379 -236 -456 -34 -17 -90 -33 -140 -40 -77 -11 -82 -13 -85 -38
-3 -22 4 -29 55 -53 89 -43 201 -162 252 -266 117 -244 87 -474 -85 -644 -181
-179 -475 -214 -693 -83 -97 59 -94 58 -109 46 -8 -7 -23 -32 -35 -57 -48
-104 -186 -201 -315 -221 -152 -25 -351 57 -443 182 -40 54 -87 153 -95 198
-13 73 -38 77 -99 17 -53 -53 -157 -109 -245 -132 -48 -13 -91 -16 -162 -13
-84 4 -105 9 -170 40 -40 19 -90 49 -112 67 -21 17 -42 31 -47 31 -5 0 -26
-27 -48 -59 -105 -153 -294 -251 -488 -251 -100 0 -176 19 -282 71 -236 116
-356 371 -296 628 48 200 229 376 411 399 57 7 59 8 59 36 0 27 -4 30 -60 45
-236 65 -403 302 -381 539 3 37 9 82 12 100 6 32 6 32 -35 32 -30 0 -44 -5
-49 -17z m7036 -138 c393 -64 664 -329 723 -708 6 -40 9 -121 7 -182 -6 -128
-44 -258 -105 -359 -39 -64 -149 -186 -167 -186 -6 1 -23 17 -38 37 -24 30
-26 38 -15 57 7 13 12 64 12 131 0 98 -3 115 -25 159 -34 67 -106 129 -175
151 -33 10 -59 24 -61 34 -16 54 -64 128 -110 170 -98 89 -228 136 -365 129
l-78 -3 6 25 c3 14 18 77 33 140 31 124 70 345 70 391 l0 29 98 0 c53 0 139
-7 190 -15z m-656 -117 c-52 -65 -145 -195 -168 -237 -16 -28 -32 -51 -35 -51
-4 0 -9 19 -12 43 -6 47 1 63 61 130 49 53 191 159 154 115z m479 -534 c76
-23 124 -49 177 -97 45 -42 92 -124 92 -162 0 -29 19 -45 54 -45 71 -1 159
-67 192 -145 18 -45 23 -180 6 -197 -8 -8 -33 10 -86 59 -148 138 -413 290
-634 362 -82 27 -103 37 -99 50 3 9 16 52 29 96 20 66 28 80 48 86 46 13 166
9 221 -7z m-656 -188 c354 -52 673 -172 915 -344 129 -91 293 -255 364 -365
201 -308 257 -686 156 -1047 -19 -67 -78 -220 -85 -220 -1 0 -18 15 -38 33
-61 59 -100 72 -207 72 -84 0 -101 -4 -146 -27 -28 -15 -78 -56 -111 -92 l-60
-66 -31 68 c-61 134 -84 233 -107 468 -35 354 -96 521 -249 681 -158 167 -357
258 -591 269 -112 6 -214 -5 -375 -41 -129 -29 -217 -24 -350 19 -267 88 -463
52 -632 -115 -66 -66 -84 -92 -131 -190 -30 -63 -63 -145 -72 -184 -15 -64
-44 -253 -45 -300 -1 -32 -37 43 -62 132 -19 64 -22 101 -22 213 1 123 4 143
32 230 72 218 231 399 485 552 215 129 486 227 712 257 44 6 94 13 110 15 62
9 444 -4 540 -18z m-4231 -698 c29 -60 57 -99 106 -149 l67 -67 -64 -104 c-36
-56 -79 -121 -96 -143 -46 -60 -150 -165 -164 -165 -6 0 -19 -10 -27 -22 -14
-19 -14 -24 -2 -36 20 -21 74 0 130 49 71 63 189 225 281 386 1 2 29 -8 63
-22 33 -13 79 -27 102 -31 39 -6 41 -9 35 -33 -10 -40 -106 -227 -168 -328
-76 -122 -170 -241 -315 -401 -156 -172 -212 -247 -266 -357 -111 -227 -200
-593 -229 -940 l-12 -149 -66 -2 c-36 -1 -82 -9 -104 -18 -21 -9 -39 -15 -40
-14 -1 2 -10 36 -20 76 -40 166 -154 272 -329 305 l-65 12 90 220 c187 459
247 654 256 837 7 146 -4 218 -68 441 -49 169 -82 328 -94 457 -7 63 -6 66 17
77 14 6 52 36 86 67 l60 57 7 -58 c23 -215 60 -371 122 -518 52 -125 85 -180
107 -180 23 0 57 55 108 175 58 134 81 237 103 461 l6 56 57 13 c75 16 187 63
237 100 22 16 42 29 45 29 3 0 23 -37 44 -81z m3286 42 c136 -47 258 -52 430
-15 154 33 303 42 405 26 261 -42 468 -189 579 -408 57 -114 83 -227 111 -488
19 -171 39 -278 72 -370 36 -100 113 -244 135 -251 25 -7 44 9 51 44 9 43 94
132 152 158 69 33 173 33 230 1 47 -27 100 -94 115 -145 24 -89 5 -214 -52
-332 -64 -135 -307 -330 -356 -288 -25 23 -78 48 -100 48 -11 0 -36 -11 -56
-25 -48 -32 -56 -32 -56 5 0 34 -22 49 -45 30 -8 -6 -34 -46 -59 -88 -226
-393 -680 -708 -1186 -824 -135 -30 -294 -30 -371 0 -120 48 -301 185 -498
376 -141 138 -202 211 -263 317 -98 167 -134 294 -125 448 5 96 15 143 63 298
l26 81 45 -20 c25 -11 115 -37 199 -59 161 -40 197 -54 228 -88 23 -25 54 -27
63 -5 17 46 -92 155 -192 193 -27 10 -97 26 -155 34 -58 9 -123 22 -145 29
l-40 13 1 266 1 266 41 55 c44 60 113 109 187 134 62 22 167 15 227 -15 56
-26 74 -27 89 0 14 28 -15 59 -84 91 -42 18 -70 23 -142 23 -80 0 -97 -3 -155
-31 -36 -17 -83 -46 -104 -64 l-38 -34 7 50 c44 298 208 531 415 589 92 25
234 15 350 -25z m-3977 -54 c32 -15 98 -35 147 -44 86 -15 90 -17 90 -42 0
-53 -21 -198 -41 -280 -21 -83 -82 -246 -99 -264 -11 -11 -39 50 -85 184 -38
111 -61 218 -75 350 -12 116 -12 133 -2 128 4 -2 33 -17 65 -32z m1575 -1098
c21 -21 14 -57 -14 -70 -23 -11 -29 -10 -45 11 -23 28 -23 35 -3 55 18 19 45
21 62 4z m47 -368 c45 -157 58 -190 75 -190 4 0 60 41 125 91 64 50 119 88
122 85 3 -3 -14 -62 -37 -131 -42 -123 -45 -127 -84 -147 -63 -32 -103 -66
-133 -113 -32 -51 -42 -55 -148 -55 l-80 0 -44 59 c-45 62 -90 99 -153 125
-31 13 -39 24 -62 83 -26 69 -56 162 -56 176 0 21 41 -1 125 -69 56 -45 101
-74 112 -72 13 2 35 44 74 143 31 77 65 160 74 184 18 43 18 43 30 20 7 -13
34 -98 60 -189z m-507 124 c12 -8 22 -26 22 -38 0 -52 -63 -61 -90 -13 -14 27
-14 29 9 48 28 23 31 23 59 3z m947 -15 c12 -18 -4 -55 -29 -67 -56 -25 -92
57 -37 85 25 12 53 5 66 -18z m-810 -453 c74 -35 130 -104 170 -209 20 -54 26
-60 50 -51 12 5 16 16 13 40 -5 40 4 44 124 44 l88 0 25 39 c90 143 220 187
353 120 63 -31 121 -90 141 -141 14 -36 16 -100 7 -179 l-8 -65 55 -42 c76
-59 160 -150 187 -202 19 -37 22 -55 18 -116 -11 -163 -133 -315 -336 -418
-59 -30 -72 -50 -49 -74 15 -14 23 -13 93 23 88 45 87 45 105 -56 35 -199 -25
-565 -128 -776 -22 -45 -25 -58 -15 -74 7 -10 12 -25 12 -32 0 -8 10 -22 21
-33 40 -35 119 -135 119 -150 0 -8 -10 -18 -22 -23 -33 -13 -73 11 -114 69
-37 51 -62 62 -84 35 -10 -12 -9 -23 4 -55 47 -118 -14 -149 -85 -42 -62 91
-121 142 -168 142 -25 0 -57 -33 -66 -68 -3 -15 -13 -38 -21 -50 -15 -23 -16
-23 -35 -6 -12 11 -19 30 -19 53 0 33 10 46 114 146 62 61 133 138 156 173 61
92 117 215 141 309 25 100 23 137 -8 141 -26 4 -38 -16 -48 -77 -30 -180 -162
-408 -283 -487 -84 -55 -215 -107 -272 -107 -46 0 -209 36 -243 55 -24 12 -80
131 -106 227 -32 114 -35 175 -16 281 24 132 24 144 -1 148 -31 4 -40 -14 -59
-121 -24 -136 -17 -243 24 -367 40 -120 78 -189 117 -215 18 -12 66 -29 108
-38 127 -28 186 -71 186 -133 0 -19 -2 -34 -5 -34 -15 0 -63 31 -85 55 -31 34
-72 55 -105 55 -38 0 -32 -29 15 -75 49 -48 56 -95 15 -95 -36 0 -81 25 -148
82 -58 51 -81 56 -94 22 -4 -10 3 -34 15 -55 70 -121 -33 -100 -151 31 -65 73
-123 173 -161 278 -29 82 -31 95 -31 237 0 134 3 162 29 263 23 87 27 115 17
125 -18 18 -44 -4 -61 -54 -8 -24 -16 -46 -17 -48 -2 -2 -27 21 -56 52 -66 68
-157 128 -231 151 -70 22 -68 28 51 129 49 41 103 91 122 110 l33 35 44 -33
c48 -37 107 -60 129 -51 32 12 15 43 -43 79 -74 46 -167 143 -195 204 -34 76
-30 162 11 244 35 73 146 187 220 229 50 28 57 43 35 76 -24 37 -13 155 21
221 30 60 92 116 150 137 67 24 172 20 231 -8z m4554 -252 c25 -21 31 -34 31
-64 0 -55 -14 -84 -75 -165 -82 -106 -84 -150 -14 -231 57 -66 73 -103 65
-148 -8 -41 -55 -101 -87 -109 -18 -5 -20 -2 -14 16 12 37 17 96 11 122 -4 14
-29 51 -57 81 -70 78 -83 112 -75 201 15 165 93 323 160 323 13 0 38 -12 55
-26z m-659 -588 c0 -85 25 -225 56 -311 14 -38 25 -77 25 -85 -1 -8 -1 -34 -2
-57 -1 -36 -4 -43 -21 -43 -30 0 -98 -72 -98 -104 0 -24 -3 -26 -44 -26 -53 0
-105 -32 -126 -77 -14 -30 -19 -33 -63 -33 -53 0 -79 -10 -119 -47 -25 -24
-28 -24 -49 -9 -26 18 -100 21 -129 6 -15 -8 -27 -4 -56 15 -21 14 -51 25 -69
25 -28 0 -35 5 -44 32 -6 18 -20 42 -32 54 -17 18 -18 24 -7 50 8 19 12 78 11
180 l-1 151 56 13 c172 38 443 160 602 269 47 32 91 59 98 60 8 1 12 -18 12
-63z m214 -417 c31 -24 34 -59 7 -83 -16 -14 -23 -15 -41 -6 -42 23 -51 110
-11 110 10 0 30 -9 45 -21z m-1066 -108 c9 -5 12 -23 10 -52 -3 -37 -7 -44
-28 -50 -57 -14 -79 34 -39 85 21 27 35 31 57 17z m987 -35 c29 -21 24 -74 -9
-103 -33 -28 -56 -29 -86 -5 -19 16 -22 24 -16 55 11 58 68 85 111 53z m334
-86 c316 -126 417 -182 512 -287 202 -226 185 -611 -54 -1222 l-60 -155 -31
36 c-115 132 -350 246 -546 264 -38 4 -73 9 -78 13 -6 4 13 86 50 215 55 192
59 210 44 225 -24 23 -48 4 -63 -50 -7 -24 -15 -50 -18 -58 -3 -8 -22 7 -51
43 -132 160 -305 233 -529 223 -218 -10 -408 -88 -587 -239 l-63 -55 -35 61
c-19 34 -69 95 -110 136 -108 108 -223 163 -361 173 l-36 2 69 95 c37 52 68
98 68 102 0 4 -7 14 -16 22 -25 25 -44 7 -138 -128 -48 -69 -113 -156 -145
-194 -80 -96 -125 -173 -157 -272 -15 -47 -29 -90 -30 -97 -2 -8 -16 -10 -41
-6 -21 3 -39 6 -40 7 -8 6 236 699 269 766 53 105 161 219 254 268 70 36 201
81 347 118 l100 25 29 -28 c28 -28 28 -30 13 -59 -33 -64 -5 -130 69 -160 26
-11 46 -26 46 -34 0 -23 35 -70 66 -91 33 -21 76 -24 123 -8 29 10 35 9 61
-16 54 -52 149 -43 198 20 19 24 21 24 48 10 68 -35 153 -9 189 58 18 34 23
37 63 37 72 0 142 52 142 107 0 25 4 28 64 38 56 9 101 57 110 117 7 43 12 50
47 57 3 0 96 -35 208 -79z m-5200 51 c109 -34 206 -111 264 -212 25 -43 25
-46 14 -131 -7 -61 -8 -111 0 -170 5 -46 9 -84 8 -85 0 -1 -23 32 -51 74 -55
84 -228 256 -253 251 -39 -8 -21 -41 72 -131 52 -51 116 -124 141 -163 43 -68
96 -124 117 -124 5 0 9 -6 9 -12 0 -7 14 -40 30 -73 16 -33 28 -60 27 -61 -1
0 -81 -42 -177 -91 -195 -101 -262 -127 -333 -127 -52 0 -72 13 -82 57 -6 22
-4 27 11 27 11 0 51 12 89 26 39 14 99 33 135 43 52 14 65 21 65 37 0 32 -101
26 -201 -13 -83 -33 -192 -51 -238 -39 -26 6 -35 37 -18 62 8 13 119 48 213
67 58 12 64 15 64 37 0 39 -52 37 -182 -4 -113 -37 -170 -44 -204 -25 -20 10
-20 12 -4 29 23 26 89 46 220 69 109 18 111 18 160 -2 28 -11 96 -36 153 -55
96 -34 103 -35 119 -19 26 26 5 40 -140 90 -156 55 -221 93 -301 178 -75 79
-109 144 -114 220 -10 134 62 241 188 280 46 14 138 9 199 -10z m2027 -56 c39
-25 69 -103 68 -175 0 -77 -25 -135 -86 -205 -40 -45 -156 -140 -163 -134 -2
2 12 56 30 119 33 114 75 335 75 392 0 28 2 30 28 23 15 -3 37 -13 48 -20z
m949 5 c265 -19 305 -23 305 -29 0 -3 -26 -19 -58 -35 -33 -18 -88 -61 -132
-105 -107 -108 -147 -190 -276 -577 -58 -175 -129 -375 -156 -444 -62 -154
-168 -390 -177 -390 -9 0 -218 158 -321 243 -148 122 -428 415 -375 393 60
-26 116 -15 149 28 15 21 22 23 49 15 86 -24 137 0 146 71 5 37 10 45 35 51
42 12 66 38 66 74 0 59 -58 93 -218 126 -53 11 -98 22 -100 24 -2 2 16 17 41
33 64 44 141 133 174 200 24 50 28 68 28 147 0 79 -3 96 -27 138 l-27 47 372
0 c205 0 431 -5 502 -10z m945 -60 c28 -28 25 -64 -6 -89 -35 -27 -49 -26 -80
4 -29 29 -26 58 8 88 27 22 53 22 78 -3z m781 -1 c25 -25 19 -61 -13 -96 -24
-25 -48 -29 -81 -12 -28 15 -37 28 -37 58 0 61 87 94 131 50z m-201 -109 c26
-26 25 -60 -1 -94 -41 -52 -129 -23 -129 44 0 41 31 70 75 70 22 0 43 -8 55
-20z m-428 -7 c25 -23 24 -77 -4 -103 -30 -27 -73 -26 -103 5 -40 39 -32 68
29 101 30 17 57 16 78 -3z m211 -35 c37 -44 11 -113 -48 -124 -54 -10 -85 15
-85 70 0 78 83 113 133 54z m-2327 -414 c124 -24 214 -56 214 -75 0 -4 -9 -13
-21 -19 -16 -9 -34 -7 -83 11 -68 24 -96 21 -96 -11 0 -14 13 -26 45 -41 64
-30 76 -89 19 -89 -46 0 -89 28 -172 112 -80 81 -83 86 -71 111 7 15 18 27 24
27 6 0 70 -12 141 -26z m-744 -167 c-5 -67 16 -111 64 -135 32 -15 38 -15 62
-2 16 9 37 37 51 68 14 28 30 52 36 52 15 0 54 -43 93 -101 63 -93 132 -124
190 -83 13 9 24 14 26 13 150 -205 325 -368 681 -637 99 -74 214 -171 256
-214 42 -43 79 -78 82 -78 3 0 13 7 21 16 14 13 14 19 2 42 -14 28 -118 131
-194 192 l-42 35 63 140 c35 77 74 167 87 200 31 77 37 83 86 78 l41 -5 6 -86
c13 -185 74 -339 199 -503 40 -53 82 -113 93 -133 l20 -36 -29 -53 c-63 -112
-155 -236 -241 -323 -239 -241 -402 -213 -730 127 -107 111 -194 221 -345 439
-52 74 -157 220 -233 323 -76 104 -137 190 -135 191 1 2 17 8 33 13 22 7 30
16 30 34 0 21 -4 24 -35 23 -19 0 -102 -15 -185 -32 -200 -42 -498 -67 -610
-52 -177 23 -359 82 -535 171 -137 69 -133 64 -65 94 l59 26 115 -30 c139 -36
309 -71 345 -71 14 0 34 8 44 18 13 13 29 17 59 14 51 -5 80 10 90 48 l8 29
50 -25 c69 -33 127 -32 154 2 12 15 21 33 21 41 0 11 5 13 18 8 33 -15 77 -16
95 -3 24 18 36 74 25 118 -5 19 -10 41 -11 48 -1 8 18 22 43 32 25 11 45 19
46 19 0 1 -1 -23 -4 -52z m2173 4 c113 -56 237 -191 289 -315 22 -53 46 -47
126 28 176 166 391 256 608 256 202 0 340 -69 472 -234 l50 -64 -45 -146 c-25
-80 -90 -275 -144 -433 -54 -159 -120 -353 -146 -433 l-48 -146 -81 -44 c-116
-64 -410 -263 -635 -429 l-194 -143 -46 22 c-70 34 -149 99 -176 144 -18 32
-25 63 -30 136 -13 194 -61 389 -136 550 -47 101 -80 152 -176 283 -137 186
-194 356 -179 540 14 171 132 386 245 448 56 30 161 22 246 -20z m-2951 -82
c10 -17 47 -61 82 -96 46 -47 57 -64 41 -60 -12 4 -76 17 -142 31 -66 14 -140
32 -165 39 l-45 14 100 51 c55 28 102 51 105 51 3 1 14 -13 24 -30z m4694
-580 c113 -28 264 -107 342 -177 105 -95 104 -83 20 -273 -184 -414 -364 -773
-440 -875 -152 -203 -528 -388 -1363 -670 -179 -60 -212 -78 -263 -140 -73
-89 -204 -176 -329 -219 -27 -9 -123 -32 -213 -50 -193 -40 -229 -55 -454
-198 -207 -132 -243 -150 -274 -143 -33 9 -31 20 17 92 73 113 251 266 449
387 43 26 60 42 58 55 -7 36 -50 24 -148 -39 -199 -129 -326 -245 -420 -384
-57 -85 -67 -94 -109 -97 -56 -5 -62 21 -24 95 112 214 284 387 491 491 59 30
68 59 20 64 -31 4 -86 -23 -184 -89 -132 -88 -245 -210 -339 -365 -23 -37 -45
-66 -50 -66 -6 0 -14 15 -19 32 -23 77 83 259 244 421 194 194 317 247 710
304 363 53 430 70 544 145 41 27 213 151 383 276 396 293 613 438 771 517 98
48 127 67 127 82 0 14 -8 21 -26 23 l-25 3 140 415 141 416 73 -6 c39 -4 107
-16 150 -27z"/>
<path d="M6064 8050 c-100 -15 -168 -46 -177 -81 -6 -24 20 -52 42 -44 89 35
224 45 323 24 128 -27 275 -127 345 -236 34 -54 39 -58 67 -47 22 8 20 30 -8
89 -64 138 -261 271 -427 290 -30 3 -67 7 -84 9 -16 2 -53 0 -81 -4z"/>
<path d="M4735 7527 c-73 -35 -145 -122 -145 -174 0 -36 28 -27 45 15 34 79
121 142 200 142 113 0 206 -103 235 -260 17 -90 17 -90 36 -90 15 0 16 8 11
63 -12 127 -85 256 -172 301 -61 31 -148 33 -210 3z"/>
<path d="M6053 7452 c-70 -28 -127 -75 -169 -139 -61 -91 -93 -214 -52 -201 7
3 17 24 23 49 41 157 170 269 310 269 129 -1 241 -88 293 -227 18 -49 44 -64
50 -30 6 31 -58 148 -107 197 -68 68 -129 94 -226 97 -58 2 -92 -2 -122 -15z"/>
<path d="M7333 7141 c-62 -29 -127 -94 -178 -178 -45 -74 -54 -106 -34 -118
20 -13 59 5 74 34 32 63 91 46 82 -22 -7 -53 -52 -107 -116 -138 -55 -27 -79
-53 -61 -64 5 -3 15 -3 20 0 6 4 17 2 24 -4 33 -27 171 89 196 166 25 75 -13
163 -71 163 -28 0 -23 14 16 49 61 53 91 64 157 57 49 -6 59 -4 65 9 3 10 -2
25 -15 37 -29 30 -105 34 -159 9z"/>
<path d="M6596 7107 c-57 -31 -64 -32 -175 -32 -79 1 -136 6 -180 19 -162 44
-265 30 -366 -52 -98 -78 -76 -109 45 -63 64 24 178 27 325 10 136 -16 236 -1
342 51 78 38 104 65 88 90 -8 14 -11 13 -79 -23z"/>
<path d="M5061 6792 c-36 -35 -48 -90 -31 -133 27 -63 143 -136 175 -109 23
19 19 27 -27 57 -72 45 -88 64 -88 99 0 23 8 38 26 53 30 24 29 55 -4 59 -14
2 -33 -7 -51 -26z"/>
<path d="M5517 6629 c-17 -30 -19 -31 -78 -28 -51 3 -64 1 -73 -14 -28 -46
106 -67 172 -27 38 23 47 40 38 75 -9 35 -37 32 -59 -6z"/>
<path d="M5128 6400 c-26 -5 -68 -18 -93 -31 l-45 -23 -31 23 c-31 23 -59 22
-59 -2 0 -17 25 -39 68 -61 25 -13 40 -32 58 -74 52 -120 79 -164 126 -208 89
-84 191 -110 308 -80 116 30 192 90 368 294 39 45 60 62 78 62 20 0 25 4 22
21 -6 39 -32 46 -78 20 -56 -31 -147 -30 -264 4 -157 46 -366 71 -458 55z
m239 -60 c85 -12 273 -60 273 -71 0 -15 -142 -42 -245 -46 -82 -4 -126 -1
-173 11 -72 19 -172 64 -172 77 0 5 1 9 3 9 1 0 20 7 42 15 48 17 164 19 272
5z m355 -137 c-60 -75 -155 -152 -229 -185 -34 -15 -69 -22 -118 -22 -80 -1
-129 18 -182 71 -30 31 -93 128 -93 145 0 4 16 0 35 -8 54 -22 170 -44 234
-44 79 0 211 24 296 54 92 32 92 32 57 -11z"/>
<path d="M2450 6660 c-145 -28 -234 -191 -186 -338 21 -61 95 -135 152 -151
173 -48 344 70 344 238 0 65 -32 142 -76 183 -56 52 -161 83 -234 68z m111
-52 c49 -14 111 -67 133 -112 9 -19 16 -58 16 -88 0 -69 -31 -123 -94 -165
-42 -29 -57 -33 -113 -33 -129 0 -203 73 -203 202 0 143 126 237 261 196z"/>
<path d="M2515 6487 c-38 -38 -44 -70 -21 -116 45 -86 186 -54 186 43 0 48
-42 95 -92 103 -33 5 -41 2 -73 -30z"/>
<path d="M3232 6647 c-51 -19 -102 -66 -123 -111 -22 -49 -25 -152 -6 -199 67
-159 290 -198 397 -69 125 151 24 376 -173 388 -35 2 -76 -2 -95 -9z m165 -56
c81 -37 130 -144 103 -226 -26 -79 -88 -125 -170 -125 -130 0 -223 117 -190
239 29 110 148 161 257 112z"/>
<path d="M3344 6516 c-78 -34 -51 -156 35 -156 69 0 105 82 59 134 -30 32 -56
38 -94 22z"/>
<path d="M2864 6096 c-3 -8 -4 -25 -2 -38 2 -18 9 -23 33 -23 24 0 31 5 33 23
2 13 -2 30 -8 38 -16 18 -49 18 -56 0z"/>
<path d="M3107 6104 c-12 -12 -8 -51 8 -64 26 -22 50 -8 50 30 0 30 -4 35 -25
38 -14 2 -29 0 -33 -4z"/>
<path d="M2224 6051 c-18 -11 -39 -30 -48 -42 -17 -25 -22 -84 -7 -94 10 -6
37 17 43 37 3 9 26 -2 68 -31 78 -55 172 -94 315 -131 147 -38 242 -50 389
-50 247 0 470 62 632 175 52 36 69 43 84 35 13 -7 21 -6 31 6 10 12 9 20 -8
42 -22 30 -89 72 -115 72 -25 0 -23 -36 3 -54 21 -14 20 -15 -22 -46 -90 -65
-221 -118 -366 -147 -132 -26 -385 -24 -521 5 -188 41 -340 99 -422 161 l-24
19 23 20 c47 37 0 57 -55 23z"/>
<path d="M8906 10031 c-82 -27 -162 -85 -213 -154 -45 -62 -83 -164 -83 -223
0 -33 -1 -34 -27 -27 -148 39 -317 -57 -396 -224 -28 -60 -32 -78 -32 -153 0
-139 49 -237 155 -308 104 -70 69 -67 830 -64 790 4 760 1 845 85 87 87 109
211 57 313 -30 58 -103 122 -157 136 -25 7 -45 18 -45 25 0 7 -9 36 -20 66
-41 109 -156 184 -270 174 -30 -2 -62 -7 -72 -11 -13 -6 -17 1 -23 34 -11 65
-70 172 -127 229 -28 28 -80 66 -116 83 -56 28 -77 33 -156 35 -69 2 -105 -2
-150 -16z m230 -66 c143 -42 244 -173 261 -337 3 -33 11 -62 17 -64 6 -2 33 7
60 21 76 38 153 31 223 -22 39 -30 73 -97 73 -145 0 -57 8 -68 49 -68 58 -1
116 -33 148 -82 23 -37 28 -54 28 -115 0 -65 -3 -74 -31 -110 -43 -53 -86 -80
-148 -93 -35 -7 -264 -10 -706 -8 l-655 3 -63 29 c-67 31 -108 71 -144 139
-32 59 -32 190 0 261 72 160 232 232 365 166 63 -32 70 -23 71 87 1 96 25 165
79 229 87 102 242 148 373 109z"/>
<path d="M9015 3736 c-90 -10 -100 -13 -100 -31 0 -19 5 -20 100 -15 109 5
270 5 697 -1 254 -4 279 -3 295 13 12 12 14 21 7 28 -15 15 -873 21 -999 6z"/>
<path d="M426 3370 c-96 -20 -110 -28 -104 -56 4 -23 19 -22 143 1 113 22 321
16 540 -16 205 -29 477 -31 590 -5 97 22 115 31 115 56 0 25 -18 25 -125 4
-125 -25 -359 -21 -595 10 -240 32 -431 34 -564 6z"/>
<path d="M7727 3295 c-99 -14 -120 -26 -95 -51 15 -15 27 -15 105 -5 125 16
285 14 438 -5 207 -26 430 -4 430 41 0 23 -15 24 -195 10 -77 -5 -140 -3 -235
9 -152 19 -323 19 -448 1z"/>
<path d="M2628 3106 c-87 -12 -111 -27 -87 -52 13 -13 26 -13 80 -5 91 15 249
13 354 -4 107 -18 296 -19 345 -2 24 8 35 18 35 32 0 19 -6 20 -145 17 -99 -3
-175 1 -240 12 -107 18 -228 19 -342 2z"/>
<path d="M1300 2872 c-20 -21 -53 -73 -74 -115 l-38 -77 -59 52 c-67 59 -137
108 -155 108 -7 0 -26 -15 -42 -34 -39 -44 -55 -116 -50 -224 1 -45 2 -82 2
-82 -1 0 -31 14 -68 31 -119 56 -231 75 -256 44 -40 -48 40 -305 141 -451 l28
-42 -38 -6 c-62 -10 -191 -55 -266 -92 -136 -69 -195 -139 -195 -229 0 -25 6
-58 14 -73 19 -36 83 -96 126 -117 49 -25 169 -15 348 30 79 19 146 35 150 35
3 0 -36 -28 -88 -62 -111 -75 -124 -92 -93 -117 50 -41 356 -82 618 -83 284 0
485 29 709 103 177 58 257 110 240 153 -5 14 -99 64 -169 92 -12 5 30 11 110
15 72 4 142 11 156 17 84 34 75 151 -18 232 -46 41 -139 84 -229 106 -38 9
-71 19 -73 20 -2 2 14 30 36 61 89 127 147 285 141 384 -4 68 -18 77 -93 62
-47 -10 -97 -29 -230 -89 -7 -3 -9 20 -7 68 5 88 -12 193 -39 238 -19 30 -23
32 -60 27 -52 -7 -123 -59 -184 -136 -47 -59 -50 -61 -59 -39 -33 83 -76 158
-108 190 -50 50 -80 50 -128 0z m93 -50 c78 -81 143 -310 134 -472 -7 -126
-23 -183 -69 -251 -21 -31 -53 -89 -71 -128 -30 -65 -47 -81 -47 -44 0 21 -65
159 -112 236 l-41 67 6 133 c6 150 29 252 82 359 31 63 73 126 86 127 3 1 17
-11 32 -27z m414 -73 c14 -54 16 -180 3 -234 -6 -25 -19 -47 -37 -59 -15 -11
-63 -54 -105 -95 l-78 -74 0 88 c0 49 -5 117 -11 151 -11 61 -10 64 19 106 51
73 164 172 187 165 5 -2 15 -23 22 -48z m-725 -72 c73 -63 84 -81 69 -120 -6
-15 -16 -75 -22 -134 l-11 -108 -52 51 c-28 27 -63 60 -79 71 -20 15 -30 35
-37 73 -18 94 -8 201 22 238 12 14 5 19 110 -71z m1065 -172 c-10 -69 -45
-164 -88 -237 -127 -216 -328 -347 -573 -373 l-68 -8 7 24 c4 13 24 56 45 94
139 253 343 437 580 521 97 35 104 33 97 -21z m-1427 -2 c170 -57 332 -183
439 -341 49 -73 108 -193 117 -239 l7 -33 -62 0 c-225 0 -421 143 -536 394
-27 57 -75 212 -75 241 0 8 49 -2 110 -22z m1385 -480 c131 -32 245 -116 245
-179 0 -46 -17 -49 -284 -49 -244 0 -251 -1 -251 -20 0 -16 23 -29 120 -67
200 -79 247 -100 238 -108 -4 -4 -48 -24 -98 -43 -319 -125 -801 -161 -1202
-90 -51 9 -93 19 -92 22 0 3 38 30 83 60 115 74 200 151 191 174 -4 9 -11 17
-16 17 -5 0 -107 -25 -226 -55 -237 -60 -363 -82 -406 -71 -15 3 -47 26 -72
49 -38 36 -45 50 -45 81 0 20 7 50 14 65 36 68 160 140 321 185 153 42 142 43
214 -18 80 -69 160 -111 247 -132 102 -24 437 -15 547 15 97 25 196 77 273
141 66 54 72 55 199 23z"/>
<path d="M9106 2494 c-82 -15 -106 -26 -106 -51 0 -23 24 -25 110 -9 104 20
239 20 405 0 168 -20 331 -22 423 -5 75 13 97 31 71 55 -11 11 -34 10 -122 -2
-103 -15 -120 -14 -315 6 -234 25 -352 27 -466 6z"/>
<path d="M7637 1373 c-17 -20 -42 -117 -52 -208 -9 -80 15 -188 58 -269 l33
-63 -90 -6 c-141 -7 -269 -68 -305 -142 -14 -28 -13 -30 30 -68 52 -46 184
-111 257 -126 29 -6 90 -11 135 -11 l82 0 0 -98 c0 -87 3 -103 29 -157 38 -77
170 -215 207 -215 49 0 158 141 195 254 9 28 18 52 19 54 2 2 74 -69 162 -158
156 -159 159 -162 197 -158 l39 3 -186 192 c-102 106 -191 202 -197 214 -13
24 -6 36 12 22 25 -20 124 -51 184 -58 100 -11 253 26 275 66 15 29 -16 85
-86 154 -85 85 -229 155 -317 155 -34 0 -34 0 -6 75 19 50 23 81 23 180 0 114
-1 123 -29 173 -21 38 -35 52 -51 52 -29 0 -93 -47 -179 -132 -39 -37 -71 -66
-72 -65 -1 1 -12 22 -24 47 -47 94 -175 231 -270 289 -43 26 -52 26 -73 4z
m100 -101 c87 -70 177 -180 210 -259 8 -20 23 -69 33 -107 15 -62 21 -71 41
-71 22 0 22 3 20 69 l-3 70 97 93 c53 52 102 92 108 90 23 -7 39 -82 34 -167
-5 -102 -34 -191 -78 -236 -44 -45 -34 -68 24 -59 108 16 271 -47 368 -144 32
-33 59 -66 59 -74 0 -36 -195 -52 -280 -22 -25 8 -71 32 -103 51 -83 51 -93
46 -89 -47 6 -129 -45 -271 -126 -355 l-36 -37 -59 63 c-98 104 -135 220 -107
330 30 116 28 119 -68 95 -122 -31 -234 -10 -377 70 l-67 37 22 23 c64 68 241
104 352 71 75 -21 98 -21 98 3 0 10 -8 25 -17 32 -9 8 -36 40 -60 72 -51 70
-83 165 -83 249 0 70 20 198 31 198 4 0 29 -17 56 -38z"/>
<path d="M565 880 c-77 -14 -168 -42 -185 -57 -13 -13 -13 -16 3 -27 14 -11
28 -10 85 6 46 14 110 22 207 25 122 4 169 1 365 -27 199 -29 241 -32 365 -27
203 9 316 42 275 81 -13 12 -28 11 -105 -5 -130 -27 -300 -25 -505 6 -178 28
-423 40 -505 25z"/>
</g>
</svg>
