<?xml version="1.0" standalone="no"?>
<!DOCTYPE svg PUBLIC "-//W3C//DTD SVG 20010904//EN"
 "http://www.w3.org/TR/2001/REC-SVG-20010904/DTD/svg10.dtd">
<svg version="1.0" xmlns="http://www.w3.org/2000/svg"
 width="1024.000000pt" height="1024.000000pt" viewBox="0 0 1024.000000 1024.000000"
 preserveAspectRatio="xMidYMid meet">

<g transform="translate(0.000000,1024.000000) scale(0.100000,-0.100000)"
fill="#000000" stroke="none">
<path d="M5188 9868 c-35 -28 -498 -486 -1030 -1017 -702 -700 -971 -974 -979
-999 -16 -49 -4 -78 59 -145 83 -87 127 -117 174 -117 34 0 47 7 97 55 l58 55
6 -94 c4 -55 14 -115 26 -146 l19 -51 -21 -47 c-16 -37 -21 -68 -21 -149 -1
-57 -4 -103 -8 -103 -5 0 -8 5 -8 10 0 20 -238 255 -432 427 -184 163 -213
193 -188 193 5 0 17 11 26 25 25 38 6 71 -100 172 -137 132 -562 446 -726 536
-146 80 -279 88 -413 25 -162 -78 -682 -464 -851 -633 -46 -45 -51 -102 -12
-133 l24 -19 -56 -43 c-148 -114 -310 -257 -448 -395 -164 -163 -193 -208
-180 -279 14 -72 81 -93 176 -57 l50 19 0 -231 c0 -128 -3 -458 -7 -734 l-6
-502 -42 25 c-49 28 -119 32 -153 8 -50 -35 -68 -128 -37 -201 21 -50 19 -56
-14 -50 -40 8 -97 -10 -116 -36 -37 -54 -3 -152 90 -254 l54 -60 -97 -19 c-94
-19 -97 -20 -100 -48 -3 -26 -1 -28 20 -22 112 33 276 53 573 71 l100 6 61
-48 c33 -27 84 -59 112 -71 29 -13 52 -24 52 -25 0 -1 -11 -51 -25 -111 -13
-59 -27 -140 -30 -180 -3 -39 -16 -116 -28 -171 -15 -71 -22 -132 -21 -210 1
-96 5 -122 33 -204 37 -111 100 -209 175 -279 53 -48 148 -116 180 -128 28
-11 18 -21 -62 -64 -42 -23 -102 -60 -132 -83 -157 -117 -340 -335 -340 -405
0 -11 9 -30 19 -43 19 -24 19 -24 -20 -94 -55 -101 -132 -284 -172 -412 -60
-189 -68 -359 -21 -431 16 -24 25 -25 90 -6 17 4 26 -2 43 -30 77 -124 161
-77 293 162 l35 63 6 -153 c6 -160 23 -249 71 -371 21 -54 26 -89 36 -270 6
-114 15 -241 20 -283 7 -53 6 -90 -1 -120 -17 -68 -7 -152 23 -199 14 -22 31
-65 38 -95 30 -131 115 -221 247 -260 67 -20 89 -9 114 60 20 56 39 78 39 45
0 -22 72 -93 103 -101 66 -16 107 41 128 177 8 52 18 81 34 99 39 43 47 69 55
184 6 90 17 142 59 279 28 92 51 170 51 172 0 3 56 5 124 5 l123 0 32 -107
c43 -148 61 -250 61 -345 0 -87 5 -101 50 -146 19 -19 30 -41 30 -58 0 -109
189 -233 356 -234 59 0 64 6 64 75 0 55 14 64 48 32 40 -36 66 -47 116 -47 51
0 86 25 86 61 0 11 -14 55 -30 97 l-31 76 22 50 c19 44 21 63 16 141 -3 59 2
142 14 240 11 83 22 202 25 265 5 96 13 135 45 236 50 156 69 269 69 408 l1
111 62 -125 c37 -75 72 -132 88 -143 24 -17 29 -18 56 -4 16 9 42 32 56 51 25
32 29 34 57 24 24 -8 35 -7 55 6 14 9 25 20 25 24 1 4 5 27 10 52 15 76 -24
326 -76 500 -29 94 -59 158 -112 238 l-35 53 23 24 c31 33 21 65 -49 167 -126
179 -261 314 -395 392 -36 21 -66 42 -66 46 0 4 33 28 73 53 254 158 391 408
374 678 -7 107 -36 195 -91 279 -37 56 -45 76 -55 150 -6 47 -21 118 -33 158
-11 40 -18 76 -14 80 6 6 452 5 591 -1 55 -3 56 16 1 27 -49 9 -55 16 -30 37
26 22 46 71 46 113 -1 33 -7 47 -32 69 -29 25 -38 28 -93 26 l-62 -3 3 65 c3
59 1 69 -23 97 -21 25 -34 32 -64 32 -20 0 -42 -5 -49 -12 -9 -9 -12 56 -12
295 l0 307 22 0 c33 0 107 -39 125 -67 9 -13 24 -53 34 -88 17 -62 17 -66 -2
-125 -21 -70 -26 -248 -9 -312 14 -49 35 -59 142 -67 l90 -6 15 -45 c31 -93
109 -170 217 -214 30 -13 37 -20 31 -33 -31 -76 -70 -207 -90 -303 -13 -63
-36 -149 -51 -190 -22 -62 -28 -97 -32 -205 -4 -112 -1 -142 17 -208 50 -185
171 -344 339 -450 34 -22 62 -43 62 -47 0 -4 -17 -19 -37 -32 -102 -68 -251
-230 -363 -393 -79 -116 -88 -145 -61 -189 l21 -33 -39 -86 c-55 -118 -108
-283 -127 -391 -8 -50 -22 -131 -31 -179 -17 -97 -14 -227 7 -252 20 -24 56
-18 84 16 14 17 26 35 26 40 0 5 5 9 10 9 6 0 10 -15 10 -34 0 -102 62 -147
128 -91 30 25 107 164 153 275 33 81 39 81 32 1 -5 -56 -3 -75 9 -89 10 -11
17 -49 21 -112 4 -52 17 -140 31 -195 18 -75 26 -140 30 -260 4 -88 16 -257
28 -375 23 -236 25 -312 13 -471 -5 -76 -4 -116 5 -143 24 -73 86 -66 170 19
24 25 47 45 50 45 3 0 6 -26 7 -57 2 -80 22 -96 96 -79 78 18 141 52 202 108
76 69 99 124 129 305 32 187 74 387 90 427 l12 29 142 1 c118 1 143 -2 146
-14 3 -8 12 -55 21 -105 53 -295 109 -553 125 -580 24 -39 96 -107 140 -132
50 -29 135 -55 167 -51 36 4 53 38 53 107 l0 54 55 -61 c66 -72 104 -86 141
-52 43 41 48 78 34 250 -10 120 -10 179 -1 260 18 167 30 312 41 500 8 135 16
196 35 265 15 52 28 130 32 185 4 76 10 99 26 117 18 20 19 31 13 99 -3 43 -4
75 -2 73 2 -2 26 -58 52 -124 72 -182 117 -245 177 -245 41 0 87 67 87 128 0
26 0 26 35 -12 26 -29 40 -37 62 -34 34 4 41 25 42 143 2 191 -42 402 -129
625 -28 69 -50 130 -50 134 0 4 9 19 20 33 30 39 25 71 -25 153 -98 157 -298
376 -407 445 -27 17 -48 32 -48 35 0 3 26 23 58 45 171 118 290 287 328 466
23 107 14 278 -19 384 -15 47 -28 119 -31 173 -6 77 -24 164 -62 298 -5 17 0
23 23 28 87 21 182 123 222 236 11 31 27 57 38 61 10 4 61 8 114 8 l97 1 7
-47 c21 -142 104 -266 215 -323 21 -11 41 -24 45 -30 3 -5 -5 -45 -19 -87 -13
-43 -32 -118 -41 -168 -9 -49 -34 -130 -55 -180 -65 -151 -75 -196 -74 -330 1
-135 23 -216 86 -323 66 -112 239 -261 369 -318 21 -10 39 -21 39 -25 0 -4
-29 -28 -63 -53 -118 -84 -276 -274 -371 -447 -43 -79 -45 -116 -10 -159 l27
-31 -57 -157 c-83 -232 -146 -490 -146 -603 0 -77 3 -92 21 -110 20 -20 45
-22 90 -4 12 4 19 -4 28 -34 20 -69 76 -89 138 -52 17 11 51 47 74 80 24 33
44 59 46 57 2 -1 8 -39 13 -84 6 -45 22 -119 36 -164 20 -63 28 -118 34 -233
5 -82 18 -225 29 -317 12 -92 21 -203 21 -247 0 -73 -3 -85 -34 -138 -63 -107
-72 -184 -21 -197 29 -7 85 14 133 50 18 14 35 24 38 21 3 -2 -1 -26 -7 -52
-16 -65 -1 -77 91 -70 184 16 266 44 343 114 62 57 86 119 103 265 12 103 74
400 85 410 2 2 77 1 166 -2 l161 -5 7 -45 c4 -25 27 -124 51 -220 31 -123 44
-195 44 -243 0 -38 5 -78 12 -89 10 -15 10 -32 0 -78 -18 -85 -16 -146 6 -164
45 -39 108 -28 171 31 18 17 34 31 36 31 1 0 5 -19 9 -41 14 -85 34 -94 151
-64 173 44 275 139 275 255 0 14 8 37 18 50 13 20 17 48 18 130 1 58 11 177
22 265 11 88 24 214 28 280 5 84 17 161 40 254 25 99 34 156 34 217 0 78 2 85
25 100 23 15 25 21 27 137 l3 122 31 -60 c17 -33 55 -119 84 -192 58 -148 84
-183 138 -183 27 0 42 8 68 36 19 19 34 40 34 45 0 14 27 11 62 -7 29 -15 32
-15 57 3 36 28 50 74 50 177 2 168 -66 427 -185 712 -52 125 -55 137 -40 153
22 24 20 37 -13 106 -88 183 -243 341 -461 469 -127 75 -126 54 -13 161 152
144 234 299 264 505 17 121 6 318 -26 455 -14 61 -29 125 -32 143 l-6 32 134
0 c294 0 611 -33 744 -78 l55 -19 0 32 c0 30 -3 33 -37 39 -21 4 -71 14 -110
22 l-73 16 60 65 c66 73 100 146 100 219 0 64 -45 110 -117 120 l-50 6 5 73
c6 90 -8 134 -55 176 -33 29 -40 31 -92 26 -31 -2 -64 -8 -73 -12 -17 -7 -18
24 -18 572 0 319 3 583 6 586 4 4 24 -7 44 -23 21 -17 49 -30 62 -30 34 0 146
77 180 124 56 77 39 110 -139 263 -75 65 -183 160 -240 211 l-103 93 0 401 0
402 33 27 c32 27 32 27 35 130 3 118 -13 168 -58 180 -34 9 -387 10 -479 0
-106 -10 -114 -21 -109 -167 3 -101 5 -115 26 -137 22 -23 22 -29 20 -191 l-3
-167 -215 188 c-476 415 -472 412 -522 399 -13 -3 -84 -58 -159 -123 -75 -65
-193 -167 -263 -228 -70 -60 -302 -261 -514 -446 l-387 -336 -8 70 c-4 38 -17
92 -27 120 -15 39 -17 54 -8 70 21 40 38 123 38 190 0 37 3 67 6 67 3 0 31
-22 61 -50 75 -69 109 -69 191 -1 107 89 138 138 127 198 -6 33 -41 73 -258
293 l-252 255 3 393 2 393 24 9 c48 18 56 45 56 177 0 114 -1 124 -24 150
l-24 28 -339 3 c-331 3 -340 2 -366 -18 -34 -27 -47 -75 -47 -175 0 -95 19
-143 67 -165 33 -15 33 -15 33 -92 0 -43 -4 -78 -8 -78 -4 0 -187 181 -406
403 -219 221 -424 426 -457 455 -80 70 -105 71 -191 0z m415 -300 c162 -161
525 -527 807 -813 282 -286 599 -602 703 -702 105 -100 197 -194 205 -208 12
-23 11 -30 -8 -60 -29 -47 -133 -135 -160 -135 -30 0 -209 173 -1365 1323
-270 268 -496 487 -503 487 -17 0 -509 -478 -1248 -1212 -336 -335 -619 -608
-628 -608 -9 0 -52 34 -96 76 -60 58 -80 83 -80 103 0 21 171 196 927 951
1047 1046 1093 1090 1128 1090 19 0 93 -68 318 -292z m1279 -105 c15 -13 18
-31 18 -99 0 -45 -4 -94 -10 -108 l-10 -26 -319 0 c-277 0 -322 2 -335 16 -12
12 -16 37 -16 105 0 141 -32 129 337 129 280 0 319 -2 335 -17z m-1417 -263
l180 -180 -370 1 -370 0 185 180 c101 98 187 179 190 179 3 0 86 -81 185 -180z
m1149 -26 c13 -5 16 -22 16 -80 l0 -74 -160 0 -160 0 0 74 c0 74 0 75 28 79
44 7 259 7 276 1z m180 0 c13 -5 16 -22 16 -80 l0 -74 -76 0 -77 0 6 70 c3 39
9 75 12 80 7 11 94 14 119 4z m-919 -374 c98 -99 177 -181 174 -183 -2 -2
-352 -1 -778 1 l-774 4 179 179 179 179 420 0 421 0 179 -180z m615 85 c0 -83
-2 -95 -17 -95 -27 0 -163 140 -163 167 0 22 3 23 90 23 l90 0 0 -95z m318 -3
l3 -93 -143 3 -143 3 -3 79 c-2 44 -1 85 2 93 5 11 34 13 143 11 l138 -3 3
-93z m2 -282 c0 -82 -3 -150 -7 -150 -10 0 -293 283 -293 292 0 5 68 8 150 8
l150 0 0 -150z m-535 -200 c96 -95 172 -177 169 -182 -6 -10 -2082 -11 -2238
-1 l-108 6 179 179 178 180 823 -4 823 -4 174 -174z m-4292 75 c107 -28 222
-96 492 -293 176 -128 353 -271 398 -321 39 -44 47 -75 21 -85 -20 -8 -160 48
-227 90 -29 18 -54 29 -55 23 -2 -5 17 -32 42 -60 54 -60 116 -166 116 -197 0
-76 -190 14 -352 167 -38 35 -71 62 -73 59 -3 -2 9 -52 26 -111 33 -118 35
-180 6 -185 -51 -10 -109 34 -237 177 l-85 95 -6 -80 c-11 -146 -34 -194 -93
-194 -43 0 -72 23 -100 78 -24 49 -56 162 -56 200 0 35 -27 26 -40 -13 -19
-57 -103 -177 -159 -227 -56 -50 -88 -59 -115 -32 -20 20 -20 52 3 189 10 61
16 112 14 115 -3 3 -38 -32 -79 -76 -77 -85 -188 -181 -239 -207 -46 -23 -89
-25 -93 -5 -5 28 31 99 114 222 42 64 75 119 72 122 -3 3 -30 -13 -59 -36 -76
-58 -226 -130 -272 -130 -50 0 -66 29 -35 63 35 38 321 274 454 374 224 169
341 241 444 274 68 22 100 23 173 4z m7615 -249 c1 -55 -2 -104 -7 -109 -13
-13 -502 -10 -515 3 -17 17 -14 173 3 194 12 15 40 16 265 14 l251 -3 3 -99z
m-1147 -55 c158 -131 661 -575 1074 -946 110 -99 271 -243 358 -319 147 -128
158 -140 155 -169 -2 -24 -16 -42 -63 -79 -32 -26 -68 -48 -80 -48 -11 0 -81
54 -161 123 -323 281 -718 628 -1008 887 -298 266 -373 330 -385 330 -3 0 -37
-28 -76 -61 -38 -34 -191 -166 -340 -294 -274 -236 -521 -450 -899 -778 -255
-223 -251 -220 -285 -202 -46 24 -131 106 -131 126 0 11 43 56 112 116 61 54
164 145 228 203 63 58 196 175 295 260 98 85 269 234 379 330 644 561 690 600
717 600 9 0 59 -35 110 -79z m-1774 -163 c89 -89 160 -164 158 -167 -6 -5
-3108 -1 -3114 4 -2 2 72 77 163 167 l167 163 1232 -3 1232 -2 162 -162z
m2853 -48 l0 -90 -205 0 -205 0 0 90 0 90 205 0 205 0 0 -90z m-1072 -176 c59
-53 109 -101 110 -105 2 -5 -101 -9 -228 -9 -140 0 -230 4 -228 9 4 13 221
200 231 201 4 0 56 -43 115 -96z m864 -33 c5 -118 10 -111 -91 -111 -54 0 -92
5 -99 12 -7 7 -12 44 -12 95 l0 83 99 0 99 0 4 -79z m208 -21 l0 -101 -82 3
-83 3 -3 84 c-2 46 -1 90 2 98 4 9 28 13 86 13 l80 0 0 -100z m-5612 0 c40
-80 27 -235 -25 -292 -13 -15 -33 -18 -113 -18 l-96 0 -24 42 c-41 73 -39 253
3 306 7 9 40 12 121 10 l111 -3 23 -45z m2682 45 c0 -3 -9 -34 -21 -68 -26
-75 -22 -169 8 -238 l21 -46 -1332 1 -1332 0 19 51 c25 64 27 202 3 259 -9 21
-16 40 -16 42 0 2 596 4 1325 4 729 0 1325 -2 1325 -5z m316 -30 c9 -22 14
-69 14 -127 0 -78 -4 -102 -25 -146 l-24 -53 -108 3 -107 3 -30 49 c-27 44
-31 58 -30 125 0 53 5 86 18 111 36 69 38 70 163 70 l114 0 15 -35z m-5830
-51 c-40 -74 -46 -126 -19 -156 43 -48 162 3 290 125 l82 79 -6 -85 c-6 -86
-6 -86 25 -116 17 -17 40 -31 52 -31 62 0 153 72 217 171 21 32 41 59 44 59 3
0 11 -22 18 -49 29 -112 101 -179 183 -168 64 9 100 53 113 140 4 26 10 47 13
47 2 0 41 -35 86 -78 119 -114 190 -139 241 -87 29 28 32 75 10 148 -15 51 -9
59 21 26 10 -12 52 -44 92 -71 133 -90 195 -107 246 -67 35 27 33 59 -5 126
-17 30 -29 56 -27 58 11 12 164 -111 383 -306 233 -207 372 -354 396 -418 20
-52 -35 -66 -132 -32 -95 33 -161 79 -274 195 -202 206 -263 229 -81 30 123
-135 171 -212 182 -297 6 -41 4 -47 -20 -62 -23 -16 -32 -16 -69 -6 -95 28
-227 123 -396 286 -66 63 -125 115 -131 115 -16 0 1 -27 58 -91 86 -95 142
-210 142 -289 0 -71 -47 -79 -130 -24 -81 54 -237 217 -299 312 -49 74 -71 98
-71 73 0 -5 14 -41 30 -80 34 -80 70 -219 70 -272 0 -48 -32 -89 -69 -89 -16
0 -46 13 -68 29 -73 53 -193 233 -224 339 -7 23 -16 42 -21 42 -4 0 -8 -30 -8
-67 -1 -268 -101 -407 -191 -265 -35 56 -53 113 -69 219 -23 152 -22 152 -65
23 -47 -144 -84 -218 -133 -269 -58 -61 -115 -54 -137 18 -21 68 6 269 50 384
4 9 3 17 -2 17 -5 0 -49 -62 -98 -137 -136 -207 -235 -303 -316 -305 -49 -2
-69 30 -69 106 0 74 29 141 119 275 34 50 61 96 61 103 0 18 -75 -58 -123
-126 -93 -133 -221 -246 -338 -301 -97 -45 -134 -27 -127 60 7 86 41 137 190
290 76 78 138 145 138 149 0 21 -37 -10 -173 -142 -153 -149 -222 -200 -345
-252 -102 -44 -161 -25 -141 46 20 70 285 332 563 557 90 73 135 102 180 117
34 11 72 27 86 35 14 7 26 12 28 10 2 -2 -13 -34 -32 -71z m7289 -194 l0 -125
-294 -3 c-162 -1 -299 2 -303 6 -8 8 108 115 241 225 l33 27 162 -2 161 -3 0
-125z m400 3 l146 -128 -243 -3 c-185 -2 -245 1 -254 10 -8 9 -10 48 -6 131
l5 117 103 0 103 0 146 -127z m755 -55 c0 -143 -1 -150 -17 -136 -119 100
-302 272 -297 279 3 5 75 9 160 9 l154 0 0 -152z m-2916 -79 c2 -2 -4 -29 -14
-59 -23 -66 -25 -153 -5 -235 8 -33 14 -63 15 -66 0 -3 -173 -4 -384 -3 l-385
1 -61 56 c-76 68 -169 118 -283 151 -262 76 -516 18 -707 -160 l-49 -46 -398
1 c-219 0 -399 1 -399 1 -1 0 7 27 17 61 27 86 24 209 -6 281 -6 16 5 18 122
21 181 5 2531 2 2537 -4z m-2699 -44 c28 -55 28 -204 1 -255 -36 -67 -41 -70
-136 -70 -101 0 -120 13 -140 92 -17 68 -10 217 13 251 l18 28 112 -3 112 -3
20 -40z m2995 3 c14 -32 20 -66 20 -130 l0 -86 -64 -56 c-62 -55 -65 -56 -123
-56 -70 0 -87 13 -109 86 -26 87 -14 192 30 259 16 24 20 25 122 25 l105 0 19
-42z m1108 -111 l3 -107 -26 -10 c-34 -13 -558 -13 -553 -1 2 6 61 60 133 121
l130 110 155 -2 155 -3 3 -108z m647 -7 l0 -114 -286 -4 c-203 -3 -292 -1
-308 7 -18 10 -21 21 -21 69 0 31 3 81 6 110 l7 52 301 -2 301 -3 0 -115z
m427 13 c67 -60 123 -114 126 -121 3 -10 -49 -12 -250 -10 l-253 3 -3 104 c-1
58 0 111 2 118 4 10 36 13 131 13 l125 0 122 -107z m-3617 -52 c159 -47 281
-131 370 -256 86 -121 126 -235 144 -414 13 -118 15 -771 3 -771 -4 0 -36 -27
-72 -60 -35 -33 -66 -57 -69 -54 -4 3 -7 171 -9 372 -3 513 -19 642 -95 787
-60 113 -188 214 -312 244 -27 7 -95 13 -150 12 -104 0 -162 -14 -255 -61 -58
-29 -177 -151 -213 -217 -66 -123 -86 -315 -87 -815 l0 -266 -74 -31 c-41 -17
-77 -31 -80 -31 -10 0 -6 789 4 894 20 205 78 342 198 468 116 121 249 195
397 219 76 12 222 2 300 -20z m-4062 -338 c10 -18 26 -37 36 -43 28 -15 77
-12 111 5 51 26 126 141 165 250 5 15 12 4 29 -50 56 -175 127 -237 211 -185
44 27 73 82 89 168 l12 65 42 -66 c74 -113 191 -207 257 -207 36 0 82 48 91
96 4 21 3 64 -2 96 -6 32 -8 58 -6 58 3 0 39 -33 81 -72 106 -101 179 -149
235 -155 54 -7 79 10 96 63 9 27 8 45 -4 86 -8 29 -14 54 -12 56 2 2 37 -22
77 -52 148 -111 274 -153 328 -109 28 23 40 103 23 152 -13 37 -2 40 44 12
l31 -19 6 -508 c5 -391 0 -1534 -7 -1540 0 -1 -54 -4 -119 -8 l-117 -6 -20 32
-19 32 58 61 c55 57 111 149 124 206 4 14 13 71 22 127 8 56 27 136 41 178 43
124 18 162 -138 204 -206 56 -386 27 -532 -85 l-49 -37 -46 19 -46 19 0 254
c0 284 -3 305 -66 435 -47 98 -101 162 -191 225 -222 156 -531 135 -740 -49
-66 -58 -136 -168 -172 -270 l-31 -86 0 -320 c0 -176 -4 -329 -8 -341 -6 -18
-11 -16 -60 32 -110 106 -237 126 -482 75 -175 -36 -191 -46 -189 -119 1 -26
11 -78 22 -116 15 -45 22 -94 22 -145 0 -79 26 -206 54 -259 l15 -29 -96 -6
c-53 -4 -99 -4 -102 -1 -8 8 -4 1947 4 1995 5 31 15 45 39 60 36 22 40 17 27
-40 -11 -52 2 -105 32 -126 54 -38 160 -4 297 98 l75 55 5 -66 c3 -37 12 -77
19 -88 18 -28 63 -54 92 -54 64 0 200 107 275 216 l39 57 6 -99 c3 -64 11
-110 22 -131z m6150 217 l127 0 0 -120 0 -120 -290 0 c-159 0 -290 3 -289 8 0
4 64 60 141 125 109 92 146 117 162 113 12 -3 78 -6 149 -6z m1811 -74 c44
-39 103 -92 131 -118 l50 -48 -265 3 -265 2 -3 117 -3 117 118 3 c65 2 127 2
138 -1 11 -2 55 -36 99 -75z m-994 7 c0 -38 -3 -92 -6 -121 l-7 -52 -316 2
-316 3 -3 104 c-1 58 0 111 2 118 4 10 70 13 326 13 l320 0 0 -67z m600 -53
l0 -120 -282 2 -283 3 -3 118 -3 117 286 0 285 0 0 -120z m-5360 58 c0 -7 -9
-30 -20 -52 -39 -83 -36 -252 6 -342 15 -31 14 -36 -7 -91 -32 -81 -32 -231 0
-320 20 -57 21 -64 7 -91 -8 -16 -20 -60 -27 -98 -7 -38 -13 -70 -14 -72 -2
-2 -19 7 -39 19 -20 11 -54 22 -76 23 l-40 1 0 221 c0 121 -3 343 -7 492 l-6
271 71 -6 72 -6 33 35 c31 34 47 39 47 16z m1765 -27 c27 -6 31 -11 38 -56 4
-28 5 -306 1 -618 -5 -459 -9 -567 -20 -563 -7 3 -62 8 -123 12 l-111 7 0 603
0 604 28 6 c15 3 32 7 37 9 17 6 118 3 150 -4z m-1505 -16 c22 -14 51 -89 57
-149 7 -78 -11 -157 -44 -197 -24 -28 -28 -29 -111 -29 -48 0 -92 4 -98 8 -6
4 -20 23 -30 42 -15 28 -19 56 -19 145 0 120 13 171 49 186 22 9 179 5 196 -6z
m772 -44 c-57 -90 -83 -156 -116 -303 l-6 -28 -296 0 c-278 0 -296 1 -289 18
47 111 47 233 0 344 -6 16 6 18 147 20 84 2 252 3 374 3 l221 0 -35 -54z
m2041 4 c-112 -96 -133 -120 -133 -154 0 -46 14 -69 78 -128 l57 -53 -329 3
-329 2 -19 80 c-10 44 -41 125 -68 181 -28 55 -50 103 -50 107 0 11 51 12 453
12 l399 0 -59 -50z m-1174 21 c75 -39 156 -119 191 -189 69 -142 80 -240 80
-724 l0 -401 -69 29 c-37 16 -110 39 -162 52 l-94 24 -6 89 c-5 94 1 1144 8
1144 2 0 25 -11 52 -24z m-389 -585 l0 -598 -31 -7 c-17 -3 -50 -6 -73 -6 -22
0 -84 -9 -136 -20 -52 -11 -98 -20 -102 -20 -11 0 -9 513 2 700 9 147 21 212
57 303 8 20 19 37 24 37 5 0 9 -87 10 -192 1 -106 4 -218 9 -248 6 -44 7 -28
9 80 0 74 4 200 7 280 l7 145 51 50 c48 47 125 95 154 95 9 0 12 -126 12 -599z
m2068 302 l-3 -128 -117 -3 -118 -3 0 90 0 89 48 41 c46 40 49 41 120 41 l73
0 -3 -127z m767 -3 l0 -125 -360 0 -360 0 -3 114 c-1 63 0 121 2 128 4 11 74
13 363 11 l358 -3 0 -125z m720 0 l0 -125 -30 -5 c-19 -4 -56 4 -100 19 -105
37 -271 41 -386 11 -46 -13 -101 -25 -121 -27 l-38 -5 0 124 c0 69 3 128 7
131 4 4 155 6 337 5 l331 -3 0 -125z m730 98 c3 -18 5 -76 3 -128 l-3 -95
-340 0 -340 0 -3 114 c-1 63 0 121 2 128 4 10 73 13 340 13 l335 0 6 -32z
m256 -25 l60 -57 -3 -70 -3 -71 -130 0 -130 0 -3 128 -3 127 76 0 76 0 60 -57z
m-7655 -74 c156 -28 311 -147 379 -291 56 -118 68 -194 62 -403 -3 -99 -9
-191 -14 -204 -9 -22 -12 -18 -45 50 -64 134 -168 222 -325 276 -104 35 -244
37 -348 5 -131 -40 -262 -134 -326 -234 l-34 -53 -7 45 c-15 100 -9 304 12
384 76 299 349 479 646 425z m4884 -44 c0 -22 -4 -25 -37 -25 l-37 0 34 25
c19 14 35 25 37 25 2 0 3 -11 3 -25z m-3013 -101 c26 -28 53 -112 53 -163 0
-54 -30 -148 -57 -177 -23 -25 -28 -26 -104 -22 -74 3 -83 6 -105 31 -31 37
-44 87 -44 177 0 86 12 138 38 166 16 17 29 19 108 16 80 -3 91 -6 111 -28z
m643 -2 c0 -22 -3 -73 -6 -114 l-7 -75 -192 -6 c-105 -3 -199 -9 -208 -13 -47
-18 2 -24 193 -24 l210 0 0 -59 0 -58 -285 -7 c-156 -4 -288 -5 -294 -2 -5 3
2 33 16 68 22 55 25 73 21 148 -4 59 -12 98 -26 126 -12 23 -18 44 -15 48 4 3
138 6 300 6 l293 0 0 -38z m2075 21 c-56 -133 -58 -208 -10 -360 l7 -23 -169
0 c-94 0 -217 3 -275 6 l-105 7 -6 185 c-4 101 -4 188 -1 193 3 5 131 9 286 9
263 0 280 -1 273 -17z m288 0 c4 -2 7 -87 7 -189 l0 -185 -122 3 -123 3 -22
45 c-18 35 -23 61 -23 125 0 100 14 150 51 188 l29 29 98 -7 c53 -4 100 -9
105 -12z m1647 -31 c97 -34 143 -63 213 -132 76 -77 123 -164 158 -295 18 -65
22 -117 26 -280 l5 -200 -71 -69 c-39 -39 -74 -66 -78 -62 -4 4 -11 114 -14
244 -8 260 -17 318 -71 431 -41 87 -118 162 -195 191 -81 31 -219 38 -299 16
-114 -33 -214 -124 -263 -241 -43 -103 -53 -166 -58 -342 l-5 -172 -70 -16
c-39 -9 -72 -14 -74 -13 -11 11 -14 252 -5 349 30 318 187 532 442 604 77 22
284 14 359 -13z m-1157 -12 l198 0 -3 -122 -3 -123 -285 -3 c-157 -1 -295 0
-307 3 -22 5 -23 9 -23 124 0 105 2 120 18 125 9 3 60 3 112 1 52 -3 184 -5
293 -5z m535 -63 c-35 -35 -82 -92 -103 -126 l-38 -62 -76 3 -76 3 -3 123 -3
122 183 0 182 0 -66 -63z m1127 -62 l0 -120 -67 -3 -67 -3 -41 65 c-23 36 -68
90 -101 120 -32 30 -59 58 -59 61 0 3 75 4 168 3 l167 -3 0 -120z m683 3 l-3
-123 -315 0 -315 0 -3 123 -3 122 321 0 321 0 -3 -122z m-1246 -83 c72 -25
142 -94 182 -179 50 -105 57 -149 63 -399 l5 -227 -45 19 c-173 74 -338 104
-571 104 l-179 0 6 156 c5 168 19 235 66 337 70 150 186 219 351 210 41 -3 96
-12 122 -21z m-1282 -205 l0 -120 -120 0 -120 0 0 120 0 120 120 0 120 0 0
-120z m547 98 c-3 -13 -14 -54 -25 -93 -11 -38 -23 -82 -26 -97 l-6 -28 -225
0 -225 0 0 120 0 120 256 0 256 0 -5 -22z m1656 -95 c4 -64 4 -119 1 -122 -8
-8 -352 -14 -391 -6 -23 4 -33 11 -33 24 0 11 -11 62 -25 115 -14 53 -25 98
-25 101 0 3 105 5 233 5 l234 0 6 -117z m325 -5 l-3 -123 -110 -3 c-60 -2
-125 0 -142 3 l-33 6 0 119 0 120 145 0 146 0 -3 -122z m-5819 -12 c12 -24 24
-66 28 -93 5 -49 5 -50 -31 -71 -42 -25 -76 -76 -76 -115 0 -54 -15 -67 -79
-67 -67 0 -91 19 -111 85 -18 62 -10 244 13 278 17 27 19 27 126 27 l109 0 21
-44z m611 -36 l0 -80 -165 0 c-91 0 -165 -4 -165 -9 0 -14 67 -21 203 -21
l128 0 -3 -92 c-3 -92 -3 -93 -30 -96 -18 -2 -42 9 -80 37 -70 54 -169 94
-298 121 -58 13 -111 24 -117 26 -8 2 -13 20 -13 42 0 21 -7 61 -15 88 -8 27
-15 52 -15 57 0 4 128 7 285 7 l285 0 0 -80z m2378 -97 l-3 -178 -50 -8 c-27
-5 -98 -11 -156 -13 l-105 -6 -12 41 c-16 53 -71 98 -130 107 -77 11 -261 -23
-374 -71 -17 -7 -18 4 -18 149 l0 156 425 0 425 0 -2 -177z m-4848 109 c87
-30 152 -66 207 -116 54 -49 110 -143 100 -169 -13 -35 -166 -85 -344 -113
-189 -28 -514 -19 -605 17 -37 15 -36 46 3 120 75 139 206 236 374 275 76 17
192 11 265 -14z m5444 -138 c3 -9 6 -67 6 -130 l0 -114 -90 0 c-68 0 -102 5
-142 21 -83 33 -171 57 -242 64 l-66 7 0 77 c0 43 3 81 7 84 3 4 122 7 264 7
225 0 258 -2 263 -16z m194 -116 l3 -128 -74 0 -74 0 -6 38 c-2 22 -2 80 1
131 l5 92 71 -3 71 -3 3 -127z m1444 19 c3 -56 2 -110 -2 -120 -5 -17 -94 -56
-127 -57 -10 0 -13 34 -13 139 0 158 -6 150 91 143 l47 -4 4 -101z m596 -24
l-3 -128 -64 -3 c-46 -2 -74 2 -100 15 -30 15 -62 18 -206 18 -102 0 -173 4
-177 10 -4 6 -8 56 -8 113 l0 102 280 0 281 0 -3 -127z m-5618 48 c123 -30
220 -73 286 -126 48 -39 110 -126 129 -181 17 -51 36 -57 33 -10 -2 42 -6 37
59 70 173 87 288 110 553 110 175 0 220 -3 308 -22 113 -25 246 -70 307 -105
35 -20 40 -27 38 -55 -4 -50 11 -45 42 16 46 87 139 176 227 216 140 64 315
92 378 59 60 -31 66 -71 46 -294 -17 -197 -32 -268 -72 -336 -38 -66 -107
-124 -164 -137 -23 -6 -27 -1 -49 50 -29 67 -88 160 -142 224 -45 53 -46 58
-20 108 41 80 98 130 207 183 57 28 104 53 104 56 0 3 -23 3 -51 0 -134 -16
-262 -122 -323 -268 l-15 -36 43 -48 c134 -148 256 -471 256 -677 0 -42 9 -90
25 -138 84 -246 34 -495 -136 -683 -95 -105 -200 -173 -365 -237 -125 -48
-126 -48 -151 4 -30 61 -63 81 -132 80 -67 -1 -116 -24 -201 -95 l-61 -51 -40
16 c-49 20 -116 20 -149 1 -14 -8 -28 -14 -31 -15 -4 0 -42 29 -84 64 -138
115 -245 115 -313 0 -25 -41 -30 -44 -59 -40 -51 7 -218 84 -300 138 -154 100
-256 226 -308 378 -49 145 -39 343 25 484 10 23 21 70 25 104 19 191 150 490
282 645 63 74 66 96 24 182 -40 84 -99 147 -175 186 -68 35 -103 33 -51 -4 92
-64 205 -213 205 -271 0 -8 -21 -39 -46 -67 -52 -58 -102 -133 -136 -203 -13
-27 -29 -46 -39 -46 -47 0 -174 94 -204 151 -30 57 -37 156 -25 354 13 214 21
258 53 280 30 21 55 19 187 -14z m-920 -113 c96 -31 104 -48 68 -139 -14 -35
-29 -95 -33 -134 -15 -157 -46 -243 -112 -316 -62 -68 -66 -68 -114 3 -59 88
-139 179 -199 224 -27 21 -50 44 -50 51 0 22 57 78 109 106 28 16 81 32 125
39 42 7 76 16 76 20 0 11 -87 21 -127 13 -65 -12 -143 -57 -190 -109 -37 -41
-47 -48 -61 -39 -13 8 -16 22 -14 54 2 24 -5 64 -14 88 l-17 45 34 29 c42 35
116 74 166 87 21 5 92 8 158 6 93 -3 137 -9 195 -28z m-801 -55 c15 -53 14
-59 -11 -84 -64 -60 -245 -120 -420 -139 -193 -20 -478 -6 -571 29 -38 15 -52
50 -41 103 11 49 6 47 118 24 258 -55 706 -9 876 89 36 20 38 19 49 -22z
m4716 12 c183 -38 339 -164 394 -317 15 -40 32 -35 29 9 -3 35 -1 38 52 65 62
32 178 69 290 94 110 24 395 25 515 1 107 -22 257 -69 344 -108 l63 -29 -7
-46 c-9 -62 6 -51 49 34 87 173 258 252 546 252 119 0 132 -2 151 -21 16 -16
20 -28 15 -53 -4 -17 -13 -114 -21 -216 -14 -184 -31 -272 -61 -333 -45 -88
-115 -146 -223 -182 -72 -25 -87 -41 -44 -51 42 -10 50 -19 72 -92 67 -225 75
-469 19 -651 -43 -143 -145 -297 -254 -387 -247 -204 -725 -320 -1129 -274
-527 61 -904 299 -980 621 -19 83 -19 219 0 294 9 33 33 97 55 142 26 56 44
113 55 175 37 218 150 476 261 601 19 20 34 43 34 51 0 34 -74 158 -117 195
-46 41 -134 81 -179 81 -37 0 -20 -17 44 -46 77 -34 118 -67 156 -128 53 -81
53 -82 -12 -169 -32 -42 -77 -113 -101 -157 -23 -44 -45 -80 -49 -80 -19 0
-113 63 -136 91 -69 81 -96 173 -96 324 0 61 -5 154 -12 207 -16 131 -15 133
112 124 52 -3 127 -13 165 -21z m-338 -70 c6 -44 12 -123 12 -175 l1 -95 -111
-3 -110 -3 6 73 c3 40 11 122 17 181 l11 108 81 -3 81 -3 12 -80z m-2953 25
c-1 -25 -3 -102 -5 -172 l-4 -128 -67 0 c-54 0 -72 4 -87 19 -40 40 -39 255 1
306 19 24 25 26 92 23 l71 -3 -1 -45z m-1275 -18 c19 -9 44 -29 54 -44 18 -23
18 -31 7 -57 -86 -207 -735 -306 -1152 -175 -70 22 -78 28 -78 49 0 29 -5 29
90 11 251 -47 614 -19 815 64 95 40 175 110 175 155 0 25 3 27 28 20 15 -3 42
-14 61 -23z m-1429 -19 c83 -40 161 -125 212 -233 41 -85 58 -107 58 -76 0 12
10 12 58 -5 31 -11 109 -29 172 -40 100 -18 141 -20 315 -16 150 4 224 10 298
26 132 29 256 75 326 122 32 22 64 39 70 39 37 0 238 -182 314 -283 97 -131
197 -403 197 -539 0 -31 7 -49 30 -75 71 -80 110 -202 110 -343 0 -105 -18
-181 -69 -285 -225 -458 -1074 -661 -1772 -424 -35 12 -113 47 -174 78 -92 47
-124 70 -196 141 -91 89 -127 146 -161 255 -28 87 -34 233 -14 320 9 39 23
124 31 190 22 173 57 304 114 420 61 124 142 247 187 283 19 15 34 33 34 39 0
7 -14 43 -32 80 -37 78 -96 146 -151 174 -46 24 -161 35 -199 20 -45 -17 -33
-31 20 -24 78 9 152 -18 209 -76 45 -45 82 -105 97 -156 4 -15 -7 -36 -43 -78
-26 -32 -70 -96 -97 -143 -27 -46 -57 -98 -67 -115 -15 -26 -22 -30 -45 -24
-98 24 -193 113 -236 221 -20 50 -30 98 -37 183 -6 64 -20 158 -32 208 -15 66
-18 96 -11 103 10 10 193 52 274 63 65 9 153 -4 210 -30z m6550 18 c19 -5 26
-15 28 -37 3 -29 0 -32 -84 -69 l-87 -39 -21 29 c-12 16 -41 51 -65 77 l-44
48 124 -1 c68 -1 135 -4 149 -8z m2064 -36 c0 -16 -1 -74 -2 -127 l-2 -98 -67
0 -66 0 7 108 c5 89 9 127 15 150 1 2 27 2 59 0 56 -3 57 -3 56 -33z m-9351
-95 l47 -30 0 -239 0 -239 -22 -6 c-13 -3 -45 -6 -71 -6 -39 0 -58 6 -93 32
-72 52 -144 158 -144 212 0 38 40 45 142 24 31 -7 60 -10 63 -7 3 3 -13 40
-35 83 -66 127 -52 206 35 206 17 0 52 -13 78 -30z m9568 -76 c21 -22 24 -35
24 -97 0 -63 -4 -79 -33 -131 -18 -32 -31 -61 -28 -64 4 -3 21 1 39 10 80 38
156 35 175 -8 7 -14 12 -37 12 -52 0 -49 -54 -144 -113 -199 -53 -50 -59 -53
-109 -53 -29 0 -70 3 -90 6 l-38 7 0 283 0 284 33 20 c46 29 98 26 128 -6z
m-6437 -116 c23 -32 20 -66 -13 -168 -16 -49 -24 -90 -19 -90 5 0 30 18 55 40
50 43 101 59 139 41 48 -22 44 -69 -12 -131 -40 -44 -56 -47 -183 -34 l-61 7
0 163 0 163 28 15 c37 21 48 20 66 -6z m6224 -110 l3 -128 -91 0 c-100 0 -99
-1 -81 70 5 19 12 70 16 113 l7 78 71 -3 72 -3 3 -127z m0 -260 c2 -66 0 -88
-10 -89 -35 -3 -304 3 -307 7 -2 2 14 23 37 48 22 24 50 63 62 85 l21 42 97
-3 97 -3 3 -87z m-4850 -1345 c54 -37 132 -109 132 -122 0 -7 -24 -11 -57 -11
-32 0 -64 -4 -72 -9 -26 -17 1 -31 60 -31 l59 0 2 -55 c0 -30 1 -59 2 -64 1
-6 -23 -28 -53 -50 -121 -91 -198 -105 -235 -42 -66 114 -57 362 14 398 43 22
103 16 148 -14z m703 17 c10 -6 28 -29 40 -52 19 -37 21 -54 17 -157 -3 -92
-9 -126 -27 -166 -12 -27 -27 -53 -34 -57 -42 -27 -155 13 -225 79 -40 38 -42
42 -42 101 l0 62 65 0 c58 0 65 2 65 20 0 18 -7 20 -70 20 -53 0 -70 3 -70 14
0 16 124 121 161 135 32 13 96 13 120 1z m427 -70 c78 -50 216 -181 299 -285
84 -106 146 -209 139 -232 -6 -20 -105 -89 -181 -126 -55 -27 -154 -61 -160
-55 -2 2 -24 80 -48 173 -48 180 -79 271 -102 294 -27 28 -27 2 0 -91 72 -249
203 -932 193 -1001 -3 -23 -58 -45 -213 -83 -496 -121 -1218 -104 -1653 39
l-97 32 3 45 c11 164 70 484 164 884 25 109 36 172 30 178 -19 19 -49 -65
-112 -312 l-37 -145 -36 2 c-68 4 -213 78 -267 135 -11 12 -20 31 -20 43 0 24
94 166 177 267 104 128 258 258 303 258 19 0 208 -65 218 -75 2 -2 8 -50 12
-107 11 -126 30 -184 76 -229 32 -31 41 -34 88 -33 60 2 116 28 204 95 l53 39
39 -20 c50 -26 103 -25 157 1 l44 21 45 -42 c61 -56 140 -91 209 -93 47 -1 59
3 85 28 43 41 73 151 82 304 l3 44 65 23 c36 12 85 31 110 42 25 11 50 21 56
21 6 1 39 -17 72 -39z m2990 -29 c169 -86 325 -207 416 -323 61 -76 126 -183
126 -206 0 -6 -51 -38 -112 -72 -62 -35 -173 -102 -246 -151 -73 -49 -140 -89
-150 -89 -11 0 -35 34 -69 98 -63 116 -146 226 -151 200 -2 -10 21 -62 51
-115 30 -54 65 -125 78 -158 33 -85 45 -97 89 -90 l35 6 85 -123 85 -123 2
-162 c2 -118 -1 -164 -10 -171 -42 -35 -349 -107 -587 -137 -197 -25 -525 -30
-720 -11 -288 27 -587 93 -737 161 l-53 24 0 63 c0 105 94 535 186 847 25 85
44 166 42 180 l-3 26 -18 -27 c-19 -28 -96 -249 -123 -353 -9 -33 -19 -66 -23
-73 -15 -27 -261 122 -261 159 0 15 106 182 166 261 81 108 183 208 255 251
85 50 98 47 124 -29 35 -101 96 -182 189 -252 54 -41 71 -33 191 93 84 88 116
115 135 115 21 0 37 -17 92 -102 37 -57 83 -118 102 -137 32 -31 38 -33 82
-28 117 13 388 192 521 344 56 64 133 123 160 123 8 0 31 -9 51 -19z m-3765
-41 c20 -22 27 -41 27 -70 0 -51 -22 -105 -48 -119 -26 -14 -87 -14 -113 -1
-47 26 -62 108 -31 170 33 68 113 77 165 20z m-3880 -28 c30 -33 76 -147 94
-232 13 -61 18 -124 17 -225 -2 -169 -21 -254 -91 -395 -54 -110 -134 -198
-208 -230 -47 -20 -110 -27 -119 -12 -2 4 26 66 62 137 61 119 70 130 97 133
17 2 35 8 42 13 24 20 95 151 100 186 8 49 -12 41 -44 -17 -45 -82 -75 -120
-95 -120 -27 0 -204 89 -285 144 -85 56 -185 137 -190 152 -5 16 88 149 149
214 113 118 210 190 327 241 76 33 121 36 144 11z m1441 9 c11 -18 66 -280 77
-366 9 -69 9 -100 -1 -134 -25 -94 -113 -131 -179 -75 -47 39 -52 55 -61 188
-5 67 -18 166 -30 220 -12 54 -19 100 -16 104 10 9 169 69 188 71 9 0 19 -3
22 -8z m156 -54 c83 -48 254 -225 333 -343 37 -55 67 -105 67 -110 0 -18 -95
-102 -150 -132 -104 -57 -91 -69 -161 147 -33 105 -65 191 -70 191 -17 0 -8
-75 21 -185 114 -421 132 -530 133 -810 1 -231 -4 -271 -67 -460 -24 -72 -35
-127 -39 -195 -4 -52 -16 -189 -29 -304 -26 -241 -8 -214 -168 -248 -77 -16
-119 -19 -220 -15 -117 5 -220 23 -240 43 -5 5 -18 54 -30 110 -18 89 -54 218
-74 265 -6 13 1 18 36 23 99 15 226 71 206 91 -4 4 -53 -4 -110 -19 -161 -40
-231 -48 -398 -44 -131 2 -155 1 -155 -12 0 -8 15 -18 35 -24 19 -5 36 -10 38
-11 1 -2 -11 -45 -27 -96 -16 -52 -43 -143 -60 -203 -17 -60 -34 -113 -39
-118 -18 -18 -150 -30 -267 -25 -118 6 -263 35 -346 70 l-36 15 -13 123 c-7
68 -16 207 -20 309 -6 170 -9 190 -34 248 -55 128 -69 202 -70 387 -1 94 2
182 7 198 7 26 10 27 75 27 88 0 147 28 231 112 48 48 74 86 111 163 48 98 90
232 90 287 0 15 5 28 10 28 6 0 10 -4 10 -10 0 -21 73 -78 114 -90 106 -29
196 60 196 194 l0 54 148 -5 c131 -5 417 8 543 23 l46 6 6 -66 c8 -81 26 -118
78 -155 55 -40 106 -48 162 -23 118 52 134 174 66 492 -11 52 -22 106 -25 119
-6 28 4 26 86 -22z m5731 -25 c-162 -145 -313 -240 -408 -258 -36 -7 -40 -5
-85 47 -27 29 -60 76 -73 104 l-26 50 68 7 c270 28 399 51 508 92 80 29 84 19
16 -42z m-7116 9 c50 -12 100 -24 112 -26 18 -4 27 -20 44 -78 87 -291 89
-376 13 -436 -32 -25 -55 -26 -100 -5 -53 25 -81 83 -99 204 -13 87 -44 219
-81 349 -6 19 -4 23 7 19 8 -3 55 -15 104 -27z m6062 3 c37 -9 112 -23 166
-33 l99 -16 -82 -93 c-45 -50 -89 -92 -97 -92 -8 0 -42 26 -75 58 -79 74 -136
192 -94 192 8 0 45 -7 83 -16z m-5082 -86 c9 -39 19 -100 22 -133 l6 -62 -164
-14 c-151 -13 -563 -18 -574 -7 -5 5 -51 161 -64 218 l-9 40 67 -7 c124 -15
447 -6 556 15 152 30 141 33 160 -50z m1495 -445 c58 -28 120 -54 137 -58 18
-3 35 -10 37 -13 2 -4 -9 -61 -24 -127 -20 -84 -48 -165 -95 -270 -36 -82 -68
-152 -71 -154 -6 -7 -94 26 -191 70 -64 29 -83 43 -83 58 0 44 40 223 69 309
35 104 99 245 109 240 4 -2 54 -27 112 -55z m2405 -5 c69 -154 135 -380 135
-464 l0 -41 -124 -61 c-68 -34 -130 -62 -138 -62 -34 0 -197 444 -198 536 0
16 16 27 83 52 45 18 109 48 142 67 33 18 63 34 66 34 4 1 19 -27 34 -61z
m3143 -101 c27 -67 66 -171 86 -232 35 -108 80 -285 74 -290 -2 -1 -36 -10
-76 -18 -40 -9 -110 -35 -157 -59 -46 -23 -86 -40 -88 -37 -3 2 -36 67 -76
145 -39 77 -109 196 -156 264 -47 68 -82 126 -78 130 4 4 51 36 103 71 119 81
291 168 307 157 6 -5 34 -64 61 -131z m-8779 84 c55 -43 198 -131 258 -158 29
-12 53 -28 53 -34 0 -16 -210 -404 -235 -433 l-20 -24 -92 52 c-50 29 -126 63
-167 76 -42 14 -76 28 -76 32 0 4 18 62 40 129 48 148 164 389 187 389 8 0 32
-13 52 -29z m2572 -67 c59 -98 111 -246 134 -381 l7 -43 -34 0 c-34 0 -124
-38 -196 -84 -23 -14 -45 -26 -49 -26 -5 0 -20 19 -35 43 -20 32 -30 67 -42
152 -8 61 -22 143 -31 183 -8 40 -15 79 -15 87 0 7 28 27 63 43 34 16 80 44
102 61 22 17 45 29 50 27 6 -1 26 -29 46 -62z m3672 -38 c31 -18 70 -39 87
-46 16 -7 30 -19 30 -26 0 -8 -15 -83 -34 -167 -19 -83 -40 -181 -45 -217 -6
-36 -14 -80 -17 -97 l-5 -33 -57 29 c-31 15 -87 38 -124 50 -50 17 -68 27 -68
40 0 56 151 501 170 501 4 0 33 -15 63 -34z m-3525 -485 c7 -21 12 -68 12
-105 0 -64 -1 -67 -22 -64 -15 2 -30 19 -47 53 l-26 50 -6 -50 c-11 -83 -52
-154 -82 -142 -8 3 -34 43 -57 89 l-42 83 38 33 c51 43 150 92 189 92 28 0 33
-4 43 -39z m-2861 -21 c45 -21 102 -52 127 -70 l47 -31 -27 -50 c-15 -27 -44
-68 -65 -91 -36 -38 -40 -40 -60 -26 -12 8 -31 30 -41 49 -19 33 -19 49 -2
127 10 47 -7 39 -39 -18 -16 -28 -40 -58 -54 -67 -24 -16 -26 -16 -39 2 -15
20 -20 177 -8 210 9 24 59 13 161 -35z m6229 -64 c38 -13 93 -35 122 -50 46
-23 52 -30 52 -57 0 -38 -66 -166 -92 -180 -51 -27 -85 33 -73 129 l7 57 -51
-48 c-29 -27 -57 -47 -64 -44 -28 9 -12 217 17 217 7 0 44 -11 82 -24z m2868
-18 c14 -54 -3 -208 -23 -208 -18 0 -56 38 -87 86 -19 30 -37 54 -40 54 -3 0
-3 -26 0 -57 7 -71 -9 -122 -46 -142 -21 -12 -29 -13 -42 -2 -19 16 -61 104
-70 148 -7 30 -4 33 41 59 61 37 189 83 229 83 25 1 33 -4 38 -21z m-5437 -38
c284 -78 544 -105 946 -97 333 6 542 35 815 113 21 6 22 4 22 -52 -1 -34 -14
-107 -31 -169 -24 -88 -32 -142 -40 -270 -7 -136 -35 -470 -56 -667 l-6 -56
-86 -17 c-107 -20 -298 -29 -370 -18 l-54 8 -48 245 c-27 135 -48 259 -49 276
0 30 3 32 67 53 79 26 129 59 114 74 -7 7 -36 2 -93 -16 -90 -28 -208 -47
-292 -47 -84 0 -222 28 -298 60 -66 28 -88 31 -88 9 0 -17 78 -66 135 -83 43
-14 55 -22 51 -35 -16 -50 -58 -245 -80 -370 -14 -80 -30 -149 -34 -153 -5 -5
-49 -13 -98 -18 -93 -10 -243 0 -359 24 l-59 12 -17 164 c-18 166 -32 355 -48
615 -5 88 -16 168 -30 215 -20 74 -40 230 -28 230 4 0 55 -13 114 -30z m2973
-155 c394 -133 999 -167 1495 -84 134 22 170 30 299 66 72 19 91 22 97 11 13
-21 -8 -152 -46 -288 -16 -58 -27 -137 -35 -250 -6 -91 -20 -232 -31 -315 -10
-82 -19 -153 -19 -157 0 -10 -118 -44 -200 -59 -119 -21 -354 -9 -383 20 -11
11 -94 336 -103 400 l-6 48 35 7 c19 4 40 13 47 21 20 24 -10 28 -101 16 -181
-24 -366 -6 -537 54 -102 35 -135 38 -111 8 18 -21 84 -53 164 -79 42 -13 70
-28 69 -36 -2 -26 -75 -333 -84 -355 -14 -34 -136 -57 -269 -50 -109 6 -232
34 -257 59 -17 17 -50 290 -60 498 -5 116 -12 163 -35 237 -38 124 -57 263
-35 263 1 0 49 -16 106 -35z m-6103 -1025 c116 -41 212 -54 373 -52 85 1 171
3 190 4 34 3 35 2 32 -32 -8 -89 -34 -102 -217 -108 -143 -4 -273 12 -367 48
-85 31 -91 39 -96 110 -4 59 -3 63 14 56 11 -5 42 -16 71 -26z m1783 -28 c0
-73 -28 -90 -200 -118 -106 -17 -193 -17 -291 0 -77 14 -118 29 -131 50 -9 13
-11 96 -2 96 3 0 34 -8 68 -17 88 -25 330 -22 446 5 115 27 110 28 110 -16z
m4407 13 c104 -28 220 -37 322 -25 52 7 105 16 119 21 24 9 25 9 19 -31 -3
-22 -11 -47 -17 -55 -37 -44 -249 -53 -395 -17 -103 26 -125 42 -125 89 0 38
0 38 77 18z m1683 -69 c0 -78 -78 -112 -280 -123 -121 -6 -276 13 -306 37 -7
7 -14 28 -14 47 0 33 2 35 28 29 15 -3 77 -9 137 -12 120 -7 239 5 351 35 38
11 72 19 77 20 4 1 7 -14 7 -33z"/>
<path d="M1643 8260 c-93 -106 -151 -196 -136 -211 7 -7 18 0 35 23 13 18 60
83 105 143 93 128 97 135 84 135 -5 0 -45 -40 -88 -90z"/>
<path d="M2165 8223 c10 -14 32 -46 51 -70 18 -24 41 -57 51 -73 23 -40 38
-38 17 3 -24 48 -114 167 -126 167 -6 0 -2 -12 7 -27z"/>
<path d="M1787 8203 c-26 -49 -59 -170 -55 -200 l4 -28 13 30 c19 44 63 216
58 222 -3 3 -12 -8 -20 -24z"/>
<path d="M1970 8184 c0 -27 49 -179 65 -200 14 -19 14 -18 15 3 0 33 -59 213
-70 213 -6 0 -10 -7 -10 -16z"/>
<path d="M4256 7641 c12 -13 675 -33 709 -21 29 10 -112 19 -435 26 -217 5
-282 4 -274 -5z"/>
<path d="M5770 7620 c0 -5 87 -10 218 -12 228 -3 311 1 279 15 -28 11 -497 9
-497 -3z"/>
<path d="M4255 7183 c-22 -2 -44 -9 -49 -14 -6 -5 61 -9 177 -9 118 0 187 4
187 10 0 6 -15 10 -33 10 -19 0 -81 2 -138 4 -57 2 -122 2 -144 -1z"/>
<path d="M6003 7163 c-43 -17 8 -23 185 -22 197 0 271 9 203 22 -38 8 -370 8
-388 0z"/>
<path d="M883 6519 c-19 -45 -33 -174 -33 -307 0 -132 13 -193 24 -111 11 86
28 384 24 414 l-4 30 -11 -26z"/>
<path d="M2787 6525 c-4 -8 -4 -34 -2 -58 3 -23 12 -105 20 -182 23 -207 25
-225 36 -225 15 0 10 155 -11 314 -18 144 -30 186 -43 151z"/>
<path d="M3037 6533 c-15 -24 35 -379 55 -398 13 -12 5 96 -19 260 -17 121
-26 154 -36 138z"/>
<path d="M665 6398 c-20 -88 -32 -312 -18 -321 12 -8 19 28 33 183 5 63 13
136 16 163 9 74 -12 57 -31 -25z"/>
<path d="M1015 6063 c-3 -10 -11 -79 -17 -153 -11 -130 -6 -203 12 -184 8 9
30 238 30 315 0 41 -13 52 -25 22z"/>
<path d="M4112 6703 c-91 -18 135 -33 251 -17 87 12 36 24 -96 23 -73 -1 -142
-4 -155 -6z"/>
<path d="M6155 6770 c-4 -7 57 -10 174 -10 114 0 181 4 181 10 0 6 -65 10
-174 10 -106 0 -177 -4 -181 -10z"/>
<path d="M6185 6290 c-4 -6 38 -10 119 -10 77 0 126 4 126 10 0 6 -46 10 -119
10 -69 0 -122 -4 -126 -10z"/>
<path d="M6430 5910 c0 -6 33 -10 79 -10 44 0 83 5 86 10 4 6 -25 10 -79 10
-51 0 -86 -4 -86 -10z"/>
<path d="M4595 5095 c-49 -17 -95 -66 -95 -100 0 -32 10 -32 41 1 31 34 78 54
126 54 47 0 66 12 61 36 -4 25 -76 30 -133 9z"/>
<path d="M5617 5094 c-17 -18 15 -42 65 -48 44 -6 58 -14 89 -48 52 -55 81
-33 42 32 -24 41 -82 70 -140 70 -27 0 -53 -3 -56 -6z"/>
<path d="M5634 4732 c-65 -10 -93 -137 -45 -201 11 -14 32 -24 58 -28 34 -4
45 -1 73 24 28 25 34 38 38 84 4 48 1 59 -19 82 -25 29 -69 45 -105 39z"/>
<path d="M4593 4715 c-52 -37 -45 -166 10 -193 61 -29 96 -20 127 30 24 39 25
78 5 118 -29 57 -95 78 -142 45z"/>
<path d="M5072 4669 c-123 -21 -261 -124 -317 -236 -38 -73 -46 -184 -20 -262
81 -244 526 -313 731 -114 69 67 89 119 89 233 0 82 -4 103 -26 151 -79 168
-266 261 -457 228z m231 -82 c74 -34 141 -97 174 -166 23 -46 28 -69 28 -131
-1 -123 -53 -202 -170 -257 -57 -26 -68 -28 -195 -28 -116 0 -143 3 -191 23
-69 28 -133 81 -161 136 -33 62 -30 163 6 238 36 75 106 145 181 179 78 35 94
38 192 34 61 -2 95 -9 136 -28z"/>
<path d="M4950 4387 c-56 -44 -69 -139 -25 -182 63 -64 156 13 142 118 -9 65
-72 100 -117 64z m58 -39 c19 -19 14 -83 -7 -109 -19 -23 -19 -24 -40 -5 -27
24 -27 66 0 100 23 29 30 31 47 14z"/>
<path d="M5251 4376 c-46 -49 -35 -157 18 -186 59 -31 121 18 121 94 0 94 -84
150 -139 92z m87 -50 c17 -34 8 -94 -15 -103 -28 -11 -56 35 -50 81 8 61 41
72 65 22z"/>
<path d="M4632 4135 c-17 -14 -51 -33 -76 -41 -25 -9 -46 -20 -46 -25 0 -5 24
-9 53 -9 l53 0 42 -64 c49 -75 104 -126 193 -179 101 -60 185 -82 309 -81 119
1 211 27 299 83 66 42 153 136 184 198 26 51 44 63 100 63 39 0 33 16 -10 31
-21 6 -49 20 -62 30 -38 30 -53 25 -46 -15 9 -44 -18 -97 -89 -173 -160 -172
-408 -212 -631 -103 -79 39 -180 122 -215 177 -25 39 -27 48 -18 80 14 50 -2
60 -40 28z"/>
<path d="M9223 5441 c-71 -24 -127 -65 -169 -123 -47 -63 -74 -136 -74 -198 0
-79 30 -60 44 28 13 85 80 186 149 226 23 13 75 34 115 46 39 11 72 25 72 30
0 16 -81 11 -137 -9z"/>
<path d="M7454 4981 c-38 -23 -74 -68 -74 -92 0 -31 22 -34 44 -6 27 34 84 57
140 57 34 0 48 5 55 18 16 30 -6 42 -73 42 -42 0 -71 -6 -92 -19z"/>
<path d="M8462 4979 c-40 -15 -23 -42 33 -55 65 -14 88 -27 118 -65 26 -34 57
-35 57 -2 0 70 -137 150 -208 122z"/>
<path d="M7436 4590 c-64 -77 -30 -190 57 -190 20 0 40 11 63 34 30 30 34 40
34 85 0 67 -30 101 -89 101 -31 0 -44 -6 -65 -30z"/>
<path d="M8405 4576 c-46 -46 -45 -149 2 -186 74 -58 169 27 149 134 -13 71
-102 101 -151 52z"/>
<path d="M7827 4540 c-121 -21 -237 -113 -298 -235 -31 -64 -34 -77 -34 -165
0 -79 4 -103 23 -141 30 -61 91 -120 163 -159 33 -17 59 -38 59 -46 0 -69 140
-237 225 -270 61 -23 155 -16 219 16 101 51 228 232 268 383 l13 49 52 -7 c32
-4 53 -3 53 3 0 5 -34 33 -75 61 -60 40 -77 48 -81 36 -4 -8 -1 -22 6 -30 20
-24 -6 -98 -52 -150 -53 -60 -140 -101 -258 -121 -99 -17 -219 -14 -279 7 -54
19 -34 29 57 29 205 0 358 84 412 226 32 85 26 215 -14 294 -56 113 -168 196
-296 220 -60 11 -94 11 -163 0z m256 -88 c108 -54 175 -150 184 -266 15 -178
-98 -300 -305 -327 -253 -34 -436 99 -420 305 12 143 103 259 241 308 40 14
74 18 143 15 79 -2 100 -7 157 -35z m137 -768 c22 -9 40 -19 40 -23 0 -15 -57
-61 -100 -80 -73 -32 -147 -32 -199 0 l-34 20 59 36 c107 65 162 76 234 47z"/>
<path d="M7704 4251 c-37 -23 -70 -96 -59 -133 11 -37 46 -68 75 -68 87 0 133
145 63 200 -32 25 -40 25 -79 1z m61 -60 c4 -17 0 -44 -9 -66 -12 -29 -20 -36
-38 -33 -19 2 -24 10 -26 41 -6 72 58 123 73 58z"/>
<path d="M7994 4237 c-23 -20 -28 -34 -32 -85 -4 -58 -3 -63 27 -93 26 -25 37
-30 59 -24 82 20 105 133 41 201 -28 30 -60 30 -95 1z m76 -42 c19 -23 15 -85
-8 -107 -18 -18 -20 -18 -36 -3 -29 29 -15 125 18 125 8 0 19 -7 26 -15z"/>
<path d="M2594 5045 c-9 -21 4 -35 32 -35 32 0 61 -15 101 -53 40 -38 67 -32
52 11 -6 16 -20 38 -32 49 -43 39 -142 57 -153 28z"/>
<path d="M1620 4985 c-51 -16 -107 -65 -116 -102 -10 -38 3 -38 45 0 34 31 92
57 127 57 5 0 19 6 29 14 16 12 17 16 6 30 -16 19 -31 19 -91 1z"/>
<path d="M2595 4657 c-52 -44 -42 -152 16 -182 40 -21 64 -19 96 9 25 22 28
30 28 91 0 58 -3 69 -24 86 -32 26 -84 24 -116 -4z"/>
<path d="M1640 4575 c-17 -18 -25 -40 -28 -78 -4 -46 -1 -57 22 -84 32 -38 67
-48 105 -29 25 14 36 31 55 89 9 29 -5 75 -32 102 -34 34 -90 34 -122 0z"/>
<path d="M2148 4566 c-107 -31 -206 -114 -255 -214 -25 -51 -28 -67 -28 -162
0 -97 2 -109 29 -158 75 -134 209 -197 405 -190 96 3 113 6 173 36 150 73 220
227 184 401 -25 121 -102 217 -215 269 -46 21 -73 27 -151 29 -58 1 -114 -3
-142 -11z m216 -51 c67 -18 130 -52 168 -92 90 -95 110 -274 44 -387 -33 -56
-61 -80 -131 -113 -54 -25 -70 -28 -170 -28 -127 0 -193 20 -263 81 -128 109
-136 304 -19 431 95 103 234 144 371 108z"/>
<path d="M2102 4284 c-32 -22 -52 -67 -52 -114 0 -56 44 -103 92 -98 81 8 105
143 37 207 -27 25 -47 26 -77 5z m58 -53 c22 -42 6 -121 -25 -121 -19 0 -45
39 -45 70 0 31 26 70 45 70 8 0 19 -9 25 -19z"/>
<path d="M2389 4287 c-89 -68 -7 -264 86 -203 55 36 56 121 3 182 -31 35 -61
42 -89 21z m64 -55 c27 -30 31 -74 9 -101 l-19 -24 -21 21 c-25 25 -30 90 -10
110 16 16 22 15 41 -6z"/>
<path d="M1680 4009 c-76 -55 -79 -87 -6 -59 25 9 26 7 46 -56 45 -146 139
-283 223 -323 112 -54 224 -8 318 130 45 66 48 81 17 75 -157 -33 -357 12
-461 104 -49 42 -69 81 -65 127 2 20 -1 37 -7 39 -5 1 -35 -16 -65 -37z m339
-294 c65 -36 115 -80 107 -93 -10 -17 -82 -33 -113 -26 -70 17 -163 91 -163
129 0 33 100 27 169 -10z"/>
<path d="M7889 3031 c-33 -33 -37 -67 -14 -111 41 -78 159 -29 159 66 0 74
-89 101 -145 45z m90 -23 c19 -52 -26 -112 -55 -73 -17 23 -11 64 13 83 24 17
32 15 42 -10z"/>
<path d="M7862 2665 c-38 -32 -48 -74 -28 -113 35 -67 123 -51 156 28 22 53
-19 110 -80 110 -10 0 -32 -11 -48 -25z m78 -46 c9 -16 8 -26 -5 -45 -23 -35
-49 -27 -53 15 -5 49 37 71 58 30z"/>
<path d="M2709 3030 c-44 -26 -48 -125 -6 -155 56 -39 117 2 117 80 0 66 -59
106 -111 75z m59 -42 c17 -17 15 -77 -3 -84 -35 -14 -57 35 -35 77 12 22 21
24 38 7z"/>
<path d="M2405 2725 c-93 -7 -251 -13 -350 -14 -240 -1 -225 10 -225 -175 0
-212 35 -333 118 -408 102 -92 361 -127 514 -68 80 30 157 102 194 182 26 57
29 73 29 173 0 124 -22 290 -40 305 -21 17 -65 18 -240 5z m219 -97 c3 -29 9
-98 12 -154 6 -86 4 -111 -14 -171 -28 -91 -79 -150 -164 -189 -58 -27 -72
-29 -178 -29 -213 0 -323 59 -369 196 -27 83 -43 204 -39 304 l3 80 200 -2
c110 -2 241 1 290 6 50 4 126 9 171 10 l81 1 7 -52z"/>
<path d="M1635 2976 c-33 -33 -40 -67 -21 -105 29 -55 96 -53 123 4 18 38 12
76 -17 105 -27 27 -56 25 -85 -4z m63 -51 c3 -42 -12 -63 -35 -49 -36 22 -28
88 9 82 17 -2 24 -10 26 -33z"/>
<path d="M8978 9896 c-138 -40 -273 -186 -295 -318 -3 -21 -8 -37 -12 -35
-105 57 -189 69 -290 38 -129 -39 -235 -165 -248 -295 l-6 -56 -36 7 c-115 25
-211 -1 -289 -78 -56 -56 -75 -110 -70 -197 5 -92 41 -154 118 -200 74 -44
120 -56 220 -56 85 0 164 19 221 51 24 15 28 13 80 -26 75 -57 146 -82 254
-88 150 -9 277 27 371 103 29 24 58 44 62 44 5 0 24 -8 43 -17 73 -36 173 -27
251 23 l38 24 62 -21 c168 -57 366 28 445 190 25 51 28 66 28 166 0 97 -3 116
-25 160 -36 75 -114 148 -185 174 -50 19 -75 22 -151 19 l-92 -4 -5 62 c-14
182 -172 330 -363 340 -49 2 -97 -2 -126 -10z m183 -40 c107 -25 192 -94 239
-194 12 -25 27 -87 33 -138 l12 -92 30 16 c17 8 62 17 101 20 62 4 79 1 133
-23 66 -30 116 -78 153 -147 20 -37 23 -58 23 -143 0 -89 -3 -106 -27 -150
-32 -63 -103 -129 -166 -157 -26 -11 -77 -23 -115 -25 -61 -5 -73 -3 -133 27
l-66 32 -26 -27 c-71 -77 -201 -85 -274 -17 l-28 25 -50 -52 c-104 -109 -282
-155 -448 -116 -81 19 -134 47 -180 93 l-37 38 -75 -35 c-66 -31 -86 -36 -171
-39 -111 -5 -171 10 -237 59 -129 95 -101 292 53 371 55 29 148 29 206 0 56
-28 64 -19 64 66 1 84 29 150 92 214 61 62 129 91 214 91 56 1 77 -4 135 -33
38 -19 73 -35 78 -35 5 0 18 33 28 74 29 118 89 201 187 259 84 49 158 61 252
38z"/>
<path d="M1623 9826 c-125 -41 -220 -138 -262 -268 -7 -21 -14 -38 -16 -38 -1
0 -22 7 -45 15 -101 35 -214 5 -283 -76 -33 -38 -67 -118 -67 -156 0 -9 -16
-13 -54 -13 -133 0 -232 -83 -251 -212 -17 -112 62 -235 175 -273 78 -26 180
-16 261 25 l61 31 47 -29 c149 -95 366 -89 536 13 l58 35 52 -26 c192 -94 437
-62 555 72 56 64 80 129 80 215 0 60 -5 85 -25 125 -55 111 -159 178 -276 178
l-65 0 -11 67 c-21 135 -94 241 -200 294 -47 23 -74 29 -143 32 -53 2 -101 -2
-127 -11z m251 -60 c113 -55 178 -168 179 -309 1 -75 2 -78 21 -72 52 17 147
17 190 1 91 -35 166 -143 166 -242 0 -117 -57 -202 -177 -261 -75 -37 -80 -38
-182 -38 -114 1 -180 19 -256 71 l-37 25 -33 -30 c-143 -125 -422 -136 -565
-22 l-35 28 -35 -24 c-54 -37 -163 -67 -220 -60 -84 10 -148 53 -184 124 -20
39 -21 132 -2 176 18 44 77 94 128 108 38 10 59 9 143 -3 17 -3 19 2 16 39 -3
57 32 136 81 177 73 63 169 71 257 21 23 -14 46 -25 51 -25 4 0 10 21 13 48
16 131 119 253 247 289 69 20 169 11 234 -21z"/>
<path d="M3878 9728 c-45 -12 -121 -76 -138 -117 l-12 -29 -51 15 c-65 19
-160 12 -215 -16 -161 -82 -196 -295 -66 -409 70 -63 173 -79 279 -46 51 16
53 16 83 -6 63 -47 171 -39 233 17 38 34 43 36 104 34 76 -3 136 23 165 72 41
66 14 161 -54 193 -31 15 -34 21 -39 73 -10 110 -83 200 -179 220 -56 13 -60
12 -110 -1z m141 -56 c19 -9 48 -34 65 -55 29 -36 31 -45 32 -120 l0 -81 45
-10 c37 -9 47 -17 63 -49 16 -34 17 -42 5 -74 -20 -51 -68 -75 -139 -70 -30 2
-62 7 -70 11 -11 4 -21 -3 -34 -25 -24 -41 -72 -69 -119 -69 -43 0 -70 12
-107 46 l-26 23 -63 -25 c-87 -35 -162 -31 -223 12 -148 104 -103 317 78 370
68 19 122 13 180 -21 l41 -24 12 40 c14 48 65 107 106 125 43 19 114 17 154
-4z"/>
<path d="M6644 4568 c3 -13 6 -31 6 -40 0 -10 5 -18 10 -18 11 0 13 39 4 64
-9 25 -27 19 -20 -6z"/>
<path d="M6540 4567 c0 -14 31 -47 43 -47 14 0 7 27 -11 43 -22 21 -32 21 -32
4z"/>
<path d="M6751 4534 c-27 -35 -27 -48 2 -33 29 15 57 40 57 51 0 18 -40 6 -59
-18z"/>
<path d="M432 4459 c-28 -44 -27 -206 1 -196 6 2 12 14 12 28 1 13 2 45 3 72
1 26 6 47 10 47 8 0 35 -72 46 -122 6 -26 36 -41 36 -19 0 6 25 37 55 70 31
33 51 62 46 66 -13 8 -60 -17 -85 -44 -24 -27 -36 -27 -36 0 0 11 -10 43 -21
70 -23 53 -46 63 -67 28z"/>
<path d="M250 4405 c0 -3 17 -27 38 -53 20 -26 46 -67 56 -90 19 -42 30 -50
41 -32 21 34 -73 180 -116 180 -10 0 -19 -2 -19 -5z"/>
<path d="M9771 4101 c-18 -32 -32 -113 -26 -143 9 -37 21 -28 29 21 3 22 11
52 17 68 l11 28 13 -35 c8 -19 14 -61 14 -92 1 -40 5 -58 14 -58 7 0 35 22 62
50 49 50 71 56 60 17 -4 -12 -9 -30 -11 -39 -3 -10 0 -18 6 -18 11 0 60 95 60
118 0 30 -86 5 -124 -37 -11 -12 -22 -21 -26 -21 -4 0 -10 25 -13 56 -3 30
-13 66 -22 80 -19 29 -50 31 -64 5z"/>
<path d="M9610 4050 c0 -5 15 -31 34 -58 19 -26 43 -70 54 -97 20 -50 20 -50
32 -24 10 22 8 33 -11 73 -33 71 -109 145 -109 106z"/>
<path d="M3590 3655 c-24 -29 -25 -155 -1 -155 5 0 12 25 16 55 3 30 10 57 15
60 12 8 30 -52 30 -101 0 -27 5 -44 12 -44 6 0 33 24 59 53 26 28 50 49 53 46
5 -5 -3 -43 -19 -83 -17 -39 36 5 56 47 23 51 24 83 4 91 -23 8 -46 -3 -91
-46 l-41 -39 -6 41 c-10 75 -55 114 -87 75z"/>
<path d="M3440 3582 c0 -14 93 -135 108 -140 21 -7 13 14 -30 80 -38 55 -78
87 -78 60z"/>
<path d="M6610 3423 c0 -14 72 -113 82 -113 19 0 -2 63 -29 92 -25 26 -53 37
-53 21z"/>
<path d="M6767 3403 c-4 -3 -7 -21 -7 -40 0 -41 26 -45 32 -5 6 44 -6 65 -25
45z"/>
<path d="M9606 1408 c-7 -13 -24 -54 -36 -93 -13 -38 -24 -72 -26 -73 -1 -2
-22 16 -46 41 -44 46 -108 71 -129 50 -12 -12 89 -224 110 -231 17 -6 7 41
-25 114 -13 30 -24 60 -24 67 0 19 57 -45 83 -92 12 -25 28 -46 33 -48 6 -2
20 32 32 76 12 44 29 97 37 118 14 33 18 36 26 21 13 -24 15 -89 5 -165 -5
-36 -5 -63 0 -63 5 0 38 25 72 55 35 30 72 60 84 66 18 10 19 8 13 -13 -4 -12
-20 -47 -36 -75 -26 -48 -27 -53 -11 -53 55 0 134 178 87 196 -26 10 -61 -4
-114 -46 l-51 -40 0 65 c0 46 -6 78 -20 105 -23 45 -43 50 -64 18z"/>
<path d="M539 1403 c-9 -10 -15 -50 -17 -110 -2 -51 -6 -93 -8 -93 -2 0 -27
14 -55 32 -55 33 -141 50 -154 29 -4 -7 8 -28 27 -49 18 -20 49 -58 67 -84 32
-45 51 -53 51 -23 0 7 -16 36 -35 65 -19 29 -35 54 -35 56 0 12 69 -33 111
-73 26 -25 53 -42 58 -38 7 3 11 47 12 103 0 53 4 106 9 117 7 17 10 14 28
-25 11 -25 28 -76 37 -115 9 -38 19 -77 21 -85 3 -9 17 10 36 47 34 68 82 132
93 121 6 -6 -4 -66 -22 -130 -3 -13 0 -16 12 -12 24 10 56 81 62 140 5 51 5
53 -21 60 -32 8 -63 -11 -107 -66 l-32 -39 -22 64 c-39 110 -82 150 -116 108z"/>
<path d="M3590 1348 c0 -13 42 -193 46 -197 12 -13 25 28 21 70 -4 50 -35 121
-54 127 -7 2 -13 2 -13 0z"/>
<path d="M6616 1271 c-20 -22 -56 -130 -56 -168 0 -23 -3 -22 -46 21 -48 48
-116 78 -135 59 -13 -13 87 -226 103 -217 13 8 1 68 -24 117 -10 21 -18 41
-16 42 9 9 71 -51 88 -86 11 -21 25 -39 30 -39 9 0 35 79 61 183 22 89 41 53
45 -88 1 -55 3 -102 3 -105 1 -2 18 12 39 31 48 46 92 79 104 79 14 0 0 -69
-19 -99 -14 -22 -14 -24 2 -18 9 4 19 7 21 7 11 0 54 107 54 134 0 28 -1 28
-41 23 -25 -3 -56 -18 -79 -36 l-37 -30 -7 70 c-11 123 -46 169 -90 120z"/>
<path d="M3440 1256 c0 -7 7 -19 14 -26 8 -6 29 -34 46 -61 35 -54 50 -62 50
-26 0 39 -72 127 -104 127 -3 0 -6 -6 -6 -14z"/>
<path d="M3740 1241 c-27 -27 -48 -76 -37 -87 2 -3 29 20 60 50 31 29 53 57
50 60 -14 14 -46 4 -73 -23z"/>
</g>
</svg>
