<?xml version="1.0" standalone="no"?>
<!DOCTYPE svg PUBLIC "-//W3C//DTD SVG 20010904//EN"
 "http://www.w3.org/TR/2001/REC-SVG-20010904/DTD/svg10.dtd">
<svg version="1.0" xmlns="http://www.w3.org/2000/svg"
 width="1024.000000pt" height="1024.000000pt" viewBox="0 0 1024.000000 1024.000000"
 preserveAspectRatio="xMidYMid meet">

<g transform="translate(0.000000,1024.000000) scale(0.100000,-0.100000)"
fill="#000000" stroke="none">
<path d="M3605 9971 c-44 -10 -92 -23 -106 -28 -31 -14 -77 -66 -85 -98 -8
-30 11 -64 39 -69 12 -3 51 -10 87 -17 86 -16 219 -63 305 -108 70 -36 70 -36
35 -39 -63 -5 -243 -42 -350 -72 -289 -82 -583 -236 -806 -423 -279 -234 -515
-579 -627 -917 -68 -202 -88 -347 -86 -626 0 -261 -6 -287 -131 -548 -77 -160
-106 -245 -125 -361 -19 -115 -19 -190 0 -301 32 -183 115 -333 270 -490 185
-187 423 -310 788 -404 191 -49 534 -113 767 -144 l95 -12 -2 -40 c-2 -21 -19
-73 -39 -114 -49 -100 -174 -225 -294 -294 -212 -121 -318 -200 -377 -280 -70
-95 -52 -150 52 -150 l53 0 -47 -56 c-91 -106 -158 -235 -192 -368 -21 -82
-25 -182 -9 -213 19 -34 90 -18 134 30 30 33 35 25 19 -27 -11 -32 -16 -91
-17 -182 -1 -151 11 -207 69 -320 23 -45 40 -100 54 -178 12 -62 36 -160 55
-217 l33 -103 -41 -6 c-74 -10 -478 -37 -483 -32 -3 2 11 32 31 66 46 79 52
102 30 125 -14 14 -29 16 -79 13 -63 -6 -124 -31 -184 -77 l-34 -25 8 24 c4
14 30 81 57 150 133 327 138 352 85 358 -51 6 -135 -45 -228 -139 l-87 -88 25
82 c35 115 104 303 157 430 77 185 72 241 -19 197 -156 -75 -402 -382 -493
-613 -23 -59 -42 -116 -42 -127 0 -11 -4 -20 -8 -20 -12 0 12 189 53 423 51
288 44 268 116 345 99 104 164 197 223 317 59 119 74 166 136 415 54 215 75
285 122 397 69 168 46 200 -112 154 -374 -107 -594 -367 -654 -773 -26 -170
-19 -258 31 -437 l26 -94 -17 -71 c-10 -39 -33 -140 -51 -225 -19 -84 -36
-156 -39 -159 -3 -3 -6 39 -6 94 0 148 -31 504 -61 696 -9 59 -8 76 10 130 31
96 41 170 41 297 0 541 -317 1033 -837 1298 -115 59 -157 66 -174 30 -9 -19
-3 -37 32 -107 125 -250 177 -411 239 -730 62 -319 111 -473 199 -618 84 -141
193 -250 287 -289 l41 -17 6 -96 c4 -52 9 -183 12 -290 l5 -195 -29 105 c-88
314 -233 501 -482 619 -189 90 -410 94 -514 9 -27 -23 -35 -37 -33 -57 2 -22
18 -34 92 -73 232 -123 316 -207 436 -433 30 -55 70 -125 90 -155 53 -78 179
-194 250 -230 33 -17 60 -35 60 -40 0 -6 13 -99 30 -207 17 -108 30 -199 30
-202 0 -3 -13 17 -28 44 -89 162 -223 298 -387 395 -157 91 -315 107 -315 30
0 -10 35 -58 79 -107 118 -134 165 -203 236 -345 36 -71 65 -131 65 -134 0 -2
-24 16 -54 40 -101 82 -244 135 -329 122 -52 -9 -67 -21 -67 -57 0 -22 19 -49
85 -118 87 -92 150 -180 203 -287 l31 -61 -92 -22 c-221 -56 -394 -150 -443
-243 -8 -15 -14 -46 -14 -69 0 -37 6 -48 44 -85 44 -41 77 -57 276 -128 96
-34 142 -62 138 -83 -2 -10 -62 -47 -153 -94 -258 -132 -331 -204 -328 -324 2
-86 45 -144 154 -211 102 -62 251 -109 504 -159 167 -34 212 -56 183 -94 -7
-10 -34 -46 -60 -81 -38 -50 -48 -70 -48 -101 0 -158 182 -257 625 -338 227
-41 587 -81 870 -96 66 -4 147 -8 180 -10 33 -2 263 -7 510 -10 248 -3 470
-11 495 -16 25 -5 84 -25 132 -45 240 -96 520 -124 1233 -124 628 0 1220 36
1720 106 649 90 1071 196 1158 290 31 33 36 82 12 128 -22 41 -19 54 18 76 64
40 132 53 487 95 519 60 860 168 1015 320 64 62 88 112 93 193 6 88 -15 138
-85 202 -65 59 -119 88 -298 159 -138 55 -185 88 -185 131 0 29 36 68 88 94
18 9 119 39 225 67 261 68 329 101 357 170 30 71 -20 143 -140 204 -65 33
-257 95 -294 95 -9 0 -16 2 -16 5 0 3 22 55 49 115 58 129 161 313 237 422 30
43 54 84 54 91 0 49 -76 44 -190 -11 -56 -27 -98 -59 -162 -122 -49 -47 -86
-78 -83 -70 2 8 34 114 70 235 59 195 215 626 295 812 20 49 26 72 19 85 -13
25 -30 23 -75 -11 -123 -91 -286 -305 -395 -519 -67 -133 -67 -133 -3 143 140
596 302 1029 554 1481 46 82 101 175 124 207 32 46 38 61 30 75 -24 38 -58 27
-163 -58 -174 -140 -347 -342 -490 -572 -69 -109 -200 -360 -220 -417 -6 -19
-13 -32 -16 -29 -9 8 153 533 270 878 132 387 385 1042 520 1345 37 83 69 160
72 173 6 26 -12 52 -36 52 -10 0 -69 -53 -132 -117 -274 -279 -543 -706 -797
-1263 -49 -107 -99 -222 -112 -255 -24 -60 -47 -98 -37 -60 6 21 24 118 77
408 39 213 124 633 190 937 28 129 54 247 57 263 4 19 13 29 32 33 122 27 185
119 290 430 115 343 201 765 189 932 -6 74 -36 153 -74 193 l-25 26 21 101
c43 211 14 313 -84 288 -47 -12 -100 -124 -127 -268 -12 -66 -13 -67 -55 -83
-60 -23 -125 -84 -161 -152 -70 -131 -157 -433 -227 -783 -76 -387 -73 -525
16 -617 l30 -31 -26 -114 c-14 -62 -42 -189 -61 -283 -20 -93 -42 -195 -50
-225 -7 -30 -39 -174 -69 -320 -163 -785 -261 -1390 -297 -1830 -6 -80 -15
-149 -20 -154 -5 -6 -10 146 -11 360 0 203 -2 383 -3 399 -1 17 -5 350 -9 740
-3 391 -8 854 -11 1030 -3 176 -7 525 -10 775 l-6 455 36 23 c108 69 158 233
174 565 18 399 -13 841 -70 994 -24 64 -68 119 -122 156 l-42 28 -6 137 c-6
148 -17 187 -62 211 -16 9 -38 11 -61 7 -71 -13 -97 -95 -88 -272 3 -63 1 -94
-6 -94 -6 0 -35 -22 -65 -50 -111 -101 -130 -202 -131 -670 0 -346 17 -582 58
-778 25 -117 84 -210 157 -248 25 -12 28 -20 32 -81 6 -78 -1 -3225 -7 -3263
-3 -14 -5 -29 -6 -35 0 -5 -19 60 -41 145 -21 85 -55 204 -75 265 -29 89 -43
165 -74 405 -68 505 -119 822 -201 1242 l-41 206 31 42 c54 74 66 128 65 285
0 158 -15 298 -50 495 -73 400 -148 586 -258 640 -43 20 -46 24 -46 61 0 57
-29 187 -51 230 -40 80 -120 95 -154 28 -19 -35 -19 -156 -1 -256 l13 -72 -28
-27 c-53 -51 -72 -115 -77 -259 -9 -298 119 -930 223 -1095 33 -52 89 -98 130
-106 19 -3 35 -10 35 -14 0 -4 18 -103 40 -221 58 -305 136 -827 126 -837 -2
-1 -25 34 -51 78 -117 200 -279 403 -466 587 -284 277 -381 316 -244 98 220
-351 412 -793 565 -1305 43 -143 121 -447 120 -468 0 -4 -33 56 -73 133 -123
238 -237 398 -387 538 -83 79 -192 161 -270 205 -68 38 -222 92 -261 92 -53 0
-38 -37 47 -114 331 -300 556 -767 694 -1441 17 -80 30 -156 30 -170 0 -24 -2
-25 -59 -25 -58 0 -61 1 -142 67 -298 238 -454 376 -659 582 -221 223 -294
284 -455 382 -113 68 -278 133 -445 175 -84 21 -288 29 -358 14 -54 -11 -62
-10 -99 8 -50 26 -102 84 -133 147 -33 68 -40 200 -15 292 10 35 23 66 29 68
6 2 60 10 119 20 126 19 281 62 405 111 181 73 396 225 492 349 l44 57 9 -28
c13 -41 36 -64 64 -64 68 0 155 83 212 203 32 66 71 195 72 237 0 24 1 24 9 4
14 -35 61 -66 90 -59 96 22 147 238 109 462 -12 67 -12 69 35 210 121 371 144
692 76 1048 -127 656 -557 1208 -1175 1506 -178 86 -372 152 -545 183 -30 6
-41 17 -79 78 -112 179 -296 320 -439 335 -42 5 -56 2 -72 -12 -27 -25 -25
-39 15 -124 19 -40 35 -77 35 -82 0 -6 -17 3 -37 20 -57 44 -197 116 -297 150
-171 60 -367 76 -521 42z m386 -80 c232 -60 446 -191 594 -363 27 -31 53 -54
58 -51 21 13 -2 76 -122 336 l-40 87 27 -6 c114 -27 255 -154 396 -357 48 -70
93 -126 100 -124 6 2 10 18 8 36 -1 17 0 31 2 31 3 0 43 -9 91 -20 258 -62
532 -192 762 -363 405 -301 680 -745 780 -1254 24 -123 27 -162 27 -353 0
-184 -3 -231 -22 -330 -24 -121 -88 -349 -101 -363 -5 -5 -13 5 -19 22 -19 53
-92 151 -113 151 -15 0 -11 -20 31 -126 48 -124 86 -265 95 -354 10 -98 -23
-250 -55 -250 -5 0 -26 33 -46 73 -36 71 -98 157 -113 157 -5 0 -8 -60 -7
-132 0 -82 -4 -154 -13 -188 -22 -89 -84 -211 -131 -260 l-43 -45 -8 25 c-4
14 -8 41 -9 60 -2 50 -33 163 -46 167 -5 2 -25 -34 -42 -79 -84 -214 -300
-395 -612 -511 -168 -62 -267 -82 -657 -133 -27 -3 -43 -10 -43 -19 0 -17 38
-25 114 -26 54 -1 57 -2 52 -23 -18 -66 -28 -157 -24 -215 10 -122 71 -245
149 -299 39 -27 49 -42 28 -42 -20 0 -136 -88 -174 -132 -102 -119 -166 -260
-192 -421 -13 -86 -14 -120 -5 -222 30 -318 158 -576 400 -806 111 -106 198
-168 308 -221 142 -68 226 -57 240 33 l6 38 72 -39 c211 -114 408 -161 494
-116 42 22 75 86 70 137 -2 22 -1 39 2 39 3 0 41 -12 85 -26 104 -34 216 -42
268 -21 78 33 82 130 10 235 -19 28 -39 52 -44 52 -5 0 -9 4 -9 9 0 6 13 6 33
0 51 -15 152 -12 187 6 59 31 63 105 9 191 -17 26 -77 95 -135 154 l-105 108
37 6 c55 11 84 48 84 109 l0 49 38 -28 c20 -16 75 -60 122 -100 47 -39 168
-137 270 -218 102 -82 197 -160 212 -174 24 -22 28 -23 34 -8 9 24 -3 73 -26
106 l-20 28 42 6 c65 11 176 62 272 127 49 33 91 57 95 54 13 -14 1 -145 -19
-206 -24 -72 -55 -129 -112 -206 -41 -56 -44 -63 -27 -63 19 0 95 58 209 159
121 108 160 130 185 105 40 -41 -1 -248 -81 -407 -70 -139 -235 -324 -367
-410 -31 -21 -55 -43 -52 -48 17 -26 104 5 198 70 43 29 121 108 169 170 l27
35 7 -28 c25 -102 -134 -398 -324 -601 -205 -218 -383 -352 -627 -470 -358
-174 -717 -270 -1052 -282 -168 -6 -161 -9 -144 57 6 19 15 54 20 77 l11 41
52 -14 c72 -19 125 -4 187 52 53 47 112 150 131 226 l12 48 31 -26 c23 -20 38
-24 60 -20 68 14 112 77 138 197 18 81 6 239 -25 334 -26 83 -86 189 -93 168
-3 -7 8 -61 22 -120 32 -127 43 -290 26 -374 -12 -59 -58 -142 -76 -136 -16 6
-53 76 -76 147 -35 105 -45 107 -54 10 -17 -207 -77 -358 -165 -417 -51 -35
-60 -31 -60 31 0 63 -9 116 -20 116 -5 0 -12 -12 -18 -27 -17 -49 -70 -111
-117 -138 -119 -70 -264 -2 -359 168 -21 37 -42 67 -47 67 -15 0 1 -119 22
-169 11 -24 18 -45 16 -47 -2 -2 -21 2 -43 9 -92 27 -189 165 -237 338 -12 43
-25 79 -29 79 -4 0 -20 -40 -34 -89 -46 -151 -74 -165 -126 -60 -74 146 -62
357 38 647 33 98 28 121 -14 63 -36 -50 -84 -169 -115 -285 -28 -111 -30 -306
-3 -386 55 -163 145 -223 221 -147 l32 32 24 -50 c33 -72 151 -187 214 -210
28 -10 51 -20 53 -21 2 -1 -10 -32 -27 -68 -35 -77 -29 -75 -194 -51 -447 67
-1030 319 -1277 551 -80 76 -129 143 -183 250 -37 74 -61 102 -71 85 -8 -12
37 -152 65 -201 29 -53 -100 87 -170 185 -138 190 -250 442 -296 664 -8 40
-17 77 -20 81 -2 4 16 28 40 54 25 25 45 53 45 61 0 33 18 12 29 -32 7 -27 32
-89 57 -139 49 -99 123 -182 189 -209 48 -21 121 -20 133 2 9 15 13 14 42 -11
45 -37 107 -68 131 -64 17 3 12 12 -36 68 -77 89 -149 237 -184 378 -15 62
-31 115 -34 119 -7 6 -10 -59 -8 -142 1 -22 9 -95 18 -162 9 -67 14 -125 11
-128 -14 -14 -66 12 -109 55 -96 96 -175 317 -186 523 -3 59 -9 110 -13 112
-11 7 -47 -82 -55 -135 -13 -88 -47 -197 -69 -225 l-23 -29 -30 65 c-43 90
-55 149 -54 260 1 134 16 200 94 397 22 56 37 105 33 109 -4 4 -64 -50 -134
-120 -70 -70 -131 -127 -135 -127 -12 0 -8 49 9 119 20 81 69 190 121 268 50
76 179 210 265 276 38 29 62 53 55 55 -8 2 -81 -16 -161 -38 -81 -23 -154 -40
-163 -38 -11 2 -4 15 27 51 52 59 126 112 300 215 75 44 165 107 202 141 102
94 177 215 208 336 l12 50 137 0 c133 1 251 17 251 36 0 13 -25 17 -225 34
-99 8 -209 17 -245 20 -356 31 -894 143 -1127 236 -278 110 -506 286 -619 479
-88 149 -119 276 -111 445 7 152 33 239 133 447 122 256 134 308 134 593 0
265 17 386 80 577 188 562 643 1025 1220 1241 103 39 295 91 375 102 l50 7
-48 -32 c-110 -74 -201 -219 -216 -345 -9 -79 -1 -115 28 -115 11 0 70 34 133
77 62 42 143 90 181 106 37 17 67 34 67 38 0 13 -61 11 -111 -4 -67 -21 -155
-67 -200 -105 l-40 -34 6 28 c24 107 62 172 144 245 93 83 233 139 348 139 29
0 53 4 53 8 0 16 -243 174 -333 217 -99 47 -250 95 -299 95 -67 0 -6 44 92 67
77 18 274 9 371 -16z m4159 -273 c7 -18 15 -81 17 -140 l6 -108 -42 0 -41 0
-2 63 c-5 155 6 217 36 217 8 0 19 -15 26 -32z m65 -337 c47 -21 90 -68 116
-127 47 -106 77 -443 73 -839 -5 -466 -68 -650 -227 -663 -74 -6 -119 11 -165
63 -57 65 -78 148 -114 460 -17 152 -17 756 0 850 21 117 41 165 88 211 64 64
150 81 229 45z m1175 -703 c0 -29 -7 -93 -16 -142 l-16 -88 -31 6 c-17 3 -33
8 -35 11 -2 2 3 39 13 82 18 86 58 183 74 183 7 0 11 -22 11 -52z m-63 -303
c52 -22 72 -42 99 -100 18 -38 24 -67 24 -120 -1 -202 -93 -619 -211 -947 -77
-217 -124 -288 -202 -309 -88 -24 -175 13 -215 91 -22 42 -23 54 -19 160 12
251 152 848 255 1082 12 26 41 68 66 92 63 63 132 80 203 51z m-2082 -61 c20
-30 45 -142 45 -201 0 -41 -1 -43 -29 -43 -27 0 -30 4 -41 52 -24 116 -25 218
-1 218 5 0 16 -12 26 -26z m108 -318 c52 -19 74 -41 108 -107 103 -205 223
-891 188 -1084 -12 -68 -48 -138 -84 -161 -92 -60 -184 -24 -245 96 -94 188
-191 683 -191 976 0 168 27 239 104 274 50 23 69 24 120 6z m848 -748 c1 -233
3 -434 4 -448 1 -14 6 -351 9 -750 4 -399 9 -837 11 -975 10 -564 14 -1697 6
-1655 -5 25 -17 97 -26 160 -9 63 -33 196 -52 295 l-35 180 6 470 c13 1003 16
2005 9 2563 l-8 582 38 0 37 0 1 -422z m725 -424 l20 -5 -23 -102 c-63 -276
-224 -1115 -313 -1627 -28 -161 -62 -314 -110 -485 -38 -137 -76 -275 -84
-305 -23 -89 -18 -35 19 207 93 599 188 1093 366 1906 49 224 89 410 89 413 0
5 10 5 36 -2z m703 -225 c-123 -274 -357 -883 -491 -1279 -120 -355 -223 -714
-298 -1035 -39 -170 -87 -373 -106 -450 -64 -255 -94 -398 -124 -575 -34 -198
-70 -473 -70 -527 0 -36 0 -36 -37 -30 -21 4 -83 11 -138 17 -124 13 -127 14
-120 42 6 27 17 138 45 448 49 537 177 1112 380 1705 223 651 599 1345 936
1727 32 36 62 67 66 67 3 1 -16 -49 -43 -110z m-2066 -61 c15 -59 100 -520
122 -663 37 -234 105 -705 105 -729 -1 -24 -75 129 -89 183 -6 20 -19 122 -31
226 -22 201 -69 510 -124 812 -34 190 -34 185 5 192 4 0 9 -9 12 -21z m-278
-693 c131 -160 234 -323 350 -555 165 -330 256 -596 375 -1100 92 -391 120
-536 151 -795 21 -177 37 -582 25 -630 l-7 -28 -127 8 c-70 4 -135 7 -145 7
-13 -1 -17 4 -13 14 41 108 50 218 22 272 -17 34 -17 34 18 101 19 37 50 110
68 162 28 82 32 107 32 201 1 93 -2 110 -20 135 -42 57 -113 56 -190 -3 l-46
-35 9 43 c4 24 8 75 8 115 0 57 -5 78 -21 100 -35 46 -69 42 -149 -18 -66 -48
-174 -108 -222 -123 -20 -6 -22 -3 -28 61 -4 37 -17 118 -30 178 -115 539
-309 979 -563 1274 -40 46 -71 86 -68 88 2 3 33 -12 68 -32 200 -117 408 -330
542 -555 98 -165 238 -471 302 -659 15 -44 32 -81 37 -81 18 0 -1 193 -37 382
-81 416 -191 789 -346 1173 -61 152 -218 479 -278 580 l-42 70 121 -125 c67
-68 159 -170 204 -225z m-6396 82 c479 -288 764 -796 720 -1287 -5 -58 -17
-136 -27 -175 -12 -51 -15 -85 -10 -125 4 -30 16 -145 27 -255 11 -110 23
-225 26 -255 3 -30 9 -277 12 -548 3 -272 9 -490 13 -485 4 4 22 100 39 213
70 445 102 630 130 750 144 626 186 768 279 952 32 62 84 149 115 192 31 44
55 81 52 84 -9 10 -57 -30 -100 -86 -107 -136 -224 -409 -296 -686 l-33 -128
-13 43 c-20 68 -27 233 -14 334 18 131 46 227 101 340 76 157 189 267 358 348
71 35 198 74 207 65 3 -2 -6 -27 -19 -54 -34 -71 -79 -216 -131 -426 -58 -230
-78 -293 -128 -393 -57 -114 -131 -217 -204 -285 -74 -67 -74 -69 -122 -315
-57 -292 -90 -555 -116 -931 -6 -75 -4 -92 9 -103 21 -18 26 -5 80 209 91 357
153 510 274 680 65 91 265 310 275 300 2 -3 -22 -70 -55 -150 -62 -153 -146
-400 -173 -510 -9 -36 -36 -126 -59 -200 -24 -74 -49 -158 -56 -186 -13 -52
-8 -96 10 -78 5 5 48 87 95 182 93 189 137 260 216 346 49 53 139 125 139 110
0 -3 -27 -68 -60 -144 -65 -149 -110 -279 -130 -378 -11 -55 -11 -65 2 -79 14
-14 22 -9 79 49 69 69 139 115 194 128 19 4 35 6 35 3 0 -2 -18 -34 -40 -70
-22 -37 -40 -79 -40 -94 0 -50 10 -51 232 -34 111 8 251 19 311 23 l107 8 42
-86 c123 -247 293 -439 537 -602 l143 -97 -209 -105 -210 -105 -57 162 c-149
421 -271 587 -433 587 -46 0 -56 -4 -87 -34 -19 -19 -37 -48 -41 -64 l-6 -29
-82 55 c-95 64 -262 146 -327 161 -71 16 -160 13 -206 -8 -62 -28 -89 -79 -88
-164 0 -58 -2 -67 -15 -61 -31 13 -186 16 -229 5 -104 -29 -137 -110 -88 -217
84 -183 522 -591 976 -909 139 -97 276 -167 361 -186 78 -16 202 -8 261 18 61
28 129 91 189 177 30 42 73 86 111 114 81 59 491 332 543 362 l40 23 145 -56
c209 -80 491 -156 648 -173 71 -8 74 -18 16 -48 -36 -20 -61 -21 -389 -27
-192 -4 -379 -12 -415 -18 -182 -32 -317 -88 -391 -162 -101 -99 -85 -209 30
-209 27 0 62 -5 77 -10 24 -10 26 -14 21 -51 -3 -22 -16 -62 -30 -87 -13 -26
-39 -74 -56 -106 -36 -69 -37 -80 -11 -123 27 -45 76 -57 182 -43 107 13 233
13 283 -1 62 -17 102 -53 137 -127 28 -56 40 -71 78 -89 56 -29 138 -30 240
-3 41 11 114 29 162 39 98 22 161 52 266 124 83 57 150 127 292 303 110 137
157 226 173 323 13 85 -8 164 -58 220 -19 21 -35 41 -35 45 0 3 33 5 73 3 282
-12 688 76 1037 225 256 109 429 216 597 367 193 174 315 317 414 485 l34 58
130 -6 c290 -14 535 -41 895 -97 561 -88 820 -173 820 -269 0 -47 -96 -90
-338 -150 -68 -17 -145 -39 -171 -49 -180 -68 -225 -202 -97 -290 24 -17 101
-53 172 -81 198 -79 283 -134 315 -204 118 -260 -364 -477 -1221 -551 -100 -9
-265 -42 -304 -62 -45 -22 -106 -84 -106 -107 0 -11 10 -39 21 -63 l21 -44
-23 -26 c-35 -38 -114 -69 -283 -113 -342 -88 -855 -170 -1283 -205 -489 -40
-660 -47 -1178 -50 -758 -4 -1049 20 -1225 101 -155 72 -176 75 -640 79 -401
4 -495 7 -805 26 -325 20 -687 63 -915 110 -236 48 -390 111 -436 178 -37 54
-32 84 24 144 95 102 104 138 49 191 -40 38 -93 55 -297 96 -374 76 -557 181
-537 307 13 76 93 140 314 252 129 65 173 104 173 150 0 59 -53 95 -233 158
-210 73 -260 118 -206 187 53 67 215 146 394 191 136 35 143 40 126 97 -34
114 -127 262 -235 376 l-71 75 50 -6 c145 -19 331 -172 416 -342 43 -87 79
-122 79 -77 0 39 -122 381 -174 489 -74 152 -197 327 -274 392 -15 12 -13 13
18 7 45 -8 169 -67 218 -103 226 -166 344 -344 432 -651 53 -185 69 -161 52
77 -20 272 -78 622 -137 826 -52 179 -145 345 -263 468 -56 58 -135 117 -157
117 -4 0 29 -38 73 -85 162 -171 282 -390 308 -562 l7 -47 -44 34 c-121 95
-195 188 -288 365 -115 218 -221 325 -429 435 l-64 34 29 15 c15 8 64 17 109
19 198 11 442 -108 570 -279 113 -150 152 -260 254 -709 80 -356 81 -354 75
100 -3 212 -7 403 -9 425 -3 22 -7 87 -11 145 -24 411 -101 767 -229 1060 -45
103 -110 210 -126 210 -5 0 -10 -1 -10 -3 0 -2 27 -65 60 -140 70 -160 127
-325 169 -492 29 -116 61 -305 61 -359 l0 -27 -60 42 c-99 69 -183 178 -257
336 -49 104 -96 277 -152 572 -18 91 -48 214 -68 275 -36 112 -131 340 -160
385 -15 23 -14 24 3 17 11 -4 66 -35 123 -69z m8731 -653 c-287 -500 -481
-1054 -645 -1844 -33 -157 -139 -695 -147 -745 -4 -24 4 -23 -131 -6 l-109 14
6 31 c3 17 19 126 36 241 138 964 380 1630 768 2120 59 75 263 287 269 281 2
-2 -19 -44 -47 -92z m-4083 -453 c120 -26 200 -54 318 -110 178 -85 303 -175
474 -344 177 -175 287 -334 279 -404 -3 -25 -8 -28 -42 -31 -43 -4 -125 23
-219 70 -32 16 -68 28 -80 26 -16 -2 -3 -18 69 -81 141 -125 360 -344 393
-394 39 -58 40 -90 6 -99 -75 -19 -233 40 -393 145 -251 166 -281 167 -105 4
317 -295 363 -346 363 -405 0 -32 -30 -50 -72 -43 -13 2 -45 6 -71 10 -57 8
-139 35 -206 69 -34 17 -109 84 -243 219 -191 192 -417 401 -425 393 -8 -7 24
-59 67 -111 23 -27 135 -147 249 -266 219 -227 262 -280 279 -343 30 -106 -58
-133 -233 -73 -191 66 -355 169 -507 318 -56 55 -103 97 -105 95 -10 -10 34
-88 102 -182 115 -160 132 -204 76 -204 -72 0 -257 118 -397 253 -164 158
-284 355 -341 562 -24 90 -27 116 -27 265 -1 155 1 170 27 245 85 240 240 387
462 435 57 13 199 4 302 -19z m3930 -858 c-30 -58 -196 -513 -237 -648 -48
-161 -118 -432 -150 -586 l-23 -106 -85 14 c-47 7 -87 15 -88 16 -3 3 42 208
77 347 17 69 51 181 76 250 57 158 185 421 255 522 53 77 180 229 186 223 2
-2 -3 -16 -11 -32z m41 -845 c-107 -165 -190 -320 -243 -453 -15 -38 -29 -71
-30 -73 -8 -9 -125 22 -125 33 0 25 40 127 79 202 54 104 127 192 204 247 90
64 141 83 115 44z m-7077 -518 c71 -13 219 -85 328 -160 111 -76 126 -93 139
-162 14 -75 69 -219 152 -404 154 -341 210 -445 210 -391 0 24 -35 116 -130
342 -122 289 -170 436 -177 542 -5 67 -3 87 11 107 58 90 199 -16 301 -228 64
-133 153 -388 195 -564 45 -187 50 -202 62 -202 8 0 9 38 5 135 l-7 134 91 50
c51 27 160 81 243 120 l151 72 117 -64 118 -64 -253 -166 c-318 -210 -352
-237 -421 -336 -90 -128 -153 -163 -286 -163 -114 0 -218 42 -385 154 -278
188 -569 431 -800 669 -131 135 -169 186 -191 250 -13 36 -13 44 1 65 20 30
85 48 155 40 118 -12 161 -35 236 -128 32 -40 126 -154 209 -253 82 -99 176
-215 209 -258 53 -70 76 -91 76 -69 0 4 -21 42 -46 85 -40 69 -142 209 -352
481 -71 92 -129 189 -143 240 -14 49 10 102 53 121 40 17 59 18 129 5z m3155
-848 c35 -2 64 -6 64 -9 0 -2 -19 -68 -41 -146 -45 -152 -56 -207 -43 -207 5
0 25 19 46 43 l37 42 21 -25 c48 -61 51 -162 8 -260 -54 -120 -294 -400 -411
-479 -101 -68 -144 -88 -218 -101 -35 -7 -104 -23 -152 -36 -131 -36 -237 -30
-237 12 0 64 217 291 458 479 77 61 141 113 141 118 3 31 -124 -35 -254 -133
-112 -85 -292 -263 -344 -341 l-40 -60 -24 37 c-58 84 -128 109 -302 104 -269
-7 -260 -8 -263 17 -14 94 412 334 805 453 56 17 105 35 108 40 12 20 -28 22
-114 6 -177 -32 -372 -113 -591 -245 -63 -38 -116 -68 -118 -67 -1 2 2 15 8
30 22 60 3 144 -37 162 -10 4 -45 10 -78 13 -45 5 -61 10 -63 23 -5 28 66 96
134 128 146 70 299 91 672 90 159 0 302 5 339 11 135 24 200 99 292 342 l10
26 61 -32 c45 -23 79 -32 126 -35z"/>
<path d="M4264 8536 c-11 -18 -14 -36 -10 -59 10 -56 77 -154 156 -232 l77
-74 -55 -58 c-181 -190 -285 -493 -269 -778 8 -127 36 -238 88 -344 80 -163
245 -297 407 -330 251 -52 507 81 627 324 50 101 75 209 82 355 10 213 -23
367 -106 491 -22 34 -41 63 -41 65 0 2 29 4 64 4 44 0 67 5 76 15 24 29 4 41
-89 54 -101 14 -369 101 -498 161 -212 99 -369 241 -414 374 -15 45 -21 51
-48 54 -23 2 -34 -3 -47 -22z m378 -455 c121 -65 227 -105 363 -138 61 -15
116 -31 123 -36 24 -19 100 -143 126 -205 84 -208 64 -527 -45 -718 -94 -166
-257 -264 -439 -264 -506 0 -721 712 -375 1235 43 65 139 175 152 175 1 0 44
-22 95 -49z"/>
<path d="M4773 7711 c-70 -24 -153 -89 -192 -150 -51 -79 -72 -158 -72 -275 0
-172 44 -290 142 -381 67 -62 126 -85 215 -85 160 0 303 112 365 285 31 84 37
241 14 321 -43 150 -143 253 -280 289 -76 19 -128 19 -192 -4z m332 -204 c20
-17 28 -35 32 -70 5 -43 3 -49 -30 -82 -54 -54 -130 -48 -162 15 -19 37 -19
73 0 110 20 38 41 49 92 50 30 0 50 -7 68 -23z"/>
<path d="M3144 8493 c-26 -67 -37 -84 -97 -148 -94 -103 -251 -197 -442 -265
-106 -37 -237 -70 -282 -70 -23 0 -33 -5 -38 -21 -11 -35 11 -43 99 -39 l49 2
-23 -38 c-13 -22 -31 -52 -41 -69 -32 -55 -70 -169 -90 -268 -47 -238 -6 -483
106 -632 55 -73 110 -118 195 -159 57 -27 75 -31 151 -31 78 0 91 3 160 37 91
46 168 121 242 239 101 163 139 338 119 547 -14 142 -40 241 -92 347 -36 75
-141 215 -160 215 -5 0 28 37 74 83 91 90 146 183 146 247 0 69 -51 84 -76 23z
m-144 -450 c72 -79 130 -191 160 -308 26 -101 26 -102 -12 -60 -114 130 -327
103 -478 -61 -56 -61 -87 -132 -99 -232 -25 -201 43 -377 173 -445 43 -22 156
-30 206 -14 24 8 24 7 -5 -18 -56 -47 -134 -79 -207 -83 -58 -4 -76 0 -131 26
-36 16 -84 47 -107 68 -223 201 -237 643 -31 972 46 72 47 73 114 92 37 11 97
29 135 40 37 11 99 35 137 54 39 19 73 35 77 35 3 1 34 -29 68 -66z m103 -463
c78 -87 -19 -229 -121 -176 -43 22 -62 54 -62 102 0 103 115 149 183 74z"/>
<path d="M3484 7195 c-162 -44 -285 -139 -457 -353 -119 -148 -231 -219 -440
-282 -215 -64 -309 -112 -410 -214 -122 -122 -129 -284 -15 -366 76 -55 164
-49 274 20 l61 38 17 -38 c23 -53 85 -106 144 -124 51 -15 143 -27 354 -46
146 -14 231 -34 423 -101 138 -48 157 -52 240 -52 80 0 103 4 210 42 177 63
212 71 300 72 97 1 158 -12 234 -50 85 -44 164 -64 214 -56 130 22 206 121
215 281 6 104 -15 178 -74 266 -51 75 -96 116 -269 243 -147 108 -203 165
-296 297 -89 126 -240 280 -335 341 -134 87 -268 115 -390 82z m258 -97 c143
-66 259 -170 405 -363 104 -138 166 -199 313 -310 129 -97 220 -183 259 -244
118 -185 48 -421 -123 -421 -18 0 -73 18 -121 40 -124 58 -198 73 -320 67 -88
-5 -119 -12 -260 -62 -205 -72 -230 -73 -412 -11 -224 77 -331 98 -634 125
-127 12 -191 30 -227 64 -25 23 -56 76 -49 83 11 12 122 24 215 24 226 0 538
-76 744 -181 61 -31 124 -47 213 -54 83 -7 81 -7 345 66 108 29 256 23 360
-15 105 -39 119 -41 126 -22 16 41 -74 98 -194 123 -118 24 -239 14 -382 -33
-104 -34 -126 -37 -225 -38 -108 0 -111 0 -210 43 -169 74 -245 101 -366 131
-167 41 -286 53 -457 48 -169 -6 -226 -21 -351 -94 -85 -50 -127 -55 -178 -24
-41 24 -54 49 -55 104 -2 99 119 222 276 281 119 45 217 59 366 52 289 -14
542 -83 735 -201 147 -90 165 -99 165 -84 0 17 -81 96 -140 135 -172 115 -421
190 -669 200 l-133 6 74 39 c92 48 191 137 310 280 130 156 240 239 356 268
67 17 181 6 244 -22z"/>
<path d="M3730 6748 c-42 -69 -34 -158 15 -158 19 0 28 8 41 38 28 64 16 152
-21 152 -9 0 -24 -14 -35 -32z"/>
<path d="M8491 2237 c-42 -52 -68 -252 -38 -292 10 -13 19 -17 25 -10 15 15
31 103 38 208 7 94 -1 122 -25 94z"/>
<path d="M8250 2191 c0 -4 13 -38 30 -74 16 -36 37 -93 47 -127 26 -93 63 -93
63 0 0 56 -27 115 -75 169 -34 38 -65 53 -65 32z"/>
<path d="M8654 2110 c-28 -11 -73 -66 -96 -118 -34 -76 1 -100 48 -34 15 20
47 62 70 93 24 31 40 59 37 63 -8 8 -33 7 -59 -4z"/>
<path d="M1210 2105 c0 -4 22 -31 48 -60 33 -36 63 -85 90 -147 43 -98 63
-121 84 -100 10 10 9 26 -5 80 -30 113 -111 213 -185 228 -18 4 -32 3 -32 -1z"/>
<path d="M1527 2021 c-42 -47 -60 -99 -55 -161 2 -37 6 -45 23 -45 16 0 23 12
36 61 8 34 26 85 38 113 20 48 21 71 2 71 -5 0 -25 -18 -44 -39z"/>
<path d="M7793 1628 c-6 -7 -13 -109 -17 -233 -6 -186 -5 -223 8 -240 22 -29
34 -11 46 70 11 78 12 296 2 364 -7 46 -22 61 -39 39z"/>
<path d="M7453 1554 c-4 -11 8 -28 40 -55 74 -64 147 -196 172 -312 7 -36 36
-33 46 4 26 97 -77 288 -193 359 -40 24 -57 25 -65 4z"/>
<path d="M8071 1467 c-112 -57 -193 -167 -195 -266 -1 -44 2 -56 16 -59 12 -2
20 10 32 52 23 78 109 181 195 232 32 19 45 39 35 55 -9 15 -36 10 -83 -14z"/>
<path d="M1877 1304 c-3 -4 2 -23 12 -43 31 -61 58 -161 71 -268 11 -87 16
-103 31 -103 51 0 42 201 -14 323 -33 73 -78 113 -100 91z"/>
<path d="M2167 1149 c-64 -53 -116 -166 -101 -224 10 -39 40 -32 55 13 14 44
69 154 98 197 12 17 21 33 21 38 0 17 -38 5 -73 -24z"/>
<path d="M1648 1154 c-17 -16 -6 -33 35 -57 53 -32 111 -94 157 -170 37 -62
53 -68 58 -20 6 62 -56 160 -136 215 -43 30 -101 46 -114 32z"/>
<path d="M6557 963 c-32 -36 -50 -98 -55 -189 -5 -93 5 -134 33 -134 17 0 22
17 30 110 6 64 21 153 36 209 6 22 -25 24 -44 4z"/>
<path d="M6265 900 c-4 -6 16 -35 43 -65 34 -37 59 -77 77 -125 20 -53 31 -70
44 -68 23 5 26 62 5 116 -33 87 -145 181 -169 142z"/>
<path d="M6784 871 c-89 -52 -153 -145 -154 -223 0 -60 24 -47 85 47 41 63 70
96 114 127 34 24 59 50 58 58 -4 26 -50 22 -103 -9z"/>
<path d="M5160 1336 c0 -33 119 -96 182 -96 38 0 15 18 -74 61 -51 24 -96 45
-100 47 -5 2 -8 -3 -8 -12z"/>
</g>
</svg>
