<?xml version="1.0" standalone="no"?>
<!DOCTYPE svg PUBLIC "-//W3C//DTD SVG 20010904//EN"
 "http://www.w3.org/TR/2001/REC-SVG-20010904/DTD/svg10.dtd">
<svg version="1.0" xmlns="http://www.w3.org/2000/svg"
 width="1024.000000pt" height="1024.000000pt" viewBox="0 0 1024.000000 1024.000000"
 preserveAspectRatio="xMidYMid meet">

<g transform="translate(0.000000,1024.000000) scale(0.100000,-0.100000)"
fill="#000000" stroke="none">
<path d="M719 10176 c35 -37 73 -90 89 -123 24 -52 27 -69 27 -168 0 -105 -2
-113 -34 -175 -18 -36 -42 -77 -52 -92 -32 -44 -26 -48 71 -48 149 0 257 -47
359 -155 76 -81 105 -149 109 -260 4 -90 3 -90 -41 -180 -25 -49 -44 -91 -42
-93 2 -2 20 1 42 7 55 16 199 13 268 -4 95 -24 194 -78 257 -140 47 -46 59
-64 69 -109 30 -137 -44 -258 -184 -302 -116 -35 -331 -29 -561 17 l-99 20
-26 -25 c-37 -36 -102 -56 -207 -65 -132 -11 -211 2 -321 54 -109 51 -184 117
-219 192 -26 55 -69 98 -119 118 -44 18 -105 28 -105 17 0 -6 17 -13 37 -17
83 -15 139 -59 171 -135 26 -62 104 -131 201 -179 107 -54 177 -72 288 -72
140 -1 235 23 289 73 21 19 23 19 127 -1 352 -68 577 -44 686 74 48 52 65 102
64 181 -1 78 -21 120 -89 184 -104 99 -268 154 -437 148 -53 -2 -96 -1 -94 2
110 184 92 363 -53 514 -100 105 -218 156 -356 156 l-83 0 30 44 c64 95 74
131 74 256 0 108 -2 119 -30 175 -33 66 -128 175 -153 175 -9 0 10 -26 47 -64z"/>
<path d="M8799 10193 c-15 -32 -24 -71 -27 -124 l-4 -77 -37 16 c-59 26 -180
20 -280 -13 -182 -62 -341 -209 -341 -316 0 -121 183 -265 389 -306 92 -18
190 -12 402 24 l95 17 90 -52 c217 -124 465 -160 688 -100 63 17 89 30 123 61
40 36 46 39 69 28 66 -30 274 -19 274 14 0 10 -10 10 -47 -2 -54 -17 -207 -13
-226 6 -18 18 -32 13 -72 -24 -45 -43 -80 -58 -180 -79 -201 -42 -442 4 -632
118 l-88 53 -90 -18 c-152 -31 -310 -43 -395 -30 -145 22 -327 134 -366 226
-33 79 -8 142 90 232 145 133 387 199 509 138 16 -8 33 -12 38 -9 5 3 9 38 9
77 0 56 6 84 25 125 28 61 28 62 16 62 -5 0 -19 -21 -32 -47z"/>
<path d="M9832 10179 c20 -39 33 -76 33 -100 0 -22 1 -39 3 -39 2 0 33 18 69
40 74 44 123 55 229 48 77 -5 101 5 37 16 -108 17 -223 -5 -288 -56 -14 -11
-27 -19 -28 -17 -2 2 -8 25 -15 50 -12 51 -49 119 -63 119 -5 0 6 -28 23 -61z"/>
<path d="M2375 9994 c-130 -33 -215 -115 -217 -208 0 -39 -3 -46 -17 -40 -92
39 -150 41 -257 9 -129 -38 -215 -157 -185 -256 17 -55 80 -122 140 -148 45
-19 50 -24 56 -63 17 -105 73 -181 152 -209 82 -30 370 -10 408 27 10 11 16
10 29 -5 10 -10 45 -31 79 -47 84 -38 198 -40 304 -5 65 21 78 22 120 11 134
-34 392 -29 494 9 90 34 114 76 76 132 -47 70 -187 118 -313 106 -62 -6 -64
-5 -54 13 37 70 -145 158 -267 129 -60 -14 -69 -12 -50 9 8 9 23 41 32 70 23
68 14 147 -22 215 -39 70 -142 160 -237 208 -71 35 -92 40 -166 44 -47 2 -94
2 -105 -1z m208 -35 c118 -40 238 -136 290 -234 32 -60 31 -173 -4 -242 l-25
-52 79 5 c95 6 199 -20 236 -60 30 -32 22 -83 -16 -92 -13 -4 -21 -10 -16 -15
5 -5 28 -1 53 7 101 36 281 1 345 -66 43 -45 33 -79 -37 -113 -46 -23 -75 -30
-155 -35 -126 -9 -296 2 -350 21 -39 15 -44 14 -105 -11 -53 -23 -78 -27 -158
-27 -109 0 -181 25 -226 78 -25 30 -25 30 -40 9 -33 -47 -286 -70 -393 -36
-69 23 -115 70 -135 143 -24 85 -22 91 22 92 34 1 33 2 -13 9 -99 15 -174 64
-206 135 -25 55 -24 89 8 146 61 113 259 174 382 119 57 -26 62 -25 55 10 -11
53 4 96 50 143 82 84 226 111 359 66z"/>
<path d="M6489 9230 c-55 -16 -160 -72 -217 -115 -150 -113 -331 -342 -442
-561 l-47 -92 -5 121 c-7 184 -42 237 -138 208 -85 -25 -199 -165 -290 -353
-62 -129 -90 -236 -90 -343 l0 -82 -38 -11 c-109 -33 -234 -152 -302 -286 -81
-162 -95 -280 -76 -641 l9 -170 -47 -85 c-126 -231 -131 -246 -131 -351 0 -93
1 -98 43 -183 24 -49 61 -105 83 -126 21 -21 39 -45 39 -54 0 -72 114 -240
191 -281 73 -39 171 -56 327 -55 l153 0 45 -96 c75 -160 108 -190 216 -201
168 -15 333 85 544 330 56 65 126 159 155 209 46 78 63 97 114 130 80 52 100
56 132 27 l26 -24 -13 25 c-30 57 -78 55 -157 -6 -138 -108 -174 -133 -249
-171 -80 -42 -263 -103 -364 -122 -30 -6 -102 -20 -160 -31 -311 -59 -595 -53
-731 15 -83 42 -153 141 -184 262 -20 77 -19 124 6 224 35 139 106 216 271
293 70 32 105 56 141 94 26 28 47 58 47 66 0 7 7 16 15 20 12 4 15 25 15 98 0
186 -36 294 -117 352 -50 35 -117 45 -160 23 -153 -80 -241 -410 -158 -596 15
-33 38 -69 51 -82 l23 -22 -57 -62 c-32 -34 -68 -82 -79 -107 -29 -60 -53
-156 -53 -208 0 -58 -15 -43 -73 69 -81 158 -75 232 35 450 l73 144 6 316 c7
355 9 368 83 516 32 65 62 109 106 153 61 61 152 115 215 127 136 25 250 44
304 48 l64 5 -6 -101 c-4 -82 -3 -92 4 -48 17 97 120 404 186 556 118 268 319
533 501 659 125 85 261 119 313 77 22 -18 24 -26 23 -108 -1 -100 -35 -225
-119 -438 -26 -66 -67 -178 -91 -249 -45 -129 -45 -129 -127 -216 -45 -47
-102 -111 -126 -140 -41 -50 -38 -48 40 25 132 126 369 340 424 383 64 50 427
311 521 374 160 106 369 193 574 237 128 28 222 28 280 -1 41 -21 45 -27 48
-63 4 -58 -35 -111 -192 -263 -138 -132 -425 -431 -493 -515 -29 -34 -60 -57
-114 -83 -40 -19 -94 -50 -119 -67 -25 -18 -80 -54 -122 -80 -93 -58 -104 -73
-15 -22 134 79 412 208 527 245 299 97 621 135 772 90 59 -17 98 -55 98 -96 0
-48 -19 -80 -82 -140 -92 -88 -367 -282 -737 -518 -49 -31 -131 -104 -131
-117 0 -4 14 0 32 8 50 26 252 30 363 8 259 -51 425 -150 425 -255 0 -66 -71
-111 -282 -180 -160 -52 -240 -68 -399 -80 -72 -5 -135 -13 -141 -16 -19 -12
34 -27 82 -25 50 3 152 -31 282 -93 127 -61 199 -161 170 -236 -12 -31 -91
-105 -157 -147 -67 -42 -186 -81 -282 -92 -95 -10 -107 -7 -99 28 3 14 9 47
12 74 4 26 10 47 15 47 4 0 17 -12 28 -26 13 -17 21 -21 21 -12 0 8 -11 25
-25 38 -23 22 -25 29 -20 79 3 31 2 79 -3 106 l-9 50 -7 -58 c-5 -31 -6 -67
-3 -79 3 -11 0 -33 -7 -47 -7 -14 -18 -57 -25 -95 -15 -86 -18 -92 -42 -70
-23 21 -25 7 -4 -23 14 -20 13 -27 -13 -85 -16 -35 -51 -92 -77 -128 -129
-174 -228 -244 -680 -483 -516 -273 -789 -351 -979 -280 -55 20 -125 77 -155
126 -28 46 -91 205 -91 231 0 12 -7 31 -15 42 -14 18 -14 18 -15 -8 0 -15 6
-51 14 -80 59 -223 115 -297 262 -349 51 -19 73 -21 169 -15 61 3 123 8 139
12 l29 7 -21 -29 c-29 -39 -66 -142 -86 -239 -21 -99 -60 -220 -96 -300 -16
-33 -49 -114 -75 -180 -28 -73 -55 -126 -68 -135 -140 -98 -242 -210 -299
-329 -26 -54 -33 -81 -36 -152 -7 -131 29 -221 154 -384 l26 -35 -23 0 c-78 0
-211 -115 -265 -227 -15 -32 -32 -61 -37 -64 -5 -4 -37 -10 -71 -14 -33 -3
-73 -9 -88 -12 -26 -5 -30 -1 -68 78 -33 69 -39 77 -35 46 4 -21 15 -59 26
-85 33 -77 86 -146 72 -93 -4 16 5 20 72 30 108 16 102 19 108 -50 9 -106 61
-157 187 -182 32 -7 67 -21 79 -31 52 -47 175 -60 263 -26 l52 20 22 -21 c47
-44 243 -65 318 -34 l36 15 33 -36 c56 -64 141 -89 224 -65 20 6 35 6 39 0 26
-43 219 -60 305 -26 l46 17 49 -27 c39 -22 62 -28 114 -28 102 0 172 29 234
96 75 81 94 166 61 274 -8 27 -12 51 -10 53 2 2 24 -4 50 -13 39 -16 44 -21
38 -39 -14 -37 -9 -159 7 -191 8 -16 34 -44 58 -62 39 -30 50 -33 112 -33 61
0 69 -2 84 -25 9 -14 35 -34 58 -46 36 -18 54 -21 137 -17 69 4 109 11 141 26
43 20 45 20 65 3 50 -45 105 -53 240 -31 136 22 256 74 320 140 29 30 38 48
43 85 4 42 7 46 26 40 250 -74 498 -113 615 -94 59 9 75 7 151 -15 47 -13 92
-27 101 -31 11 -4 22 3 33 20 9 14 44 46 78 70 33 25 57 45 54 45 -17 0 -72
-35 -112 -72 l-43 -40 -68 23 -68 22 65 22 c36 12 110 49 164 81 163 98 270
227 345 420 110 280 63 578 -112 705 -68 50 -140 35 -166 -35 -5 -12 -14 -65
-20 -116 -13 -104 -48 -220 -85 -278 -53 -83 -152 -152 -220 -152 -33 0 -34 2
-31 30 3 24 0 30 -15 30 -21 0 -24 -8 -20 -49 2 -23 0 -24 -54 -18 -57 6 -156
45 -188 74 -17 15 -17 17 1 42 27 39 41 88 41 144 0 47 -3 54 -48 97 -26 25
-65 54 -86 64 -50 24 -121 18 -165 -14 -18 -12 -33 -21 -35 -19 -39 55 -226
385 -226 401 0 15 97 30 160 25 85 -7 117 -22 147 -66 42 -63 21 -154 -60
-256 l-32 -40 32 25 c44 36 101 128 109 176 6 43 -12 102 -43 136 -41 45 -203
65 -275 34 -21 -9 -39 -16 -42 -16 -3 0 -35 55 -72 123 -37 67 -78 139 -90
159 -22 35 -23 38 -6 46 61 32 168 18 202 -25 27 -35 27 -133 0 -205 -26 -69
-18 -73 15 -7 58 113 40 214 -45 257 -51 25 -88 28 -153 8 l-46 -14 -42 67
c-23 36 -64 100 -90 143 l-48 76 24 16 c42 28 172 66 223 66 86 0 129 -23 225
-118 48 -48 98 -102 109 -121 l21 -34 19 23 c10 12 18 36 18 54 0 53 38 171
74 233 80 134 98 154 191 213 138 87 165 95 330 95 121 0 151 -3 218 -24 42
-14 80 -21 84 -17 4 4 -3 35 -15 69 -63 169 -75 219 -76 327 -1 120 10 168 57
236 59 87 198 129 285 85 99 -50 162 -1 134 106 -19 70 -109 208 -186 285
-303 304 -755 472 -1049 390 -43 -12 -100 -33 -126 -47 -106 -53 -212 -169
-267 -292 -12 -28 -46 -120 -74 -204 -51 -154 -122 -303 -187 -391 -58 -79
-169 -174 -257 -218 -103 -51 -180 -70 -281 -70 -111 1 -131 17 -145 120 -5
41 -12 90 -16 108 -5 26 -3 32 11 32 31 0 75 33 75 57 0 25 -10 29 -27 12 -7
-7 -19 -9 -27 -6 -15 6 -56 64 -56 80 0 4 26 7 57 7 37 0 72 7 100 21 38 19
43 24 43 56 0 41 -12 67 -52 110 l-30 31 48 8 c142 20 285 88 379 179 89 86
97 143 34 239 -38 56 -107 102 -231 152 l-96 40 96 16 c54 9 153 35 221 58
287 95 364 161 318 273 -51 122 -323 232 -607 246 l-135 6 65 34 c36 18 110
66 165 105 55 39 136 94 180 121 44 27 150 102 235 166 195 146 240 199 240
280 0 34 -6 47 -33 73 -64 60 -184 80 -399 65 -151 -11 -291 -40 -456 -95 -73
-24 -135 -44 -139 -44 -8 0 107 120 417 435 249 253 288 305 275 365 -9 41
-49 76 -107 96 -136 45 -482 -36 -734 -172 -77 -41 -211 -133 -430 -294 -56
-41 -139 -103 -185 -137 -46 -34 -117 -91 -156 -128 -40 -37 -73 -64 -73 -61
0 4 28 68 62 144 163 364 228 621 184 727 -27 63 -112 91 -197 65z m-782 -468
c25 -16 35 -101 31 -255 -5 -143 -7 -159 -41 -260 -21 -59 -37 -118 -37 -130
0 -48 -17 -55 -155 -67 -71 -5 -150 -13 -174 -17 l-44 -6 6 89 c7 106 37 204
102 333 110 219 245 355 312 313z m-479 -1516 c15 -8 37 -25 48 -38 21 -23 58
-88 51 -88 -3 0 -26 12 -51 26 -39 22 -56 26 -97 22 -76 -8 -126 -47 -169
-133 -33 -66 -35 -74 -35 -175 0 -89 4 -112 23 -150 12 -25 20 -36 16 -25 -15
53 -20 121 -12 168 14 75 28 82 28 14 0 -90 46 -188 99 -209 25 -10 25 -11
-28 -31 -48 -18 -56 -19 -79 -6 -70 39 -100 195 -67 345 49 223 162 338 273
280z m21 -166 c65 -33 103 -119 67 -149 -8 -7 -29 -11 -47 -9 -29 3 -34 8 -40
37 -5 22 -21 46 -45 66 l-37 32 21 21 c27 27 33 27 81 2z m3872 -239 c248 -46
493 -178 697 -375 143 -137 239 -333 186 -376 -13 -11 -23 -10 -61 9 -69 33
-121 37 -200 13 -87 -27 -134 -67 -173 -145 -68 -140 -64 -263 19 -486 30 -82
30 -83 8 -77 -141 41 -316 48 -419 16 -66 -20 -158 -74 -236 -138 -85 -69
-183 -237 -212 -361 l-13 -53 -91 90 c-50 49 -106 97 -124 107 -88 43 -213 35
-338 -24 -72 -34 -59 -40 -139 74 -27 39 -73 98 -101 131 l-52 61 54 12 c91
21 181 91 303 236 117 139 179 250 294 526 35 85 73 172 84 194 l21 39 5 -349
c5 -352 15 -481 57 -731 l18 -109 1 65 c0 36 -6 121 -14 190 -16 136 -31 375
-40 650 -3 96 -8 210 -11 252 -6 76 -5 78 38 159 55 105 98 151 179 188 104
49 180 64 294 59 163 -8 253 -52 593 -292 45 -32 101 -82 124 -112 59 -75 60
-59 2 21 -53 73 -137 139 -339 271 -156 101 -245 135 -380 141 -117 6 -218
-16 -318 -69 -116 -62 -147 -113 -349 -563 -145 -325 -225 -454 -370 -597 -98
-96 -166 -140 -229 -146 l-50 -5 -87 85 c-48 46 -113 107 -145 135 l-58 50 83
2 c163 2 318 66 444 184 133 124 219 271 293 502 61 189 70 213 108 289 57
113 152 192 288 238 127 43 204 47 356 19z m-1572 -617 c44 -47 60 -88 44
-113 -25 -39 -164 -51 -202 -17 -10 9 -21 13 -25 9 -5 -5 6 14 23 41 17 28 31
53 31 57 0 3 7 22 14 41 13 31 18 34 45 30 20 -3 45 -20 70 -48z m-167 -195
c22 -59 46 -165 58 -266 l10 -82 201 -198 c218 -214 263 -270 434 -528 147
-223 247 -393 394 -669 156 -294 247 -431 373 -562 168 -174 242 -214 394
-214 109 0 156 12 224 59 105 72 168 197 190 378 17 141 20 152 42 173 38 35
66 26 133 -42 88 -91 107 -145 112 -318 6 -158 -6 -220 -65 -357 -69 -159
-147 -253 -283 -343 -225 -148 -450 -175 -794 -96 -88 21 -173 45 -189 54 -23
14 -33 33 -54 102 -31 99 -31 155 -4 225 30 78 46 208 39 336 -9 174 -25 204
-26 48 -1 -146 -21 -278 -62 -402 -29 -89 -35 -127 -21 -127 17 0 72 -159 72
-210 0 -76 -43 -136 -131 -180 -70 -36 -210 -72 -290 -73 -87 -2 -121 14 -143
67 -8 18 -19 37 -25 40 -21 13 -13 127 13 181 26 56 43 73 101 103 24 13 33
21 22 22 -52 1 -150 -85 -176 -153 -15 -40 -14 -142 3 -181 13 -32 13 -34 -10
-45 -42 -19 -149 -34 -195 -27 -124 18 -174 124 -137 285 13 58 77 146 140
191 31 23 36 30 21 30 -29 0 -105 -70 -151 -140 -57 -85 -72 -178 -45 -274 5
-17 1 -18 -46 -14 -107 10 -180 97 -168 199 14 116 130 265 242 310 54 21 75
24 195 23 117 -1 147 -4 224 -28 49 -15 130 -47 180 -72 102 -51 106 -45 6 10
-131 71 -336 121 -465 114 l-49 -3 -35 67 -34 68 -1 152 c-1 117 3 168 17 218
40 147 112 255 227 340 84 62 160 87 291 96 l104 6 80 -41 c61 -31 73 -35 50
-16 -16 14 -57 39 -89 55 -52 26 -69 30 -145 30 -85 0 -200 -23 -251 -50 -56
-29 -162 -124 -203 -183 -90 -126 -117 -212 -124 -396 -7 -156 7 -245 48 -301
35 -48 35 -50 7 -50 -68 0 -197 -95 -245 -179 l-26 -47 -48 16 c-27 8 -49 19
-49 24 0 5 20 43 44 85 39 66 91 190 221 521 37 94 85 242 109 337 53 203 61
542 18 688 -6 19 -9 -53 -8 -205 1 -278 -16 -394 -91 -625 -64 -197 -303 -791
-324 -805 -13 -9 -13 -34 -1 -88 26 -115 10 -187 -56 -256 -98 -102 -259 -116
-342 -31 -34 35 -35 38 -38 131 -4 90 -2 99 27 159 17 35 53 87 79 116 39 45
42 50 15 31 -33 -23 -86 -98 -129 -180 -21 -40 -25 -64 -26 -133 -1 -49 4 -93
11 -107 11 -20 9 -23 -16 -33 -132 -51 -269 -20 -316 71 -15 28 -17 53 -15
126 3 80 8 100 38 158 18 37 53 84 76 106 47 43 48 48 6 26 -38 -20 -96 -84
-120 -131 -44 -90 -53 -237 -17 -308 8 -17 15 -32 15 -35 0 -10 -124 9 -157
24 -54 26 -85 81 -91 163 -6 90 15 151 80 236 43 55 63 71 125 101 l74 36 81
-12 c98 -14 113 -7 23 11 -36 7 -65 15 -65 18 0 3 10 22 22 41 38 63 106 205
127 266 49 146 60 214 66 419 7 240 10 279 37 415 27 138 70 268 119 359 22
41 34 69 26 63 -25 -21 -115 -206 -142 -292 -43 -138 -65 -296 -75 -535 -5
-121 -14 -238 -19 -261 -11 -41 -89 -265 -96 -272 -8 -8 -55 26 -160 114 -170
142 -226 208 -324 380 -171 297 -221 674 -136 1009 48 189 83 237 205 274 41
13 120 44 175 68 103 46 372 179 390 193 6 4 75 42 154 85 207 110 333 198
421 293 41 45 80 80 85 78 6 -1 18 -23 27 -47z m-972 -55 c0 -17 -108 -144
-209 -244 -176 -175 -272 -230 -400 -230 -100 0 -171 57 -203 163 -10 34 -9
40 12 62 26 28 66 32 95 11 17 -12 21 -12 33 5 23 33 104 67 234 99 124 30
238 66 358 113 71 27 80 30 80 21z m1049 -23 c14 -11 20 -21 13 -25 -16 -10
-39 3 -45 25 -6 24 1 24 32 0z m-1584 -1485 c70 -330 222 -586 475 -797 55
-46 100 -88 100 -93 0 -4 -7 -3 -15 4 -20 17 -19 2 3 -46 16 -33 22 -102 13
-155 -1 -3 -23 -9 -50 -12 -28 -3 -64 -13 -82 -23 -52 -26 -121 -105 -159
-179 -33 -66 -35 -75 -34 -167 l0 -98 -35 -10 c-54 -15 -119 -12 -194 9 -73
20 -100 39 -124 85 -22 43 -13 159 17 221 23 47 89 121 141 157 23 16 22 16
-18 1 -56 -21 -126 -93 -163 -167 -24 -48 -30 -72 -30 -126 0 -37 5 -81 11
-99 6 -18 8 -35 5 -38 -13 -13 -130 -15 -182 -4 -30 7 -67 24 -83 37 -66 55
-79 203 -28 314 27 60 87 123 157 164 42 24 43 26 17 26 -69 0 -168 -86 -213
-185 -32 -70 -44 -190 -24 -249 7 -21 10 -39 8 -42 -3 -2 -25 3 -50 11 -149
51 -157 234 -17 388 81 89 131 112 245 112 l91 0 18 60 c16 54 17 84 10 295
-4 129 -9 258 -9 285 -4 112 15 279 35 313 10 18 19 40 19 49 0 14 56 158 96
248 l18 40 7 -125 c4 -69 15 -161 24 -204z m-225 -138 c-9 -53 -11 -136 -6
-303 10 -317 9 -393 -7 -445 -13 -45 -13 -45 -59 -44 -40 0 -49 5 -79 38 -46
53 -115 168 -136 230 -24 70 -22 185 4 252 11 28 37 78 58 110 42 63 221 251
231 241 3 -3 0 -39 -6 -79z m3265 -387 c51 -23 110 -82 119 -116 9 -37 -11
-129 -34 -157 l-19 -23 -62 60 c-63 62 -179 200 -179 214 0 11 46 29 85 34 17
2 35 5 40 5 6 1 28 -7 50 -17z m-2385 -421 c-1 -3 -9 -21 -20 -40 l-19 -35 -1
53 c0 50 1 52 20 40 11 -7 20 -15 20 -18z"/>
<path d="M8850 6413 c150 -108 430 -443 580 -695 19 -32 36 -56 38 -53 6 6
-102 187 -166 280 -140 201 -347 423 -432 464 -32 15 -38 16 -20 4z"/>
<path d="M8712 5080 c0 -14 2 -19 5 -12 2 6 2 18 0 25 -3 6 -5 1 -5 -13z"/>
<path d="M5678 3493 c6 -2 18 -2 25 0 6 3 1 5 -13 5 -14 0 -19 -2 -12 -5z"/>
<path d="M9564 8318 c-80 -60 -212 -238 -202 -270 2 -6 19 15 37 48 19 32 70
96 115 141 68 70 87 83 114 83 43 0 55 -21 98 -171 20 -68 40 -131 45 -140 6
-12 5 -19 -4 -22 -6 -2 2 -10 18 -16 154 -62 255 -137 255 -189 0 -38 -33 -67
-138 -122 l-87 -45 -5 -140 c-5 -142 -11 -164 -50 -200 -21 -19 -22 -19 -76 9
-65 34 -202 158 -210 191 -6 22 -6 22 -112 -21 -121 -49 -192 -67 -254 -62
l-43 3 -3 46 c-4 55 32 156 84 242 l36 57 -71 76 c-73 78 -126 169 -116 197
26 65 283 64 359 -2 16 -13 18 -13 15 -1 -7 23 -89 59 -158 71 -108 17 -224
-16 -237 -67 -10 -40 31 -116 111 -201 l71 -77 -33 -55 c-47 -78 -75 -157 -81
-225 -4 -49 -2 -62 14 -73 40 -29 158 -10 309 50 l80 32 85 -85 c94 -93 182
-147 225 -136 15 4 35 24 52 54 27 45 28 53 28 177 l0 130 90 46 c101 53 135
86 135 131 0 45 -76 115 -182 168 -96 47 -87 33 -139 225 -22 80 -40 127 -55
142 -30 30 -81 30 -120 1z"/>
<path d="M2305 7886 c-133 -52 -302 -171 -449 -317 -54 -55 -100 -99 -101 -99
-1 0 0 18 2 39 7 59 -14 148 -40 166 -19 13 -23 13 -44 -7 -68 -64 -107 -183
-101 -305 4 -73 2 -83 -11 -78 -9 4 -47 9 -86 12 -59 4 -82 1 -144 -21 -40
-14 -80 -31 -87 -37 -22 -18 -16 -56 11 -77 32 -25 117 -46 153 -37 24 6 21 0
-29 -52 -78 -81 -110 -126 -157 -218 -65 -130 -83 -214 -57 -264 8 -17 18 -31
21 -31 14 0 70 35 106 68 30 26 40 31 34 17 -15 -39 -28 -201 -22 -270 6 -75
37 -188 81 -298 20 -48 40 -78 71 -106 l44 -39 -34 -26 c-21 -15 -48 -54 -68
-93 -30 -61 -33 -76 -33 -153 0 -79 3 -92 37 -161 76 -151 193 -265 305 -295
112 -30 299 -2 344 52 12 15 34 20 25 6 -3 -5 7 -18 23 -29 83 -62 226 -155
281 -184 l63 -33 -28 -22 c-15 -12 -46 -27 -69 -34 -165 -49 -505 -211 -691
-329 -138 -88 -159 -110 -161 -165 -1 -24 -4 -48 -8 -54 -8 -13 3 -22 20 -15
8 3 14 1 14 -4 0 -5 -15 -14 -33 -21 -49 -18 -179 -142 -262 -251 -95 -126
-222 -319 -274 -417 -66 -123 -100 -163 -212 -248 -151 -115 -234 -190 -290
-265 l-51 -66 5 -71 c3 -40 12 -85 21 -102 9 -17 16 -44 16 -60 0 -42 21 -88
58 -125 18 -18 45 -47 61 -64 36 -40 78 -44 116 -11 14 13 56 63 93 112 40 53
93 109 131 138 73 56 69 58 101 -45 65 -210 198 -200 240 18 8 43 9 89 2 159
-5 54 -6 113 -2 132 14 60 79 145 285 374 l120 133 3 -43 c4 -49 -31 -171 -53
-190 -19 -16 -19 -40 1 -68 14 -21 13 -23 -11 -44 -21 -19 -28 -37 -36 -98
-24 -180 -186 -720 -269 -898 -54 -114 -128 -233 -200 -321 -60 -74 -192 -200
-228 -220 -27 -15 -35 -74 -15 -123 16 -39 16 -39 -14 -71 -16 -18 -37 -44
-46 -59 -11 -18 -31 -31 -59 -38 -24 -7 -80 -32 -125 -56 -44 -24 -83 -44 -86
-44 -3 0 -8 22 -12 50 -10 71 -22 70 -17 -1 2 -32 2 -59 -2 -59 -8 0 -34 52
-73 145 -29 71 -33 76 -33 45 0 -40 36 -132 69 -178 l22 -31 -30 -16 -30 -15
-116 116 c-65 63 -120 113 -123 109 -4 -3 31 -43 76 -87 45 -45 81 -83 79 -85
-2 -1 -26 4 -53 12 -57 17 -78 19 -69 5 3 -5 36 -19 74 -31 64 -21 110 -45
100 -52 -15 -13 -139 -82 -214 -120 -88 -45 -165 -100 -155 -110 3 -3 63 26
135 65 72 38 181 96 243 129 63 33 155 84 205 113 93 53 173 96 180 96 3 0 -1
-17 -8 -38 -9 -26 -12 -82 -10 -178 3 -164 13 -192 104 -287 125 -132 342
-207 596 -207 240 0 415 106 415 253 0 54 -26 143 -53 181 -19 26 -94 101
-121 119 -7 5 -5 11 7 18 55 32 90 77 140 183 35 73 79 142 123 197 82 101
167 231 226 340 49 92 31 81 299 190 192 78 194 78 257 39 28 -17 60 -43 70
-57 29 -39 12 -115 -54 -253 -67 -138 -104 -241 -104 -290 0 -20 9 -53 20 -75
17 -34 18 -41 5 -55 -21 -23 -54 -124 -61 -185 -5 -37 -2 -60 9 -81 81 -155
408 -286 747 -301 151 -6 253 8 364 53 72 29 163 104 182 151 17 39 18 113 3
168 -23 83 -148 161 -296 185 l-82 14 28 17 c42 25 61 58 61 106 0 44 -15 94
-31 104 -6 3 -4 23 5 50 8 24 28 85 45 134 42 125 61 215 68 320 7 111 -18
214 -83 341 l-43 85 27 11 c81 32 481 159 562 178 52 13 162 40 244 61 81 22
153 39 159 39 6 0 19 -7 29 -17 10 -9 21 -14 24 -11 3 3 -10 16 -28 29 -18 12
-54 40 -80 62 -27 21 -48 34 -48 29 0 -6 14 -22 31 -37 17 -14 29 -28 27 -31
-3 -2 -97 -27 -209 -54 -267 -65 -338 -86 -559 -164 -102 -36 -188 -66 -192
-66 -4 0 -22 21 -39 48 -79 114 -213 267 -297 337 -54 44 -60 52 -55 77 4 20
-4 50 -27 99 -29 63 -31 75 -22 108 6 20 25 90 42 156 17 66 47 175 66 241 19
67 34 129 34 137 0 28 16 27 71 -2 135 -73 329 -81 400 -18 22 20 35 22 149
23 256 1 467 92 691 299 36 33 59 46 103 55 94 19 206 82 270 150 49 54 65 64
143 91 122 43 215 88 235 113 26 31 22 71 -9 106 -46 51 -138 63 -230 31 -29
-10 -53 -17 -53 -15 0 1 43 26 95 54 95 51 140 93 170 156 24 51 19 91 -14
125 -25 24 -38 29 -79 29 -43 0 -103 -13 -154 -35 -14 -5 -13 0 5 36 41 84 31
223 -20 256 -72 47 -180 -44 -293 -249 -23 -40 -38 -62 -33 -48 12 38 5 157
-13 198 -22 53 -43 72 -80 72 -46 0 -77 -33 -109 -115 -15 -38 -51 -117 -81
-174 -53 -102 -54 -104 -54 -192 l0 -89 -67 -49 c-76 -56 -97 -68 -198 -110
-85 -35 -171 -47 -223 -31 -20 7 -104 43 -187 80 -82 37 -175 75 -205 85 -30
10 -59 21 -65 25 -10 6 -99 33 -165 48 l-34 8 64 18 c197 55 386 218 488 421
157 314 173 695 36 862 -21 25 -52 84 -71 136 -31 82 -36 108 -44 237 -13 230
-65 394 -173 550 -24 36 -43 66 -41 68 2 2 14 -2 26 -9 13 -6 64 -14 114 -17
82 -4 92 -2 113 17 12 12 22 31 22 42 0 65 -118 198 -213 239 -31 14 -57 27
-57 30 0 3 15 12 33 20 43 20 47 56 11 99 -34 41 -90 73 -186 105 -266 90
-624 99 -926 23 -50 -13 -92 -22 -92 -22 0 1 13 26 30 56 16 30 30 66 30 82 0
34 -22 35 -105 3z m61 -46 c-42 -64 -149 -176 -188 -196 -58 -30 -25 -23 45
10 249 118 650 161 968 106 79 -14 237 -66 283 -92 53 -31 84 -73 70 -95 -21
-33 -70 -36 -149 -8 -49 17 35 -38 121 -79 97 -46 158 -95 204 -161 41 -59 47
-91 22 -104 -49 -26 -176 -6 -260 41 -18 10 -39 18 -47 18 -11 0 -12 6 -5 24
16 43 -31 116 -105 162 -24 15 -19 7 23 -39 53 -60 69 -94 58 -123 -6 -15 -19
-16 -101 -10 -122 8 -255 31 -325 55 -30 11 -75 22 -100 24 -44 5 -44 5 -12
-5 49 -16 140 -106 148 -146 4 -17 11 -32 17 -32 15 0 1 70 -19 91 -10 11 -15
22 -11 25 3 3 50 -2 104 -11 54 -10 149 -19 211 -20 63 -2 115 -5 116 -7 1 -1
16 -21 33 -43 17 -22 43 -63 57 -90 122 -237 154 -343 165 -540 9 -161 52
-308 107 -365 107 -113 127 -389 45 -653 -52 -170 -126 -302 -226 -403 -176
-177 -328 -226 -705 -228 -106 -1 -166 -4 -140 -8 25 -3 75 -7 111 -7 99 -1
132 -10 126 -32 -3 -11 3 -37 14 -59 10 -21 19 -48 19 -60 0 -55 -83 -144
-146 -156 -64 -12 -208 11 -266 43 -66 35 -131 115 -154 187 l-17 55 26 35
c33 43 34 50 2 42 -14 -4 -25 -2 -25 3 0 21 22 20 81 -4 34 -14 64 -24 65 -22
1 1 -68 40 -154 86 -86 46 -208 117 -270 158 -93 62 -111 77 -101 89 18 22 -6
17 -26 -6 -22 -24 -138 -60 -216 -67 -64 -6 -151 15 -208 51 -73 47 -192 203
-221 291 -21 62 -17 162 9 220 26 58 48 84 117 136 72 53 117 69 209 76 71 5
86 3 130 -19 28 -13 61 -32 76 -41 22 -15 27 -15 46 -2 51 36 62 311 19 478
-33 124 -33 130 5 84 17 -20 34 -37 38 -37 4 0 8 15 9 33 1 19 6 47 13 63 21
54 23 213 4 315 -9 52 -23 109 -31 127 -13 32 -13 33 9 25 12 -4 78 -8 147 -8
97 0 137 5 180 20 30 10 59 18 64 17 9 -3 3 74 -7 98 -6 13 9 14 120 8 143 -7
403 5 430 21 13 7 -47 10 -193 10 -190 1 -363 17 -395 37 -4 2 -19 2 -32 -1
l-23 -6 31 -33 c30 -33 64 -110 52 -122 -9 -10 -144 -23 -232 -23 -106 -1
-159 13 -217 54 -54 39 -60 34 -23 -16 88 -120 119 -271 96 -459 -7 -55 -17
-97 -22 -94 -18 11 -49 84 -49 114 0 16 -4 30 -9 30 -4 0 -11 -40 -15 -89 -6
-76 -3 -100 16 -167 20 -69 23 -101 23 -261 0 -157 -2 -185 -17 -199 -16 -16
-19 -15 -50 11 -98 83 -251 87 -384 9 -17 -9 -38 -15 -46 -11 -25 9 -90 132
-120 227 -54 163 -57 232 -22 479 3 18 15 60 29 92 l23 58 -29 -21 c-16 -12
-39 -38 -53 -57 -13 -20 -52 -65 -86 -101 -77 -79 -84 -69 -45 58 50 161 141
310 250 409 l66 61 -118 -5 c-95 -4 -122 -2 -138 10 -19 15 -19 15 5 36 61 50
196 66 299 35 36 -10 57 -12 64 -5 10 10 8 16 -18 61 -30 51 -12 178 39 281
17 35 36 64 41 64 17 0 33 -86 36 -190 1 -55 4 -90 6 -78 7 36 238 261 348
338 106 75 304 190 312 181 2 -2 -12 -27 -31 -56z m2690 -2425 c38 -91 6 -188
-99 -303 -37 -39 -67 -76 -67 -80 0 -5 9 -26 20 -48 14 -28 19 -33 20 -18 0
29 52 107 92 137 79 61 208 93 253 63 33 -22 39 -49 19 -88 -34 -65 -68 -99
-143 -139 -112 -62 -136 -82 -152 -131 -20 -59 -13 -91 9 -46 27 52 88 78 188
78 68 0 86 -4 108 -21 44 -35 33 -68 -34 -102 -74 -38 -225 -97 -249 -97 -11
0 -27 -14 -39 -33 -42 -71 -213 -178 -308 -193 -40 -6 -63 -19 -129 -74 -243
-202 -390 -265 -625 -264 -160 0 -243 21 -267 68 -23 45 -13 220 17 301 28 73
36 86 103 153 67 69 75 73 125 60 99 -25 251 26 413 139 42 29 79 53 82 53 2
0 7 -21 9 -47 3 -27 13 -64 22 -83 l16 -35 -5 55 c-2 30 -7 111 -11 180 l-6
125 50 96 c27 52 64 130 82 173 55 132 90 153 126 78 33 -69 27 -249 -12 -346
-5 -13 -4 -17 3 -13 19 12 61 -51 73 -110 7 -31 10 -76 6 -100 -8 -60 -55
-152 -85 -168 l-26 -14 26 -1 c29 0 58 34 95 113 33 72 32 146 -2 215 -14 29
-29 52 -32 52 -4 0 -15 7 -25 14 -17 14 -18 16 -2 48 10 18 24 40 31 49 8 8
44 65 80 125 69 115 110 164 159 195 47 29 74 25 91 -16z m-2629 -509 c4 -110
106 -242 221 -287 68 -27 215 -37 274 -19 49 14 113 71 140 124 20 39 22 104
3 149 -21 51 308 -13 520 -101 39 -16 110 -49 159 -72 l89 -43 -29 -20 c-16
-11 -54 -46 -85 -77 -76 -76 -108 -167 -110 -320 -3 -127 11 -163 72 -189 21
-9 39 -20 39 -24 0 -4 -17 -15 -37 -24 -76 -31 -255 0 -353 62 -37 23 -38 26
-29 57 7 27 25 150 54 368 7 60 -12 10 -25 -65 -28 -160 -84 -395 -151 -635
-39 -140 -76 -273 -82 -295 -5 -22 -16 -59 -23 -82 -15 -49 -11 -55 10 -15 13
25 15 26 22 7 3 -11 15 -40 25 -64 11 -24 19 -48 19 -53 0 -5 -17 -25 -37 -44
-90 -84 -370 -188 -534 -200 -257 -18 -518 53 -738 201 -84 56 -203 160 -212
183 -3 9 4 39 16 67 26 58 42 125 51 210 6 60 7 61 97 152 90 91 91 92 115 77
75 -49 258 61 348 207 35 58 107 209 99 209 -2 0 -24 -39 -49 -87 -57 -110
-114 -180 -194 -238 -72 -52 -100 -65 -146 -65 -39 0 -67 28 -186 185 -108
142 -227 282 -246 289 -26 10 -15 51 24 88 102 99 580 341 807 409 33 9 60 18
60 18 0 1 1 -19 2 -43z m-802 -628 c33 -41 102 -129 154 -194 l94 -118 -24
-15 c-42 -27 -248 -232 -387 -386 -139 -155 -252 -311 -252 -349 0 -11 -1 -93
-3 -181 -2 -154 -3 -162 -29 -206 -28 -47 -48 -62 -71 -54 -24 10 -64 91 -87
178 -13 48 -26 87 -30 87 -17 0 -118 -75 -171 -127 -31 -30 -80 -88 -110 -129
-30 -41 -64 -77 -76 -80 -85 -22 -114 89 -53 206 22 43 145 175 205 219 18 14
21 18 7 11 -126 -61 -272 -232 -272 -320 0 -16 -4 -30 -8 -30 -15 0 -31 46
-38 109 -6 53 -3 67 23 123 16 35 56 92 89 128 51 55 55 61 26 44 -57 -32
-139 -143 -157 -209 -7 -27 -8 -28 -15 -10 -18 42 -10 110 17 166 36 72 119
154 283 276 74 55 144 113 156 129 11 16 53 87 92 157 129 229 268 416 399
538 68 63 152 121 167 116 6 -2 38 -37 71 -79z m100 -989 c349 -271 734 -353
1095 -231 127 43 241 97 287 136 17 14 38 26 46 26 21 0 244 -235 322 -339 76
-101 179 -303 194 -379 25 -125 5 -274 -61 -456 -22 -61 -43 -136 -46 -166 -7
-53 -9 -56 -52 -77 -57 -28 -203 -67 -345 -92 -115 -20 -101 -28 20 -11 154
22 302 64 357 102 14 10 28 18 31 18 3 0 10 -23 16 -51 10 -45 9 -54 -6 -71
-31 -34 -164 -108 -241 -134 -67 -23 -93 -26 -217 -26 -157 -1 -218 13 -330
75 -70 39 -105 85 -105 136 0 44 42 162 103 296 25 55 52 123 59 150 7 28 13
51 14 53 0 1 17 -5 37 -13 53 -22 68 -17 22 7 -22 11 -66 45 -98 75 -33 29
-87 68 -120 85 -88 44 -242 168 -226 182 2 2 41 15 86 30 72 24 229 108 258
137 6 6 -26 -7 -70 -29 -44 -22 -123 -54 -175 -72 -153 -50 -186 -73 -252
-170 -32 -47 -98 -168 -149 -270 -90 -182 -143 -268 -264 -425 -73 -95 -107
-152 -135 -228 -30 -81 -61 -108 -165 -147 -83 -31 -99 -34 -200 -34 -94 0
-119 4 -177 27 -76 29 -190 103 -260 168 -55 51 -118 151 -118 188 0 20 31 56
134 156 137 134 196 211 279 365 91 170 193 470 287 850 35 141 47 178 68 202
17 20 16 20 97 -43z m773 -780 c31 -28 74 -62 95 -76 21 -13 37 -26 35 -28 -1
-1 -68 -29 -148 -60 -80 -32 -162 -66 -183 -77 -22 -11 -41 -17 -44 -15 -7 7
101 216 137 266 17 23 35 41 41 41 6 0 36 -23 67 -51z m-1415 -1067 c118 -77
172 -95 302 -99 87 -3 124 0 178 15 l68 19 37 -27 c97 -70 152 -168 152 -270
0 -53 -30 -82 -109 -104 -206 -58 -488 -24 -703 85 -71 36 -169 125 -205 187
-52 88 -38 252 28 348 l31 45 71 -74 c40 -40 107 -96 150 -125z m1713 129
c113 -56 180 -71 326 -71 132 0 194 12 308 57 57 23 75 25 150 20 184 -11 310
-96 310 -210 0 -50 -31 -81 -112 -115 -116 -48 -175 -57 -373 -56 l-180 0
-180 48 c-188 49 -379 128 -392 161 -8 22 10 96 37 158 11 26 22 47 24 47 2 0
39 -18 82 -39z m224 -345 c208 -58 303 -71 450 -62 186 10 340 54 403 113 33
32 36 17 5 -23 -68 -87 -191 -145 -354 -166 -247 -32 -699 92 -842 231 -23 23
-42 45 -42 51 0 5 48 -15 108 -45 77 -39 152 -67 272 -99z m-2156 -81 c66 -66
115 -97 224 -141 185 -75 377 -99 555 -70 55 9 108 21 119 27 37 20 30 1 -9
-25 -99 -66 -244 -89 -425 -67 -171 20 -287 60 -394 136 -71 51 -125 119 -148
188 -22 65 -20 79 5 38 11 -18 44 -57 73 -86z"/>
<path d="M3358 7014 c-16 -8 -37 -32 -48 -54 -24 -48 -25 -54 -2 -45 81 34
168 22 237 -31 49 -37 53 -37 28 4 -78 125 -145 164 -215 126z"/>
<path d="M2625 6926 c-65 -29 -176 -174 -175 -230 1 -17 4 -15 14 10 17 39 62
74 151 116 63 29 79 33 157 33 83 0 87 1 75 19 -36 54 -154 82 -222 52z"/>
<path d="M3403 6689 c-17 -11 -42 -41 -55 -67 -20 -42 -23 -62 -23 -172 0
-107 3 -132 22 -172 19 -42 29 -50 95 -81 40 -18 89 -39 108 -47 50 -19 67
-36 86 -86 40 -104 -25 -174 -160 -174 -88 0 -92 -14 -5 -18 86 -3 139 12 176
50 25 26 28 37 28 93 0 55 -4 68 -30 101 -36 44 -41 47 -120 70 -109 32 -145
52 -162 92 -39 94 -20 288 35 354 62 74 119 53 191 -69 l30 -52 -29 6 c-24 4
-35 -1 -61 -26 -30 -31 -31 -35 -27 -96 3 -36 15 -84 28 -110 35 -73 82 -84
84 -19 1 15 7 29 14 32 12 4 16 -13 12 -57 -1 -14 2 -21 9 -17 17 11 13 -15
-6 -36 -16 -18 -8 -24 13 -10 27 18 36 56 30 126 -13 134 -37 224 -80 294 -66
106 -133 136 -203 91z m235 -241 c18 -18 16 -78 -3 -78 -18 0 -35 31 -35 64 0
28 18 34 38 14z"/>
<path d="M2657 6609 c-82 -43 -144 -184 -135 -307 6 -83 50 -176 105 -221 81
-67 233 -80 345 -29 68 31 90 62 96 133 13 155 -92 377 -202 429 -49 23 -161
21 -209 -5z m199 -35 c35 -17 93 -75 114 -114 12 -22 12 -22 -11 -6 -36 25
-64 20 -98 -19 -25 -29 -31 -45 -31 -82 0 -61 18 -118 47 -147 46 -46 106 -38
122 16 10 32 10 32 9 -14 -2 -59 9 -73 17 -22 11 63 13 63 14 1 1 -53 -2 -62
-29 -87 -43 -40 -119 -63 -202 -61 -117 3 -192 52 -240 156 -28 61 -30 169 -4
229 25 59 82 132 118 149 42 21 131 21 174 1z m126 -156 c25 -21 42 -86 27
-104 -35 -42 -92 31 -70 89 12 30 20 33 43 15z"/>
<path d="M1680 5788 c-51 -35 -82 -104 -86 -190 -3 -72 -3 -72 5 -18 5 30 18
75 29 100 22 51 82 110 112 110 40 0 132 -43 171 -79 29 -28 39 -33 39 -21 0
28 -39 69 -91 95 -64 33 -133 34 -179 3z"/>
<path d="M2904 5717 c-34 -51 -37 -58 -45 -100 -24 -132 117 -366 246 -411
161 -54 287 43 370 287 l30 88 59 24 c32 13 64 29 70 36 12 13 12 13 -114 -23
-111 -32 -366 -32 -496 0 -51 13 -99 29 -108 35 -15 11 -15 15 4 52 23 44 23
45 13 45 -5 0 -18 -15 -29 -33z m206 -308 c87 -25 125 -50 150 -98 25 -50 25
-63 1 -78 -64 -40 -148 -22 -225 48 -44 40 -116 140 -116 161 0 7 123 -14 190
-33z"/>
<path d="M1799 5679 c-61 -65 -21 -168 86 -220 l40 -20 -38 32 c-49 41 -77 97
-77 152 0 50 19 73 65 80 26 3 25 4 -8 6 -32 1 -44 -5 -68 -30z"/>
<path d="M2986 3335 c-22 -18 -79 -53 -127 -77 -95 -47 -115 -66 -45 -42 65
22 166 86 194 123 31 39 27 39 -22 -4z"/>
<path d="M1220 1645 c0 -12 118 -78 170 -95 141 -45 261 -36 352 27 52 35 41
42 -12 7 -36 -24 -55 -29 -129 -32 -122 -6 -219 12 -308 58 -40 21 -73 37 -73
35z"/>
<path d="M6365 7667 c-62 -17 -112 -42 -148 -76 -56 -51 -49 -62 14 -21 82 53
125 64 240 65 92 0 98 -1 180 -42 82 -40 150 -88 211 -145 36 -34 36 -22 -2
30 -37 51 -134 124 -220 165 -52 25 -79 31 -145 34 -44 1 -102 -3 -130 -10z"/>
<path d="M5075 7538 c-42 -37 -84 -103 -72 -114 2 -3 10 9 17 26 17 42 83 97
126 104 38 8 113 -20 151 -56 13 -12 23 -17 23 -12 0 13 -58 68 -87 83 -12 6
-42 11 -66 11 -38 0 -51 -6 -92 -42z"/>
<path d="M6357 7326 c-50 -18 -110 -61 -147 -103 -99 -112 -174 -380 -140
-502 16 -61 96 -143 179 -184 63 -31 70 -32 192 -32 l126 0 79 40 c107 53 203
148 227 224 46 146 -7 328 -131 451 -53 51 -81 70 -132 88 -82 30 -200 38
-253 18z m215 -47 c99 -33 176 -97 241 -202 21 -33 57 -167 57 -212 0 -113
-85 -225 -226 -296 l-87 -44 -121 0 c-110 0 -126 2 -177 26 -106 50 -180 141
-178 220 1 31 2 30 13 -16 16 -64 26 -82 72 -125 l37 -35 -37 49 c-38 51 -42
61 -49 133 -3 27 0 46 8 53 10 8 14 0 20 -37 4 -26 13 -59 20 -73 24 -47 92
-108 132 -119 51 -14 66 -14 113 5 34 14 39 19 34 40 -8 30 18 42 51 24 31
-17 45 -6 76 58 20 39 23 63 24 147 0 63 -5 108 -13 123 -7 12 -9 22 -4 22 5
0 22 -24 38 -52 27 -49 29 -61 29 -153 0 -91 -3 -106 -28 -154 -17 -34 -22
-49 -12 -41 50 42 85 192 66 282 -36 165 -138 261 -294 274 -89 8 -136 -5
-172 -48 -44 -52 -38 -24 9 39 48 66 99 110 143 123 52 16 151 11 215 -11z
m-134 -185 c13 -8 28 -26 34 -39 9 -21 8 -29 -8 -46 -46 -52 -156 -76 -189
-42 -21 20 -14 97 11 124 27 30 108 32 152 3z"/>
<path d="M5591 6696 c2 -2 24 -6 49 -10 31 -4 40 -3 30 4 -13 9 -89 15 -79 6z"/>
<path d="M5522 6358 c-7 -7 -12 -26 -11 -42 1 -35 27 -111 28 -83 2 32 31 76
61 92 42 22 30 45 -24 45 -23 0 -47 -5 -54 -12z"/>
<path d="M5032 6325 c-14 -31 -15 -52 -3 -57 6 -1 19 -23 30 -48 l20 -45 0 72
c1 39 -2 78 -5 87 -9 24 -29 19 -42 -9z"/>
<path d="M0 5872 c0 -5 26 -13 57 -17 309 -38 494 -279 437 -567 l-5 -27 38
19 c67 32 165 60 210 60 53 0 114 -29 141 -67 35 -50 54 -120 42 -161 -14 -50
-13 -57 6 -41 26 22 157 15 229 -12 82 -30 163 -84 175 -115 37 -96 -37 -201
-177 -254 -69 -26 -357 -84 -497 -101 -101 -12 -572 -7 -628 7 -16 4 -28 2
-28 -4 0 -14 72 -21 305 -28 166 -5 241 -3 355 10 189 22 455 77 523 109 154
70 222 214 141 298 -70 73 -200 122 -313 117 l-76 -3 4 38 c7 78 -50 175 -124
208 -59 27 -118 23 -218 -15 -75 -29 -87 -31 -82 -16 22 68 -2 216 -50 310
-31 60 -127 151 -201 188 -85 43 -264 86 -264 64z"/>
<path d="M4786 3294 c34 -32 74 -83 89 -111 35 -66 49 -69 25 -5 -23 60 -75
120 -131 151 l-44 24 61 -59z"/>
<path d="M4485 3273 c28 -27 180 -146 210 -164 50 -30 43 -8 -12 38 -80 66
-241 168 -198 126z"/>
<path d="M4767 3164 c-11 -11 3 -24 24 -24 12 0 19 5 17 13 -5 14 -31 21 -41
11z"/>
<path d="M9775 2956 c-75 -24 -229 -116 -239 -143 -9 -22 7 -15 93 42 45 30
109 64 142 76 89 33 92 53 4 25z"/>
<path d="M9800 2874 c-53 -14 -150 -70 -150 -87 0 -8 31 6 70 33 14 9 50 25
80 35 30 10 59 21 65 26 12 12 2 11 -65 -7z"/>
<path d="M9860 2819 c-64 -30 -38 -33 50 -5 70 23 73 24 35 25 -22 0 -60 -9
-85 -20z"/>
<path d="M9765 2742 c48 -29 162 -87 270 -138 198 -92 205 -95 205 -80 0 18
-139 90 -332 172 -153 65 -198 79 -143 46z"/>
<path d="M9920 2720 c0 -5 9 -10 20 -10 11 0 20 5 20 10 0 6 -9 10 -20 10 -11
0 -20 -4 -20 -10z"/>
<path d="M4470 2439 c5 -24 16 -84 26 -134 9 -49 21 -101 26 -115 6 -14 13
-45 17 -70 6 -41 8 -43 19 -24 6 12 16 51 22 89 6 37 24 94 41 127 17 33 29
64 27 70 -7 20 -70 -91 -85 -149 -8 -32 -16 -59 -18 -61 -1 -1 -10 39 -20 90
-20 109 -44 199 -55 212 -4 4 -4 -12 0 -35z"/>
<path d="M4329 2304 c19 -16 61 -65 93 -108 32 -44 58 -73 58 -64 0 26 -70
121 -116 158 -54 43 -82 54 -35 14z"/>
<path d="M9187 2307 c-5 -13 62 -221 80 -250 3 -5 14 19 23 55 9 36 31 91 48
123 34 63 37 84 4 38 -31 -44 -62 -110 -62 -133 0 -11 -4 -20 -10 -20 -5 0
-10 7 -10 16 0 20 -49 167 -59 177 -5 5 -11 2 -14 -6z"/>
<path d="M4730 2273 c-42 -36 -90 -119 -90 -157 0 -11 14 8 30 41 17 33 49 81
71 107 22 25 39 46 37 46 -3 0 -24 -17 -48 -37z"/>
<path d="M9031 2253 c31 -32 77 -87 103 -123 50 -70 60 -67 22 8 -33 65 -109
148 -149 161 -31 11 -29 9 24 -46z"/>
<path d="M7421 2235 c8 -11 32 -42 55 -70 23 -27 61 -85 84 -127 65 -121 81
-112 22 11 -15 33 -55 85 -100 130 -41 42 -69 67 -61 56z"/>
<path d="M7646 2220 c-6 -25 26 -216 39 -228 4 -4 5 11 2 33 -3 22 -9 71 -12
109 -4 38 -11 79 -15 90 -8 20 -8 20 -14 -4z"/>
<path d="M7791 2154 c-43 -49 -75 -127 -69 -171 l4 -28 11 25 c6 14 16 43 22
65 6 22 26 66 45 98 19 31 33 57 31 57 -2 0 -21 -21 -44 -46z"/>
<path d="M9461 2165 c-17 -20 -40 -53 -51 -75 -34 -67 -23 -56 79 82 26 34 4
29 -28 -7z"/>
<path d="M7915 2083 c-33 -33 -80 -102 -73 -108 2 -2 27 27 55 65 29 39 51 70
49 70 -2 0 -16 -12 -31 -27z"/>
<path d="M7460 2012 c78 -81 102 -90 54 -21 -27 39 -98 99 -119 99 -5 0 24
-35 65 -78z"/>
<path d="M115 1386 c88 -31 165 -53 165 -46 0 14 -102 51 -153 56 l-52 4 40
-14z"/>
<path d="M8049 1139 c5 -13 19 -44 32 -69 12 -25 39 -94 60 -155 42 -122 50
-122 18 0 -23 91 -77 213 -103 234 -15 13 -16 12 -7 -10z"/>
<path d="M8351 1068 c-66 -67 -123 -178 -129 -253 -5 -58 13 -79 23 -27 25
121 59 196 127 275 62 71 49 75 -21 5z"/>
<path d="M7855 1058 c39 -30 128 -119 183 -183 l43 -50 -23 43 c-35 67 -120
155 -179 185 -47 24 -50 25 -24 5z"/>
<path d="M8525 998 c-22 -11 -55 -34 -72 -51 -36 -33 -128 -166 -121 -173 3
-2 33 32 67 76 62 78 101 118 151 152 34 23 23 21 -25 -4z"/>
<path d="M5664 951 c-65 -40 -154 -202 -154 -281 0 -48 16 -34 29 25 17 75 61
160 116 223 26 28 45 52 43 52 -2 0 -17 -9 -34 -19z"/>
<path d="M5310 915 c8 -11 28 -36 44 -55 16 -19 49 -76 73 -127 24 -51 45 -93
47 -93 9 0 -23 98 -47 145 -14 28 -49 73 -78 100 -29 28 -47 41 -39 30z"/>
<path d="M5160 890 c0 -9 21 -36 46 -60 25 -25 72 -85 105 -134 65 -98 78 -99
27 -2 -35 65 -177 222 -178 196z"/>
<path d="M5721 771 c-26 -28 -91 -140 -91 -157 0 -13 15 7 74 99 58 90 63 108
17 58z"/>
</g>
</svg>
